M48
;Layer_Color=9474304
;FILE_FORMAT=4:2
METRIC,LZ
;TYPE=PLATED
T1F00S00C0.38
T2F00S00C0.71
T3F00S00C0.76
T4F00S00C0.90
T5F00S00C3.20
%
T01
X001341Y000688
X001003Y001882
X001605Y003477
X001892Y003221
X002184Y003005
X003053Y002327
X002794Y001679
X002497Y000419
X003515Y003292
X003236Y003642
X006424Y007287
X005171Y005382
X003556Y005679
X002916Y005946
X002464Y006162
X002032Y006274
X00204Y006566
X002738Y005009
X002893Y004775
X002741Y004585
X003272Y004796
X003868Y004762
X002301Y004056
X001811Y007658
X001278Y007894
T02
X00071Y00135
X001887Y002654
Y00301
X00176Y003589
X002032Y003668
X002764Y002891
X002779Y002268
X003518Y002169
X003876Y003523
X003833Y003691
X002007Y001293
X006436Y006967
X004036Y006614
X003868Y006469
X004336Y005888
X002601Y006662
X002634Y007051
X00208Y005585
X001842Y00537
X001648Y005425
X001529Y005154
X001595Y00459
X001821Y004602
X00062Y004905
X000765Y005156
X001341Y0057
X001295Y006561
X001387Y007127
X001676Y007112
X001862Y00714
X000312Y007231
X000373Y006114
X001085Y008031
X001842Y008164
T03
X002413Y003081
X004333Y002134
X005522Y006977
T04
X000998Y005466
Y00572
Y005974
T05
X000351Y002901
X004351Y002652
Y003251
Y00635
Y006952
X000351Y006701
M30
