%FSLAX42Y42*%
%MOMM*%
G71*
G01*
G75*
G04 Layer_Color=8388736*
%ADD10R,3.00X1.50*%
%ADD11R,1.50X1.00*%
%ADD12R,1.00X1.50*%
%ADD13R,1.27X1.02*%
%ADD14R,1.02X1.27*%
%ADD15R,1.20X0.30*%
%ADD16R,0.30X1.20*%
%ADD17R,1.20X2.50*%
%ADD18R,2.00X3.20*%
%ADD19R,2.16X2.74*%
%ADD20R,3.20X2.00*%
%ADD21R,2.90X5.40*%
%ADD22R,3.30X1.50*%
%ADD23R,1.02X2.79*%
%ADD24R,10.41X11.94*%
%ADD25R,1.30X6.00*%
%ADD26C,0.25*%
%ADD27C,1.02*%
%ADD28C,0.76*%
%ADD29C,0.64*%
%ADD30C,0.51*%
%ADD31C,1.52*%
%ADD32C,0.38*%
%ADD33R,1.50X1.50*%
%ADD34C,1.50*%
%ADD35P,4.33X8X22.5*%
%ADD36C,0.76*%
%ADD37C,1.52*%
%ADD38C,1.27*%
%ADD39R,1.80X1.40*%
%ADD40R,1.14X0.30*%
%ADD41R,5.00X1.00*%
G04:AMPARAMS|DCode=42|XSize=1mm|YSize=5mm|CornerRadius=0mm|HoleSize=0mm|Usage=FLASHONLY|Rotation=315.000|XOffset=0mm|YOffset=0mm|HoleType=Round|Shape=Rectangle|*
%AMROTATEDRECTD42*
4,1,4,-2.12,-1.41,1.41,2.12,2.12,1.41,-1.41,-2.12,-2.12,-1.41,0.0*
%
%ADD42ROTATEDRECTD42*%

%ADD43R,1.00X5.00*%
G04:AMPARAMS|DCode=44|XSize=1mm|YSize=5mm|CornerRadius=0mm|HoleSize=0mm|Usage=FLASHONLY|Rotation=102.000|XOffset=0mm|YOffset=0mm|HoleType=Round|Shape=Rectangle|*
%AMROTATEDRECTD44*
4,1,4,2.55,0.03,-2.34,-1.01,-2.55,-0.03,2.34,1.01,2.55,0.03,0.0*
%
%ADD44ROTATEDRECTD44*%

G04:AMPARAMS|DCode=45|XSize=1mm|YSize=5mm|CornerRadius=0mm|HoleSize=0mm|Usage=FLASHONLY|Rotation=78.000|XOffset=0mm|YOffset=0mm|HoleType=Round|Shape=Rectangle|*
%AMROTATEDRECTD45*
4,1,4,2.34,-1.01,-2.55,0.03,-2.34,1.01,2.55,-0.03,2.34,-1.01,0.0*
%
%ADD45ROTATEDRECTD45*%

G04:AMPARAMS|DCode=46|XSize=1mm|YSize=5mm|CornerRadius=0mm|HoleSize=0mm|Usage=FLASHONLY|Rotation=225.000|XOffset=0mm|YOffset=0mm|HoleType=Round|Shape=Rectangle|*
%AMROTATEDRECTD46*
4,1,4,-1.41,2.12,2.12,-1.41,1.41,-2.12,-2.12,1.41,-1.41,2.12,0.0*
%
%ADD46ROTATEDRECTD46*%

G04:AMPARAMS|DCode=47|XSize=1.8mm|YSize=1.2mm|CornerRadius=0mm|HoleSize=0mm|Usage=FLASHONLY|Rotation=225.000|XOffset=0mm|YOffset=0mm|HoleType=Round|Shape=Rectangle|*
%AMROTATEDRECTD47*
4,1,4,0.21,1.06,1.06,0.21,-0.21,-1.06,-1.06,-0.21,0.21,1.06,0.0*
%
%ADD47ROTATEDRECTD47*%

G04:AMPARAMS|DCode=48|XSize=1.55mm|YSize=0.6mm|CornerRadius=0mm|HoleSize=0mm|Usage=FLASHONLY|Rotation=225.000|XOffset=0mm|YOffset=0mm|HoleType=Round|Shape=Rectangle|*
%AMROTATEDRECTD48*
4,1,4,0.34,0.76,0.76,0.34,-0.34,-0.76,-0.76,-0.34,0.34,0.76,0.0*
%
%ADD48ROTATEDRECTD48*%

G04:AMPARAMS|DCode=49|XSize=1.8mm|YSize=1.2mm|CornerRadius=0mm|HoleSize=0mm|Usage=FLASHONLY|Rotation=135.000|XOffset=0mm|YOffset=0mm|HoleType=Round|Shape=Rectangle|*
%AMROTATEDRECTD49*
4,1,4,1.06,-0.21,0.21,-1.06,-1.06,0.21,-0.21,1.06,1.06,-0.21,0.0*
%
%ADD49ROTATEDRECTD49*%

G04:AMPARAMS|DCode=50|XSize=1.55mm|YSize=0.6mm|CornerRadius=0mm|HoleSize=0mm|Usage=FLASHONLY|Rotation=135.000|XOffset=0mm|YOffset=0mm|HoleType=Round|Shape=Rectangle|*
%AMROTATEDRECTD50*
4,1,4,0.76,-0.34,0.34,-0.76,-0.76,0.34,-0.34,0.76,0.76,-0.34,0.0*
%
%ADD50ROTATEDRECTD50*%

%ADD51R,1.80X1.20*%
%ADD52R,1.55X0.60*%
%ADD53C,1.78*%
%ADD54R,3.36X1.86*%
%ADD55R,1.86X1.36*%
%ADD56R,1.36X1.86*%
%ADD57R,1.63X1.37*%
%ADD58R,1.37X1.63*%
%ADD59R,1.56X0.66*%
%ADD60R,0.66X1.56*%
%ADD61R,1.56X2.86*%
%ADD62R,2.36X3.56*%
%ADD63R,2.51X3.10*%
%ADD64R,3.56X2.36*%
%ADD65R,3.26X5.76*%
%ADD66R,3.66X1.86*%
%ADD67R,1.37X3.15*%
%ADD68R,10.77X12.29*%
%ADD69R,1.66X6.36*%
%ADD70R,1.86X1.86*%
%ADD71C,1.86*%
%ADD72P,4.71X8X22.5*%
%ADD73C,1.12*%
%ADD74C,1.88*%
%ADD75C,1.63*%
D54*
X3116Y1636D02*
D03*
X3566Y1763D02*
D03*
Y1255D02*
D03*
Y1509D02*
D03*
X3116Y1382D02*
D03*
Y1128D02*
D03*
X2428Y2283D02*
D03*
Y2537D02*
D03*
X1978Y2410D02*
D03*
Y2156D02*
D03*
D55*
X786Y8856D02*
D03*
Y8706D02*
D03*
Y8556D02*
D03*
Y8406D02*
D03*
Y8256D02*
D03*
Y8106D02*
D03*
Y7956D02*
D03*
Y7806D02*
D03*
Y7656D02*
D03*
Y7506D02*
D03*
Y7356D02*
D03*
Y7206D02*
D03*
Y7056D02*
D03*
X2085Y7056D02*
D03*
Y7206D02*
D03*
Y7356D02*
D03*
X2085Y7506D02*
D03*
Y7656D02*
D03*
Y7806D02*
D03*
Y7956D02*
D03*
Y8106D02*
D03*
Y8256D02*
D03*
Y8406D02*
D03*
Y8556D02*
D03*
Y8706D02*
D03*
Y8856D02*
D03*
D56*
X910Y6881D02*
D03*
X1060D02*
D03*
X1210D02*
D03*
X1360D02*
D03*
X1510D02*
D03*
X1660D02*
D03*
X1810D02*
D03*
X1960D02*
D03*
X5803Y6165D02*
D03*
X5573D02*
D03*
X5343D02*
D03*
D57*
X2390Y7783D02*
D03*
Y7579D02*
D03*
X3376Y3543D02*
D03*
Y3747D02*
D03*
X2487Y5784D02*
D03*
Y5580D02*
D03*
X3711Y5504D02*
D03*
Y5301D02*
D03*
X3105Y3545D02*
D03*
Y3748D02*
D03*
X2390Y7292D02*
D03*
Y7089D02*
D03*
X2268Y6764D02*
D03*
Y6561D02*
D03*
X6109Y5974D02*
D03*
Y6177D02*
D03*
D58*
X1857Y3874D02*
D03*
X2060D02*
D03*
X3950Y4412D02*
D03*
X3747D02*
D03*
X1857Y4150D02*
D03*
X2060D02*
D03*
X6480Y4562D02*
D03*
X6683D02*
D03*
X3957Y8786D02*
D03*
X3754D02*
D03*
X3950Y8519D02*
D03*
X3747D02*
D03*
X3952Y8250D02*
D03*
X3749D02*
D03*
X3952Y7986D02*
D03*
X3749D02*
D03*
X3952Y7724D02*
D03*
X3749D02*
D03*
X3955Y7457D02*
D03*
X3752D02*
D03*
X3955Y6921D02*
D03*
X3752D02*
D03*
X3950Y7191D02*
D03*
X3747D02*
D03*
X6688Y4877D02*
D03*
X6485D02*
D03*
X3498Y8788D02*
D03*
X3294D02*
D03*
X3487Y8517D02*
D03*
X3284D02*
D03*
X3475Y8247D02*
D03*
X3272D02*
D03*
X3472Y7993D02*
D03*
X3269D02*
D03*
X3475Y7727D02*
D03*
X3272D02*
D03*
X3475Y7457D02*
D03*
X3272D02*
D03*
X3475Y6927D02*
D03*
X3272D02*
D03*
X3472Y7198D02*
D03*
X3269D02*
D03*
D59*
X2302Y4348D02*
D03*
Y4398D02*
D03*
Y4448D02*
D03*
Y4498D02*
D03*
Y4548D02*
D03*
Y4598D02*
D03*
Y4648D02*
D03*
Y4698D02*
D03*
Y4748D02*
D03*
Y4798D02*
D03*
Y4848D02*
D03*
Y4898D02*
D03*
Y4948D02*
D03*
Y4998D02*
D03*
Y5048D02*
D03*
Y5098D02*
D03*
X3452D02*
D03*
Y5048D02*
D03*
Y4998D02*
D03*
Y4948D02*
D03*
Y4898D02*
D03*
Y4848D02*
D03*
Y4798D02*
D03*
Y4748D02*
D03*
Y4698D02*
D03*
Y4648D02*
D03*
Y4598D02*
D03*
Y4548D02*
D03*
Y4498D02*
D03*
Y4448D02*
D03*
Y4398D02*
D03*
Y4348D02*
D03*
D60*
X2502Y5298D02*
D03*
X2552D02*
D03*
X2602D02*
D03*
X2652D02*
D03*
X2702D02*
D03*
X2752D02*
D03*
X2802D02*
D03*
X2852D02*
D03*
X2902D02*
D03*
X2952D02*
D03*
X3002D02*
D03*
X3052D02*
D03*
X3102D02*
D03*
X3152D02*
D03*
X3202D02*
D03*
X3252D02*
D03*
Y4148D02*
D03*
X3202D02*
D03*
X3152D02*
D03*
X3102D02*
D03*
X3052D02*
D03*
X3002D02*
D03*
X2952D02*
D03*
X2902D02*
D03*
X2852D02*
D03*
X2802D02*
D03*
X2752D02*
D03*
X2702D02*
D03*
X2652D02*
D03*
X2602D02*
D03*
X2552D02*
D03*
X2502D02*
D03*
D61*
X382Y594D02*
D03*
X632D02*
D03*
X882D02*
D03*
X1579Y614D02*
D03*
X1829D02*
D03*
X2079D02*
D03*
X4830Y2448D02*
D03*
X5080D02*
D03*
X5330D02*
D03*
D62*
X5271Y6589D02*
D03*
X5870D02*
D03*
D63*
X4898Y3111D02*
D03*
X5348D02*
D03*
D64*
X4661Y4041D02*
D03*
Y4641D02*
D03*
D65*
X6718Y2616D02*
D03*
X5818D02*
D03*
D66*
X5573Y5535D02*
D03*
D67*
X5884Y3721D02*
D03*
X5714D02*
D03*
X5544D02*
D03*
X5374D02*
D03*
X5204D02*
D03*
D68*
X5544Y4591D02*
D03*
D69*
X6837Y3749D02*
D03*
X6307D02*
D03*
D70*
X998Y5974D02*
D03*
D71*
Y5720D02*
D03*
Y5466D02*
D03*
D72*
X351Y6701D02*
D03*
Y2901D02*
D03*
X4351Y6952D02*
D03*
Y6350D02*
D03*
Y3251D02*
D03*
Y2652D02*
D03*
D73*
X5171Y5382D02*
D03*
X3515Y3292D02*
D03*
X1003Y1882D02*
D03*
X2893Y4775D02*
D03*
X2916Y5946D02*
D03*
X2741Y4585D02*
D03*
X1278Y7894D02*
D03*
X3868Y4762D02*
D03*
X3272Y4796D02*
D03*
X1811Y7658D02*
D03*
X2738Y5009D02*
D03*
X2497Y419D02*
D03*
X6424Y7287D02*
D03*
X1605Y3477D02*
D03*
X1892Y3221D02*
D03*
X2184Y3005D02*
D03*
X3236Y3642D02*
D03*
X2301Y4056D02*
D03*
X2464Y6162D02*
D03*
X2032Y6274D02*
D03*
X2040Y6566D02*
D03*
X3053Y2327D02*
D03*
X2794Y1679D02*
D03*
X1341Y688D02*
D03*
X3556Y5679D02*
D03*
D74*
X5522Y6977D02*
D03*
X2413Y3081D02*
D03*
X4333Y2134D02*
D03*
D75*
X2032Y3668D02*
D03*
X3833Y3691D02*
D03*
X1887Y2654D02*
D03*
Y3010D02*
D03*
X620Y4905D02*
D03*
X765Y5156D02*
D03*
X312Y7231D02*
D03*
X373Y6114D02*
D03*
X2779Y2268D02*
D03*
X2764Y2891D02*
D03*
X4336Y5888D02*
D03*
X6436Y6967D02*
D03*
X2080Y5585D02*
D03*
X1842Y8164D02*
D03*
X1862Y7140D02*
D03*
X1676Y7112D02*
D03*
X1085Y8031D02*
D03*
X1387Y7127D02*
D03*
X1529Y5154D02*
D03*
X3518Y2169D02*
D03*
X2007Y1293D02*
D03*
X710Y1350D02*
D03*
X1595Y4590D02*
D03*
X1760Y3589D02*
D03*
X1821Y4602D02*
D03*
X4036Y6614D02*
D03*
X2601Y6662D02*
D03*
X3868Y6469D02*
D03*
X2634Y7051D02*
D03*
X1295Y6561D02*
D03*
X1341Y5700D02*
D03*
X3876Y3523D02*
D03*
X1842Y5370D02*
D03*
X1648Y5425D02*
D03*
M02*
