%FSLAX23Y23*%
%MOIN*%
G70*
G01*
G75*
G04 Layer_Physical_Order=1*
G04 Layer_Color=255*
%ADD10R,0.410X0.470*%
%ADD11R,0.040X0.110*%
%ADD12R,0.012X0.047*%
%ADD13R,0.047X0.012*%
%ADD14R,0.114X0.213*%
%ADD15R,0.126X0.079*%
%ADD16R,0.050X0.040*%
%ADD17R,0.085X0.108*%
%ADD18R,0.079X0.126*%
%ADD19R,0.040X0.050*%
%ADD20R,0.047X0.098*%
%ADD21R,0.039X0.059*%
%ADD22R,0.059X0.039*%
%ADD23R,0.051X0.236*%
%ADD24R,0.118X0.059*%
%ADD25R,0.079X0.071*%
%ADD26R,0.130X0.059*%
%ADD27C,0.040*%
%ADD28C,0.010*%
%ADD29C,0.030*%
%ADD30C,0.020*%
%ADD31C,0.015*%
%ADD32C,0.011*%
%ADD33C,0.059*%
%ADD34R,0.059X0.059*%
%ADD35P,0.170X8X22.5*%
%ADD36C,0.050*%
G36*
X5138Y4595D02*
X5134Y4594D01*
X5128Y4588D01*
X5122Y4582D01*
X5119Y4574D01*
X5118Y4565D01*
X5119Y4556D01*
X5122Y4548D01*
X5128Y4541D01*
X5134Y4536D01*
X5135Y4536D01*
X5134Y4531D01*
X5124Y4530D01*
X5109Y4545D01*
Y4621D01*
X5121Y4633D01*
X5121Y4633D01*
X5121Y4633D01*
X5124Y4637D01*
X5125Y4642D01*
Y4695D01*
X5128D01*
Y4697D01*
X5138D01*
Y4595D01*
D02*
G37*
G36*
X4523Y5142D02*
X4521Y5136D01*
X4520Y5127D01*
X4521Y5118D01*
X4524Y5110D01*
X4529Y5103D01*
X4536Y5098D01*
X4544Y5095D01*
X4545Y5095D01*
Y4553D01*
X4507Y4515D01*
X4504Y4511D01*
X4503Y4506D01*
Y3706D01*
X4504Y3701D01*
X4507Y3697D01*
X4507Y3697D01*
X4507Y3697D01*
X4638Y3566D01*
X4636Y3561D01*
X4525D01*
X4471Y3615D01*
Y4639D01*
X4476Y4641D01*
X4476Y4640D01*
X4483Y4635D01*
X4491Y4632D01*
X4500Y4631D01*
X4509Y4632D01*
X4517Y4635D01*
X4524Y4640D01*
X4529Y4647D01*
X4532Y4655D01*
X4533Y4664D01*
X4532Y4673D01*
X4529Y4681D01*
X4524Y4688D01*
X4517Y4693D01*
X4513Y4694D01*
Y5139D01*
X4519Y5144D01*
X4523Y5142D01*
D02*
G37*
G36*
X4815Y4663D02*
X4810Y4662D01*
X4810Y4663D01*
X4804Y4670D01*
X4797Y4676D01*
X4792Y4677D01*
Y4793D01*
X4815D01*
Y4663D01*
D02*
G37*
G36*
X4710Y4923D02*
X4711Y4916D01*
X4714Y4908D01*
X4720Y4902D01*
X4727Y4896D01*
X4735Y4893D01*
X4743Y4892D01*
X4752Y4893D01*
X4752Y4893D01*
X4754Y4888D01*
X4751Y4885D01*
X4748Y4881D01*
X4747Y4876D01*
Y4847D01*
X4748Y4842D01*
X4751Y4837D01*
X4751Y4837D01*
X4751Y4837D01*
X4766Y4822D01*
Y4677D01*
X4761Y4676D01*
X4754Y4670D01*
X4748Y4663D01*
X4748Y4661D01*
X4743Y4662D01*
Y4696D01*
X4738D01*
Y4733D01*
X4743D01*
Y4799D01*
X4695D01*
Y4915D01*
X4705Y4925D01*
X4710Y4923D01*
D02*
G37*
G36*
X4860Y4720D02*
X4865Y4720D01*
X4872Y4713D01*
X4878Y4709D01*
X4881Y4708D01*
Y4697D01*
X4918D01*
X4920Y4692D01*
X4853Y4625D01*
X4849Y4628D01*
X4850Y4629D01*
X4851Y4636D01*
Y4717D01*
X4855Y4720D01*
X4860Y4720D01*
D02*
G37*
G36*
X5825Y4566D02*
Y4384D01*
X5786D01*
Y4325D01*
X5838D01*
Y4315D01*
X5786D01*
Y4264D01*
X5602D01*
X5583Y4284D01*
X5584Y4288D01*
X5666D01*
X5710Y4332D01*
Y4418D01*
X5666Y4462D01*
X5580D01*
X5536Y4418D01*
Y4336D01*
X5532Y4335D01*
X5402Y4464D01*
X5403Y4465D01*
X5406Y4473D01*
X5407Y4482D01*
X5407Y4486D01*
X5410Y4491D01*
X5410Y4491D01*
X5418Y4488D01*
X5427Y4487D01*
X5436Y4488D01*
X5444Y4491D01*
X5451Y4496D01*
X5456Y4503D01*
X5459Y4511D01*
X5460Y4520D01*
X5459Y4529D01*
X5458Y4532D01*
X5507Y4582D01*
X5708D01*
X5709Y4578D01*
X5714Y4571D01*
X5721Y4566D01*
X5729Y4563D01*
X5738Y4562D01*
X5747Y4563D01*
X5755Y4566D01*
X5762Y4571D01*
X5767Y4578D01*
X5770Y4586D01*
X5771Y4595D01*
X5770Y4604D01*
X5767Y4612D01*
X5764Y4616D01*
X5766Y4620D01*
X5771D01*
X5825Y4566D01*
D02*
G37*
G36*
X4822Y4550D02*
X4822Y4545D01*
X4823Y4536D01*
X4826Y4528D01*
X4831Y4521D01*
X4838Y4516D01*
X4846Y4513D01*
X4855Y4512D01*
X4861Y4513D01*
X4863Y4508D01*
X4859Y4504D01*
X4856Y4505D01*
X4847Y4506D01*
X4838Y4505D01*
X4830Y4502D01*
X4823Y4497D01*
X4818Y4490D01*
X4815Y4482D01*
X4814Y4473D01*
X4815Y4464D01*
X4816Y4461D01*
X4812Y4458D01*
X4807Y4463D01*
X4807Y4463D01*
X4806Y4472D01*
X4803Y4480D01*
X4798Y4487D01*
X4791Y4492D01*
X4783Y4495D01*
X4774Y4496D01*
X4765Y4495D01*
X4765Y4495D01*
X4758Y4502D01*
X4758Y4502D01*
X4754Y4507D01*
X4749Y4511D01*
X4749Y4511D01*
Y4531D01*
X4753Y4533D01*
X4757Y4530D01*
X4765Y4527D01*
X4774Y4526D01*
X4783Y4527D01*
X4791Y4530D01*
X4798Y4535D01*
X4803Y4542D01*
X4804Y4546D01*
X4806D01*
X4811Y4547D01*
X4815Y4550D01*
X4815Y4550D01*
X4815Y4550D01*
X4818Y4552D01*
X4822Y4550D01*
D02*
G37*
G36*
X5233Y4667D02*
X5234Y4659D01*
X5236Y4654D01*
X5233Y4650D01*
X5184D01*
Y4594D01*
X5245D01*
X5247Y4589D01*
X5243Y4586D01*
X5226Y4570D01*
X5184D01*
X5184Y4570D01*
Y4570D01*
X5184Y4570D01*
X5183Y4574D01*
X5180Y4582D01*
X5175Y4588D01*
X5168Y4594D01*
X5164Y4595D01*
Y4697D01*
X5203D01*
X5233Y4667D01*
D02*
G37*
G36*
X5003Y4664D02*
Y4581D01*
X4964D01*
Y4566D01*
X4946D01*
Y4580D01*
X4902D01*
X4900Y4585D01*
X4972Y4657D01*
X4984D01*
X4989Y4658D01*
X4993Y4661D01*
X4999Y4666D01*
X5003Y4664D01*
D02*
G37*
G36*
X4669Y4916D02*
Y4801D01*
X4665D01*
Y4801D01*
X4640D01*
Y4766D01*
X4630D01*
Y4801D01*
X4608D01*
Y4863D01*
X4664Y4918D01*
X4669Y4916D01*
D02*
G37*
G36*
X5097Y5145D02*
X5082Y5129D01*
X5079Y5125D01*
X5078Y5120D01*
Y5040D01*
X5079Y5035D01*
X5082Y5031D01*
X5082Y5031D01*
X5082Y5031D01*
X5102Y5011D01*
Y4990D01*
X5097Y4988D01*
X5093Y4992D01*
X5085Y4995D01*
X5076Y4996D01*
X5070Y4995D01*
X5066Y4999D01*
Y5149D01*
X5095D01*
X5097Y5145D01*
D02*
G37*
G36*
X5039Y4986D02*
X5040Y4981D01*
X5043Y4977D01*
X5043Y4977D01*
X5043Y4977D01*
X5045Y4975D01*
X5044Y4972D01*
X5043Y4963D01*
X5044Y4954D01*
X5047Y4946D01*
X5050Y4943D01*
X5048Y4938D01*
X4979D01*
X4967Y4951D01*
X4968Y4954D01*
X4969Y4963D01*
X4968Y4972D01*
X4965Y4980D01*
X4960Y4987D01*
X4953Y4992D01*
X4945Y4995D01*
X4939Y4996D01*
X4937Y5001D01*
X5002Y5065D01*
X5002Y5065D01*
X5010Y5068D01*
X5017Y5073D01*
X5022Y5080D01*
X5025Y5088D01*
X5026Y5097D01*
X5025Y5106D01*
X5022Y5114D01*
X5017Y5121D01*
X5010Y5126D01*
X5002Y5129D01*
X4993Y5130D01*
X4984Y5129D01*
X4976Y5126D01*
X4972Y5122D01*
X4968Y5125D01*
Y5149D01*
X5039D01*
Y4986D01*
D02*
G37*
G36*
X4938Y5109D02*
X4941Y5105D01*
Y5104D01*
X4925Y5088D01*
X4922Y5089D01*
X4913Y5090D01*
X4904Y5089D01*
X4896Y5086D01*
X4889Y5081D01*
X4884Y5074D01*
X4881Y5066D01*
X4880Y5057D01*
X4881Y5048D01*
X4884Y5040D01*
X4889Y5033D01*
X4896Y5028D01*
X4904Y5025D01*
X4913Y5024D01*
X4917Y5024D01*
X4919Y5020D01*
X4853Y4953D01*
X4848Y4955D01*
Y4970D01*
Y4990D01*
Y5010D01*
Y5029D01*
Y5049D01*
Y5069D01*
Y5088D01*
Y5110D01*
X4933D01*
X4935Y5110D01*
X4937Y5111D01*
X4938Y5109D01*
D02*
G37*
G36*
X4621Y5114D02*
X4621D01*
X4621Y5114D01*
X4621D01*
X4621Y5114D01*
Y5114D01*
X4621Y5114D01*
Y5114D01*
X4625Y5111D01*
X4630Y5110D01*
X4664D01*
X4666Y5105D01*
X4576Y5015D01*
X4571Y5017D01*
Y5099D01*
X4577Y5103D01*
X4582Y5110D01*
X4585Y5118D01*
X4586Y5127D01*
X4585Y5136D01*
X4582Y5144D01*
X4577Y5150D01*
X4577Y5151D01*
X4582Y5152D01*
X4621Y5114D01*
D02*
G37*
G36*
X5831Y4936D02*
X5773D01*
Y4973D01*
X5705D01*
Y4923D01*
Y4874D01*
X5773D01*
Y4910D01*
X5831D01*
Y4676D01*
X5826Y4674D01*
X5797Y4704D01*
X5789Y4709D01*
X5780Y4710D01*
X5771D01*
Y4734D01*
X5629D01*
Y4647D01*
X5502D01*
X5470Y4678D01*
X5471Y4681D01*
X5441D01*
Y4651D01*
X5445Y4652D01*
X5454Y4655D01*
X5455Y4656D01*
X5487Y4624D01*
X5492Y4621D01*
X5497Y4620D01*
X5710D01*
X5712Y4616D01*
X5709Y4612D01*
X5708Y4608D01*
X5502D01*
X5497Y4607D01*
X5493Y4604D01*
X5439Y4551D01*
X5436Y4552D01*
X5427Y4553D01*
X5418Y4552D01*
X5410Y4549D01*
X5403Y4544D01*
X5398Y4537D01*
X5395Y4529D01*
X5394Y4520D01*
X5394Y4516D01*
X5391Y4511D01*
X5391Y4511D01*
X5383Y4514D01*
X5374Y4515D01*
X5365Y4514D01*
X5357Y4511D01*
X5350Y4506D01*
X5345Y4499D01*
X5340D01*
X5340Y4500D01*
X5333Y4505D01*
X5332Y4505D01*
X5333Y4510D01*
X5348D01*
Y4527D01*
X5368D01*
X5373Y4528D01*
X5377Y4531D01*
X5397Y4551D01*
X5400Y4555D01*
X5401Y4560D01*
X5401Y4560D01*
X5401Y4560D01*
Y4560D01*
Y4666D01*
X5406Y4668D01*
X5411Y4661D01*
X5418Y4655D01*
X5427Y4652D01*
X5431Y4651D01*
Y4686D01*
X5436D01*
Y4691D01*
X5471D01*
X5470Y4695D01*
X5467Y4704D01*
X5463Y4708D01*
Y4803D01*
X5480D01*
Y4833D01*
X5420D01*
Y4803D01*
X5420Y4803D01*
X5420D01*
X5421Y4800D01*
X5379Y4757D01*
X5378Y4756D01*
X5367D01*
Y4800D01*
X5367Y4801D01*
X5370Y4805D01*
X5398D01*
Y4870D01*
X5420D01*
Y4843D01*
X5480D01*
Y4845D01*
X5551D01*
X5556Y4846D01*
X5561Y4849D01*
X5561Y4849D01*
X5561Y4849D01*
X5621Y4910D01*
X5627D01*
Y4874D01*
X5695D01*
Y4923D01*
Y4973D01*
X5649D01*
X5647Y4977D01*
X5822Y5153D01*
X5831D01*
Y4936D01*
D02*
G37*
G36*
X4785Y5088D02*
Y5069D01*
Y5049D01*
Y5029D01*
Y5010D01*
Y4997D01*
X4711D01*
X4706Y4996D01*
X4702Y4994D01*
X4595Y4887D01*
X4590Y4889D01*
Y4992D01*
X4688Y5089D01*
X4785D01*
Y5088D01*
D02*
G37*
G36*
X5020Y4853D02*
Y4760D01*
X4892D01*
X4892Y4762D01*
X4889Y4770D01*
X4884Y4777D01*
X4877Y4782D01*
X4869Y4785D01*
X4860Y4786D01*
X4855Y4786D01*
X4851Y4789D01*
Y4802D01*
X4850Y4809D01*
X4849Y4810D01*
X4850Y4811D01*
X4850D01*
X4850Y4811D01*
Y4822D01*
X4816D01*
Y4832D01*
X4850D01*
Y4833D01*
X4873D01*
X4887Y4819D01*
X4886Y4816D01*
X4885Y4807D01*
X4886Y4798D01*
X4889Y4790D01*
X4894Y4783D01*
X4901Y4778D01*
X4909Y4775D01*
X4918Y4774D01*
X4927Y4775D01*
X4935Y4778D01*
X4942Y4783D01*
X4947Y4790D01*
X4950Y4798D01*
X4951Y4807D01*
X4951Y4809D01*
X4955Y4811D01*
X4963Y4808D01*
X4972Y4807D01*
X4981Y4808D01*
X4989Y4811D01*
X4995Y4816D01*
X5001Y4823D01*
X5004Y4831D01*
X5005Y4840D01*
X5004Y4849D01*
X5001Y4857D01*
X4995Y4864D01*
X4989Y4869D01*
X4981Y4872D01*
X4972Y4873D01*
X4963Y4872D01*
X4960Y4871D01*
X4955Y4875D01*
X4951Y4878D01*
X4946Y4879D01*
X4935D01*
X4932Y4884D01*
X4936Y4888D01*
X4937Y4892D01*
X4981D01*
X5020Y4853D01*
D02*
G37*
G36*
X5161Y5038D02*
Y4860D01*
X5162Y4855D01*
X5165Y4850D01*
X5214Y4801D01*
X5212Y4796D01*
X5154D01*
X5149Y4795D01*
X5145Y4792D01*
X5122Y4769D01*
X5119Y4765D01*
X5119Y4762D01*
X5117D01*
Y4728D01*
X5107D01*
Y4762D01*
X5096D01*
Y4760D01*
X5046D01*
Y4858D01*
X5045Y4863D01*
X5042Y4867D01*
X5003Y4907D01*
X5005Y4912D01*
X5100D01*
X5105Y4913D01*
X5109Y4916D01*
X5109Y4916D01*
X5109Y4916D01*
X5124Y4931D01*
X5124Y4931D01*
X5124Y4931D01*
X5127Y4935D01*
X5128Y4940D01*
Y5016D01*
X5127Y5021D01*
X5135Y5026D01*
X5138Y5027D01*
X5146Y5030D01*
X5153Y5035D01*
X5156Y5040D01*
X5161Y5038D01*
D02*
G37*
G36*
X5778Y5184D02*
X5512Y4919D01*
X5484D01*
X5482Y4923D01*
X5747Y5189D01*
X5776D01*
X5778Y5184D01*
D02*
G37*
G36*
X4247Y4984D02*
Y4982D01*
X4248Y4977D01*
X4251Y4973D01*
X4427Y4797D01*
Y4742D01*
X4163D01*
Y4655D01*
Y4565D01*
Y4490D01*
X4158Y4488D01*
X4121Y4525D01*
Y4865D01*
X4242Y4986D01*
X4247Y4984D01*
D02*
G37*
G36*
X3989Y5267D02*
Y4522D01*
X3990Y4517D01*
X3993Y4513D01*
X3993Y4513D01*
X3993Y4513D01*
X4337Y4169D01*
Y4156D01*
X4333Y4155D01*
X4326Y4150D01*
X4321Y4143D01*
X4318Y4135D01*
X4317Y4126D01*
X4318Y4117D01*
X4321Y4109D01*
X4326Y4102D01*
X4333Y4097D01*
X4341Y4094D01*
X4350Y4093D01*
X4359Y4094D01*
X4364Y4096D01*
X4367Y4092D01*
X4359Y4084D01*
X4239D01*
X4230Y4083D01*
X4222Y4078D01*
X4222Y4078D01*
X4182Y4038D01*
X4179Y4033D01*
X4174Y4034D01*
Y4312D01*
X4173Y4318D01*
X4173Y4320D01*
X4169Y4325D01*
X3974Y4520D01*
Y5258D01*
X3980Y5262D01*
X3984Y5268D01*
X3989Y5267D01*
D02*
G37*
G36*
X4445Y4013D02*
Y3610D01*
X4446Y3605D01*
X4449Y3601D01*
X4449Y3601D01*
X4449Y3601D01*
X4502Y3547D01*
X4500Y3543D01*
X4267D01*
Y3963D01*
X4271Y3964D01*
X4279Y3970D01*
X4284Y3977D01*
X4286Y3982D01*
X4401D01*
X4406Y3983D01*
X4410Y3986D01*
X4410Y3986D01*
X4410Y3986D01*
X4440Y4015D01*
X4445Y4013D01*
D02*
G37*
G36*
X5570Y4229D02*
X5575Y4226D01*
X5575Y4221D01*
X5536Y4182D01*
Y4096D01*
X5578Y4054D01*
X5576Y4049D01*
X5534D01*
X5532Y4053D01*
X5527Y4060D01*
X5520Y4065D01*
X5512Y4068D01*
X5503Y4069D01*
X5495Y4068D01*
X5487Y4065D01*
X5480Y4060D01*
X5474Y4053D01*
X5473Y4049D01*
X5425D01*
Y4064D01*
X5363D01*
X5363Y4066D01*
X5365Y4070D01*
X5422D01*
X5427Y4071D01*
X5432Y4074D01*
X5432Y4074D01*
X5432Y4074D01*
X5439Y4081D01*
X5442Y4086D01*
X5443Y4091D01*
Y4291D01*
X5447Y4292D01*
X5454Y4297D01*
X5459Y4304D01*
X5462Y4312D01*
X5463Y4321D01*
X5462Y4330D01*
X5461Y4332D01*
X5466Y4334D01*
X5570Y4229D01*
D02*
G37*
G36*
X4427Y4079D02*
Y4039D01*
X4396Y4008D01*
X4286D01*
X4284Y4013D01*
X4279Y4020D01*
X4271Y4026D01*
X4263Y4029D01*
X4259Y4030D01*
Y3995D01*
X4249D01*
Y4030D01*
X4247Y4029D01*
X4245Y4034D01*
X4249Y4038D01*
X4369D01*
X4378Y4039D01*
X4386Y4044D01*
X4386Y4044D01*
X4386Y4044D01*
X4422Y4081D01*
X4427Y4079D01*
D02*
G37*
G36*
X5884Y4203D02*
X5885Y4196D01*
X5886Y4194D01*
X5888Y4189D01*
X5892Y4183D01*
X5977Y4098D01*
Y4002D01*
X5980D01*
Y3958D01*
X5967Y3945D01*
X5624D01*
X5617Y3944D01*
X5610Y3941D01*
X5604Y3937D01*
X5527Y3860D01*
X5523Y3854D01*
X5521Y3849D01*
X5520Y3847D01*
X5519Y3840D01*
Y3573D01*
X5381Y3435D01*
X4985D01*
X4978Y3434D01*
X4971Y3431D01*
X4965Y3427D01*
X4741Y3203D01*
X4323D01*
X4322Y3208D01*
X4325Y3209D01*
X4332Y3215D01*
X4338Y3222D01*
X4341Y3231D01*
X4342Y3235D01*
X4272D01*
X4273Y3231D01*
X4276Y3222D01*
X4282Y3215D01*
X4289Y3209D01*
X4292Y3208D01*
X4291Y3203D01*
X4144D01*
X4030Y3317D01*
X4032Y3322D01*
X4039Y3321D01*
X4048Y3322D01*
X4056Y3325D01*
X4063Y3330D01*
X4068Y3337D01*
X4071Y3345D01*
X4072Y3354D01*
X4072Y3354D01*
X4216Y3497D01*
X4221Y3505D01*
X4222Y3514D01*
X4222Y3514D01*
Y3970D01*
X4227Y3972D01*
X4229Y3970D01*
X4236Y3964D01*
X4240Y3963D01*
Y3487D01*
X4220D01*
Y3433D01*
X4287D01*
Y3487D01*
X4267D01*
Y3516D01*
X4610D01*
X4620Y3506D01*
Y3487D01*
X4600D01*
Y3433D01*
X4634D01*
Y3428D01*
X4639D01*
Y3369D01*
X4658D01*
Y3362D01*
X4623Y3327D01*
X4386D01*
X4365Y3348D01*
Y3371D01*
X4384D01*
Y3485D01*
X4320D01*
Y3371D01*
X4339D01*
Y3343D01*
X4340Y3338D01*
X4343Y3334D01*
X4372Y3305D01*
X4376Y3302D01*
X4381Y3301D01*
X4628D01*
X4633Y3302D01*
X4637Y3305D01*
X4637Y3305D01*
X4637Y3305D01*
X4680Y3348D01*
X4683Y3352D01*
X4684Y3357D01*
X4684Y3357D01*
X4684Y3357D01*
Y3357D01*
Y3513D01*
X4689Y3515D01*
X4714Y3490D01*
X4712Y3485D01*
X4700D01*
Y3371D01*
X4764D01*
Y3485D01*
X4745D01*
Y3490D01*
X4745Y3490D01*
X4745Y3490D01*
Y3490D01*
X4745D01*
X4745Y3490D01*
X4744Y3495D01*
X4741Y3500D01*
X4531Y3710D01*
X4533Y3714D01*
X4534Y3715D01*
X4536Y3713D01*
X4536Y3713D01*
X4536Y3713D01*
X4719Y3530D01*
X4723Y3527D01*
X4728Y3526D01*
X5070D01*
Y3501D01*
X5204D01*
Y3577D01*
X5204D01*
X5204Y3577D01*
X5207Y3580D01*
X5207Y3580D01*
X5207Y3580D01*
X5218Y3591D01*
X5218D01*
D01*
X5221Y3588D01*
X5221Y3588D01*
Y3588D01*
X5223Y3587D01*
X5231Y3580D01*
X5235Y3577D01*
X5240Y3576D01*
X5247D01*
Y3551D01*
X5381D01*
Y3627D01*
X5247D01*
D01*
X5247D01*
X5245Y3629D01*
Y3649D01*
X5245D01*
Y3649D01*
X5309D01*
Y3689D01*
Y3729D01*
X5254D01*
Y3751D01*
X5381D01*
Y3827D01*
X5327D01*
Y4035D01*
X5354Y4062D01*
X5359Y4060D01*
Y4008D01*
X5425D01*
Y4023D01*
X5473D01*
X5474Y4019D01*
X5480Y4012D01*
X5487Y4007D01*
X5495Y4004D01*
X5503Y4003D01*
X5512Y4004D01*
X5520Y4007D01*
X5527Y4012D01*
X5532Y4019D01*
X5534Y4023D01*
X5597D01*
X5638Y3982D01*
X5638Y3982D01*
X5638D01*
X5638Y3982D01*
X5638D01*
X5638Y3982D01*
Y3982D01*
Y3982D01*
D01*
D01*
X5638D01*
Y3982D01*
X5642Y3979D01*
X5647Y3978D01*
X5900D01*
X5905Y3979D01*
X5909Y3982D01*
X5909Y3982D01*
X5909Y3982D01*
X5919Y3992D01*
X5922Y3996D01*
X5923Y4001D01*
Y4002D01*
X5942D01*
Y4116D01*
X5878D01*
Y4004D01*
X5843D01*
Y4116D01*
X5780D01*
Y4004D01*
X5652D01*
X5611Y4045D01*
X5608Y4047D01*
X5610Y4052D01*
X5666D01*
X5710Y4096D01*
Y4182D01*
X5669Y4223D01*
X5671Y4228D01*
X5884D01*
Y4203D01*
D02*
G37*
G36*
X4586Y3953D02*
X4594Y3950D01*
X4603Y3949D01*
X4609Y3949D01*
X4622Y3936D01*
Y3906D01*
X4756D01*
Y3928D01*
X4761Y3930D01*
X5061Y3630D01*
X5065Y3627D01*
X5070Y3626D01*
Y3602D01*
X4716D01*
X4578Y3740D01*
Y3954D01*
X4583Y3956D01*
X4586Y3953D01*
D02*
G37*
G36*
X5070Y3552D02*
X4734D01*
X4715Y3571D01*
X4717Y3576D01*
X5070D01*
Y3552D01*
D02*
G37*
G36*
X4751Y3982D02*
X4637D01*
X4636Y3982D01*
X4635Y3991D01*
X4632Y3999D01*
X4629Y4002D01*
X4631Y4006D01*
X4751D01*
Y3982D01*
D02*
G37*
G36*
X5359Y4096D02*
X5357D01*
X5352Y4095D01*
X5348Y4092D01*
X5305Y4049D01*
X5302Y4045D01*
X5301Y4040D01*
Y3827D01*
X5254D01*
Y3952D01*
X5255Y3953D01*
X5264Y3954D01*
X5273Y3957D01*
X5280Y3963D01*
X5286Y3970D01*
X5289Y3979D01*
X5290Y3983D01*
X5255D01*
Y3993D01*
X5290D01*
X5289Y3997D01*
X5287Y4002D01*
X5290Y4006D01*
X5291D01*
Y4031D01*
X5256D01*
Y4036D01*
X5251D01*
Y4069D01*
X5236Y4083D01*
X5238Y4088D01*
X5289D01*
Y4103D01*
X5359D01*
Y4096D01*
D02*
G37*
G36*
X5265Y4395D02*
Y4211D01*
X5228Y4175D01*
X5223Y4177D01*
Y4348D01*
X5225D01*
X5234Y4349D01*
X5242Y4354D01*
X5247Y4362D01*
X5248Y4371D01*
Y4382D01*
X5254Y4388D01*
X5259Y4396D01*
X5260Y4398D01*
X5260Y4398D01*
X5265Y4395D01*
D02*
G37*
G36*
X5002Y4443D02*
X5032D01*
Y4460D01*
X5045D01*
X5085Y4420D01*
X5085D01*
X5085Y4420D01*
X5085D01*
X5085Y4420D01*
Y4420D01*
X5085Y4420D01*
Y4420D01*
X5089Y4417D01*
X5094Y4416D01*
X5166D01*
X5166Y4414D01*
X5172Y4407D01*
X5179Y4401D01*
X5184Y4399D01*
X5183Y4394D01*
X5029D01*
X4985Y4438D01*
X4987Y4443D01*
X4992D01*
Y4473D01*
X5002D01*
Y4443D01*
D02*
G37*
G36*
X5882Y4552D02*
X5884Y4551D01*
Y4384D01*
X5852D01*
Y4571D01*
X5852Y4571D01*
X5852Y4571D01*
Y4571D01*
X5852D01*
X5852Y4571D01*
X5851Y4576D01*
X5850Y4576D01*
X5854Y4580D01*
X5882Y4552D01*
D02*
G37*
G36*
X4642Y4587D02*
X4639Y4580D01*
X4638Y4571D01*
X4639Y4562D01*
X4642Y4554D01*
X4647Y4547D01*
X4654Y4542D01*
X4658Y4541D01*
Y4459D01*
X4653Y4457D01*
X4653Y4458D01*
X4644Y4461D01*
X4640Y4462D01*
Y4427D01*
Y4392D01*
X4644Y4393D01*
X4653Y4396D01*
X4660Y4402D01*
X4666Y4409D01*
X4669Y4418D01*
X4669Y4420D01*
X4674Y4422D01*
X4751Y4345D01*
Y4082D01*
X4691D01*
Y4227D01*
X4697Y4231D01*
X4702Y4238D01*
X4705Y4246D01*
X4706Y4255D01*
X4705Y4264D01*
X4702Y4272D01*
X4697Y4279D01*
X4690Y4284D01*
X4682Y4287D01*
X4673Y4288D01*
X4664Y4287D01*
X4656Y4284D01*
X4649Y4279D01*
X4644Y4272D01*
X4641Y4264D01*
X4640Y4255D01*
X4641Y4246D01*
X4644Y4238D01*
X4649Y4231D01*
X4655Y4227D01*
Y4082D01*
X4622D01*
Y4014D01*
X4618Y4012D01*
X4612Y4014D01*
X4603Y4015D01*
X4594Y4014D01*
X4586Y4011D01*
X4583Y4008D01*
X4578Y4010D01*
Y4383D01*
X4602Y4406D01*
X4607Y4406D01*
X4610Y4402D01*
X4617Y4396D01*
X4626Y4393D01*
X4630Y4392D01*
Y4427D01*
Y4462D01*
X4626Y4465D01*
Y4579D01*
X4638Y4590D01*
X4642Y4587D01*
D02*
G37*
G36*
X5063Y4526D02*
X5101Y4488D01*
X5100Y4485D01*
X5099Y4476D01*
X5100Y4467D01*
X5103Y4459D01*
X5108Y4452D01*
X5115Y4447D01*
X5115Y4447D01*
X5114Y4442D01*
X5099D01*
X5059Y4482D01*
X5055Y4485D01*
X5050Y4486D01*
X5032D01*
Y4499D01*
X5059Y4527D01*
X5063Y4526D01*
D02*
G37*
G36*
X5350Y4458D02*
X5351Y4458D01*
X5352Y4450D01*
X5357Y4442D01*
X5443Y4357D01*
X5441Y4352D01*
X5439Y4353D01*
X5430Y4354D01*
X5421Y4353D01*
X5413Y4350D01*
X5406Y4345D01*
X5401Y4338D01*
X5398Y4330D01*
X5397Y4321D01*
X5398Y4312D01*
X5401Y4304D01*
X5406Y4297D01*
X5413Y4292D01*
X5417Y4291D01*
Y4144D01*
X5359D01*
Y4129D01*
X5329D01*
Y4446D01*
X5333Y4447D01*
X5340Y4452D01*
X5345Y4459D01*
X5350D01*
X5350Y4458D01*
D02*
G37*
G36*
X4314Y4478D02*
X4307Y4475D01*
X4300Y4470D01*
X4295Y4463D01*
X4292Y4455D01*
X4291Y4446D01*
X4292Y4437D01*
X4295Y4429D01*
X4300Y4422D01*
X4307Y4417D01*
X4315Y4414D01*
X4324Y4413D01*
X4333Y4414D01*
X4341Y4417D01*
X4348Y4422D01*
X4353Y4429D01*
X4354Y4433D01*
X4356D01*
X4361Y4434D01*
X4365Y4437D01*
X4365Y4437D01*
X4365Y4437D01*
X4396Y4468D01*
X4399Y4472D01*
X4400Y4477D01*
X4427D01*
Y4228D01*
X4422Y4226D01*
X4178Y4471D01*
X4173Y4473D01*
X4175Y4478D01*
X4257D01*
Y4479D01*
X4261Y4482D01*
X4313D01*
X4314Y4478D01*
D02*
G37*
G36*
X5303Y4401D02*
Y4129D01*
X5289D01*
Y4144D01*
X5241D01*
X5239Y4149D01*
X5287Y4197D01*
X5287Y4197D01*
X5287Y4197D01*
X5290Y4201D01*
X5291Y4206D01*
Y4400D01*
X5296Y4401D01*
X5298Y4403D01*
X5303Y4401D01*
D02*
G37*
G36*
X4742Y4472D02*
X4742Y4472D01*
X4741Y4463D01*
X4742Y4454D01*
X4745Y4446D01*
X4750Y4439D01*
X4757Y4434D01*
X4765Y4431D01*
X4774Y4430D01*
X4774Y4430D01*
X4805Y4398D01*
X4805Y4398D01*
X4811Y4395D01*
X4813Y4393D01*
X4822Y4392D01*
X4822Y4392D01*
X4868D01*
X4877Y4393D01*
X4885Y4398D01*
X4885Y4398D01*
X4885Y4398D01*
X4922Y4435D01*
X5002Y4354D01*
X5010Y4349D01*
X5019Y4348D01*
X5177D01*
Y4179D01*
X5163Y4166D01*
X5158Y4158D01*
X5157Y4149D01*
Y3972D01*
X5158Y3963D01*
X5163Y3955D01*
X5196Y3922D01*
X5199Y3921D01*
Y3777D01*
X5070D01*
Y3701D01*
X5185D01*
X5188Y3699D01*
Y3682D01*
X5188Y3680D01*
X5185Y3677D01*
X5070D01*
Y3664D01*
X5065Y3663D01*
X4777Y3950D01*
Y4351D01*
X4777Y4351D01*
X4777Y4351D01*
D01*
D01*
D01*
X4777D01*
X4781Y4355D01*
D01*
X4785Y4353D01*
X4790Y4352D01*
X4830D01*
X4853Y4328D01*
X4852Y4325D01*
X4851Y4316D01*
X4852Y4307D01*
X4855Y4299D01*
X4860Y4292D01*
X4867Y4287D01*
X4875Y4284D01*
X4884Y4283D01*
X4893Y4284D01*
X4901Y4287D01*
X4908Y4292D01*
X4913Y4299D01*
X4916Y4307D01*
X4917Y4316D01*
X4916Y4325D01*
X4913Y4333D01*
X4908Y4340D01*
X4901Y4345D01*
X4893Y4348D01*
X4884Y4349D01*
X4875Y4348D01*
X4872Y4347D01*
X4844Y4374D01*
X4840Y4377D01*
X4835Y4378D01*
X4795D01*
X4729Y4444D01*
Y4479D01*
X4734Y4481D01*
X4742Y4472D01*
D02*
G37*
G36*
X3927Y5269D02*
X3932Y5262D01*
X3938Y5258D01*
Y4512D01*
X3939Y4507D01*
X3939Y4505D01*
X3943Y4500D01*
X4138Y4305D01*
Y4284D01*
X4133Y4282D01*
X4091Y4324D01*
X4005D01*
X3961Y4280D01*
Y4194D01*
X4005Y4150D01*
X4091D01*
X4133Y4192D01*
X4138Y4190D01*
Y3613D01*
X4131Y3612D01*
X4123Y3609D01*
X4116Y3604D01*
X4111Y3597D01*
X4108Y3589D01*
X4106Y3580D01*
X4108Y3571D01*
X4111Y3563D01*
X4116Y3556D01*
X4123Y3551D01*
X4131Y3548D01*
X4140Y3547D01*
X4148Y3548D01*
X4156Y3551D01*
X4163Y3556D01*
X4169Y3563D01*
X4171Y3568D01*
X4176Y3567D01*
Y3524D01*
X4039Y3387D01*
X4039Y3387D01*
X4030Y3386D01*
X4022Y3383D01*
X4015Y3378D01*
X4010Y3371D01*
X4007Y3363D01*
X4006Y3354D01*
X4007Y3347D01*
X4002Y3345D01*
X3996Y3351D01*
Y4108D01*
X3997Y4108D01*
X4000Y4116D01*
X4001Y4125D01*
X4000Y4134D01*
X3997Y4142D01*
X3992Y4149D01*
X3985Y4154D01*
X3977Y4157D01*
X3968Y4158D01*
X3959Y4157D01*
X3951Y4154D01*
X3944Y4149D01*
X3939Y4142D01*
X3936Y4134D01*
X3935Y4125D01*
X3936Y4116D01*
X3939Y4108D01*
X3940Y4108D01*
Y3339D01*
X3941Y3332D01*
X3942Y3330D01*
X3944Y3325D01*
X3948Y3319D01*
X4112Y3155D01*
X4118Y3151D01*
X4121Y3149D01*
X4125Y3148D01*
X4132Y3147D01*
X4753D01*
X4760Y3148D01*
X4762Y3149D01*
X4767Y3151D01*
X4773Y3155D01*
X4997Y3379D01*
X5393D01*
X5400Y3380D01*
X5402Y3381D01*
X5407Y3383D01*
X5413Y3387D01*
X5567Y3541D01*
X5568Y3542D01*
X5572Y3540D01*
Y3342D01*
X5240D01*
X5238Y3341D01*
X5236Y3341D01*
X5008Y3250D01*
X5008Y3250D01*
X5008Y3250D01*
X5006Y3249D01*
X5005Y3248D01*
X5004Y3248D01*
X5004Y3248D01*
X5003Y3246D01*
X5002Y3244D01*
X5002Y3244D01*
X5002Y3244D01*
X5002Y3242D01*
X5001Y3240D01*
X5001Y3240D01*
X5001Y3240D01*
Y3106D01*
X3921D01*
Y5272D01*
X3926Y5273D01*
X3927Y5269D01*
D02*
G37*
G36*
X5209Y5680D02*
Y5406D01*
X5204Y5405D01*
X5203Y5412D01*
X5200Y5420D01*
X5194Y5427D01*
X5187Y5432D01*
X5179Y5435D01*
X5171Y5436D01*
X5162Y5435D01*
X5154Y5432D01*
X5147Y5427D01*
X5142Y5420D01*
X5139Y5412D01*
X5138Y5403D01*
X5139Y5394D01*
X5142Y5386D01*
X5147Y5379D01*
X5154Y5374D01*
X5158Y5373D01*
Y5213D01*
X5125D01*
Y5421D01*
X5173Y5469D01*
X5176Y5473D01*
X5177Y5478D01*
Y5502D01*
X5180Y5504D01*
X5187Y5509D01*
X5192Y5516D01*
X5196Y5524D01*
X5197Y5532D01*
X5196Y5541D01*
X5192Y5549D01*
X5187Y5556D01*
X5180Y5561D01*
X5172Y5565D01*
X5164Y5566D01*
X5155Y5565D01*
X5147Y5561D01*
X5140Y5556D01*
X5135Y5549D01*
X5131Y5541D01*
X5130Y5532D01*
X5131Y5524D01*
X5135Y5516D01*
X5140Y5509D01*
X5147Y5504D01*
X5150Y5502D01*
Y5483D01*
X5110Y5443D01*
X5105Y5445D01*
Y5479D01*
X5111Y5481D01*
X5118Y5486D01*
X5124Y5493D01*
X5127Y5501D01*
X5128Y5510D01*
X5127Y5519D01*
X5124Y5527D01*
X5118Y5534D01*
X5112Y5538D01*
X5112Y5541D01*
X5114Y5545D01*
X5193Y5624D01*
X5193Y5624D01*
X5193Y5624D01*
X5196Y5629D01*
X5197Y5634D01*
Y5678D01*
X5201Y5679D01*
X5204Y5682D01*
X5209Y5680D01*
D02*
G37*
G36*
X5126Y5852D02*
X5133Y5847D01*
X5141Y5844D01*
X5150Y5843D01*
X5159Y5844D01*
X5166Y5847D01*
X5170Y5844D01*
Y5789D01*
X5185D01*
Y5768D01*
X5186Y5763D01*
X5189Y5759D01*
X5189Y5759D01*
X5189Y5759D01*
X5207Y5740D01*
X5206Y5735D01*
X5204Y5734D01*
X5201Y5737D01*
X5193Y5740D01*
X5184Y5741D01*
X5175Y5740D01*
X5167Y5737D01*
X5160Y5732D01*
X5155Y5725D01*
X5153Y5720D01*
X5148Y5721D01*
Y5810D01*
X5148Y5810D01*
X5148Y5810D01*
Y5810D01*
X5148D01*
X5148Y5810D01*
X5147Y5815D01*
X5144Y5819D01*
X5120Y5843D01*
Y5853D01*
X5125Y5854D01*
X5126Y5852D01*
D02*
G37*
G36*
X5522Y6569D02*
Y6000D01*
X5523Y5995D01*
X5526Y5991D01*
X5526Y5991D01*
X5526Y5991D01*
X5572Y5945D01*
X5576Y5942D01*
X5581Y5941D01*
X5887D01*
X6034Y5794D01*
Y5760D01*
X6032D01*
Y5760D01*
X5938D01*
Y5739D01*
X5501D01*
Y5809D01*
X5500Y5818D01*
X5495Y5825D01*
Y5853D01*
X5490D01*
Y5893D01*
X5493D01*
Y5959D01*
X5490D01*
Y5998D01*
X5495D01*
Y6064D01*
X5490D01*
Y6103D01*
X5494D01*
Y6169D01*
X5490D01*
Y6206D01*
X5494D01*
Y6272D01*
X5490D01*
Y6310D01*
X5494D01*
Y6376D01*
X5490D01*
Y6416D01*
X5493D01*
Y6482D01*
X5490D01*
Y6521D01*
X5496D01*
Y6581D01*
X5510D01*
X5522Y6569D01*
D02*
G37*
G36*
X5579Y6117D02*
X5583Y6116D01*
X6654D01*
Y3854D01*
X5607D01*
X5605Y3858D01*
X5636Y3889D01*
X5979D01*
X5986Y3890D01*
X5988Y3891D01*
X5993Y3893D01*
X5999Y3897D01*
X6028Y3926D01*
X6033Y3932D01*
X6036Y3939D01*
X6037Y3946D01*
Y4002D01*
X6040D01*
Y4116D01*
X6035D01*
X6033Y4121D01*
X6028Y4127D01*
X5940Y4215D01*
Y4569D01*
X5940Y4571D01*
Y4632D01*
X5884D01*
Y4623D01*
X5879Y4621D01*
X5838Y4662D01*
X5840Y4666D01*
X6033D01*
Y4634D01*
X6016D01*
Y4574D01*
X6076D01*
Y4634D01*
X6059D01*
Y4666D01*
X6166D01*
Y4634D01*
X6150D01*
Y4574D01*
X6210D01*
Y4634D01*
X6193D01*
Y4666D01*
X6261D01*
Y4906D01*
X6046D01*
Y4911D01*
X6041D01*
Y5156D01*
X5953D01*
X5953Y5161D01*
X5957Y5162D01*
X5965Y5165D01*
X5972Y5170D01*
X5977Y5177D01*
X5980Y5185D01*
X5981Y5194D01*
X5980Y5203D01*
X5977Y5211D01*
X5972Y5218D01*
X5965Y5223D01*
X5957Y5226D01*
X5948Y5227D01*
X5947Y5232D01*
X6024Y5310D01*
X6029Y5308D01*
Y5279D01*
X6179D01*
Y5314D01*
X6117D01*
Y5434D01*
X6280D01*
Y5417D01*
X6310D01*
Y5447D01*
Y5477D01*
X6280D01*
Y5460D01*
X6117D01*
Y5482D01*
X6134D01*
Y5517D01*
X6104D01*
Y5527D01*
X6134D01*
Y5562D01*
X6117D01*
Y5604D01*
X6165Y5652D01*
X6172D01*
Y5616D01*
X6216D01*
Y5684D01*
X6172D01*
Y5678D01*
X6160D01*
X6155Y5677D01*
X6151Y5674D01*
X6095Y5618D01*
X6092Y5614D01*
X6091Y5609D01*
Y5562D01*
X6078D01*
Y5963D01*
X6078Y5963D01*
X6078Y5963D01*
Y5963D01*
X6078D01*
X6078Y5963D01*
X6077Y5968D01*
X6074Y5972D01*
X6009Y6037D01*
X6005Y6040D01*
X6000Y6041D01*
X5630D01*
X5572Y6099D01*
Y6116D01*
X5577Y6119D01*
X5579Y6117D01*
D02*
G37*
G36*
X6091Y5447D02*
X6091Y5447D01*
X6091D01*
Y5314D01*
X6035D01*
X6033Y5318D01*
X6074Y5360D01*
X6074Y5360D01*
X6074Y5360D01*
X6077Y5364D01*
X6078Y5369D01*
Y5482D01*
X6091D01*
Y5447D01*
D02*
G37*
G36*
X5938Y5618D02*
X5962D01*
Y5550D01*
X5963Y5541D01*
X5968Y5534D01*
X5986Y5517D01*
Y5484D01*
X6034D01*
Y5402D01*
X5883Y5251D01*
X5878Y5253D01*
X5877Y5258D01*
X5874Y5266D01*
X5869Y5273D01*
X5862Y5278D01*
X5854Y5282D01*
X5845Y5283D01*
X5836Y5282D01*
X5828Y5278D01*
X5821Y5273D01*
X5816Y5266D01*
X5815Y5263D01*
X5764D01*
X5759Y5262D01*
X5754Y5259D01*
X5451Y4955D01*
X5382D01*
X5380Y4960D01*
X5383Y4963D01*
X5386Y4971D01*
X5387Y4980D01*
X5386Y4989D01*
X5383Y4997D01*
X5378Y5004D01*
X5371Y5009D01*
X5363Y5012D01*
X5354Y5013D01*
X5345Y5012D01*
X5342Y5011D01*
X5320Y5033D01*
X5316Y5036D01*
X5310Y5037D01*
X5301D01*
Y5049D01*
Y5050D01*
X5372D01*
X5402Y5020D01*
X5399Y5013D01*
X5398Y5004D01*
X5399Y4995D01*
X5402Y4987D01*
X5407Y4980D01*
X5414Y4975D01*
X5422Y4972D01*
X5431Y4971D01*
X5440Y4972D01*
X5448Y4975D01*
X5455Y4980D01*
X5460Y4987D01*
X5463Y4995D01*
X5464Y5004D01*
X5463Y5013D01*
X5460Y5021D01*
X5455Y5027D01*
X5448Y5033D01*
X5440Y5036D01*
X5431Y5037D01*
X5423Y5036D01*
X5386Y5072D01*
X5382Y5075D01*
X5377Y5076D01*
X5367D01*
X5366Y5081D01*
X5370Y5086D01*
X5370Y5086D01*
X5370Y5086D01*
X5373Y5090D01*
X5374Y5095D01*
Y5119D01*
X5396D01*
Y5144D01*
X5361D01*
Y5154D01*
X5396D01*
Y5165D01*
X5402Y5172D01*
X5424D01*
X5429Y5173D01*
X5433Y5176D01*
X5433Y5176D01*
X5433Y5176D01*
X5438Y5181D01*
X5441Y5185D01*
X5442Y5190D01*
Y5205D01*
X5447Y5206D01*
X5454Y5212D01*
X5460Y5219D01*
X5463Y5228D01*
X5464Y5232D01*
X5429D01*
Y5237D01*
X5424D01*
Y5272D01*
X5420Y5271D01*
X5411Y5268D01*
X5404Y5262D01*
X5399Y5255D01*
X5394Y5257D01*
Y5257D01*
X5384D01*
Y5280D01*
X5495Y5390D01*
X5495Y5390D01*
X5495Y5390D01*
X5500Y5398D01*
X5501Y5407D01*
Y5693D01*
X5938D01*
Y5618D01*
D02*
G37*
G36*
X5444Y5853D02*
X5439D01*
Y5787D01*
X5455D01*
Y5488D01*
X5450Y5487D01*
X5449Y5489D01*
X5444Y5496D01*
X5437Y5501D01*
X5433Y5502D01*
Y5893D01*
X5437D01*
Y5893D01*
X5444D01*
Y5853D01*
D02*
G37*
G36*
X5032Y6008D02*
X5036Y6007D01*
X5040Y6005D01*
X5041Y6003D01*
X5038Y5996D01*
X5037Y5987D01*
X5038Y5978D01*
X5041Y5970D01*
X5046Y5963D01*
X5053Y5958D01*
X5057Y5957D01*
Y5758D01*
X5057Y5756D01*
X5054Y5753D01*
X5050Y5753D01*
X5041Y5752D01*
X5033Y5749D01*
X5030Y5746D01*
X5025Y5748D01*
Y6006D01*
X5029Y6009D01*
X5032Y6008D01*
D02*
G37*
G36*
X4962Y6403D02*
Y5865D01*
X4957Y5864D01*
X4956Y5866D01*
X4949Y5871D01*
X4945Y5872D01*
Y6027D01*
X4944Y6032D01*
X4941Y6036D01*
X4889Y6088D01*
X4885Y6091D01*
X4884Y6091D01*
Y6107D01*
X4818D01*
Y6051D01*
X4884D01*
X4884Y6051D01*
Y6051D01*
X4888Y6053D01*
X4919Y6022D01*
Y5872D01*
X4915Y5871D01*
X4908Y5866D01*
X4903Y5859D01*
X4900Y5851D01*
X4899Y5842D01*
X4900Y5833D01*
X4903Y5825D01*
X4908Y5818D01*
X4915Y5813D01*
X4923Y5810D01*
X4932Y5809D01*
X4941Y5810D01*
X4949Y5813D01*
X4956Y5818D01*
X4957Y5820D01*
X4962Y5819D01*
Y5797D01*
X4886Y5722D01*
X4881Y5714D01*
X4880Y5705D01*
Y5541D01*
X4879Y5541D01*
X4874Y5534D01*
X4871Y5526D01*
X4870Y5517D01*
X4871Y5508D01*
X4874Y5500D01*
X4879Y5493D01*
X4883Y5491D01*
Y5271D01*
X4879Y5267D01*
X4878Y5265D01*
X4871D01*
Y5270D01*
X4813D01*
Y5292D01*
X4833D01*
Y5322D01*
Y5352D01*
X4827D01*
X4816Y5362D01*
Y5648D01*
X4838D01*
Y5673D01*
X4803D01*
Y5678D01*
X4798D01*
Y5708D01*
X4768D01*
Y5691D01*
X4729D01*
X4695Y5725D01*
Y5765D01*
X4712D01*
Y5799D01*
X4682D01*
Y5809D01*
X4712D01*
Y5825D01*
X4726Y5839D01*
Y5873D01*
X4731D01*
Y5878D01*
X4771D01*
Y5903D01*
X4769D01*
Y5904D01*
X4769D01*
Y5960D01*
D01*
Y5960D01*
X4769Y5960D01*
Y5964D01*
X4769D01*
Y5975D01*
X4773Y5977D01*
X4794Y5957D01*
X4794Y5957D01*
X4794D01*
X4794Y5957D01*
X4794D01*
X4794Y5957D01*
Y5957D01*
Y5957D01*
D01*
D01*
X4794D01*
Y5957D01*
X4798Y5954D01*
X4803Y5953D01*
X4818D01*
Y5938D01*
X4884D01*
Y5994D01*
X4818D01*
Y5979D01*
X4809D01*
X4787Y6001D01*
X4783Y6003D01*
X4778Y6004D01*
X4769D01*
Y6019D01*
D01*
Y6019D01*
X4769Y6019D01*
X4769Y6023D01*
X4769D01*
Y6078D01*
D01*
Y6078D01*
X4769Y6078D01*
Y6082D01*
X4769D01*
Y6097D01*
X4771Y6097D01*
X4775Y6100D01*
X4775Y6100D01*
X4775Y6100D01*
X4813Y6138D01*
X4818Y6136D01*
Y6131D01*
X4884D01*
Y6187D01*
X4818D01*
Y6172D01*
X4816D01*
X4811Y6171D01*
X4806Y6168D01*
X4773Y6135D01*
X4769Y6137D01*
Y6141D01*
X4769D01*
Y6196D01*
D01*
Y6196D01*
X4769Y6196D01*
Y6200D01*
X4769D01*
Y6255D01*
D01*
Y6255D01*
X4769Y6255D01*
Y6259D01*
X4769D01*
Y6314D01*
D01*
Y6314D01*
X4769Y6314D01*
Y6318D01*
X4769D01*
Y6373D01*
D01*
Y6373D01*
X4769Y6373D01*
Y6377D01*
X4769D01*
Y6432D01*
D01*
Y6432D01*
X4769Y6432D01*
Y6436D01*
X4769D01*
Y6491D01*
D01*
Y6491D01*
X4769Y6491D01*
Y6495D01*
X4769D01*
Y6550D01*
D01*
Y6550D01*
X4769Y6550D01*
Y6554D01*
X4769D01*
Y6590D01*
X4773Y6592D01*
X4962Y6403D01*
D02*
G37*
G36*
X4182Y6554D02*
X4182Y6554D01*
X4182Y6550D01*
X4182D01*
Y6530D01*
X4167Y6515D01*
X4164Y6511D01*
X4163Y6506D01*
Y6326D01*
X4158Y6324D01*
X4155Y6327D01*
X4147Y6330D01*
X4138Y6331D01*
X4129Y6330D01*
X4121Y6327D01*
X4114Y6322D01*
X4109Y6315D01*
X4106Y6307D01*
X4105Y6298D01*
X4106Y6289D01*
X4109Y6281D01*
X4114Y6274D01*
X4120Y6270D01*
Y5873D01*
X4114Y5869D01*
X4109Y5862D01*
X4106Y5854D01*
X4105Y5845D01*
X4106Y5836D01*
X4109Y5828D01*
X4114Y5821D01*
X4121Y5816D01*
X4129Y5813D01*
X4138Y5812D01*
X4147Y5813D01*
X4155Y5816D01*
X4158Y5812D01*
X4154Y5808D01*
X4151Y5800D01*
X4150Y5791D01*
X4151Y5782D01*
X4154Y5774D01*
X4159Y5767D01*
X4166Y5762D01*
X4170Y5761D01*
Y5058D01*
X4166Y5057D01*
X4159Y5052D01*
X4154Y5045D01*
X4151Y5037D01*
X4150Y5028D01*
X4151Y5019D01*
X4154Y5011D01*
X4159Y5004D01*
X4166Y4999D01*
X4174Y4996D01*
X4179Y4995D01*
X4180Y4991D01*
X4081Y4892D01*
X4076Y4884D01*
X4075Y4875D01*
Y4515D01*
X4076Y4506D01*
X4081Y4498D01*
X4142Y4437D01*
X4148Y4433D01*
X4384Y4198D01*
Y4145D01*
X4379Y4143D01*
X4379Y4143D01*
X4374Y4150D01*
X4367Y4155D01*
X4363Y4156D01*
Y4174D01*
X4362Y4179D01*
X4359Y4183D01*
X4015Y4527D01*
Y5337D01*
X4014Y5342D01*
X4011Y5346D01*
X3969Y5388D01*
Y5675D01*
X3974Y5677D01*
X4005Y5646D01*
X4091D01*
X4135Y5690D01*
Y5776D01*
X4091Y5820D01*
X4005D01*
X3974Y5789D01*
X3969Y5791D01*
Y6479D01*
X4058Y6568D01*
X4182D01*
Y6554D01*
D02*
G37*
G36*
X5001Y6730D02*
X5001Y6730D01*
X5001Y6730D01*
X5002Y6728D01*
X5002Y6726D01*
X5002Y6726D01*
X5002Y6726D01*
X5003Y6724D01*
X5004Y6722D01*
X5004Y6722D01*
X5005Y6722D01*
X5006Y6721D01*
X5008Y6720D01*
X5008Y6720D01*
X5008Y6720D01*
X5211Y6639D01*
X5210Y6634D01*
X5195D01*
X5190Y6633D01*
X5186Y6630D01*
X5165Y6609D01*
X5162Y6605D01*
X5161Y6600D01*
Y6501D01*
X5161Y6500D01*
X5161Y6499D01*
X5161Y6497D01*
X5162Y6496D01*
X5162Y6495D01*
X5163Y6494D01*
X5164Y6493D01*
X5165Y6492D01*
X5166Y6491D01*
X5166Y6490D01*
X5176Y6483D01*
X5175Y6481D01*
X5175D01*
X5175Y6481D01*
Y6415D01*
X5231D01*
Y6481D01*
X5217D01*
X5216Y6482D01*
Y6482D01*
X5216D01*
D01*
D01*
X5216Y6482D01*
X5216Y6484D01*
X5215Y6485D01*
X5215Y6486D01*
X5214Y6487D01*
X5213Y6488D01*
X5212Y6489D01*
X5211Y6490D01*
X5211Y6491D01*
X5187Y6508D01*
Y6522D01*
X5235D01*
Y6581D01*
X5259D01*
Y6522D01*
X5315D01*
Y6542D01*
X5360D01*
Y6521D01*
X5416D01*
Y6581D01*
X5440D01*
Y6521D01*
X5444D01*
Y6482D01*
X5437D01*
Y6416D01*
X5444D01*
Y6376D01*
X5438D01*
Y6310D01*
X5444D01*
Y6272D01*
X5438D01*
Y6206D01*
X5444D01*
Y6169D01*
X5438D01*
Y6169D01*
X5434D01*
X5433Y6170D01*
X5432Y6175D01*
X5429Y6179D01*
X5409Y6199D01*
X5407Y6201D01*
X5408Y6206D01*
X5414D01*
Y6272D01*
X5358D01*
Y6255D01*
X5305D01*
Y6275D01*
X5249D01*
Y6209D01*
X5305D01*
Y6229D01*
X5358D01*
Y6207D01*
X5358Y6207D01*
X5358D01*
X5358Y6206D01*
X5355Y6203D01*
X5227D01*
X5224Y6207D01*
X5225Y6209D01*
X5225D01*
X5225Y6209D01*
Y6275D01*
X5187D01*
X5185Y6280D01*
X5189Y6283D01*
X5207Y6301D01*
X5207Y6301D01*
X5207Y6301D01*
X5210Y6305D01*
X5211Y6309D01*
X5226D01*
Y6375D01*
X5170D01*
Y6309D01*
X5170D01*
Y6309D01*
X5166Y6305D01*
X5111D01*
X5106Y6304D01*
X5102Y6301D01*
X5050Y6249D01*
X5047Y6245D01*
X5046Y6240D01*
Y6155D01*
X5042Y6154D01*
X5035Y6149D01*
X5030Y6142D01*
X5027Y6134D01*
X5026Y6125D01*
X5027Y6116D01*
X5030Y6108D01*
X5035Y6101D01*
X5042Y6096D01*
X5050Y6093D01*
X5059Y6092D01*
X5068Y6093D01*
X5076Y6096D01*
X5083Y6101D01*
X5088Y6108D01*
X5090Y6113D01*
X5095Y6112D01*
Y6015D01*
X5090Y6013D01*
X5087Y6016D01*
X5079Y6019D01*
X5075Y6020D01*
X5071Y6022D01*
X5070Y6024D01*
X5073Y6031D01*
X5074Y6040D01*
X5073Y6049D01*
X5070Y6057D01*
X5065Y6064D01*
X5058Y6069D01*
X5050Y6072D01*
X5041Y6073D01*
X5032Y6072D01*
X5024Y6069D01*
X5017Y6064D01*
X5012Y6057D01*
X5009Y6049D01*
X5008Y6040D01*
X5009Y6031D01*
X5010Y6028D01*
X5003Y6021D01*
X5001Y6022D01*
X4998Y6023D01*
Y6404D01*
X5002Y6409D01*
X5003Y6418D01*
X5002Y6427D01*
X4997Y6435D01*
X4778Y6654D01*
X4770Y6659D01*
X4768Y6760D01*
Y6862D01*
D01*
Y6862D01*
X4770Y6864D01*
X5001D01*
Y6730D01*
D02*
G37*
G36*
X5169Y6275D02*
X5169D01*
Y6209D01*
X5185D01*
X5185Y6208D01*
X5188Y6204D01*
X5211Y6181D01*
X5211Y6181D01*
X5211D01*
X5211Y6181D01*
X5211D01*
X5211Y6181D01*
Y6181D01*
Y6181D01*
D01*
D01*
X5211D01*
Y6181D01*
X5215Y6178D01*
X5220Y6177D01*
X5394D01*
X5397Y6173D01*
X5396Y6169D01*
X5358D01*
Y6150D01*
X5306D01*
Y6170D01*
X5250D01*
Y6104D01*
X5306D01*
Y6124D01*
X5358D01*
Y6103D01*
X5407D01*
Y6064D01*
X5359D01*
Y6044D01*
X5306D01*
Y6064D01*
X5250D01*
Y5998D01*
X5306D01*
Y6018D01*
X5359D01*
Y5998D01*
X5407D01*
Y5959D01*
X5357D01*
Y5942D01*
X5305D01*
Y5962D01*
X5249D01*
Y5962D01*
X5248D01*
X5244Y5966D01*
Y6084D01*
X5243Y6089D01*
X5240Y6093D01*
X5226Y6108D01*
Y6170D01*
X5170D01*
Y6104D01*
X5192D01*
X5218Y6079D01*
Y6064D01*
X5170D01*
Y5998D01*
X5171D01*
X5173Y5993D01*
X5125Y5946D01*
X5121Y5948D01*
X5121Y5951D01*
X5121Y5951D01*
X5121Y5951D01*
Y5951D01*
Y6131D01*
X5125Y6132D01*
X5132Y6137D01*
X5137Y6144D01*
X5140Y6152D01*
X5141Y6161D01*
X5140Y6170D01*
X5137Y6178D01*
X5132Y6185D01*
X5125Y6190D01*
X5117Y6193D01*
X5108Y6194D01*
X5099Y6193D01*
X5091Y6190D01*
X5084Y6185D01*
X5079Y6178D01*
X5077Y6173D01*
X5072Y6174D01*
Y6235D01*
X5116Y6279D01*
X5169D01*
Y6275D01*
D02*
G37*
G36*
X5616Y6019D02*
X5620Y6016D01*
X5625Y6015D01*
X5995D01*
X6052Y5958D01*
Y5820D01*
X6047Y5818D01*
X5901Y5963D01*
X5897Y5966D01*
X5892Y5967D01*
X5586D01*
X5548Y6005D01*
Y6079D01*
X5553Y6081D01*
X5616Y6019D01*
D02*
G37*
G36*
X5357Y5893D02*
X5407D01*
Y5853D01*
X5359D01*
Y5833D01*
X5306D01*
Y5855D01*
X5250D01*
Y5799D01*
X5248Y5799D01*
X5244Y5801D01*
Y5896D01*
X5249D01*
Y5896D01*
X5305D01*
Y5916D01*
X5357D01*
Y5893D01*
D02*
G37*
G36*
X4163Y6270D02*
Y5873D01*
X4161Y5872D01*
X4156Y5875D01*
Y6268D01*
X4161Y6271D01*
X4163Y6270D01*
D02*
G37*
G36*
X5359Y5787D02*
X5407D01*
Y5502D01*
X5403Y5501D01*
X5396Y5496D01*
X5391Y5489D01*
X5388Y5481D01*
X5387Y5472D01*
X5388Y5463D01*
X5391Y5455D01*
X5396Y5448D01*
X5403Y5443D01*
X5411Y5440D01*
X5420Y5439D01*
X5429Y5440D01*
X5437Y5443D01*
X5444Y5448D01*
X5449Y5455D01*
X5450Y5457D01*
X5455Y5456D01*
Y5417D01*
X5344Y5307D01*
X5339Y5299D01*
X5338Y5290D01*
Y5257D01*
X5328D01*
Y5229D01*
X5295Y5197D01*
X5290Y5189D01*
X5289Y5180D01*
Y5157D01*
X5259Y5128D01*
X5254Y5120D01*
X5253Y5116D01*
X5242D01*
X5241Y5121D01*
X5260Y5141D01*
X5263Y5145D01*
X5264Y5150D01*
Y5773D01*
X5264Y5773D01*
X5264Y5773D01*
Y5773D01*
X5264D01*
X5264Y5773D01*
X5263Y5778D01*
X5260Y5782D01*
X5258Y5784D01*
X5260Y5789D01*
X5306D01*
Y5807D01*
X5359D01*
Y5787D01*
D02*
G37*
G36*
X4182Y6862D02*
Y6609D01*
Y6595D01*
X4053D01*
X4048Y6594D01*
X4044Y6591D01*
X3947Y6494D01*
X3944Y6490D01*
X3943Y6485D01*
Y5383D01*
X3944Y5378D01*
X3947Y5374D01*
X3947Y5374D01*
X3947Y5374D01*
X3989Y5332D01*
Y5305D01*
X3984Y5304D01*
X3980Y5310D01*
X3973Y5315D01*
X3965Y5318D01*
X3956Y5319D01*
X3947Y5318D01*
X3939Y5315D01*
X3932Y5310D01*
X3927Y5303D01*
X3926Y5299D01*
X3921Y5300D01*
Y6864D01*
X4179D01*
X4182Y6862D01*
D02*
G37*
G36*
X5059Y5467D02*
Y5213D01*
X5046D01*
Y5473D01*
X5051Y5475D01*
X5059Y5467D01*
D02*
G37*
G36*
X5209Y5400D02*
Y5213D01*
X5204D01*
Y5213D01*
X5184D01*
Y5373D01*
X5187Y5374D01*
X5194Y5379D01*
X5200Y5386D01*
X5203Y5394D01*
X5204Y5401D01*
X5209Y5400D01*
D02*
G37*
G36*
X4999Y5761D02*
Y5739D01*
X4965Y5705D01*
X4962Y5701D01*
X4961Y5696D01*
Y5255D01*
X4956Y5254D01*
X4954Y5259D01*
X4949Y5266D01*
X4942Y5271D01*
X4934Y5274D01*
X4929Y5275D01*
Y5497D01*
X4932Y5500D01*
X4935Y5508D01*
X4936Y5517D01*
X4935Y5526D01*
X4932Y5534D01*
X4927Y5541D01*
X4926Y5541D01*
Y5695D01*
X4994Y5763D01*
X4999Y5761D01*
D02*
G37*
G36*
X4292Y5692D02*
X4291Y5689D01*
X4290Y5680D01*
X4291Y5671D01*
X4294Y5663D01*
X4299Y5656D01*
X4306Y5651D01*
X4314Y5648D01*
X4323Y5647D01*
X4332Y5648D01*
X4340Y5651D01*
X4347Y5656D01*
X4352Y5663D01*
X4355Y5671D01*
X4356Y5680D01*
X4355Y5689D01*
X4352Y5697D01*
X4347Y5704D01*
X4340Y5709D01*
X4332Y5712D01*
X4323Y5713D01*
X4314Y5712D01*
X4311Y5711D01*
X4260Y5762D01*
X4262Y5767D01*
X4296D01*
Y5767D01*
X4296D01*
X4296Y5767D01*
X4300D01*
Y5767D01*
X4355D01*
Y5767D01*
X4355D01*
X4355Y5767D01*
X4359D01*
Y5767D01*
X4414D01*
Y5767D01*
X4414D01*
X4414Y5767D01*
X4418D01*
Y5767D01*
X4473D01*
Y5767D01*
X4473D01*
X4473Y5767D01*
X4477D01*
Y5767D01*
X4532D01*
Y5767D01*
X4532D01*
X4532Y5767D01*
X4536D01*
Y5767D01*
X4591D01*
Y5767D01*
X4591D01*
X4591Y5767D01*
X4595D01*
Y5767D01*
X4649D01*
X4649Y5767D01*
Y5767D01*
X4650Y5767D01*
X4652Y5765D01*
X4654Y5765D01*
X4654Y5765D01*
Y5765D01*
X4669D01*
Y5720D01*
X4670Y5715D01*
X4672Y5711D01*
X4714Y5669D01*
X4719Y5666D01*
X4724Y5665D01*
X4768D01*
Y5648D01*
X4790D01*
Y5357D01*
X4791Y5352D01*
X4794Y5348D01*
X4794Y5348D01*
X4794Y5348D01*
X4801Y5340D01*
X4799Y5335D01*
X4657D01*
X4636Y5356D01*
X4632Y5359D01*
X4627Y5360D01*
X4340D01*
X4338Y5367D01*
X4331Y5375D01*
X4323Y5382D01*
X4313Y5386D01*
X4308Y5386D01*
Y5347D01*
Y5308D01*
X4313Y5308D01*
X4323Y5312D01*
X4331Y5319D01*
X4338Y5327D01*
X4340Y5334D01*
X4622D01*
X4643Y5313D01*
X4742Y5214D01*
X4740Y5209D01*
X4739Y5205D01*
X4769D01*
Y5235D01*
X4765Y5234D01*
X4760Y5232D01*
X4689Y5304D01*
X4691Y5309D01*
X4787D01*
Y5237D01*
X4783Y5234D01*
X4779Y5235D01*
Y5205D01*
X4813D01*
Y5214D01*
X4871D01*
X4871Y5214D01*
Y5214D01*
X4873Y5215D01*
X4879Y5209D01*
X4881Y5208D01*
Y5154D01*
X4845D01*
X4813Y5186D01*
Y5195D01*
X4779D01*
Y5165D01*
X4783Y5166D01*
X4792Y5169D01*
X4792Y5170D01*
X4821Y5141D01*
X4819Y5136D01*
X4635D01*
X4594Y5177D01*
X4590Y5180D01*
X4585Y5181D01*
X4524D01*
X4519Y5180D01*
X4515Y5177D01*
X4491Y5153D01*
X4488Y5149D01*
X4487Y5144D01*
Y4694D01*
X4483Y4693D01*
X4476Y4688D01*
X4476Y4687D01*
X4471Y4689D01*
Y4809D01*
X4471Y4809D01*
X4471Y4809D01*
Y4809D01*
X4471D01*
X4471Y4809D01*
X4470Y4815D01*
X4467Y4819D01*
X4384Y4902D01*
Y4927D01*
X4388Y4928D01*
X4395Y4933D01*
X4400Y4940D01*
X4403Y4948D01*
X4404Y4957D01*
X4403Y4966D01*
X4400Y4974D01*
X4395Y4981D01*
X4388Y4986D01*
X4380Y4989D01*
X4371Y4990D01*
X4362Y4989D01*
X4354Y4986D01*
X4347Y4981D01*
X4342Y4974D01*
X4339Y4966D01*
X4338Y4957D01*
X4339Y4948D01*
X4342Y4940D01*
X4347Y4933D01*
X4354Y4928D01*
X4358Y4927D01*
Y4910D01*
X4353Y4908D01*
X4273Y4987D01*
Y5217D01*
X4278Y5219D01*
X4284Y5214D01*
X4293Y5210D01*
X4303Y5209D01*
X4313Y5210D01*
X4322Y5214D01*
X4330Y5220D01*
X4336Y5228D01*
X4340Y5237D01*
X4341Y5247D01*
X4340Y5257D01*
X4336Y5266D01*
X4330Y5274D01*
X4322Y5280D01*
X4313Y5284D01*
X4303Y5285D01*
X4293Y5284D01*
X4284Y5280D01*
X4278Y5275D01*
X4273Y5277D01*
Y5299D01*
X4286Y5311D01*
X4293Y5308D01*
X4298Y5308D01*
Y5342D01*
X4264D01*
X4264Y5337D01*
X4267Y5330D01*
X4259Y5322D01*
X4254Y5324D01*
Y5365D01*
X4299Y5409D01*
X4341D01*
Y5485D01*
X4326D01*
Y5575D01*
X4325Y5584D01*
X4320Y5592D01*
X4270Y5641D01*
X4270Y5641D01*
X4269Y5650D01*
X4266Y5658D01*
X4261Y5665D01*
X4254Y5670D01*
X4246Y5673D01*
X4237Y5674D01*
X4228Y5673D01*
X4220Y5670D01*
X4213Y5665D01*
X4208Y5658D01*
X4205Y5650D01*
X4204Y5641D01*
X4205Y5632D01*
X4208Y5624D01*
X4213Y5617D01*
X4220Y5612D01*
X4228Y5609D01*
X4237Y5608D01*
X4237Y5608D01*
X4280Y5565D01*
Y5485D01*
X4265D01*
Y5443D01*
X4214Y5392D01*
X4209Y5384D01*
X4208Y5375D01*
Y5056D01*
X4203Y5054D01*
X4200Y5057D01*
X4196Y5058D01*
Y5761D01*
X4200Y5762D01*
X4207Y5767D01*
X4209Y5770D01*
X4214Y5771D01*
X4292Y5692D01*
D02*
G37*
%LPC*%
G36*
X6007Y4632D02*
X5951D01*
Y4506D01*
X5966D01*
Y4462D01*
X5967Y4457D01*
X5970Y4453D01*
X5970Y4453D01*
X5970Y4453D01*
X6002Y4421D01*
Y4382D01*
X5965D01*
Y4258D01*
X6002D01*
Y4173D01*
X6003Y4168D01*
X6006Y4163D01*
X6006Y4163D01*
X6006Y4163D01*
X6054Y4116D01*
X6058Y4113D01*
X6063Y4112D01*
X6135D01*
Y4011D01*
X6266D01*
Y4239D01*
X6135D01*
Y4138D01*
X6069D01*
X6029Y4178D01*
Y4258D01*
X6066D01*
Y4382D01*
X6029D01*
Y4426D01*
X6028Y4431D01*
X6025Y4435D01*
X5992Y4468D01*
Y4506D01*
X6007D01*
Y4632D01*
D02*
G37*
G36*
X5414Y6376D02*
X5358D01*
Y6355D01*
X5306D01*
Y6375D01*
X5250D01*
Y6309D01*
X5306D01*
Y6329D01*
X5358D01*
Y6310D01*
X5414D01*
Y6376D01*
D02*
G37*
G36*
X6529Y5276D02*
X6525Y5275D01*
X6516Y5272D01*
X6509Y5266D01*
X6503Y5259D01*
X6500Y5250D01*
X6499Y5246D01*
X6529D01*
Y5276D01*
D02*
G37*
G36*
X5291Y4066D02*
X5261D01*
Y4041D01*
X5291D01*
Y4066D01*
D02*
G37*
G36*
X5434Y5272D02*
Y5242D01*
X5464D01*
X5463Y5246D01*
X5460Y5255D01*
X5454Y5262D01*
X5447Y5268D01*
X5438Y5271D01*
X5434Y5272D01*
D02*
G37*
G36*
X4771Y5868D02*
X4736D01*
Y5843D01*
X4771D01*
Y5868D01*
D02*
G37*
G36*
X5019Y4213D02*
X5010Y4212D01*
X5002Y4209D01*
X4995Y4204D01*
X4990Y4197D01*
X4987Y4189D01*
X4986Y4180D01*
X4987Y4172D01*
X4938Y4123D01*
X4933Y4125D01*
Y4132D01*
X4799D01*
Y4056D01*
X4933D01*
Y4076D01*
X4934D01*
X4940Y4077D01*
X4941Y4077D01*
X4947Y4081D01*
X5014Y4147D01*
X5019Y4147D01*
X5028Y4148D01*
X5036Y4151D01*
X5043Y4156D01*
X5048Y4163D01*
X5051Y4171D01*
X5052Y4180D01*
X5051Y4189D01*
X5048Y4197D01*
X5043Y4204D01*
X5036Y4209D01*
X5028Y4212D01*
X5019Y4213D01*
D02*
G37*
G36*
X5040Y4110D02*
X5031Y4109D01*
X5023Y4106D01*
X5016Y4101D01*
X5011Y4094D01*
X5008Y4086D01*
X5007Y4077D01*
X5008Y4071D01*
X4949Y4012D01*
X4933D01*
Y4032D01*
X4799D01*
Y3956D01*
X4933D01*
Y3976D01*
X4957D01*
X4963Y3977D01*
X4964Y3977D01*
X4970Y3981D01*
X5034Y4045D01*
X5040Y4044D01*
X5049Y4045D01*
X5057Y4048D01*
X5064Y4053D01*
X5069Y4060D01*
X5072Y4068D01*
X5073Y4077D01*
X5072Y4086D01*
X5069Y4094D01*
X5064Y4101D01*
X5057Y4106D01*
X5049Y4109D01*
X5040Y4110D01*
D02*
G37*
G36*
X4629Y3423D02*
X4600D01*
Y3369D01*
X4629D01*
Y3423D01*
D02*
G37*
G36*
X4482Y3485D02*
X4419D01*
Y3371D01*
X4482D01*
Y3485D01*
D02*
G37*
G36*
X4217Y3344D02*
X4187D01*
X4188Y3340D01*
X4191Y3331D01*
X4197Y3324D01*
X4204Y3318D01*
X4213Y3315D01*
X4217Y3314D01*
Y3344D01*
D02*
G37*
G36*
X4287Y3423D02*
X4220D01*
Y3384D01*
X4213Y3383D01*
X4204Y3380D01*
X4197Y3374D01*
X4191Y3367D01*
X4188Y3358D01*
X4187Y3354D01*
X4222D01*
Y3349D01*
X4227D01*
Y3314D01*
X4231Y3315D01*
X4236Y3317D01*
X4240Y3314D01*
Y3293D01*
X4241Y3288D01*
X4244Y3284D01*
X4244Y3284D01*
X4244Y3284D01*
X4275Y3254D01*
X4273Y3249D01*
X4272Y3245D01*
X4302D01*
Y3275D01*
X4298Y3274D01*
X4293Y3272D01*
X4267Y3299D01*
Y3369D01*
X4287D01*
Y3423D01*
D02*
G37*
G36*
X4312Y3275D02*
Y3245D01*
X4342D01*
X4341Y3249D01*
X4338Y3258D01*
X4332Y3265D01*
X4325Y3271D01*
X4316Y3274D01*
X4312Y3275D01*
D02*
G37*
G36*
X4862Y3485D02*
X4799D01*
Y3371D01*
X4862D01*
Y3485D01*
D02*
G37*
G36*
X4769Y5195D02*
X4739D01*
X4740Y5191D01*
X4743Y5182D01*
X4749Y5175D01*
X4756Y5169D01*
X4765Y5166D01*
X4769Y5165D01*
Y5195D01*
D02*
G37*
G36*
X5413Y6482D02*
X5357D01*
Y6461D01*
X5311D01*
Y6481D01*
X5255D01*
Y6415D01*
X5311D01*
Y6435D01*
X5357D01*
Y6416D01*
X5413D01*
Y6482D01*
D02*
G37*
G36*
X5383Y3729D02*
X5319D01*
Y3694D01*
X5383D01*
Y3729D01*
D02*
G37*
G36*
X6271Y5762D02*
X6226D01*
Y5689D01*
Y5616D01*
X6271D01*
Y5676D01*
X6409D01*
X6450Y5635D01*
Y5170D01*
X6450Y5170D01*
X6450D01*
Y5050D01*
X6433D01*
Y5021D01*
X6429Y5020D01*
X6425Y5023D01*
Y5507D01*
X6424Y5514D01*
X6421Y5521D01*
X6417Y5527D01*
X6411Y5531D01*
X6410Y5532D01*
X6409Y5536D01*
X6406Y5544D01*
X6401Y5551D01*
X6394Y5556D01*
X6386Y5559D01*
X6377Y5560D01*
X6368Y5559D01*
X6360Y5556D01*
X6360Y5555D01*
X6315D01*
X6313Y5555D01*
X6282D01*
Y5550D01*
X6222D01*
Y5560D01*
X6167D01*
Y5526D01*
X6166Y5522D01*
X6167Y5518D01*
Y5484D01*
X6222D01*
Y5494D01*
X6310D01*
X6317Y5495D01*
X6324Y5498D01*
X6326Y5499D01*
X6360D01*
X6360Y5498D01*
X6368Y5495D01*
X6369Y5495D01*
Y5011D01*
X6370Y5004D01*
X6371Y5002D01*
X6373Y4997D01*
X6377Y4991D01*
X6384Y4985D01*
Y4972D01*
X6384Y4965D01*
X6385Y4963D01*
X6387Y4958D01*
X6392Y4952D01*
X6397Y4947D01*
Y4924D01*
X6405Y4916D01*
X6433Y4906D01*
Y4891D01*
Y4612D01*
X6393Y4572D01*
X6355D01*
Y4670D01*
X6287D01*
Y4418D01*
X6293D01*
Y4387D01*
X6240D01*
X6141Y4486D01*
Y4569D01*
X6141Y4571D01*
Y4632D01*
X6085D01*
Y4571D01*
X6085Y4569D01*
Y4474D01*
X6086Y4467D01*
X6086Y4465D01*
X6088Y4460D01*
X6093Y4454D01*
X6208Y4339D01*
X6214Y4334D01*
X6219Y4332D01*
X6221Y4332D01*
X6228Y4331D01*
X6309D01*
X6490Y4150D01*
Y4100D01*
X6445Y4055D01*
X6441Y4049D01*
X6439Y4045D01*
X6438Y4043D01*
X6437Y4035D01*
Y4027D01*
X6436Y4027D01*
X6433Y4019D01*
X6432Y4010D01*
X6433Y4001D01*
X6436Y3993D01*
X6441Y3986D01*
X6448Y3981D01*
X6456Y3978D01*
X6465Y3977D01*
X6474Y3978D01*
X6482Y3981D01*
X6489Y3986D01*
X6494Y3993D01*
X6497Y4001D01*
X6498Y4010D01*
X6499Y4011D01*
X6620D01*
Y4239D01*
X6490D01*
Y4237D01*
X6485Y4235D01*
X6349Y4370D01*
Y4418D01*
X6355D01*
Y4516D01*
X6405D01*
X6412Y4517D01*
X6414Y4518D01*
X6419Y4520D01*
X6425Y4524D01*
X6481Y4580D01*
X6485Y4586D01*
X6487Y4591D01*
X6488Y4593D01*
X6489Y4600D01*
Y4891D01*
Y4947D01*
X6489Y4949D01*
X6489Y4952D01*
X6488Y4961D01*
X6485Y4969D01*
X6480Y4976D01*
X6482Y4980D01*
X6493D01*
Y5010D01*
X6463D01*
Y5020D01*
X6493D01*
Y5050D01*
X6476D01*
Y5165D01*
X6520Y5209D01*
X6525Y5207D01*
X6529Y5206D01*
Y5236D01*
X6499D01*
X6500Y5232D01*
X6502Y5227D01*
X6481Y5207D01*
X6476Y5209D01*
Y5640D01*
X6475Y5645D01*
X6472Y5649D01*
X6423Y5698D01*
X6419Y5701D01*
X6414Y5702D01*
X6271D01*
Y5762D01*
D02*
G37*
G36*
X5383Y3684D02*
X5319D01*
Y3649D01*
X5383D01*
Y3684D01*
D02*
G37*
G36*
X6210Y4564D02*
X6185D01*
Y4504D01*
X6210D01*
Y4564D01*
D02*
G37*
G36*
X6538Y4536D02*
X6508D01*
X6509Y4532D01*
X6512Y4523D01*
X6518Y4516D01*
X6525Y4510D01*
X6534Y4507D01*
X6538Y4506D01*
Y4536D01*
D02*
G37*
G36*
X6175Y4564D02*
X6150D01*
Y4504D01*
X6175D01*
Y4564D01*
D02*
G37*
G36*
X6041D02*
X6016D01*
Y4504D01*
X6041D01*
Y4564D01*
D02*
G37*
G36*
X6076D02*
X6051D01*
Y4504D01*
X6076D01*
Y4564D01*
D02*
G37*
G36*
X6538Y4576D02*
X6534Y4575D01*
X6525Y4572D01*
X6518Y4566D01*
X6512Y4559D01*
X6509Y4550D01*
X6508Y4546D01*
X6538D01*
Y4576D01*
D02*
G37*
G36*
X4873Y5352D02*
X4843D01*
Y5327D01*
X4873D01*
Y5352D01*
D02*
G37*
G36*
X4298Y5386D02*
X4293Y5386D01*
X4283Y5382D01*
X4275Y5375D01*
X4268Y5367D01*
X4264Y5357D01*
X4264Y5352D01*
X4298D01*
Y5386D01*
D02*
G37*
G36*
X5347Y5763D02*
X5338Y5762D01*
X5330Y5759D01*
X5323Y5754D01*
X5318Y5747D01*
X5315Y5739D01*
X5314Y5730D01*
X5315Y5721D01*
X5318Y5713D01*
X5323Y5706D01*
X5330Y5701D01*
X5334Y5700D01*
Y5425D01*
X5319Y5411D01*
X5316Y5412D01*
X5307Y5413D01*
X5298Y5412D01*
X5290Y5409D01*
X5283Y5404D01*
X5278Y5397D01*
X5275Y5389D01*
X5274Y5380D01*
X5275Y5371D01*
X5278Y5363D01*
X5283Y5356D01*
X5290Y5351D01*
X5298Y5348D01*
X5307Y5347D01*
X5316Y5348D01*
X5324Y5351D01*
X5331Y5356D01*
X5336Y5363D01*
X5339Y5371D01*
X5340Y5380D01*
X5339Y5389D01*
X5338Y5392D01*
X5356Y5411D01*
X5359Y5415D01*
X5360Y5420D01*
Y5700D01*
X5364Y5701D01*
X5371Y5706D01*
X5376Y5713D01*
X5379Y5721D01*
X5380Y5730D01*
X5379Y5739D01*
X5376Y5747D01*
X5371Y5754D01*
X5364Y5759D01*
X5356Y5762D01*
X5347Y5763D01*
D02*
G37*
G36*
X6350Y5477D02*
X6320D01*
Y5452D01*
X6350D01*
Y5477D01*
D02*
G37*
G36*
Y5442D02*
X6320D01*
Y5417D01*
X6350D01*
Y5442D01*
D02*
G37*
G36*
X4884Y5914D02*
X4818D01*
Y5858D01*
X4838D01*
Y5811D01*
X4812Y5786D01*
X4770D01*
Y5730D01*
X4836D01*
Y5772D01*
X4860Y5797D01*
X4863Y5801D01*
X4864Y5806D01*
X4864Y5806D01*
Y5858D01*
X4884D01*
Y5914D01*
D02*
G37*
G36*
X6216Y5762D02*
X6172D01*
Y5694D01*
X6216D01*
Y5762D01*
D02*
G37*
G36*
X6179Y5269D02*
X6029D01*
Y5234D01*
X6091D01*
Y5156D01*
X6051D01*
Y4916D01*
X6261D01*
Y5156D01*
X6117D01*
Y5234D01*
X6179D01*
Y5269D01*
D02*
G37*
G36*
X6539Y5276D02*
Y5246D01*
X6569D01*
X6568Y5250D01*
X6565Y5259D01*
X6559Y5266D01*
X6552Y5272D01*
X6543Y5275D01*
X6539Y5276D01*
D02*
G37*
G36*
X5666Y5919D02*
X5580D01*
X5536Y5875D01*
Y5789D01*
X5580Y5745D01*
X5666D01*
X5710Y5789D01*
Y5875D01*
X5666Y5919D01*
D02*
G37*
G36*
X4838Y5708D02*
X4808D01*
Y5683D01*
X4838D01*
Y5708D01*
D02*
G37*
G36*
X5547Y4544D02*
X5538Y4543D01*
X5530Y4540D01*
X5523Y4535D01*
X5518Y4528D01*
X5515Y4520D01*
X5514Y4511D01*
X5515Y4502D01*
X5516Y4499D01*
X5499Y4482D01*
X5494Y4482D01*
X5493Y4485D01*
X5486Y4490D01*
X5478Y4493D01*
X5469Y4494D01*
X5460Y4493D01*
X5452Y4490D01*
X5445Y4485D01*
X5440Y4478D01*
X5437Y4470D01*
X5436Y4461D01*
X5437Y4452D01*
X5440Y4444D01*
X5445Y4437D01*
X5452Y4432D01*
X5460Y4429D01*
X5469Y4428D01*
X5478Y4429D01*
X5486Y4432D01*
X5493Y4437D01*
X5498Y4444D01*
X5499Y4448D01*
X5502Y4449D01*
X5506Y4452D01*
X5535Y4480D01*
X5538Y4479D01*
X5547Y4478D01*
X5556Y4479D01*
X5564Y4482D01*
X5571Y4487D01*
X5576Y4494D01*
X5579Y4502D01*
X5580Y4511D01*
X5579Y4520D01*
X5576Y4528D01*
X5571Y4535D01*
X5564Y4540D01*
X5556Y4543D01*
X5547Y4544D01*
D02*
G37*
G36*
X5666Y5682D02*
X5580D01*
X5536Y5638D01*
Y5552D01*
X5580Y5508D01*
X5666D01*
X5710Y5552D01*
Y5638D01*
X5666Y5682D01*
D02*
G37*
G36*
X4873Y5317D02*
X4843D01*
Y5292D01*
X4873D01*
Y5317D01*
D02*
G37*
G36*
X6632Y4539D02*
X6602D01*
Y4416D01*
X6632D01*
Y4539D01*
D02*
G37*
G36*
X6608Y5871D02*
X6599Y5870D01*
X6591Y5867D01*
X6584Y5862D01*
X6579Y5855D01*
X6576Y5847D01*
X6575Y5838D01*
X6576Y5829D01*
X6579Y5821D01*
X6584Y5814D01*
X6591Y5809D01*
X6595Y5808D01*
Y4845D01*
X6592Y4844D01*
X6590Y4842D01*
X6587Y4846D01*
X6588Y4848D01*
X6589Y4853D01*
Y5199D01*
X6589Y5199D01*
X6589Y5199D01*
Y5199D01*
X6589D01*
X6589Y5199D01*
X6588Y5204D01*
X6585Y5208D01*
X6566Y5227D01*
X6568Y5232D01*
X6569Y5236D01*
X6539D01*
Y5206D01*
X6543Y5207D01*
X6548Y5209D01*
X6563Y5194D01*
Y5048D01*
X6515D01*
Y4982D01*
X6530D01*
Y4924D01*
X6513D01*
Y4858D01*
X6556D01*
X6558Y4853D01*
X6544Y4839D01*
X6541Y4835D01*
X6540Y4830D01*
Y4713D01*
X6541Y4708D01*
X6544Y4703D01*
X6570Y4677D01*
X6568Y4672D01*
X6561D01*
Y4576D01*
X6557Y4573D01*
X6552Y4575D01*
X6548Y4576D01*
Y4541D01*
Y4506D01*
X6552Y4507D01*
X6557Y4509D01*
X6561Y4506D01*
Y4416D01*
X6592D01*
Y4544D01*
X6597D01*
Y4549D01*
X6632D01*
Y4672D01*
X6609D01*
X6609Y4674D01*
X6606Y4678D01*
X6566Y4718D01*
Y4825D01*
X6576Y4834D01*
X6580Y4831D01*
X6577Y4824D01*
X6576Y4815D01*
X6577Y4806D01*
X6580Y4798D01*
X6585Y4791D01*
X6592Y4786D01*
X6600Y4783D01*
X6609Y4782D01*
X6618Y4783D01*
X6626Y4786D01*
X6633Y4791D01*
X6638Y4798D01*
X6641Y4806D01*
X6642Y4815D01*
X6641Y4824D01*
X6638Y4832D01*
X6633Y4839D01*
X6626Y4844D01*
X6621Y4846D01*
Y5808D01*
X6625Y5809D01*
X6632Y5814D01*
X6637Y5821D01*
X6640Y5829D01*
X6641Y5838D01*
X6640Y5847D01*
X6637Y5855D01*
X6632Y5862D01*
X6625Y5867D01*
X6617Y5870D01*
X6608Y5871D01*
D02*
G37*
%LPD*%
D10*
X6046Y4911D02*
D03*
D11*
X5912Y4569D02*
D03*
X5979D02*
D03*
X6046D02*
D03*
X6113D02*
D03*
X6180D02*
D03*
D12*
X4895Y4728D02*
D03*
X4915D02*
D03*
X4935D02*
D03*
X4954D02*
D03*
X4974D02*
D03*
X4994D02*
D03*
X5013D02*
D03*
X5033D02*
D03*
X5053D02*
D03*
X5072D02*
D03*
X5092D02*
D03*
X5112D02*
D03*
X5131D02*
D03*
X5151D02*
D03*
X5171D02*
D03*
X5190D02*
D03*
Y5181D02*
D03*
X5171D02*
D03*
X5151D02*
D03*
X5131D02*
D03*
X5112D02*
D03*
X5092D02*
D03*
X5072D02*
D03*
X5053D02*
D03*
X5033D02*
D03*
X5013D02*
D03*
X4994D02*
D03*
X4974D02*
D03*
X4954D02*
D03*
X4935D02*
D03*
X4915D02*
D03*
X4895D02*
D03*
D13*
X5269Y4807D02*
D03*
Y4827D02*
D03*
Y4846D02*
D03*
Y4866D02*
D03*
Y4886D02*
D03*
Y4905D02*
D03*
Y4925D02*
D03*
Y4945D02*
D03*
Y4964D02*
D03*
Y4984D02*
D03*
Y5004D02*
D03*
Y5024D02*
D03*
Y5043D02*
D03*
Y5063D02*
D03*
Y5083D02*
D03*
Y5102D02*
D03*
X4816D02*
D03*
Y5083D02*
D03*
Y5063D02*
D03*
Y5043D02*
D03*
Y5024D02*
D03*
Y5004D02*
D03*
Y4984D02*
D03*
Y4964D02*
D03*
Y4945D02*
D03*
Y4925D02*
D03*
Y4905D02*
D03*
Y4886D02*
D03*
Y4866D02*
D03*
Y4846D02*
D03*
Y4827D02*
D03*
Y4807D02*
D03*
D14*
X6200Y4125D02*
D03*
X6555D02*
D03*
D15*
X5700Y4923D02*
D03*
Y4687D02*
D03*
D16*
X6315Y5527D02*
D03*
Y5447D02*
D03*
X4838Y5242D02*
D03*
Y5322D02*
D03*
X5361Y5229D02*
D03*
Y5149D02*
D03*
X4851Y6079D02*
D03*
Y6159D02*
D03*
X4997Y4553D02*
D03*
Y4473D02*
D03*
X4913Y4552D02*
D03*
Y4472D02*
D03*
X5256Y4036D02*
D03*
Y4116D02*
D03*
X5392D02*
D03*
Y4036D02*
D03*
X5313Y4540D02*
D03*
Y4620D02*
D03*
X5217Y4622D02*
D03*
Y4542D02*
D03*
X4803Y5678D02*
D03*
Y5758D02*
D03*
X4851Y5886D02*
D03*
Y5966D02*
D03*
D17*
X6015Y4320D02*
D03*
X5838D02*
D03*
D18*
X6221Y5689D02*
D03*
X5985D02*
D03*
D19*
X6463Y5015D02*
D03*
X6543D02*
D03*
X5370Y4838D02*
D03*
X5450D02*
D03*
X4388Y4695D02*
D03*
X4308D02*
D03*
X4387Y4527D02*
D03*
X4307D02*
D03*
X4635Y4766D02*
D03*
X4715D02*
D03*
Y4663D02*
D03*
X4635D02*
D03*
X5308Y4721D02*
D03*
X5388D02*
D03*
X5198Y5822D02*
D03*
X5278D02*
D03*
X5387Y5820D02*
D03*
X5467D02*
D03*
X5385Y5926D02*
D03*
X5465D02*
D03*
X5197Y5929D02*
D03*
X5277D02*
D03*
X5387Y6031D02*
D03*
X5467D02*
D03*
X5198D02*
D03*
X5278D02*
D03*
X5198Y6137D02*
D03*
X5278D02*
D03*
X5197Y6242D02*
D03*
X5277D02*
D03*
X5198Y6342D02*
D03*
X5278D02*
D03*
X5203Y6448D02*
D03*
X5283D02*
D03*
X5207Y6555D02*
D03*
X5287D02*
D03*
X5386Y6136D02*
D03*
X5466D02*
D03*
X5386Y6239D02*
D03*
X5466D02*
D03*
X5386Y6343D02*
D03*
X5466D02*
D03*
X5385Y6449D02*
D03*
X5465D02*
D03*
X5388Y6554D02*
D03*
X5468D02*
D03*
X6541Y4891D02*
D03*
X6461D02*
D03*
D20*
X6008Y4059D02*
D03*
X5910D02*
D03*
X5812D02*
D03*
X4830Y3428D02*
D03*
X4732D02*
D03*
X4634D02*
D03*
X4450D02*
D03*
X4352D02*
D03*
X4254D02*
D03*
D21*
X4682Y5804D02*
D03*
X4623D02*
D03*
X4564D02*
D03*
X4505D02*
D03*
X4446D02*
D03*
X4387D02*
D03*
X4328D02*
D03*
X4268D02*
D03*
X6013Y5522D02*
D03*
X6104D02*
D03*
X6195D02*
D03*
D22*
X4731Y6582D02*
D03*
Y6523D02*
D03*
Y6464D02*
D03*
Y6405D02*
D03*
Y6346D02*
D03*
Y6286D02*
D03*
Y6227D02*
D03*
Y6168D02*
D03*
Y6109D02*
D03*
Y6050D02*
D03*
X4731Y5991D02*
D03*
Y5932D02*
D03*
Y5873D02*
D03*
X4219D02*
D03*
Y5932D02*
D03*
Y5991D02*
D03*
Y6050D02*
D03*
Y6109D02*
D03*
Y6168D02*
D03*
Y6227D02*
D03*
Y6286D02*
D03*
Y6346D02*
D03*
Y6405D02*
D03*
Y6464D02*
D03*
Y6523D02*
D03*
Y6582D02*
D03*
D23*
X6597Y4544D02*
D03*
X6321D02*
D03*
D24*
X4866Y3994D02*
D03*
Y4094D02*
D03*
X4689Y4044D02*
D03*
Y3944D02*
D03*
X5137Y3539D02*
D03*
Y3639D02*
D03*
X5314Y3689D02*
D03*
Y3589D02*
D03*
Y3789D02*
D03*
X5137Y3739D02*
D03*
D25*
X4210Y4522D02*
D03*
Y4699D02*
D03*
D26*
X6104Y5274D02*
D03*
D27*
X6461Y4891D02*
Y4947D01*
X6432Y4952D02*
X6449D01*
X6456Y4925D02*
Y4952D01*
X6449Y4932D02*
X6456Y4925D01*
X6412Y4972D02*
X6432Y4952D01*
X6195Y5522D02*
X6310D01*
X6397Y5011D02*
Y5507D01*
X5912Y4203D02*
Y4569D01*
X6228Y4359D02*
X6321D01*
X6113Y4474D02*
X6228Y4359D01*
X6113Y4474D02*
Y4569D01*
X4285Y5873D02*
X4731D01*
X4219D02*
X4285D01*
X5547Y3561D02*
Y3840D01*
X3968Y3339D02*
Y4125D01*
X6321Y4359D02*
Y4544D01*
Y4359D02*
X6555Y4125D01*
X4440Y5875D02*
Y6208D01*
X6315Y5527D02*
X6377D01*
X6321Y4544D02*
X6405D01*
X6461Y4600D01*
Y4891D01*
X5912Y4203D02*
X6008Y4107D01*
X3968Y3339D02*
X4132Y3175D01*
X4753D01*
X4985Y3407D01*
X5393D01*
X5547Y3561D01*
Y3840D02*
X5624Y3917D01*
X5979D01*
X6008Y3946D01*
Y4059D01*
X6412Y4972D02*
Y4996D01*
X6397Y5011D02*
X6412Y4996D01*
X6465Y4035D02*
X6555Y4125D01*
X6465Y4010D02*
Y4035D01*
D28*
X6461Y4952D02*
Y4953D01*
X6543Y4541D02*
X6597D01*
X4800Y5181D02*
Y5312D01*
X5350Y4804D02*
X5354Y4800D01*
X5308Y4846D02*
X5350Y4804D01*
X5370Y4824D01*
Y4838D01*
X5308Y4620D02*
Y4721D01*
X5217Y4622D02*
X5306D01*
X5256Y4116D02*
X5392D01*
X5316Y4117D02*
Y4476D01*
X5450Y4680D02*
Y4810D01*
X6534Y5241D02*
X6576Y5199D01*
X6377Y5527D02*
X6397Y5507D01*
X6104Y5274D02*
Y5447D01*
X6463Y5170D02*
X6534Y5241D01*
X6553Y4713D02*
X6597Y4669D01*
X6553Y4713D02*
Y4830D01*
X6576Y4853D01*
Y5199D01*
X6543Y4893D02*
Y5015D01*
X6180Y4569D02*
Y4778D01*
X5314Y4040D02*
X5357Y4083D01*
X5422D01*
X5430Y4091D01*
Y4321D01*
X5217Y4542D02*
X5252Y4577D01*
X5154Y4783D02*
X5285D01*
X5179Y4765D02*
X5220D01*
X5171Y4756D02*
X5179Y4765D01*
X5171Y4728D02*
Y4756D01*
X5190Y4728D02*
X5251Y4668D01*
X5287Y6555D02*
X5387D01*
X5283Y6448D02*
X5384D01*
X5465Y5926D02*
X5467Y5924D01*
X5278Y6342D02*
X5385D01*
X5277Y6242D02*
X5383D01*
X5198Y6117D02*
X5231Y6084D01*
X5198Y6117D02*
Y6137D01*
X5278D02*
X5385D01*
X5280Y5820D02*
X5387D01*
X5277Y5929D02*
X5382D01*
X4682Y5102D02*
X4816D01*
X4577Y4997D02*
X4682Y5102D01*
X4577Y4520D02*
Y4997D01*
X4524Y5168D02*
X4585D01*
X4500Y5144D02*
X4524Y5168D01*
X4595Y4868D02*
X4711Y4984D01*
X4595Y4418D02*
Y4868D01*
X4553Y5127D02*
X4558Y5122D01*
Y4548D02*
Y5122D01*
X4516Y4506D02*
X4558Y4548D01*
X4545Y4488D02*
X4577Y4520D01*
X4565Y4388D02*
X4595Y4418D01*
X4565Y3735D02*
Y4388D01*
X4371Y4896D02*
X4458Y4809D01*
X4371Y4896D02*
Y4957D01*
X4440Y4034D02*
Y4802D01*
X4500Y4664D02*
Y5144D01*
X4386Y4646D02*
Y4693D01*
Y4646D02*
X4400Y4632D01*
Y4602D02*
Y4632D01*
X4324Y4446D02*
X4356D01*
X4387Y4477D01*
Y4527D01*
X4210Y4522D02*
X4302D01*
X4210Y4699D02*
X4304D01*
X4222Y3349D02*
X4251D01*
X4254Y3428D02*
Y3995D01*
X4401D01*
X4440Y4034D01*
X4671Y3357D02*
Y3517D01*
X4628Y3314D02*
X4671Y3357D01*
X4381Y3314D02*
X4628D01*
X4352Y3343D02*
X4381Y3314D01*
X5241Y3717D02*
X5269Y3689D01*
X5314D01*
X5197Y4432D02*
X5202Y4437D01*
X5194Y4429D02*
X5197Y4432D01*
X5202Y4437D02*
Y4475D01*
X5160Y4517D02*
X5202Y4475D01*
X5278Y4206D02*
Y4432D01*
X5218Y4146D02*
X5278Y4206D01*
X5218Y4083D02*
Y4146D01*
X5429Y5190D02*
Y5237D01*
X5424Y5185D02*
X5429Y5190D01*
X5397Y5185D02*
X5424D01*
X5361Y5149D02*
X5397Y5185D01*
X5361Y5095D02*
Y5149D01*
X5349Y5083D02*
X5361Y5095D01*
X5269Y5083D02*
X5349D01*
X5016Y4553D02*
Y4684D01*
X5503Y4036D02*
X5602D01*
X5431Y5000D02*
Y5004D01*
X6463Y5170D02*
Y5640D01*
X6160Y5665D02*
X6221D01*
X6104Y5447D02*
Y5522D01*
X5450Y4859D02*
X5551D01*
X5450Y4810D02*
Y4838D01*
X5278Y4533D02*
X5285Y4540D01*
X5253Y4036D02*
Y4048D01*
X5241Y4036D02*
X5253D01*
X5241Y3718D02*
Y4036D01*
X4652Y5322D02*
X4774Y5200D01*
X4810Y5322D02*
X4838D01*
X4652D02*
X4810D01*
X4254Y3293D02*
Y3428D01*
X4994Y4680D02*
Y4728D01*
X4984Y4670D02*
X4994Y4680D01*
X4966Y4670D02*
X4984D01*
X4855Y4559D02*
X4966Y4670D01*
X4855Y4545D02*
Y4559D01*
X4711Y4984D02*
X4816D01*
X4565Y3735D02*
X4711Y3589D01*
X5198D01*
X5209Y3600D01*
Y3674D01*
X5201Y3682D02*
X5209Y3674D01*
X5201Y3682D02*
Y3704D01*
X5166Y3739D02*
X5201Y3704D01*
X5137Y3739D02*
X5166D01*
X5070Y3639D02*
X5137D01*
X4764Y3945D02*
X5070Y3639D01*
X4764Y3945D02*
Y4351D01*
X4671Y4444D02*
X4764Y4351D01*
X4671Y4444D02*
Y4571D01*
X4585Y5168D02*
X4630Y5123D01*
X4933D01*
X4935Y5181D01*
X5252Y4577D02*
X5341D01*
X5354Y4590D02*
Y4800D01*
X5341Y4577D02*
X5354Y4590D01*
X5269Y4846D02*
X5308D01*
X4193Y6523D02*
X4219D01*
X4176Y6506D02*
X4193Y6523D01*
X4176Y5840D02*
Y6506D01*
Y5840D02*
X4187Y5829D01*
X4200D01*
X4221Y5808D01*
Y5782D02*
Y5808D01*
Y5782D02*
X4323Y5680D01*
X5764Y5249D02*
X5845D01*
X5456Y4942D02*
X5764Y5249D01*
X5340Y4942D02*
X5456D01*
X5337Y4945D02*
X5340Y4942D01*
X5269Y4945D02*
X5337D01*
X5227Y4964D02*
X5269D01*
X5212Y4949D02*
X5227Y4964D01*
X5497Y4461D02*
X5547Y4511D01*
X5469Y4461D02*
X5497D01*
X4350Y4126D02*
Y4174D01*
X4002Y4522D02*
X4350Y4174D01*
X4002Y4522D02*
Y5337D01*
X3956Y5383D02*
X4002Y5337D01*
X3956Y5383D02*
Y6485D01*
X4053Y6582D01*
X4219D01*
X5171Y5181D02*
Y5403D01*
X4516Y3706D02*
Y4506D01*
Y3706D02*
X4732Y3490D01*
Y3428D02*
Y3490D01*
X4352Y3343D02*
Y3428D01*
X4640Y3548D02*
X4671Y3517D01*
X4520Y3548D02*
X4640D01*
X4458Y3610D02*
X4520Y3548D01*
X4458Y3610D02*
Y4809D01*
X4936Y4963D02*
X4974Y4925D01*
X5100D01*
X5115Y4940D01*
Y5016D01*
X5091Y5040D02*
X5115Y5016D01*
X5091Y5040D02*
Y5120D01*
X5111Y5140D01*
X5179D01*
X5190Y5152D01*
Y5181D01*
X4974D02*
Y5696D01*
X5012Y5734D01*
Y6011D01*
X5041Y6040D01*
X6608Y4816D02*
Y5838D01*
Y4816D02*
X6609Y4815D01*
X4994Y5664D02*
X5050Y5720D01*
X4994Y5181D02*
Y5664D01*
X5108Y5951D02*
Y6161D01*
X5089Y5932D02*
X5108Y5951D01*
X5089Y5820D02*
Y5932D01*
Y5820D02*
X5108Y5801D01*
Y5688D02*
Y5801D01*
X5033Y5613D02*
X5108Y5688D01*
X5033Y5181D02*
Y5613D01*
X5184Y5634D02*
Y5708D01*
X5100Y5550D02*
X5184Y5634D01*
X5080Y5550D02*
X5100D01*
X5057Y5526D02*
X5080Y5550D01*
X5057Y5488D02*
Y5526D01*
Y5488D02*
X5072Y5472D01*
Y5181D02*
Y5472D01*
X5092Y5181D02*
Y5507D01*
X5095Y5510D01*
X4851Y5806D02*
Y5886D01*
X4803Y5758D02*
X4851Y5806D01*
X5392Y4036D02*
X5503D01*
X5269Y4925D02*
X5310D01*
X5311Y4924D01*
X5464D01*
X5742Y5202D01*
X5852D01*
X6047Y5397D01*
Y5799D01*
X5892Y5954D02*
X6047Y5799D01*
X5581Y5954D02*
X5892D01*
X5535Y6000D02*
X5581Y5954D01*
X5535Y6000D02*
Y6574D01*
X5515Y6594D02*
X5535Y6574D01*
X5220Y6594D02*
X5515D01*
X5207Y6581D02*
X5220Y6594D01*
X5207Y6555D02*
Y6581D01*
X5269Y4905D02*
X5518D01*
X5796Y5184D01*
X5880D01*
X6065Y5369D01*
Y5963D01*
X6000Y6028D02*
X6065Y5963D01*
X5625Y6028D02*
X6000D01*
X5559Y6094D02*
X5625Y6028D01*
X5559Y6094D02*
Y6584D01*
X5522Y6621D02*
X5559Y6584D01*
X5195Y6621D02*
X5522D01*
X5174Y6600D02*
X5195Y6621D01*
X5174Y6501D02*
Y6600D01*
Y6501D02*
X5203Y6480D01*
Y6448D02*
Y6480D01*
X5197Y6213D02*
Y6242D01*
Y6213D02*
X5220Y6190D01*
X5400D01*
X5420Y6170D01*
Y5472D02*
Y6170D01*
X5920Y5166D02*
X5948Y5194D01*
X5817Y5166D02*
X5920D01*
X5535Y4884D02*
X5817Y5166D01*
X5324Y4884D02*
X5535D01*
X5306Y4866D02*
X5324Y4884D01*
X5269Y4866D02*
X5306D01*
X5083Y5588D02*
Y5603D01*
X5135Y5655D01*
Y5810D01*
X5107Y5838D02*
X5135Y5810D01*
X5107Y5838D02*
Y5909D01*
X5198Y6000D01*
Y6031D01*
X5151Y4565D02*
Y4728D01*
X5427Y4520D02*
X5502Y4595D01*
X5738D01*
X5150Y5876D02*
X5173D01*
X5197Y5900D01*
Y5929D01*
X4847Y4473D02*
X4880Y4506D01*
X5020D01*
X5053Y4539D01*
Y4728D01*
X5033D02*
Y4858D01*
X4986Y4905D02*
X5033Y4858D01*
X4907Y4905D02*
X4986D01*
X4183Y5028D02*
Y5791D01*
X5269Y5024D02*
X5310D01*
X5354Y4980D01*
X5307Y5380D02*
X5347Y5420D01*
Y5730D01*
X4932Y5842D02*
Y6027D01*
X4880Y6079D02*
X4932Y6027D01*
X4851Y6079D02*
X4880D01*
X5269Y5063D02*
X5377D01*
X5431Y5009D01*
Y5004D02*
Y5009D01*
X5216Y5043D02*
X5269D01*
X5213Y5046D02*
X5216Y5043D01*
X4946Y4866D02*
X4972Y4840D01*
X4816Y4866D02*
X4946D01*
X5450Y4680D02*
X5497Y4633D01*
X5776D01*
X5838Y4571D01*
Y4320D02*
Y4571D01*
X4803Y5357D02*
Y5678D01*
Y5357D02*
X4838Y5322D01*
X4627Y5347D02*
X4652Y5322D01*
X4303Y5347D02*
X4627D01*
X5388Y4721D02*
Y4748D01*
X5450Y4810D01*
X4603Y3981D02*
Y3982D01*
X4640Y3944D02*
X4689D01*
X5616Y4923D02*
X5700D01*
X5551Y4859D02*
X5616Y4923D01*
X5450Y4838D02*
Y4859D01*
X5218Y4083D02*
X5253Y4048D01*
X6414Y5689D02*
X6463Y5640D01*
X6221Y5689D02*
X6414D01*
X6104Y5447D02*
X6315D01*
X4254Y3293D02*
X4307Y3240D01*
X5912Y4569D02*
Y4595D01*
X5231Y5793D02*
Y6084D01*
Y5793D02*
X5251Y5773D01*
Y5150D02*
Y5773D01*
X5174Y5073D02*
X5251Y5150D01*
X5174Y4860D02*
Y5073D01*
Y4860D02*
X5227Y4807D01*
X5269D01*
X5308Y4721D02*
Y4760D01*
X5285Y4783D02*
X5308Y4760D01*
X5131D02*
X5154Y4783D01*
X5131Y4728D02*
Y4760D01*
X5198Y5768D02*
Y5822D01*
Y5768D02*
X5222Y5744D01*
Y5152D02*
Y5744D01*
X5129Y5059D02*
X5222Y5152D01*
X5220Y4765D02*
X5255Y4730D01*
X5278Y4432D02*
Y4533D01*
X5285Y4540D02*
X5313D01*
X5072Y4536D02*
Y4728D01*
Y4536D02*
X5132Y4476D01*
X4997Y4473D02*
X5050D01*
X5094Y4429D01*
X5194D01*
X5119Y4517D02*
X5160D01*
X5096Y4540D02*
X5119Y4517D01*
X5096Y4540D02*
Y4626D01*
X5112Y4642D01*
Y4728D01*
X5198Y6310D02*
Y6342D01*
X5180Y6292D02*
X5198Y6310D01*
X5111Y6292D02*
X5180D01*
X5059Y6240D02*
X5111Y6292D01*
X5059Y6125D02*
Y6240D01*
X5215Y4886D02*
X5269D01*
X5053Y4986D02*
Y5181D01*
Y4986D02*
X5076Y4963D01*
X5164Y5478D02*
Y5532D01*
X5112Y5426D02*
X5164Y5478D01*
X5112Y5181D02*
Y5426D01*
X5070Y5758D02*
Y5987D01*
Y5758D02*
X5088Y5740D01*
Y5700D02*
Y5740D01*
X5013Y5625D02*
X5088Y5700D01*
X5013Y5181D02*
Y5625D01*
X4256Y3530D02*
X4616D01*
X4634Y3512D01*
Y3428D02*
Y3512D01*
X4774Y4559D02*
X4806D01*
X4938Y4691D01*
X4974D01*
Y4728D01*
X4728Y3539D02*
X5137D01*
X4545Y3722D02*
X4728Y3539D01*
X4545Y3722D02*
Y4488D01*
X4743Y4925D02*
X4816D01*
Y4905D02*
X4853D01*
X4861Y4913D01*
Y4943D01*
X6597Y4541D02*
Y4544D01*
X6463Y5015D02*
Y5170D01*
X4816Y4846D02*
X4879D01*
X4918Y4807D01*
X5314Y3789D02*
Y4040D01*
X4716Y4439D02*
X4790Y4365D01*
X4716Y4439D02*
Y4591D01*
X4682Y4625D02*
X4716Y4591D01*
X4682Y4625D02*
Y4920D01*
X4726Y4964D01*
X4816D01*
X4635Y4606D02*
Y4663D01*
X4613Y4584D02*
X4635Y4606D01*
X4613Y4449D02*
Y4584D01*
Y4449D02*
X4635Y4427D01*
X4954Y5098D02*
Y5181D01*
X4913Y5057D02*
X4954Y5098D01*
X4779Y4645D02*
Y4826D01*
X4780Y4827D01*
X4285Y5873D02*
X4297Y5885D01*
X4915Y5141D02*
Y5181D01*
X4840Y5141D02*
X4915D01*
X4800Y5181D02*
X4840Y5141D01*
X4800Y5312D02*
X4810Y5322D01*
X5313Y4540D02*
X5368D01*
X5388Y4560D01*
X6063Y4125D02*
X6200D01*
X6015Y4173D02*
X6063Y4125D01*
X6015Y4173D02*
Y4320D01*
X5240Y3589D02*
X5314D01*
X5217Y3724D02*
X5220Y3721D01*
X4770Y4886D02*
X4816D01*
X4760Y4876D02*
X4770Y4886D01*
X4760Y4847D02*
Y4876D01*
Y4847D02*
X4780Y4827D01*
X4816D01*
X5013Y4687D02*
Y4728D01*
Y4687D02*
X5016Y4684D01*
X4997Y4553D02*
X5016D01*
X4673Y4044D02*
X4689D01*
X5388Y4560D02*
Y4721D01*
X5910Y4001D02*
Y4059D01*
X5900Y3991D02*
X5910Y4001D01*
X5647Y3991D02*
X5900D01*
X5602Y4036D02*
X5647Y3991D01*
X6597Y4544D02*
Y4669D01*
X4724Y5678D02*
X4803D01*
X4682Y5720D02*
X4724Y5678D01*
X4682Y5720D02*
Y5804D01*
X6221Y5665D02*
Y5689D01*
X6104Y5609D02*
X6160Y5665D01*
X6104Y5522D02*
Y5609D01*
X5308Y4620D02*
X5313D01*
X6008Y4059D02*
Y4107D01*
X4942Y4553D02*
X4997D01*
X4941Y4552D02*
X4942Y4553D01*
X4913Y4552D02*
X4941D01*
X4816Y6159D02*
X4851D01*
X4766Y6109D02*
X4816Y6159D01*
X4731Y6109D02*
X4766D01*
X5278Y6031D02*
X5387D01*
X4803Y5966D02*
X4851D01*
X4778Y5991D02*
X4803Y5966D01*
X4731Y5991D02*
X4778D01*
X4635Y4663D02*
Y4766D01*
X6104Y5121D02*
Y5274D01*
X6046Y5063D02*
X6104Y5121D01*
X6046Y4911D02*
Y5063D01*
Y4569D02*
Y4911D01*
X4731Y5863D02*
Y5873D01*
X4682Y5814D02*
X4731Y5863D01*
X4682Y5804D02*
Y5814D01*
X5879Y4911D02*
X6046D01*
X5867Y4923D02*
X5879Y4911D01*
X5700Y4923D02*
X5867D01*
X5979Y4462D02*
Y4569D01*
Y4462D02*
X6015Y4426D01*
Y4320D02*
Y4426D01*
X4993Y5075D02*
Y5097D01*
X4861Y4943D02*
X4993Y5075D01*
X4260Y4982D02*
X4440Y4802D01*
X4260Y4982D02*
Y5304D01*
X4303Y5347D01*
X4835Y4365D02*
X4884Y4316D01*
X4790Y4365D02*
X4835D01*
X5225Y4465D02*
X5238Y4452D01*
Y4405D02*
Y4452D01*
X5231Y3598D02*
X5240Y3589D01*
X5220Y3700D02*
X5231Y3688D01*
X4895Y5181D02*
Y5226D01*
X5269Y5102D02*
X5290D01*
X4140Y3580D02*
X4156Y3596D01*
D29*
X5361Y5229D02*
Y5290D01*
X5312Y5180D02*
X5361Y5229D01*
X4260Y5932D02*
X4341Y6013D01*
X4219Y5932D02*
X4260D01*
X4341Y6013D02*
Y6165D01*
Y6290D01*
X4822Y4415D02*
X4868D01*
X4774Y4463D02*
X4822Y4415D01*
X5780Y4687D02*
X5898Y4569D01*
X4303Y5447D02*
Y5575D01*
X4237Y5641D02*
X4303Y5575D01*
X4715Y4663D02*
Y4766D01*
X4039Y3354D02*
X4199Y3514D01*
Y4021D01*
X4239Y4061D01*
X4369D01*
X4407Y4099D01*
Y4208D01*
X4161Y4454D02*
X4407Y4208D01*
X4159Y4454D02*
X4161D01*
X4098Y4515D02*
X4159Y4454D01*
X4098Y4515D02*
Y4875D01*
X4231Y5008D01*
Y5375D01*
X4303Y5447D01*
X5700Y4687D02*
X5780D01*
X5374Y4459D02*
X5587Y4246D01*
X4868Y4415D02*
X4913Y4460D01*
X4922Y4469D02*
X5019Y4371D01*
X5225Y4392D02*
X5238Y4405D01*
X5200Y4169D02*
Y4371D01*
X5225D02*
Y4392D01*
X5019Y4371D02*
X5200D01*
X5225D01*
X4341Y6290D02*
X4688Y6637D01*
X4761D01*
X4980Y6418D01*
X4903Y5517D02*
Y5705D01*
X4980Y5782D01*
X4879Y5242D02*
X4895Y5226D01*
X4838Y5242D02*
X4879D01*
X4895Y5250D02*
X4906Y5261D01*
X4895Y5226D02*
Y5250D01*
X4906Y5261D02*
Y5522D01*
X5312Y5147D02*
Y5180D01*
X5276Y5111D02*
X5312Y5147D01*
X5361Y5290D02*
X5478Y5407D01*
X5467Y5820D02*
X5478Y5809D01*
X5467Y5820D02*
Y5924D01*
Y6031D01*
Y6553D01*
X5478Y5407D02*
Y5809D01*
X5985Y5550D02*
Y5689D01*
Y5550D02*
X6013Y5522D01*
X5479Y5716D02*
X5988D01*
X5180Y4149D02*
X5200Y4169D01*
X5180Y3972D02*
Y4149D01*
Y3972D02*
X5213Y3939D01*
D30*
X4673Y4044D02*
Y4255D01*
X4715Y4625D02*
Y4663D01*
X3956Y4512D02*
Y5286D01*
X4603Y3981D02*
X4640Y3944D01*
X4138Y5845D02*
Y6298D01*
X4866Y4094D02*
X4934D01*
X5374Y4459D02*
Y4482D01*
X5587Y4246D02*
X5908D01*
X5217Y4493D02*
Y4542D01*
Y4493D02*
X5225Y4485D01*
Y4465D02*
Y4485D01*
X4715Y4625D02*
X4739Y4601D01*
X4800Y4603D02*
X4833Y4636D01*
X4870Y4741D02*
X4885Y4726D01*
X4833Y4636D02*
Y4802D01*
X4980Y5782D02*
Y6418D01*
X4957Y3994D02*
X5040Y4077D01*
X4866Y3994D02*
X4957D01*
X5019Y4180D02*
X5020D01*
X4934Y4094D02*
X5020Y4180D01*
X4156Y3596D02*
Y4312D01*
X3956Y4512D02*
X4156Y4312D01*
X5217Y3724D02*
Y3939D01*
D31*
X4746Y4603D02*
X4800D01*
X4743Y4494D02*
X4774Y4463D01*
X4743Y4494D02*
Y4496D01*
D32*
X5220Y3700D02*
Y3721D01*
X5231Y3598D02*
Y3688D01*
X4735Y4504D02*
X4743Y4496D01*
X4735Y4504D02*
Y4598D01*
D33*
X4303Y5247D02*
D03*
Y5347D02*
D03*
D34*
Y5447D02*
D03*
D35*
X5623Y4139D02*
D03*
Y4375D02*
D03*
Y5595D02*
D03*
Y5832D02*
D03*
X4048Y4237D02*
D03*
Y5733D02*
D03*
D36*
X5197Y4432D02*
D03*
X4855Y4545D02*
D03*
X4400Y4602D02*
D03*
X4671Y4571D02*
D03*
X4500Y4664D02*
D03*
X4341Y6165D02*
D03*
X4903Y5517D02*
D03*
X4774Y4463D02*
D03*
X3968Y4125D02*
D03*
X4323Y5680D02*
D03*
X5845Y5249D02*
D03*
X5212Y4949D02*
D03*
X5547Y4511D02*
D03*
X5469Y4461D02*
D03*
X4350Y4126D02*
D03*
X5171Y5403D02*
D03*
X4553Y5127D02*
D03*
X4371Y4957D02*
D03*
X4936Y4963D02*
D03*
X5041Y6040D02*
D03*
X6608Y5838D02*
D03*
X6609Y4815D02*
D03*
X5050Y5720D02*
D03*
X5108Y6161D02*
D03*
X5184Y5708D02*
D03*
X5095Y5510D02*
D03*
X3956Y5286D02*
D03*
X4140Y3580D02*
D03*
X5503Y4036D02*
D03*
X5420Y5472D02*
D03*
X5948Y5194D02*
D03*
X5266Y4668D02*
D03*
X5083Y5588D02*
D03*
X5151Y4565D02*
D03*
X5427Y4520D02*
D03*
X5738Y4595D02*
D03*
X5150Y5876D02*
D03*
X4847Y4473D02*
D03*
X4907Y4905D02*
D03*
X4183Y5028D02*
D03*
Y5791D02*
D03*
X5354Y4980D02*
D03*
X5307Y5380D02*
D03*
X5347Y5730D02*
D03*
X4932Y5842D02*
D03*
X5431Y5004D02*
D03*
X5213Y5046D02*
D03*
X4972Y4840D02*
D03*
X6465Y4010D02*
D03*
X4603Y3982D02*
D03*
X4307Y3240D02*
D03*
X5129Y5059D02*
D03*
X5255Y4730D02*
D03*
X5278Y4432D02*
D03*
X5132Y4476D02*
D03*
X5316D02*
D03*
X5059Y6125D02*
D03*
X5215Y4886D02*
D03*
X5255Y3988D02*
D03*
X4039Y3354D02*
D03*
X5076Y4963D02*
D03*
X5374Y4482D02*
D03*
X4138Y6298D02*
D03*
Y5845D02*
D03*
X5164Y5532D02*
D03*
X5429Y5237D02*
D03*
X5070Y5987D02*
D03*
X4324Y4446D02*
D03*
X4774Y4559D02*
D03*
X4743Y4925D02*
D03*
X6543Y4541D02*
D03*
X6534Y5241D02*
D03*
X4918Y4807D02*
D03*
X5430Y4321D02*
D03*
X4884Y4316D02*
D03*
X4635Y4427D02*
D03*
X4440Y6208D02*
D03*
X4913Y5057D02*
D03*
X4779Y4645D02*
D03*
X4774Y5200D02*
D03*
X4297Y5885D02*
D03*
X6377Y5527D02*
D03*
X4237Y5641D02*
D03*
X4254Y3995D02*
D03*
X4222Y3349D02*
D03*
X4673Y4255D02*
D03*
X5436Y4686D02*
D03*
X4925Y5242D02*
D03*
X6456Y4952D02*
D03*
X4860Y4753D02*
D03*
X4993Y5097D02*
D03*
X5040Y4077D02*
D03*
X5019Y4180D02*
D03*
M02*
