%FSLAX23Y23*%
%MOIN*%
G70*
G01*
G75*
G04 Layer_Physical_Order=2*
G04 Layer_Color=16711680*
%ADD10R,0.050X0.040*%
%ADD11R,0.410X0.470*%
%ADD12R,0.040X0.110*%
%ADD13R,0.114X0.213*%
%ADD14R,0.126X0.079*%
%ADD15R,0.108X0.085*%
%ADD16R,0.040X0.050*%
%ADD17R,0.047X0.098*%
%ADD18R,0.051X0.236*%
%ADD19R,0.079X0.071*%
%ADD20R,0.118X0.059*%
%ADD21R,0.130X0.059*%
%ADD22R,0.039X0.059*%
%ADD23R,0.079X0.126*%
%ADD24R,0.012X0.047*%
%ADD25R,0.047X0.012*%
%ADD26R,0.059X0.039*%
%ADD27R,0.028X0.014*%
%ADD28R,0.014X0.028*%
%ADD29C,0.008*%
%ADD30C,0.010*%
%ADD31C,0.020*%
%ADD32C,0.015*%
%ADD33C,0.055*%
%ADD34C,0.030*%
%ADD35C,0.040*%
%ADD36C,0.025*%
%ADD37C,0.059*%
%ADD38R,0.059X0.059*%
%ADD39P,0.170X8X22.5*%
%ADD40C,0.030*%
%ADD41C,0.050*%
%ADD42R,0.045X0.012*%
%ADD43R,0.071X0.047*%
%ADD44R,0.061X0.024*%
G04:AMPARAMS|DCode=45|XSize=71mil|YSize=47mil|CornerRadius=0mil|HoleSize=0mil|Usage=FLASHONLY|Rotation=135.000|XOffset=0mil|YOffset=0mil|HoleType=Round|Shape=Rectangle|*
%AMROTATEDRECTD45*
4,1,4,0.042,-0.008,0.008,-0.042,-0.042,0.008,-0.008,0.042,0.042,-0.008,0.0*
%
%ADD45ROTATEDRECTD45*%

G04:AMPARAMS|DCode=46|XSize=61mil|YSize=24mil|CornerRadius=0mil|HoleSize=0mil|Usage=FLASHONLY|Rotation=135.000|XOffset=0mil|YOffset=0mil|HoleType=Round|Shape=Rectangle|*
%AMROTATEDRECTD46*
4,1,4,0.030,-0.013,0.013,-0.030,-0.030,0.013,-0.013,0.030,0.030,-0.013,0.0*
%
%ADD46ROTATEDRECTD46*%

G04:AMPARAMS|DCode=47|XSize=71mil|YSize=47mil|CornerRadius=0mil|HoleSize=0mil|Usage=FLASHONLY|Rotation=225.000|XOffset=0mil|YOffset=0mil|HoleType=Round|Shape=Rectangle|*
%AMROTATEDRECTD47*
4,1,4,0.008,0.042,0.042,0.008,-0.008,-0.042,-0.042,-0.008,0.008,0.042,0.0*
%
%ADD47ROTATEDRECTD47*%

G04:AMPARAMS|DCode=48|XSize=61mil|YSize=24mil|CornerRadius=0mil|HoleSize=0mil|Usage=FLASHONLY|Rotation=225.000|XOffset=0mil|YOffset=0mil|HoleType=Round|Shape=Rectangle|*
%AMROTATEDRECTD48*
4,1,4,0.013,0.030,0.030,0.013,-0.013,-0.030,-0.030,-0.013,0.013,0.030,0.0*
%
%ADD48ROTATEDRECTD48*%

G04:AMPARAMS|DCode=49|XSize=39mil|YSize=197mil|CornerRadius=0mil|HoleSize=0mil|Usage=FLASHONLY|Rotation=78.000|XOffset=0mil|YOffset=0mil|HoleType=Round|Shape=Rectangle|*
%AMROTATEDRECTD49*
4,1,4,0.092,-0.040,-0.100,0.001,-0.092,0.040,0.100,-0.001,0.092,-0.040,0.0*
%
%ADD49ROTATEDRECTD49*%

G04:AMPARAMS|DCode=50|XSize=39mil|YSize=197mil|CornerRadius=0mil|HoleSize=0mil|Usage=FLASHONLY|Rotation=102.000|XOffset=0mil|YOffset=0mil|HoleType=Round|Shape=Rectangle|*
%AMROTATEDRECTD50*
4,1,4,0.100,0.001,-0.092,-0.040,-0.100,-0.001,0.092,0.040,0.100,0.001,0.0*
%
%ADD50ROTATEDRECTD50*%

%ADD51R,0.039X0.197*%
G04:AMPARAMS|DCode=52|XSize=39mil|YSize=197mil|CornerRadius=0mil|HoleSize=0mil|Usage=FLASHONLY|Rotation=315.000|XOffset=0mil|YOffset=0mil|HoleType=Round|Shape=Rectangle|*
%AMROTATEDRECTD52*
4,1,4,-0.084,-0.056,0.056,0.084,0.084,0.056,-0.056,-0.084,-0.084,-0.056,0.0*
%
%ADD52ROTATEDRECTD52*%

%ADD53R,0.197X0.039*%
%ADD54R,0.071X0.055*%
%ADD55R,0.055X0.071*%
%ADD56R,0.061X0.024*%
%ADD57R,0.071X0.047*%
G04:AMPARAMS|DCode=58|XSize=39mil|YSize=197mil|CornerRadius=0mil|HoleSize=0mil|Usage=FLASHONLY|Rotation=225.000|XOffset=0mil|YOffset=0mil|HoleType=Round|Shape=Rectangle|*
%AMROTATEDRECTD58*
4,1,4,-0.056,0.084,0.084,-0.056,0.056,-0.084,-0.084,0.056,-0.056,0.084,0.0*
%
%ADD58ROTATEDRECTD58*%

%ADD59R,0.150X0.091*%
%ADD60R,0.380X0.433*%
G36*
X4133Y6302D02*
X4137Y6300D01*
X4142Y6299D01*
X4143D01*
Y6259D01*
X4134Y6250D01*
X4120D01*
Y6264D01*
X3921D01*
Y6309D01*
X4120D01*
X4120Y6309D01*
Y6309D01*
X4125Y6311D01*
X4133Y6302D01*
D02*
G37*
G36*
X5032Y5722D02*
X5032Y5718D01*
X5033Y5709D01*
X5038Y5701D01*
X5046Y5696D01*
X5055Y5695D01*
X5064Y5696D01*
X5067Y5698D01*
X5075Y5692D01*
X5074Y5686D01*
X5075Y5677D01*
X5080Y5669D01*
X5084Y5667D01*
Y5646D01*
X5085Y5641D01*
X5088Y5637D01*
X5111Y5614D01*
X5111Y5614D01*
X5111D01*
X5111Y5614D01*
X5111D01*
X5111Y5614D01*
Y5614D01*
Y5614D01*
D01*
D01*
X5111D01*
Y5614D01*
X5115Y5611D01*
X5120Y5610D01*
X5151D01*
X5156Y5611D01*
X5157Y5611D01*
X5159Y5610D01*
X5162Y5601D01*
X5160Y5598D01*
X4908D01*
X4905Y5608D01*
X5023Y5727D01*
X5032Y5722D01*
D02*
G37*
G36*
X4603Y4856D02*
X4632Y4827D01*
X4637Y4824D01*
X4642Y4823D01*
X4867D01*
X4868Y4813D01*
X4867Y4813D01*
X4859Y4808D01*
X4857Y4803D01*
X4804D01*
X4799Y4802D01*
X4798Y4801D01*
X4795Y4800D01*
X4769Y4774D01*
X4767Y4770D01*
X4766Y4765D01*
Y4719D01*
X4761Y4717D01*
X4756Y4709D01*
X4755Y4700D01*
X4756Y4691D01*
X4761Y4683D01*
X4767Y4680D01*
X4764Y4670D01*
X4573D01*
Y4865D01*
X4582Y4870D01*
X4603Y4856D01*
D02*
G37*
G36*
X6315Y5727D02*
X6321Y5723D01*
X6328Y5720D01*
X6335Y5719D01*
X6396D01*
Y5544D01*
X6348Y5496D01*
X6316Y5489D01*
X6267D01*
X6261Y5488D01*
X6260Y5488D01*
X6254Y5484D01*
X6136Y5366D01*
X6132Y5360D01*
X6132Y5359D01*
X6131Y5353D01*
Y5060D01*
X6132Y5054D01*
X6132Y5053D01*
X6136Y5047D01*
X6228Y4955D01*
X6232Y4952D01*
X6234Y4951D01*
X6241Y4950D01*
X6287D01*
X6338Y4899D01*
X6334Y4890D01*
X6264D01*
X6168Y4987D01*
X6164Y4989D01*
X6159Y4990D01*
X5859D01*
X5805Y5044D01*
Y5100D01*
X5804Y5105D01*
X5803Y5106D01*
X5802Y5109D01*
X5775Y5135D01*
X5776Y5140D01*
X5775Y5149D01*
X5770Y5157D01*
X5762Y5162D01*
X5753Y5163D01*
X5744Y5162D01*
X5736Y5157D01*
X5731Y5149D01*
X5730Y5140D01*
X5731Y5131D01*
X5736Y5123D01*
X5744Y5118D01*
X5753Y5117D01*
X5758Y5118D01*
X5781Y5095D01*
Y5070D01*
X5781D01*
X5780D01*
X5774Y5070D01*
X5774Y5070D01*
Y5070D01*
X5693D01*
Y5070D01*
X5692D01*
X5685Y5077D01*
Y5227D01*
X5693D01*
Y5227D01*
X5780D01*
Y5290D01*
X5693D01*
Y5286D01*
X5683Y5283D01*
X5681Y5285D01*
X5673Y5294D01*
X5674Y5299D01*
X5676Y5304D01*
X5684Y5305D01*
X5692Y5310D01*
X5697Y5318D01*
X5697Y5319D01*
X5707Y5321D01*
X5708Y5318D01*
X5716Y5313D01*
X5725Y5312D01*
X5734Y5313D01*
X5742Y5318D01*
X5747Y5326D01*
X5748Y5335D01*
X5747Y5344D01*
X5742Y5352D01*
X5734Y5357D01*
X5725Y5358D01*
X5721Y5358D01*
X5580Y5499D01*
X5584Y5508D01*
X5666D01*
X5710Y5552D01*
Y5638D01*
X5666Y5682D01*
X5580D01*
X5536Y5638D01*
Y5556D01*
X5527Y5552D01*
X5525Y5553D01*
X5521Y5556D01*
X5516Y5557D01*
X5398D01*
X5397Y5567D01*
X5403Y5568D01*
X5411Y5573D01*
X5411Y5573D01*
X5411Y5573D01*
X5421Y5583D01*
X5421Y5583D01*
X5421Y5583D01*
X5426Y5591D01*
X5427Y5600D01*
X5426Y5609D01*
X5421Y5617D01*
X5413Y5622D01*
X5404Y5623D01*
X5395Y5622D01*
X5387Y5617D01*
X5384Y5613D01*
X5374D01*
X5365Y5612D01*
X5359Y5608D01*
X5350Y5611D01*
X5347Y5617D01*
X5364Y5634D01*
X5367Y5638D01*
X5368Y5643D01*
Y5727D01*
X5372Y5729D01*
X5377Y5737D01*
X5378Y5746D01*
X5377Y5755D01*
X5372Y5763D01*
X5364Y5768D01*
X5355Y5769D01*
X5346Y5768D01*
X5338Y5763D01*
X5333Y5755D01*
X5332Y5746D01*
X5333Y5737D01*
X5338Y5729D01*
X5342Y5727D01*
Y5715D01*
X5332Y5712D01*
X5328Y5719D01*
X5320Y5724D01*
X5311Y5725D01*
X5302Y5724D01*
X5294Y5719D01*
X5292Y5715D01*
X5190D01*
X5185Y5714D01*
X5181Y5711D01*
X5143Y5674D01*
X5139Y5674D01*
X5130Y5673D01*
X5126Y5670D01*
X5118Y5677D01*
X5119Y5677D01*
X5120Y5686D01*
X5119Y5695D01*
X5114Y5703D01*
X5106Y5708D01*
X5097Y5709D01*
X5088Y5708D01*
X5085Y5706D01*
X5077Y5712D01*
X5078Y5718D01*
X5078Y5722D01*
X5141Y5785D01*
X5142Y5785D01*
X5150Y5790D01*
X5155Y5798D01*
X5156Y5807D01*
X5155Y5816D01*
X5150Y5824D01*
X5142Y5829D01*
X5139Y5829D01*
X5136Y5839D01*
X5226Y5929D01*
X6113D01*
X6315Y5727D01*
D02*
G37*
G36*
X4783Y5729D02*
X4562Y5508D01*
X4555Y5507D01*
X4547Y5502D01*
X4542Y5494D01*
X4541Y5485D01*
X4542Y5476D01*
X4547Y5468D01*
X4555Y5463D01*
X4564Y5462D01*
X4573Y5463D01*
X4581Y5468D01*
X4586Y5476D01*
X4587Y5485D01*
X4586Y5494D01*
X4584Y5496D01*
X4648Y5559D01*
X4657Y5555D01*
Y5518D01*
X4644Y5505D01*
X4639Y5506D01*
X4630Y5505D01*
X4622Y5500D01*
X4617Y5492D01*
X4616Y5483D01*
X4617Y5474D01*
X4622Y5466D01*
X4630Y5461D01*
X4639Y5460D01*
X4648Y5461D01*
X4656Y5466D01*
X4661Y5474D01*
X4662Y5483D01*
X4662Y5484D01*
X4670Y5491D01*
X4675Y5488D01*
Y5461D01*
X4648Y5434D01*
X4356D01*
X4348Y5442D01*
Y5452D01*
X4456Y5561D01*
X4461Y5566D01*
X4464Y5573D01*
X4465Y5581D01*
X4464Y5583D01*
X4536Y5654D01*
X4540Y5660D01*
X4542Y5665D01*
X4543Y5667D01*
X4544Y5674D01*
Y5738D01*
X4779D01*
X4783Y5729D01*
D02*
G37*
G36*
X4605Y5190D02*
X4601Y5181D01*
X4588D01*
X4586Y5185D01*
X4578Y5190D01*
X4569Y5191D01*
X4560Y5190D01*
X4552Y5185D01*
X4547Y5177D01*
X4546Y5168D01*
X4547Y5159D01*
X4552Y5151D01*
X4560Y5146D01*
X4569Y5145D01*
X4578Y5146D01*
X4586Y5151D01*
X4588Y5155D01*
X4596D01*
X4602Y5147D01*
X4601Y5143D01*
X4601Y5143D01*
X4593Y5138D01*
X4588Y5130D01*
X4587Y5121D01*
X4588Y5113D01*
X4579Y5108D01*
X4522Y5165D01*
X4522Y5169D01*
X4517Y5177D01*
X4509Y5182D01*
X4500Y5183D01*
X4491Y5182D01*
X4483Y5177D01*
X4478Y5169D01*
X4477Y5160D01*
X4478Y5151D01*
X4483Y5143D01*
X4491Y5138D01*
X4500Y5137D01*
X4509Y5138D01*
X4511Y5140D01*
X4518Y5132D01*
X4514Y5123D01*
X4464D01*
X4462Y5127D01*
X4454Y5132D01*
X4445Y5133D01*
X4436Y5132D01*
X4428Y5127D01*
X4423Y5119D01*
X4422Y5110D01*
X4423Y5101D01*
X4427Y5096D01*
X4419Y5090D01*
X4308Y5201D01*
X4311Y5210D01*
X4313Y5210D01*
X4322Y5214D01*
X4330Y5220D01*
X4336Y5228D01*
X4338Y5234D01*
X4562D01*
X4605Y5190D01*
D02*
G37*
G36*
X5552Y4874D02*
Y4867D01*
X5583D01*
Y4862D01*
X5588D01*
Y4850D01*
X5612D01*
Y4835D01*
X5588D01*
Y4823D01*
X5583D01*
Y4818D01*
X5552D01*
Y4812D01*
X5522D01*
X5464Y4870D01*
X5449Y4885D01*
X5391D01*
Y4895D01*
X5373D01*
Y4889D01*
X5363D01*
Y4895D01*
X5358D01*
X5353Y4900D01*
X5357Y4909D01*
X5363D01*
Y4915D01*
X5368D01*
Y4920D01*
X5391D01*
Y4921D01*
D01*
Y4921D01*
X5392Y4922D01*
X5504D01*
X5552Y4874D01*
D02*
G37*
G36*
X5227Y5105D02*
Y5096D01*
X5228Y5089D01*
X5229Y5087D01*
X5231Y5082D01*
X5235Y5076D01*
X5301Y5010D01*
X5307Y5006D01*
X5312Y5004D01*
X5309Y4996D01*
X5309Y4996D01*
X5309D01*
X5304Y4988D01*
X5303Y4979D01*
X5304Y4970D01*
X5309Y4962D01*
X5312Y4961D01*
X5309Y4951D01*
X5301D01*
X5296Y4950D01*
X5295Y4950D01*
X5294Y4949D01*
X5245D01*
X5212Y4982D01*
X5213Y4987D01*
X5212Y4996D01*
X5207Y5004D01*
X5199Y5009D01*
X5190Y5010D01*
X5181Y5009D01*
X5173Y5004D01*
X5169Y4997D01*
X5159Y5000D01*
Y5044D01*
X5210Y5095D01*
X5214Y5101D01*
X5216Y5106D01*
X5217Y5107D01*
X5227Y5105D01*
D02*
G37*
G36*
X5148Y5386D02*
X5148D01*
X5148Y5386D01*
X5148D01*
X5148Y5386D01*
Y5386D01*
X5148Y5386D01*
Y5386D01*
X5152Y5383D01*
X5157Y5382D01*
X5195D01*
X5200Y5383D01*
X5224D01*
X5250Y5356D01*
X5255Y5353D01*
X5260Y5352D01*
X5298D01*
X5307Y5343D01*
D01*
X5307D01*
X5307Y5343D01*
X5307D01*
X5307D01*
X5310Y5333D01*
X5304D01*
X5297Y5332D01*
X5295Y5331D01*
X5290Y5329D01*
X5284Y5325D01*
X5235Y5276D01*
X5231Y5270D01*
X5229Y5265D01*
X5228Y5264D01*
X5218Y5266D01*
Y5273D01*
X5217Y5280D01*
X5214Y5287D01*
X5210Y5293D01*
X5154Y5349D01*
X5148Y5354D01*
X5143Y5356D01*
X5141Y5357D01*
X5134Y5358D01*
X5110D01*
Y5380D01*
X5109Y5387D01*
X5108Y5391D01*
X5106Y5394D01*
X5104Y5398D01*
X5107Y5405D01*
X5109Y5407D01*
X5126D01*
X5148Y5386D01*
D02*
G37*
G36*
X6249Y5001D02*
X6250Y5000D01*
X6255Y4999D01*
X6450D01*
X6551Y4898D01*
X6546Y4889D01*
X6360Y4929D01*
X6308Y4981D01*
X6302Y4985D01*
X6301Y4985D01*
X6295Y4986D01*
X6249D01*
X6241Y4994D01*
X6247Y5002D01*
X6249Y5001D01*
D02*
G37*
G36*
X4175Y6220D02*
X4134Y6180D01*
X4132Y6176D01*
X4131Y6171D01*
Y5994D01*
X4131Y5994D01*
X4131D01*
X4132Y5989D01*
X4134Y5985D01*
X4175Y5945D01*
Y5888D01*
X4166Y5884D01*
X4032Y6018D01*
Y6109D01*
X4120D01*
Y6164D01*
X3921D01*
Y6209D01*
X4120D01*
Y6223D01*
X4140D01*
X4145Y6224D01*
X4149Y6227D01*
X4149Y6227D01*
X4149Y6227D01*
X4166Y6244D01*
X4175D01*
Y6220D01*
D02*
G37*
G36*
X3995Y6017D02*
X3992Y6012D01*
X3990Y6003D01*
X3992Y5994D01*
X3997Y5987D01*
X4175Y5809D01*
Y5764D01*
X4192Y5747D01*
X4201Y5738D01*
X4246D01*
X4285Y5698D01*
X4277Y5690D01*
X4267Y5693D01*
X4267Y5697D01*
X4262Y5705D01*
X4254Y5710D01*
X4245Y5711D01*
X4236Y5710D01*
X4228Y5705D01*
X4223Y5697D01*
X4223Y5695D01*
X4156Y5628D01*
X4151Y5632D01*
X4142Y5633D01*
X4133Y5632D01*
X4125Y5627D01*
X4120Y5619D01*
X4119Y5610D01*
X4120Y5601D01*
X4125Y5593D01*
X4133Y5588D01*
X4142Y5587D01*
X4151Y5588D01*
X4159Y5593D01*
X4161Y5598D01*
X4162Y5598D01*
X4166Y5601D01*
X4166Y5601D01*
X4166Y5601D01*
X4231Y5665D01*
X4241Y5663D01*
X4243Y5656D01*
X4025Y5438D01*
X4021Y5432D01*
X4019Y5427D01*
X4018Y5425D01*
X4017Y5418D01*
Y4475D01*
X4018Y4468D01*
X4019Y4466D01*
X4021Y4461D01*
X4025Y4455D01*
X4331Y4149D01*
X4327Y4140D01*
X4307D01*
X4305Y4144D01*
X4297Y4149D01*
X4288Y4150D01*
X4279Y4149D01*
X4271Y4144D01*
X4266Y4136D01*
X4265Y4127D01*
X4266Y4118D01*
X4271Y4110D01*
X4279Y4105D01*
X4282Y4105D01*
X4284Y4095D01*
X4283Y4095D01*
X4278Y4087D01*
X4277Y4078D01*
X4278Y4069D01*
X4283Y4061D01*
X4291Y4056D01*
X4300Y4055D01*
X4309Y4056D01*
X4317Y4061D01*
X4319Y4065D01*
X4364D01*
X4376Y4053D01*
X4372Y4044D01*
X4360D01*
X4358Y4048D01*
X4350Y4053D01*
X4341Y4054D01*
X4332Y4053D01*
X4324Y4048D01*
X4319Y4040D01*
X4318Y4031D01*
X4319Y4022D01*
X4324Y4014D01*
X4332Y4009D01*
X4341Y4008D01*
X4350Y4009D01*
X4358Y4014D01*
X4360Y4018D01*
X4386D01*
X4476Y3928D01*
X4473Y3918D01*
X4470Y3918D01*
X4462Y3913D01*
X4460Y3908D01*
X4424D01*
X4419Y3907D01*
X4415Y3905D01*
X4343Y3832D01*
X4334Y3834D01*
X4332Y3834D01*
X4331Y3843D01*
X4326Y3851D01*
X4318Y3856D01*
X4309Y3857D01*
X4300Y3856D01*
X4299Y3855D01*
X4258D01*
X4258Y3855D01*
X4250Y3853D01*
X4244Y3849D01*
X4200Y3805D01*
X4197Y3800D01*
X4173Y3777D01*
X4201Y3749D01*
X4201Y3749D01*
X4201Y3749D01*
X4201Y3749D01*
X4229Y3721D01*
X4235Y3727D01*
X4240Y3721D01*
X4240D01*
X4245Y3716D01*
X4267Y3738D01*
X4288Y3760D01*
X4284Y3764D01*
Y3764D01*
X4283Y3765D01*
Y3775D01*
X4284Y3776D01*
Y3776D01*
X4290Y3782D01*
X4322D01*
X4327Y3783D01*
X4331Y3785D01*
X4429Y3884D01*
X4460D01*
X4462Y3879D01*
X4470Y3874D01*
X4479Y3873D01*
X4488Y3874D01*
X4496Y3879D01*
X4501Y3887D01*
X4501Y3890D01*
X4511Y3893D01*
X4652Y3752D01*
Y3728D01*
X4643Y3724D01*
X4591Y3775D01*
X4591Y3776D01*
X4590Y3785D01*
X4585Y3793D01*
X4577Y3798D01*
X4568Y3799D01*
X4559Y3798D01*
X4558Y3797D01*
X4549Y3800D01*
Y3800D01*
X4549Y3800D01*
Y3800D01*
Y3800D01*
D01*
X4544Y3808D01*
X4536Y3813D01*
X4527Y3814D01*
X4518Y3813D01*
X4510Y3808D01*
X4505Y3800D01*
X4504Y3791D01*
X4505Y3782D01*
X4509Y3777D01*
Y3720D01*
X4509Y3716D01*
X4502Y3713D01*
X4500Y3712D01*
X4487Y3725D01*
X4336Y3575D01*
X4347Y3565D01*
X4333Y3551D01*
X4330Y3546D01*
X4329Y3541D01*
Y3503D01*
X4309D01*
Y3447D01*
X4375D01*
Y3503D01*
X4355D01*
Y3536D01*
X4365Y3546D01*
X4376Y3536D01*
X4525Y3686D01*
X4535D01*
X4621Y3600D01*
Y3576D01*
X4478Y3433D01*
X4517Y3394D01*
X4667Y3545D01*
X4657Y3555D01*
X4657Y3555D01*
Y3579D01*
X4666Y3584D01*
X4671Y3580D01*
X4680Y3579D01*
X4689Y3580D01*
X4697Y3585D01*
X4700Y3590D01*
X4710D01*
X4712Y3588D01*
X4737Y3563D01*
X4736Y3561D01*
X4731Y3553D01*
X4730Y3544D01*
X4731Y3535D01*
X4736Y3527D01*
X4744Y3522D01*
X4753Y3521D01*
X4762Y3522D01*
X4770Y3527D01*
X4775Y3535D01*
X4776Y3544D01*
X4775Y3553D01*
X4770Y3561D01*
X4766Y3563D01*
Y3565D01*
X4765Y3570D01*
X4762Y3575D01*
X4759Y3578D01*
X4760Y3588D01*
X4766Y3592D01*
X4771Y3600D01*
X4772Y3609D01*
X4771Y3618D01*
X4766Y3626D01*
X4758Y3631D01*
X4749Y3632D01*
X4744Y3631D01*
X4717Y3659D01*
X4720Y3666D01*
X4730Y3666D01*
X4731Y3661D01*
X4736Y3653D01*
X4744Y3648D01*
X4753Y3647D01*
X4762Y3648D01*
X4770Y3653D01*
X4775Y3661D01*
X4776Y3670D01*
X4775Y3679D01*
X4770Y3687D01*
X4762Y3692D01*
X4753Y3693D01*
X4748Y3692D01*
X4747Y3693D01*
X4742Y3694D01*
X4741D01*
X4735Y3702D01*
X4736Y3709D01*
X4735Y3718D01*
X4730Y3726D01*
X4726Y3728D01*
Y3741D01*
X4735Y3745D01*
X4814Y3666D01*
Y3490D01*
X4694Y3370D01*
X4690Y3364D01*
X4689Y3362D01*
X4646Y3320D01*
X4643Y3316D01*
X4619Y3292D01*
X4638Y3273D01*
Y3270D01*
X4556Y3188D01*
X4292D01*
X4091Y3390D01*
X4095Y3399D01*
X4120D01*
Y3454D01*
X4120D01*
Y3457D01*
X4127Y3464D01*
X4193D01*
Y3449D01*
X4259D01*
Y3505D01*
X4193D01*
Y3490D01*
X4120D01*
Y3499D01*
X4120D01*
Y3554D01*
X3921D01*
Y3599D01*
X4120D01*
Y3613D01*
X4170D01*
X4175Y3614D01*
X4179Y3617D01*
X4179Y3617D01*
X4179Y3617D01*
X4182Y3620D01*
X4186Y3620D01*
X4195Y3621D01*
X4203Y3626D01*
X4208Y3634D01*
X4209Y3643D01*
X4208Y3652D01*
X4203Y3660D01*
X4195Y3665D01*
X4186Y3666D01*
X4177Y3665D01*
X4169Y3660D01*
X4164Y3652D01*
X4163Y3643D01*
X4160Y3640D01*
X4120D01*
Y3654D01*
X3921D01*
Y3707D01*
X4009D01*
Y3727D01*
Y3746D01*
X3921D01*
Y3799D01*
X4120D01*
Y3854D01*
X4018D01*
Y3896D01*
X4033D01*
Y3962D01*
X3977D01*
Y3896D01*
X3992D01*
Y3854D01*
X3921D01*
Y6109D01*
X3995D01*
Y6017D01*
D02*
G37*
G36*
X5125Y4142D02*
X5133Y4137D01*
X5142Y4136D01*
X5147Y4137D01*
X5152Y4128D01*
X5125Y4101D01*
X5119Y4100D01*
X5111Y4095D01*
X5109Y4091D01*
X5063D01*
X5058Y4090D01*
X5054Y4087D01*
X5022Y4055D01*
X5019Y4051D01*
X5018Y4046D01*
Y4007D01*
X4974Y3964D01*
X4965Y3968D01*
Y4029D01*
X4950D01*
Y4054D01*
X4961D01*
Y4078D01*
X5015D01*
X5020Y4079D01*
X5024Y4082D01*
X5024Y4082D01*
X5024Y4082D01*
X5088Y4146D01*
X5123D01*
X5125Y4142D01*
D02*
G37*
G36*
X4903Y4235D02*
Y4235D01*
X4903Y4235D01*
X4919D01*
Y4213D01*
X4904D01*
Y4147D01*
X4960D01*
Y4167D01*
X5059D01*
X5063Y4158D01*
X5010Y4104D01*
X4961D01*
Y4120D01*
X4905D01*
Y4054D01*
X4924D01*
Y4029D01*
X4909D01*
Y3963D01*
X4960D01*
X4964Y3954D01*
X4948Y3938D01*
X4906D01*
Y3876D01*
X4906D01*
X4906Y3876D01*
X4906Y3872D01*
X4903Y3869D01*
X4882D01*
Y3869D01*
Y3872D01*
X4882Y3876D01*
X4882Y3876D01*
X4882D01*
Y3938D01*
X4870D01*
Y3963D01*
X4885D01*
Y4029D01*
X4843D01*
X4827Y4045D01*
X4831Y4054D01*
X4881D01*
Y4120D01*
X4865D01*
Y4147D01*
X4880D01*
Y4213D01*
X4880Y4213D01*
X4880D01*
X4880Y4214D01*
X4901Y4236D01*
X4903Y4235D01*
D02*
G37*
G36*
X4175Y6612D02*
X4163D01*
Y6597D01*
X4061D01*
X4056Y6596D01*
X4052Y6593D01*
X4023Y6564D01*
X3921D01*
Y6864D01*
X4175D01*
Y6612D01*
D02*
G37*
G36*
X4163Y6556D02*
X4175D01*
Y6524D01*
X4171D01*
Y6509D01*
X4196D01*
Y6499D01*
X4171D01*
Y6484D01*
X4175D01*
Y6372D01*
X4151D01*
Y6357D01*
X4176D01*
Y6347D01*
X4151D01*
Y6332D01*
X4142Y6329D01*
X4125Y6345D01*
X4121Y6348D01*
X4120Y6348D01*
Y6364D01*
X3921D01*
Y6417D01*
X4009D01*
Y6437D01*
Y6456D01*
X3921D01*
Y6509D01*
X4120D01*
Y6564D01*
D01*
Y6564D01*
X4127Y6571D01*
X4163D01*
Y6556D01*
D02*
G37*
G36*
X5001Y6730D02*
X5001Y6730D01*
X5001Y6730D01*
X5002Y6728D01*
X5002Y6726D01*
X5002Y6726D01*
X5002Y6726D01*
X5003Y6724D01*
X5004Y6722D01*
X5004Y6722D01*
X5005Y6722D01*
X5006Y6721D01*
X5008Y6720D01*
X5008Y6720D01*
X5008Y6720D01*
X5028Y6712D01*
X5106Y6634D01*
X5224D01*
X5236Y6629D01*
X5238Y6629D01*
X5240Y6628D01*
X5572D01*
Y6127D01*
X5573Y6123D01*
X5575Y6119D01*
X5579Y6117D01*
X5583Y6116D01*
X6654D01*
Y3854D01*
X5583D01*
X5579Y3853D01*
X5575Y3851D01*
X5573Y3847D01*
X5572Y3843D01*
Y3342D01*
X5240D01*
X5238Y3341D01*
X5236Y3341D01*
X5119Y3294D01*
X5113Y3302D01*
X5150Y3340D01*
X5150Y3340D01*
X5150Y3340D01*
X5153Y3344D01*
X5154Y3349D01*
Y3385D01*
X5210D01*
Y3451D01*
X5195D01*
Y3480D01*
X5200Y3484D01*
X5243D01*
Y3697D01*
X5187D01*
Y3509D01*
X5173Y3494D01*
X5170Y3490D01*
X5169Y3485D01*
Y3451D01*
X5159D01*
X5154Y3456D01*
Y3456D01*
X5154D01*
D01*
D01*
D01*
X5153Y3461D01*
X5150Y3465D01*
X5139Y3476D01*
X5143Y3484D01*
X5143D01*
X5143Y3484D01*
Y3697D01*
X5087D01*
Y3484D01*
X5102D01*
Y3482D01*
X5103Y3477D01*
X5106Y3473D01*
X5106Y3473D01*
X5106Y3473D01*
X5126Y3452D01*
X5122Y3443D01*
X5122D01*
X5121Y3443D01*
X5121Y3443D01*
Y3443D01*
X5107D01*
Y3418D01*
Y3393D01*
X5121D01*
Y3393D01*
X5121Y3393D01*
X5122Y3393D01*
X5128Y3387D01*
Y3354D01*
X5089Y3315D01*
X4958D01*
X4953Y3314D01*
X4949Y3311D01*
X4848Y3211D01*
X4844Y3211D01*
X4835Y3210D01*
X4827Y3205D01*
X4822Y3197D01*
X4821Y3188D01*
X4822Y3179D01*
X4827Y3171D01*
X4835Y3166D01*
X4844Y3165D01*
X4853Y3166D01*
X4861Y3171D01*
X4866Y3179D01*
X4867Y3188D01*
X4867Y3192D01*
X4963Y3289D01*
X5079D01*
X5081Y3279D01*
X5011Y3251D01*
X5008D01*
Y3250D01*
X5008Y3250D01*
X5008Y3250D01*
X5006Y3249D01*
X5005Y3248D01*
X5004Y3248D01*
X5004Y3248D01*
X5003Y3246D01*
X5002Y3244D01*
X5002Y3244D01*
X5002Y3244D01*
X5002Y3242D01*
X5001Y3240D01*
X5001Y3240D01*
X5001Y3240D01*
Y3114D01*
X4995Y3108D01*
Y3108D01*
X4995Y3108D01*
X3921D01*
Y3399D01*
X4002D01*
X4260Y3140D01*
X4266Y3136D01*
X4270Y3134D01*
X4273Y3133D01*
X4280Y3132D01*
X4568D01*
X4575Y3133D01*
X4577Y3134D01*
X4582Y3136D01*
X4588Y3140D01*
X4686Y3238D01*
X4690Y3244D01*
X4692Y3247D01*
X4693Y3251D01*
X4694Y3258D01*
Y3288D01*
X4734Y3328D01*
X4737Y3331D01*
X4809Y3403D01*
Y3403D01*
Y3405D01*
X4862Y3458D01*
X4866Y3464D01*
X4868Y3468D01*
X4869Y3471D01*
X4870Y3478D01*
Y3678D01*
X4869Y3685D01*
X4868Y3687D01*
X4866Y3692D01*
X4862Y3698D01*
X4798Y3762D01*
X4802Y3771D01*
X5226D01*
X5287Y3710D01*
Y3591D01*
X5287Y3587D01*
Y3484D01*
X5343D01*
Y3587D01*
X5343Y3591D01*
Y3722D01*
X5342Y3729D01*
X5339Y3736D01*
X5335Y3742D01*
X5259Y3818D01*
X5261Y3823D01*
X5264Y3827D01*
X5285D01*
X5418Y3694D01*
Y3599D01*
X5417Y3598D01*
X5416Y3589D01*
X5417Y3580D01*
X5422Y3572D01*
X5430Y3567D01*
X5439Y3566D01*
X5448Y3567D01*
X5456Y3572D01*
X5461Y3580D01*
X5462Y3589D01*
X5461Y3598D01*
X5460Y3599D01*
Y3703D01*
X5460Y3703D01*
X5458Y3711D01*
X5454Y3718D01*
X5454Y3718D01*
X5309Y3863D01*
X5302Y3867D01*
X5294Y3869D01*
X5294Y3869D01*
X4962D01*
Y3869D01*
Y3872D01*
X4962Y3876D01*
X4962Y3876D01*
X4962D01*
Y3914D01*
X5040Y3993D01*
X5043Y3997D01*
X5044Y4002D01*
Y4041D01*
X5068Y4065D01*
X5109D01*
X5111Y4061D01*
X5119Y4056D01*
X5128Y4055D01*
X5137Y4056D01*
X5145Y4061D01*
X5150Y4069D01*
X5151Y4075D01*
X5199Y4123D01*
X5210D01*
Y4122D01*
Y4083D01*
Y4043D01*
X5237D01*
X5240Y4042D01*
X5249Y4040D01*
X5451D01*
X5487Y4004D01*
X5494Y3999D01*
X5503Y3998D01*
X5508Y3998D01*
X5517Y3989D01*
X5524Y3984D01*
X5533Y3983D01*
X5716D01*
Y3957D01*
X5882D01*
Y4065D01*
X5716D01*
Y4029D01*
X5543D01*
X5537Y4036D01*
X5537Y4036D01*
X5535Y4045D01*
X5532Y4053D01*
X5527Y4060D01*
X5520Y4065D01*
X5512Y4068D01*
X5503Y4069D01*
X5495Y4068D01*
X5491Y4067D01*
X5478Y4080D01*
X5470Y4085D01*
X5461Y4087D01*
X5428D01*
X5424Y4096D01*
X5566Y4238D01*
X5716D01*
Y4189D01*
X5707Y4185D01*
X5666Y4226D01*
X5580D01*
X5536Y4182D01*
Y4096D01*
X5580Y4052D01*
X5666D01*
X5710Y4096D01*
Y4151D01*
X5716Y4157D01*
X5717Y4157D01*
X5717Y4157D01*
Y4157D01*
X5882D01*
Y4265D01*
X5766D01*
X5754Y4278D01*
X5746Y4283D01*
X5737Y4284D01*
X5676D01*
X5672Y4294D01*
X5710Y4332D01*
Y4418D01*
X5666Y4462D01*
X5580D01*
X5536Y4418D01*
Y4332D01*
X5574Y4294D01*
X5570Y4284D01*
X5556D01*
X5547Y4283D01*
X5539Y4278D01*
X5388Y4126D01*
X5287D01*
Y4162D01*
Y4201D01*
Y4240D01*
Y4280D01*
X5210D01*
Y4278D01*
X5149D01*
Y4286D01*
X5149D01*
Y4349D01*
X5319D01*
X5324Y4350D01*
X5328Y4353D01*
X5328Y4353D01*
X5328Y4353D01*
X5332Y4356D01*
X5336Y4356D01*
X5345Y4357D01*
X5353Y4362D01*
X5358Y4370D01*
X5359Y4379D01*
X5358Y4388D01*
X5353Y4396D01*
X5345Y4401D01*
X5336Y4402D01*
X5330Y4401D01*
X5323Y4408D01*
X5323Y4411D01*
X5322Y4420D01*
X5317Y4428D01*
X5309Y4433D01*
X5300Y4434D01*
X5291Y4433D01*
X5283Y4428D01*
X5281Y4424D01*
X5271Y4426D01*
X5271Y4427D01*
X5266Y4435D01*
X5258Y4440D01*
X5249Y4441D01*
X5240Y4440D01*
X5233Y4435D01*
X5230Y4437D01*
X5225Y4438D01*
X5104D01*
X5102Y4440D01*
X5102Y4445D01*
X5102Y4445D01*
X5102D01*
Y4455D01*
X5052D01*
Y4445D01*
X5052D01*
X5052Y4445D01*
X5052Y4440D01*
X5050Y4438D01*
X5037D01*
X5034Y4441D01*
X5030Y4444D01*
X5024Y4445D01*
X4858D01*
X4853Y4444D01*
X4849Y4441D01*
X4805Y4398D01*
X4796Y4402D01*
Y4550D01*
X4630D01*
X4623Y4557D01*
X4623Y4557D01*
D01*
Y4557D01*
D01*
X4623Y4598D01*
X4622Y4557D01*
D01*
X4622D01*
D01*
D01*
D01*
Y4557D01*
D01*
D01*
X4622Y4556D01*
D01*
X4622Y4550D01*
Y4550D01*
X4622D01*
X4622D01*
Y4550D01*
D01*
X4622Y4550D01*
X4623Y4550D01*
X4623Y4550D01*
X4623Y4544D01*
X4622Y4209D01*
X4704Y4211D01*
X4793Y4209D01*
Y4047D01*
X4794Y4042D01*
X4797Y4038D01*
X4829Y4005D01*
Y3963D01*
X4844D01*
Y3938D01*
X4826D01*
Y3876D01*
X4826D01*
X4826Y3876D01*
X4826Y3872D01*
X4823Y3869D01*
X4759D01*
X4573Y4055D01*
X4573Y4055D01*
Y4634D01*
X4821D01*
X4827Y4635D01*
X4827Y4635D01*
X4834Y4629D01*
X4834Y4629D01*
X4835Y4629D01*
Y4629D01*
D01*
X4835D01*
D01*
Y4616D01*
X4855D01*
Y4631D01*
X4839D01*
X4839Y4631D01*
Y4631D01*
X4839Y4632D01*
D01*
X4836Y4638D01*
X4835Y4640D01*
X4858Y4663D01*
X4893D01*
Y4673D01*
X4942D01*
Y4664D01*
X5008D01*
Y4720D01*
X4993D01*
Y4760D01*
X5017Y4784D01*
X5034D01*
Y4773D01*
X5042D01*
Y4767D01*
X5042D01*
Y4766D01*
X5065D01*
Y4756D01*
X5042D01*
Y4756D01*
D01*
Y4756D01*
X5037Y4750D01*
X5034D01*
Y4722D01*
Y4696D01*
Y4671D01*
Y4652D01*
X5034Y4651D01*
X5030Y4643D01*
X5029Y4634D01*
X5030Y4624D01*
X5034Y4616D01*
X5037Y4612D01*
Y4543D01*
X5010D01*
Y4558D01*
X4938D01*
Y4472D01*
X5010D01*
Y4487D01*
X5052D01*
Y4480D01*
X5052Y4480D01*
X5052Y4480D01*
Y4465D01*
X5072D01*
Y4480D01*
X5066D01*
X5064Y4490D01*
X5066Y4491D01*
X5072Y4495D01*
X5085Y4508D01*
X5088Y4512D01*
X5110D01*
Y4568D01*
X5093D01*
Y4598D01*
X5155D01*
X5188Y4564D01*
X5188Y4564D01*
X5196Y4558D01*
X5204Y4555D01*
X5213Y4554D01*
X5213Y4554D01*
X5289D01*
X5295Y4546D01*
X5294Y4539D01*
X5295Y4530D01*
X5300Y4522D01*
X5308Y4517D01*
X5317Y4516D01*
X5321Y4516D01*
X5377Y4460D01*
X5382Y4457D01*
X5389Y4456D01*
X5414D01*
X5422Y4448D01*
X5427Y4444D01*
X5433Y4443D01*
X5443D01*
X5443Y4442D01*
X5451Y4437D01*
X5460Y4436D01*
X5469Y4437D01*
X5477Y4442D01*
X5482Y4450D01*
X5483Y4459D01*
X5482Y4468D01*
X5480Y4470D01*
X5485Y4479D01*
X5492D01*
X5501Y4480D01*
X5510Y4484D01*
X5517Y4490D01*
X5523Y4497D01*
X5527Y4506D01*
X5528Y4515D01*
X5527Y4524D01*
X5523Y4533D01*
X5517Y4540D01*
X5510Y4546D01*
X5501Y4550D01*
X5492Y4551D01*
X5463D01*
X5403Y4611D01*
X5398Y4615D01*
X5398Y4620D01*
X5398D01*
Y4645D01*
Y4673D01*
X5391D01*
Y4673D01*
Y4679D01*
Y4680D01*
X5345D01*
Y4679D01*
X5340Y4673D01*
X5321D01*
X5292Y4702D01*
Y4845D01*
X5326Y4879D01*
X5338D01*
Y4876D01*
X5345D01*
Y4876D01*
Y4870D01*
Y4869D01*
X5391D01*
Y4870D01*
X5396Y4876D01*
X5398D01*
Y4877D01*
X5446D01*
X5458Y4864D01*
X5458Y4864D01*
X5488Y4834D01*
X5484Y4825D01*
X5398D01*
Y4827D01*
X5391D01*
Y4827D01*
Y4832D01*
Y4833D01*
X5345D01*
Y4832D01*
X5340Y4827D01*
X5338D01*
Y4799D01*
Y4773D01*
Y4748D01*
Y4722D01*
X5345D01*
Y4722D01*
Y4716D01*
Y4715D01*
X5391D01*
Y4716D01*
X5396Y4722D01*
X5398D01*
Y4723D01*
X5548D01*
X5551Y4723D01*
X5552Y4724D01*
X5552Y4724D01*
X5621D01*
Y4751D01*
X5622Y4753D01*
X5623Y4756D01*
Y4770D01*
X5623Y4770D01*
X5622Y4773D01*
X5621Y4775D01*
Y4803D01*
Y4842D01*
Y4882D01*
X5556D01*
X5539Y4898D01*
X5544Y4907D01*
X5546Y4907D01*
X5565D01*
X5567Y4902D01*
X5575Y4897D01*
X5584Y4896D01*
X5593Y4897D01*
X5601Y4902D01*
X5606Y4910D01*
X5607Y4919D01*
X5606Y4928D01*
X5601Y4936D01*
X5593Y4941D01*
X5584Y4942D01*
X5575Y4941D01*
X5567Y4936D01*
X5565Y4931D01*
X5551D01*
X5541Y4941D01*
X5544Y4950D01*
X5550Y4951D01*
X5558Y4956D01*
X5563Y4964D01*
X5564Y4973D01*
X5563Y4982D01*
X5558Y4990D01*
X5550Y4995D01*
X5541Y4996D01*
X5532Y4995D01*
X5526Y4991D01*
X5518Y4996D01*
X5518Y4999D01*
X5517Y5008D01*
X5512Y5016D01*
X5504Y5021D01*
X5495Y5022D01*
X5486Y5021D01*
X5478Y5016D01*
X5475Y5010D01*
X5392D01*
X5389Y5017D01*
X5394Y5026D01*
X5398D01*
Y5051D01*
Y5079D01*
X5391D01*
Y5079D01*
Y5085D01*
Y5086D01*
X5345D01*
Y5085D01*
X5340Y5079D01*
X5338D01*
Y5067D01*
X5328Y5063D01*
X5283Y5108D01*
Y5244D01*
X5316Y5277D01*
X5345D01*
Y5276D01*
X5345D01*
Y5275D01*
X5368D01*
Y5270D01*
X5373D01*
Y5264D01*
X5391D01*
Y5269D01*
X5398Y5275D01*
X5398Y5275D01*
X5405D01*
X5407Y5275D01*
X5407D01*
X5408Y5275D01*
X5442D01*
X5449Y5267D01*
X5443Y5259D01*
X5442Y5260D01*
X5441Y5260D01*
Y5246D01*
Y5232D01*
X5442Y5232D01*
X5447Y5235D01*
X5447Y5236D01*
X5457Y5233D01*
Y5222D01*
X5457Y5219D01*
X5444Y5210D01*
X5419D01*
X5415Y5216D01*
X5408Y5221D01*
X5402Y5222D01*
X5401Y5223D01*
X5401Y5223D01*
X5399Y5223D01*
X5398Y5224D01*
Y5233D01*
X5391D01*
Y5233D01*
Y5238D01*
Y5239D01*
X5345D01*
Y5238D01*
X5340Y5233D01*
X5338D01*
Y5205D01*
Y5179D01*
Y5154D01*
Y5128D01*
X5345D01*
Y5128D01*
Y5122D01*
Y5121D01*
X5391D01*
Y5122D01*
Y5122D01*
Y5128D01*
X5409D01*
X5428Y5108D01*
X5431Y5106D01*
X5434Y5106D01*
X5434Y5106D01*
X5502D01*
X5532Y5076D01*
X5532Y5075D01*
X5533Y5075D01*
X5534Y5074D01*
X5534Y5074D01*
X5535Y5074D01*
X5536Y5074D01*
X5538Y5073D01*
X5539Y5073D01*
X5539D01*
X5539Y5073D01*
X5542Y5072D01*
X5542Y5072D01*
X5543Y5071D01*
X5543Y5071D01*
X5543Y5071D01*
D01*
X5544Y5071D01*
X5545Y5071D01*
X5545Y5071D01*
Y5069D01*
X5622D01*
Y5097D01*
X5623Y5098D01*
X5623Y5101D01*
Y5116D01*
X5623Y5116D01*
X5623Y5119D01*
X5622Y5120D01*
Y5148D01*
Y5187D01*
Y5227D01*
X5591D01*
X5575Y5234D01*
X5574Y5236D01*
X5574Y5237D01*
X5574Y5237D01*
Y5237D01*
X5574Y5237D01*
X5574Y5238D01*
Y5240D01*
X5573Y5242D01*
X5573Y5242D01*
X5573Y5242D01*
X5573Y5243D01*
X5573Y5243D01*
X5572Y5243D01*
X5572Y5244D01*
X5571Y5245D01*
X5489Y5327D01*
X5488Y5328D01*
X5487Y5328D01*
X5487Y5329D01*
D01*
D01*
X5487Y5329D01*
X5486Y5329D01*
X5486Y5329D01*
X5486Y5329D01*
X5485Y5329D01*
X5485Y5330D01*
X5485Y5330D01*
X5485Y5330D01*
X5484Y5330D01*
X5484Y5330D01*
D01*
D01*
X5483Y5330D01*
X5482Y5330D01*
X5481Y5330D01*
X5426D01*
X5422Y5340D01*
X5431Y5349D01*
X5433Y5352D01*
X5443D01*
X5445Y5349D01*
X5453Y5344D01*
X5462Y5342D01*
X5470Y5344D01*
X5478Y5349D01*
X5483Y5357D01*
X5485Y5365D01*
X5483Y5374D01*
X5478Y5382D01*
X5470Y5387D01*
X5462Y5389D01*
X5453Y5387D01*
X5445Y5382D01*
X5443Y5379D01*
X5422D01*
X5417Y5378D01*
X5416Y5378D01*
X5416Y5379D01*
X5411Y5387D01*
X5403Y5392D01*
X5394Y5393D01*
X5385Y5392D01*
X5377Y5387D01*
X5376Y5384D01*
X5366Y5385D01*
X5362Y5392D01*
X5363Y5393D01*
X5364Y5402D01*
X5363Y5411D01*
X5358Y5419D01*
X5350Y5424D01*
X5341Y5425D01*
X5332Y5424D01*
X5324Y5419D01*
X5322Y5415D01*
X5312D01*
X5311Y5416D01*
X5306Y5417D01*
X5277D01*
X5253Y5441D01*
X5249Y5444D01*
X5244Y5445D01*
X5176D01*
X5156Y5465D01*
X5152Y5468D01*
X5147Y5469D01*
X5019D01*
X5014Y5468D01*
X5010Y5465D01*
X4984Y5440D01*
X4981Y5435D01*
X4980Y5430D01*
Y5398D01*
X4980D01*
X4978D01*
X4973Y5398D01*
X4973Y5398D01*
Y5398D01*
X4892D01*
Y5396D01*
X4847D01*
X4845Y5396D01*
X4814D01*
Y5347D01*
X4813Y5347D01*
D01*
D01*
D01*
X4804Y5345D01*
Y5345D01*
X4801Y5350D01*
X4796Y5353D01*
X4795Y5353D01*
Y5339D01*
Y5325D01*
X4796Y5325D01*
X4801Y5328D01*
X4804Y5333D01*
X4805Y5339D01*
X4814Y5340D01*
Y5340D01*
X4815D01*
Y5340D01*
X4845D01*
X4847Y5340D01*
X4892D01*
Y5326D01*
X4973D01*
Y5326D01*
X4973Y5326D01*
X4978Y5326D01*
X4980Y5325D01*
Y5295D01*
X4981Y5290D01*
X4984Y5285D01*
X4984Y5285D01*
X4984Y5285D01*
X5020Y5250D01*
X5020Y5249D01*
X5028Y5242D01*
X5032Y5239D01*
X5034Y5238D01*
Y5230D01*
Y5221D01*
X4977D01*
Y5229D01*
X4911D01*
Y5221D01*
X4883D01*
Y5229D01*
X4874D01*
X4854Y5249D01*
X4850Y5251D01*
X4853Y5261D01*
X4875D01*
Y5276D01*
X4825D01*
Y5261D01*
X4825D01*
X4825Y5261D01*
X4825Y5261D01*
X4818Y5254D01*
X4761D01*
X4756Y5258D01*
X4747Y5259D01*
X4741Y5258D01*
X4733Y5265D01*
Y5279D01*
X4732Y5284D01*
X4731Y5285D01*
X4732Y5291D01*
X4731Y5300D01*
X4726Y5308D01*
X4718Y5313D01*
X4709Y5314D01*
X4700Y5313D01*
X4692Y5308D01*
X4687Y5300D01*
X4686Y5291D01*
X4687Y5282D01*
X4691Y5277D01*
X4687Y5267D01*
X4683Y5267D01*
X4675Y5262D01*
X4670Y5254D01*
X4669Y5245D01*
X4670Y5236D01*
X4675Y5228D01*
X4680Y5226D01*
Y5208D01*
X4681Y5203D01*
X4683Y5199D01*
X4700Y5182D01*
X4700Y5182D01*
X4700D01*
X4700Y5182D01*
X4700D01*
X4700Y5182D01*
Y5182D01*
Y5182D01*
D01*
D01*
X4700D01*
Y5182D01*
X4704Y5180D01*
X4709Y5179D01*
X4753D01*
X4766Y5166D01*
Y5160D01*
X4767Y5155D01*
X4769Y5151D01*
X4855Y5066D01*
X4854Y5061D01*
X4855Y5052D01*
X4860Y5044D01*
X4868Y5039D01*
X4877Y5038D01*
X4886Y5039D01*
X4894Y5044D01*
X4899Y5052D01*
X4900Y5061D01*
X4899Y5070D01*
X4894Y5078D01*
X4886Y5083D01*
X4877Y5084D01*
X4872Y5083D01*
X4794Y5161D01*
X4796Y5171D01*
X4799Y5172D01*
X4811Y5160D01*
D01*
X4811D01*
Y5160D01*
D01*
X4811D01*
Y5160D01*
X4811D01*
X4811Y5160D01*
Y5160D01*
X4811Y5160D01*
Y5160D01*
X4815Y5158D01*
X4820Y5157D01*
X4844D01*
X4883Y5118D01*
X4882Y5113D01*
X4883Y5104D01*
X4888Y5096D01*
X4896Y5091D01*
X4905Y5090D01*
X4914Y5091D01*
X4922Y5096D01*
X4927Y5104D01*
X4928Y5113D01*
X4927Y5122D01*
X4922Y5130D01*
X4914Y5135D01*
X4905Y5136D01*
X4900Y5135D01*
X4872Y5164D01*
X4875Y5173D01*
X4883D01*
Y5185D01*
X4911D01*
Y5173D01*
X4977D01*
Y5185D01*
X5034D01*
Y5179D01*
X5042D01*
Y5173D01*
X5042D01*
Y5172D01*
X5065D01*
Y5162D01*
X5042D01*
Y5162D01*
D01*
Y5162D01*
X5037Y5156D01*
X5034D01*
Y5128D01*
Y5102D01*
Y5090D01*
X5025Y5087D01*
X5023Y5091D01*
X5007Y5107D01*
X5003Y5109D01*
X5001Y5110D01*
X4998Y5115D01*
X4990Y5120D01*
X4981Y5121D01*
X4972Y5120D01*
X4964Y5115D01*
X4959Y5107D01*
X4958Y5098D01*
X4959Y5089D01*
X4964Y5081D01*
X4970Y5078D01*
Y5068D01*
X4967Y5067D01*
X4967Y5065D01*
X4957D01*
X4952Y5073D01*
X4944Y5078D01*
X4935Y5079D01*
X4926Y5078D01*
X4918Y5073D01*
X4918Y5073D01*
X4917Y5071D01*
X4914Y5067D01*
X4913Y5065D01*
X4913Y5065D01*
X4912Y5056D01*
X4913Y5050D01*
Y5016D01*
X4904Y5010D01*
X4896Y5015D01*
X4887Y5016D01*
X4878Y5015D01*
X4870Y5010D01*
X4868Y5006D01*
X4865Y5005D01*
X4861Y5002D01*
X4803Y4944D01*
X4761D01*
X4750Y4952D01*
X4751Y4961D01*
X4750Y4970D01*
X4745Y4978D01*
X4737Y4983D01*
X4733Y4983D01*
X4729Y4993D01*
X4733Y4998D01*
X4734Y5007D01*
X4734Y5011D01*
X4741Y5018D01*
X4747Y5017D01*
X4756Y5018D01*
X4764Y5023D01*
X4769Y5031D01*
X4770Y5040D01*
X4769Y5049D01*
X4764Y5057D01*
X4756Y5062D01*
X4758Y5072D01*
X4759Y5072D01*
X4764Y5075D01*
X4767Y5080D01*
X4767Y5081D01*
X4739D01*
X4739Y5080D01*
X4742Y5075D01*
X4746Y5073D01*
X4744Y5063D01*
X4738Y5062D01*
X4734Y5059D01*
X4711Y5082D01*
X4712Y5092D01*
X4718Y5096D01*
X4723Y5104D01*
X4724Y5113D01*
X4723Y5122D01*
X4718Y5130D01*
X4710Y5135D01*
X4701Y5136D01*
X4697Y5136D01*
X4576Y5256D01*
X4572Y5259D01*
X4567Y5260D01*
X4338D01*
X4336Y5266D01*
X4330Y5274D01*
X4322Y5280D01*
X4313Y5284D01*
X4303Y5285D01*
X4293Y5284D01*
X4284Y5280D01*
X4276Y5274D01*
X4270Y5266D01*
X4266Y5257D01*
X4266Y5255D01*
X4257Y5252D01*
X4233Y5275D01*
Y5483D01*
X4329Y5578D01*
X4333Y5578D01*
X4342Y5579D01*
X4350Y5584D01*
X4355Y5592D01*
X4356Y5601D01*
X4355Y5610D01*
X4350Y5618D01*
X4342Y5623D01*
X4333Y5624D01*
X4324Y5623D01*
X4316Y5618D01*
X4311Y5610D01*
X4310Y5601D01*
X4310Y5597D01*
X4211Y5497D01*
X4208Y5493D01*
X4207Y5488D01*
Y5270D01*
X4208Y5265D01*
X4211Y5260D01*
X4211Y5260D01*
X4211Y5260D01*
X4331Y5140D01*
X4328Y5130D01*
X4325Y5130D01*
X4317Y5125D01*
X4312Y5117D01*
X4311Y5108D01*
X4312Y5099D01*
X4317Y5091D01*
X4325Y5086D01*
X4334Y5085D01*
X4338Y5085D01*
X4347Y5077D01*
Y4970D01*
X4343Y4968D01*
X4338Y4960D01*
X4337Y4951D01*
X4338Y4942D01*
X4343Y4934D01*
X4351Y4929D01*
X4360Y4928D01*
X4369Y4929D01*
X4377Y4934D01*
X4382Y4942D01*
X4383Y4951D01*
X4382Y4960D01*
X4377Y4968D01*
X4373Y4970D01*
Y5082D01*
X4373Y5085D01*
X4381Y5090D01*
X4458Y5013D01*
Y4997D01*
X4459Y4992D01*
X4462Y4988D01*
X4478Y4972D01*
X4482Y4969D01*
Y4959D01*
X4481Y4958D01*
X4394Y4872D01*
X4392Y4867D01*
X4391Y4862D01*
X4392Y4857D01*
X4393Y4855D01*
Y4621D01*
X4327Y4555D01*
X4125D01*
X4118Y4560D01*
X4109Y4561D01*
X4100Y4560D01*
X4092Y4555D01*
X4087Y4547D01*
X4086Y4538D01*
X4087Y4529D01*
X4092Y4521D01*
X4100Y4516D01*
X4109Y4515D01*
X4118Y4516D01*
X4126Y4521D01*
X4130Y4529D01*
X4194D01*
X4199Y4520D01*
X4195Y4515D01*
X4194Y4506D01*
X4195Y4497D01*
X4200Y4489D01*
X4201Y4489D01*
X4198Y4479D01*
X4178D01*
X4176Y4483D01*
X4168Y4488D01*
X4159Y4489D01*
X4150Y4488D01*
X4142Y4483D01*
X4137Y4475D01*
X4136Y4466D01*
X4137Y4457D01*
X4142Y4449D01*
X4150Y4444D01*
X4159Y4443D01*
X4168Y4444D01*
X4176Y4449D01*
X4178Y4453D01*
X4405D01*
X4410Y4454D01*
X4414Y4457D01*
X4463Y4506D01*
X4466Y4510D01*
X4467Y4515D01*
X4467Y4515D01*
X4467Y4515D01*
Y4515D01*
Y4843D01*
X4521Y4896D01*
X4530Y4891D01*
X4529Y4886D01*
X4530Y4877D01*
X4531Y4876D01*
Y4065D01*
X4528Y4061D01*
X4527Y4052D01*
X4528Y4046D01*
X4519Y4041D01*
X4073Y4487D01*
Y5406D01*
X4325Y5658D01*
X4400Y5584D01*
X4301Y5485D01*
X4265D01*
Y5409D01*
X4301D01*
X4324Y5386D01*
X4330Y5382D01*
X4334Y5380D01*
X4337Y5379D01*
X4344Y5378D01*
X4660D01*
X4667Y5379D01*
X4669Y5380D01*
X4674Y5382D01*
X4680Y5386D01*
X4723Y5429D01*
X4728Y5435D01*
X4730Y5440D01*
X4730Y5442D01*
X4731Y5449D01*
Y5515D01*
X4739Y5522D01*
X4744Y5521D01*
X4753Y5522D01*
X4761Y5527D01*
X4761Y5527D01*
X4761Y5527D01*
X4785Y5552D01*
X4862D01*
X4868Y5544D01*
X4867Y5536D01*
X4868Y5527D01*
X4873Y5519D01*
X4881Y5514D01*
X4890Y5513D01*
X4892Y5513D01*
X4900Y5507D01*
Y5489D01*
X4930D01*
Y5512D01*
X4912D01*
X4910Y5516D01*
X4915Y5525D01*
X5139D01*
X5183Y5481D01*
X5187Y5478D01*
X5192Y5477D01*
X5192Y5477D01*
X5299D01*
X5304Y5478D01*
X5452D01*
X5659Y5271D01*
Y5002D01*
X5660Y4997D01*
X5663Y4993D01*
X5692Y4964D01*
X5696Y4961D01*
X5701Y4960D01*
X5763D01*
X5769Y4951D01*
X5766Y4945D01*
X5692D01*
Y4882D01*
X5779D01*
Y4933D01*
X5788Y4936D01*
X5935Y4790D01*
X5939Y4787D01*
X5944Y4786D01*
X6227D01*
X6232Y4777D01*
X6231Y4775D01*
X6216D01*
Y4760D01*
X6236D01*
Y4770D01*
X6240Y4772D01*
Y4772D01*
X6245Y4774D01*
X6304Y4715D01*
X6297Y4681D01*
X6505Y4637D01*
X6517Y4691D01*
X6325Y4732D01*
X6248Y4808D01*
X6244Y4811D01*
X6244Y4811D01*
Y4822D01*
X6319D01*
X6325Y4814D01*
X6318Y4779D01*
X6526Y4735D01*
X6538Y4789D01*
X6448Y4808D01*
X6449Y4818D01*
X6524D01*
X6541Y4800D01*
X6545Y4798D01*
X6550Y4797D01*
X6555Y4798D01*
X6559Y4800D01*
X6576Y4817D01*
X6578Y4821D01*
X6579Y4826D01*
Y4899D01*
X6578Y4904D01*
X6576Y4908D01*
X6464Y5020D01*
X6460Y5022D01*
X6455Y5023D01*
X6362D01*
X6361Y5033D01*
X6555Y5074D01*
X6544Y5129D01*
X6375Y5093D01*
X6358D01*
X6357Y5093D01*
X6352Y5094D01*
X6293D01*
Y5109D01*
X6227D01*
Y5109D01*
X6226D01*
X6219Y5116D01*
Y5197D01*
X6285Y5263D01*
X6298D01*
X6306Y5226D01*
X6514Y5270D01*
X6502Y5324D01*
X6328Y5287D01*
X6280D01*
X6275Y5286D01*
X6271Y5284D01*
X6198Y5211D01*
X6196Y5207D01*
X6195Y5202D01*
Y5059D01*
X6196Y5054D01*
X6198Y5051D01*
X6190Y5045D01*
X6167Y5068D01*
Y5345D01*
X6253Y5431D01*
X6263Y5428D01*
X6264Y5421D01*
X6363Y5443D01*
X6370Y5443D01*
X6372Y5445D01*
X6472Y5466D01*
X6461Y5520D01*
X6459Y5520D01*
X6459Y5520D01*
X6451Y5526D01*
X6452Y5532D01*
Y5747D01*
X6451Y5754D01*
X6448Y5761D01*
X6444Y5767D01*
X6438Y5771D01*
X6431Y5774D01*
X6424Y5775D01*
X6347D01*
X6145Y5977D01*
X6139Y5981D01*
X6134Y5983D01*
X6132Y5984D01*
X6125Y5985D01*
X5214D01*
X5207Y5984D01*
X5205Y5983D01*
X5200Y5981D01*
X5194Y5977D01*
X5168Y5951D01*
X5096Y6022D01*
X5099Y6032D01*
X5101Y6032D01*
X5109Y6037D01*
X5114Y6045D01*
X5115Y6054D01*
X5115Y6058D01*
X5117Y6061D01*
X5120Y6065D01*
X5121Y6070D01*
Y6269D01*
X5136D01*
Y6482D01*
X5080D01*
Y6269D01*
X5095D01*
Y6080D01*
X5092Y6077D01*
X5083Y6076D01*
X5074Y6089D01*
Y6149D01*
X5073Y6156D01*
X5072Y6158D01*
X5070Y6163D01*
X5066Y6169D01*
X4936Y6299D01*
Y6375D01*
X4936Y6379D01*
Y6482D01*
X4880D01*
Y6379D01*
X4880Y6375D01*
Y6287D01*
X4880Y6283D01*
Y6269D01*
X4887D01*
X4888Y6267D01*
X4997Y6158D01*
X4995Y6147D01*
X4986Y6146D01*
X4978Y6141D01*
X4973Y6133D01*
X4972Y6124D01*
X4973Y6118D01*
X4973Y6118D01*
X4972Y6113D01*
Y6074D01*
X4971Y6074D01*
X4969Y6070D01*
X4968Y6065D01*
Y5855D01*
X4935Y5822D01*
X4925Y5823D01*
X4921Y5829D01*
X4913Y5834D01*
X4904Y5835D01*
X4900Y5835D01*
X4786Y5949D01*
Y6545D01*
X4807Y6566D01*
X4786Y6587D01*
Y6860D01*
X4790Y6864D01*
Y6864D01*
X4790Y6864D01*
X5001D01*
Y6730D01*
D02*
G37*
G36*
X5512Y4801D02*
X5518Y4795D01*
X5552D01*
Y4788D01*
X5583D01*
Y4783D01*
X5588D01*
Y4772D01*
X5613D01*
D01*
X5613D01*
X5615Y4770D01*
Y4756D01*
X5613D01*
Y4756D01*
X5588D01*
Y4744D01*
X5583D01*
Y4739D01*
X5552D01*
Y4734D01*
X5551D01*
X5550Y4733D01*
X5548Y4731D01*
X5391D01*
Y4742D01*
X5373D01*
Y4736D01*
X5363D01*
Y4742D01*
X5355D01*
X5351Y4751D01*
X5355Y4756D01*
X5363D01*
Y4761D01*
Y4767D01*
X5354D01*
X5350Y4777D01*
X5354Y4781D01*
X5363D01*
Y4787D01*
Y4793D01*
X5353D01*
X5349Y4802D01*
X5354Y4807D01*
X5363D01*
Y4813D01*
X5373D01*
Y4807D01*
X5391D01*
Y4817D01*
X5496D01*
X5512Y4801D01*
D02*
G37*
G36*
X5845Y4969D02*
X5849Y4967D01*
X5854Y4966D01*
X6154D01*
X6247Y4872D01*
X6244Y4863D01*
X6178D01*
Y4812D01*
X5949D01*
X5779Y4982D01*
X5775Y4985D01*
X5770Y4986D01*
X5706D01*
X5696Y4997D01*
X5700Y5006D01*
X5780D01*
Y5022D01*
X5789Y5026D01*
X5845Y4969D01*
D02*
G37*
G36*
X5395Y5324D02*
X5396Y5324D01*
X5397Y5323D01*
X5398Y5323D01*
X5398Y5323D01*
X5399Y5322D01*
X5400Y5322D01*
X5481D01*
X5482Y5322D01*
X5483Y5322D01*
X5566Y5239D01*
X5566Y5238D01*
X5566Y5237D01*
X5565Y5234D01*
X5564Y5233D01*
X5564Y5233D01*
Y5232D01*
X5564Y5231D01*
X5564Y5230D01*
Y5230D01*
X5564Y5229D01*
X5565Y5228D01*
X5565Y5227D01*
X5565Y5227D01*
X5568Y5222D01*
X5569Y5222D01*
X5569Y5221D01*
X5570Y5221D01*
X5570Y5220D01*
X5571Y5220D01*
X5572Y5219D01*
X5573Y5219D01*
X5573Y5219D01*
X5574D01*
X5575Y5219D01*
X5613D01*
Y5159D01*
X5553D01*
X5551Y5157D01*
X5486Y5222D01*
X5465D01*
Y5263D01*
X5463Y5265D01*
X5445Y5283D01*
X5408D01*
X5406Y5283D01*
X5398D01*
Y5284D01*
X5376D01*
X5368Y5285D01*
X5360Y5284D01*
X5356D01*
X5350Y5290D01*
X5347Y5293D01*
Y5322D01*
X5378Y5325D01*
X5394D01*
X5395Y5324D01*
D02*
G37*
G36*
X5373Y5213D02*
X5391D01*
X5391Y5213D01*
Y5213D01*
X5397Y5216D01*
X5405Y5208D01*
X5411Y5202D01*
X5490D01*
X5551Y5141D01*
X5553Y5139D01*
Y5133D01*
X5584D01*
Y5128D01*
X5589D01*
Y5117D01*
X5614D01*
D01*
X5614D01*
X5615Y5116D01*
Y5101D01*
X5615D01*
X5614D01*
X5608Y5101D01*
X5608Y5101D01*
Y5101D01*
X5589D01*
Y5089D01*
X5584D01*
Y5084D01*
X5551D01*
X5551Y5084D01*
X5545Y5079D01*
X5542Y5080D01*
X5540Y5081D01*
X5537Y5082D01*
X5505Y5114D01*
X5434D01*
X5414Y5134D01*
X5412Y5136D01*
X5391D01*
Y5137D01*
X5368D01*
Y5142D01*
X5363D01*
Y5148D01*
X5347D01*
Y5162D01*
X5363D01*
Y5167D01*
Y5173D01*
X5347D01*
Y5187D01*
X5363D01*
Y5193D01*
Y5199D01*
X5347D01*
Y5213D01*
X5363D01*
Y5219D01*
X5373D01*
Y5213D01*
D02*
G37*
%LPC*%
G36*
X4855Y4606D02*
X4835D01*
Y4591D01*
X4855D01*
Y4606D01*
D02*
G37*
G36*
X6289Y4604D02*
X6286Y4589D01*
X6377Y4570D01*
X6380Y4584D01*
X6289Y4604D01*
D02*
G37*
G36*
X6390Y4582D02*
X6387Y4568D01*
X6478Y4548D01*
X6481Y4563D01*
X6390Y4582D01*
D02*
G37*
G36*
X6395Y4606D02*
X6392Y4592D01*
X6484Y4573D01*
X6487Y4587D01*
X6395Y4606D01*
D02*
G37*
G36*
X4880Y4550D02*
X4857D01*
Y4520D01*
X4880D01*
Y4550D01*
D02*
G37*
G36*
X6566Y4488D02*
X6546D01*
Y4473D01*
X6566D01*
Y4488D01*
D02*
G37*
G36*
X6596D02*
X6576D01*
Y4473D01*
X6596D01*
Y4488D01*
D02*
G37*
G36*
X5102Y4480D02*
X5082D01*
Y4465D01*
X5102D01*
Y4480D01*
D02*
G37*
G36*
X4091Y4324D02*
X4005D01*
X3961Y4280D01*
Y4194D01*
X4005Y4150D01*
X4091D01*
X4135Y4194D01*
Y4280D01*
X4091Y4324D01*
D02*
G37*
G36*
X6267Y4540D02*
X6256Y4485D01*
X6378Y4459D01*
X6433Y4404D01*
X6438Y4401D01*
X6443Y4400D01*
X6538D01*
Y4385D01*
X6604D01*
Y4441D01*
X6538D01*
Y4426D01*
X6448D01*
X6438Y4437D01*
X6442Y4446D01*
X6464Y4441D01*
X6475Y4495D01*
X6267Y4540D01*
D02*
G37*
G36*
X6596Y4513D02*
X6576D01*
Y4498D01*
X6596D01*
Y4513D01*
D02*
G37*
G36*
X4847Y4550D02*
X4824D01*
Y4520D01*
X4847D01*
Y4550D01*
D02*
G37*
G36*
X6566Y4513D02*
X6546D01*
Y4498D01*
X6566D01*
Y4513D01*
D02*
G37*
G36*
X4847Y4510D02*
X4824D01*
Y4480D01*
X4847D01*
Y4510D01*
D02*
G37*
G36*
X4880D02*
X4857D01*
Y4480D01*
X4880D01*
Y4510D01*
D02*
G37*
G36*
X4885Y4606D02*
X4865D01*
Y4591D01*
X4885D01*
Y4606D01*
D02*
G37*
G36*
X5446Y4709D02*
Y4690D01*
X5465D01*
X5465Y4695D01*
X5459Y4703D01*
X5451Y4709D01*
X5446Y4709D01*
D02*
G37*
G36*
X6209Y4712D02*
X6208Y4712D01*
X6203Y4709D01*
X6200Y4704D01*
X6200Y4703D01*
X6209D01*
Y4712D01*
D02*
G37*
G36*
X5436Y4709D02*
X5431Y4709D01*
X5423Y4703D01*
X5417Y4695D01*
X5417Y4690D01*
X5436D01*
Y4709D01*
D02*
G37*
G36*
X5363Y4691D02*
X5345D01*
Y4690D01*
X5363D01*
Y4691D01*
D02*
G37*
G36*
X5391D02*
X5373D01*
Y4690D01*
X5391D01*
Y4691D01*
D02*
G37*
G36*
X6206Y4750D02*
X6186D01*
Y4735D01*
X6206D01*
Y4750D01*
D02*
G37*
G36*
X6236D02*
X6216D01*
Y4735D01*
X6236D01*
Y4750D01*
D02*
G37*
G36*
X5391Y4705D02*
X5373D01*
Y4704D01*
X5391D01*
Y4705D01*
D02*
G37*
G36*
X6219Y4712D02*
Y4703D01*
X6228D01*
X6228Y4704D01*
X6225Y4709D01*
X6220Y4712D01*
X6219Y4712D01*
D02*
G37*
G36*
X5363Y4705D02*
X5345D01*
Y4704D01*
X5363D01*
Y4705D01*
D02*
G37*
G36*
X6228Y4693D02*
X6219D01*
Y4684D01*
X6220Y4684D01*
X6225Y4687D01*
X6228Y4692D01*
X6228Y4693D01*
D02*
G37*
G36*
X4885Y4631D02*
X4865D01*
Y4616D01*
X4885D01*
Y4631D01*
D02*
G37*
G36*
X4970Y4632D02*
X4950D01*
Y4617D01*
X4970D01*
Y4632D01*
D02*
G37*
G36*
X6294Y4628D02*
X6291Y4614D01*
X6382Y4594D01*
X6385Y4608D01*
X6294Y4628D01*
D02*
G37*
G36*
X4970Y4607D02*
X4950D01*
Y4592D01*
X4970D01*
Y4607D01*
D02*
G37*
G36*
X5000D02*
X4980D01*
Y4592D01*
X5000D01*
Y4607D01*
D02*
G37*
G36*
X5779Y4725D02*
X5692D01*
Y4661D01*
X5779D01*
Y4725D01*
D02*
G37*
G36*
X6209Y4693D02*
X6200D01*
X6200Y4692D01*
X6203Y4687D01*
X6208Y4684D01*
X6209Y4684D01*
Y4693D01*
D02*
G37*
G36*
X5465Y4680D02*
X5446D01*
Y4661D01*
X5451Y4661D01*
X5459Y4667D01*
X5465Y4675D01*
X5465Y4680D01*
D02*
G37*
G36*
X5000Y4632D02*
X4980D01*
Y4617D01*
X5000D01*
Y4632D01*
D02*
G37*
G36*
X5436Y4680D02*
X5417D01*
X5417Y4675D01*
X5423Y4667D01*
X5431Y4661D01*
X5436Y4661D01*
Y4680D01*
D02*
G37*
G36*
X6383Y4328D02*
X6198D01*
Y4116D01*
X6383D01*
Y4328D01*
D02*
G37*
G36*
X4251Y3392D02*
X4231D01*
Y3377D01*
X4251D01*
Y3392D01*
D02*
G37*
G36*
X5005Y3401D02*
X4990D01*
Y3381D01*
X5005D01*
Y3401D01*
D02*
G37*
G36*
X4221Y3392D02*
X4201D01*
Y3377D01*
X4221D01*
Y3392D01*
D02*
G37*
G36*
X4337Y3390D02*
X4317D01*
Y3375D01*
X4337D01*
Y3390D01*
D02*
G37*
G36*
X4367D02*
X4347D01*
Y3375D01*
X4367D01*
Y3390D01*
D02*
G37*
G36*
X5030Y3401D02*
X5015D01*
Y3381D01*
X5030D01*
Y3401D01*
D02*
G37*
G36*
X4221Y3417D02*
X4201D01*
Y3402D01*
X4221D01*
Y3417D01*
D02*
G37*
G36*
X4251D02*
X4231D01*
Y3402D01*
X4251D01*
Y3417D01*
D02*
G37*
G36*
X4367Y3415D02*
X4347D01*
Y3400D01*
X4367D01*
Y3415D01*
D02*
G37*
G36*
X5097Y3413D02*
X5082D01*
Y3393D01*
X5097D01*
Y3413D01*
D02*
G37*
G36*
X4337Y3415D02*
X4317D01*
Y3400D01*
X4337D01*
Y3415D01*
D02*
G37*
G36*
X5030Y3371D02*
X5015D01*
Y3351D01*
X5030D01*
Y3371D01*
D02*
G37*
G36*
X4457Y3286D02*
X4442D01*
Y3266D01*
X4457D01*
Y3286D01*
D02*
G37*
G36*
X4699Y3513D02*
X4549Y3363D01*
X4559Y3352D01*
X4508Y3301D01*
X4505Y3297D01*
X4504Y3294D01*
X4489D01*
Y3228D01*
X4545D01*
Y3294D01*
X4545Y3294D01*
X4545D01*
X4543Y3299D01*
X4577Y3334D01*
X4588Y3324D01*
X4738Y3474D01*
X4699Y3513D01*
D02*
G37*
G36*
X4432Y3286D02*
X4417D01*
Y3266D01*
X4432D01*
Y3286D01*
D02*
G37*
G36*
Y3256D02*
X4417D01*
Y3236D01*
X4432D01*
Y3256D01*
D02*
G37*
G36*
X4457D02*
X4442D01*
Y3236D01*
X4457D01*
Y3256D01*
D02*
G37*
G36*
X4277Y3338D02*
X4268D01*
X4268Y3337D01*
X4271Y3332D01*
X4276Y3329D01*
X4277Y3329D01*
Y3338D01*
D02*
G37*
G36*
X4287Y3357D02*
Y3348D01*
X4296D01*
X4296Y3349D01*
X4293Y3354D01*
X4288Y3357D01*
X4287Y3357D01*
D02*
G37*
G36*
X5005Y3371D02*
X4990D01*
Y3351D01*
X5005D01*
Y3371D01*
D02*
G37*
G36*
X4277Y3357D02*
X4276Y3357D01*
X4271Y3354D01*
X4268Y3349D01*
X4268Y3348D01*
X4277D01*
Y3357D01*
D02*
G37*
G36*
X4296Y3338D02*
X4287D01*
Y3329D01*
X4288Y3329D01*
X4293Y3332D01*
X4296Y3337D01*
X4296Y3338D01*
D02*
G37*
G36*
X4943Y3697D02*
X4887D01*
Y3484D01*
X4902D01*
Y3483D01*
X4903Y3478D01*
X4906Y3474D01*
X4906Y3474D01*
X4906Y3474D01*
X4917Y3463D01*
Y3409D01*
X4902D01*
Y3343D01*
X4958D01*
Y3409D01*
X4943D01*
Y3468D01*
X4942Y3473D01*
X4939Y3477D01*
X4942Y3484D01*
X4943D01*
Y3697D01*
D02*
G37*
G36*
X6188Y4106D02*
X6003D01*
Y3894D01*
X6013D01*
X6015Y3891D01*
X6020Y3888D01*
X6021Y3888D01*
Y3902D01*
X6031D01*
Y3888D01*
X6032Y3888D01*
X6037Y3891D01*
X6039Y3894D01*
X6188D01*
Y4106D01*
D02*
G37*
G36*
X6383D02*
X6198D01*
Y3894D01*
X6383D01*
Y4106D01*
D02*
G37*
G36*
X4295Y3987D02*
X4233Y3926D01*
X4278Y3881D01*
X4339Y3943D01*
X4295Y3987D01*
D02*
G37*
G36*
X4112Y3746D02*
X4019D01*
Y3732D01*
X4112D01*
Y3746D01*
D02*
G37*
G36*
X4423Y3859D02*
X4361Y3798D01*
X4406Y3753D01*
X4467Y3815D01*
X4423Y3859D01*
D02*
G37*
G36*
X4080Y3924D02*
X4065D01*
Y3904D01*
X4080D01*
Y3924D01*
D02*
G37*
G36*
X5149Y4038D02*
X5062D01*
Y3975D01*
X5149D01*
Y4038D01*
D02*
G37*
G36*
X6188Y4328D02*
X6003D01*
Y4116D01*
X6188D01*
Y4328D01*
D02*
G37*
G36*
X4105Y3954D02*
X4090D01*
Y3934D01*
X4105D01*
Y3954D01*
D02*
G37*
G36*
Y3924D02*
X4090D01*
Y3904D01*
X4105D01*
Y3924D01*
D02*
G37*
G36*
X4080Y3954D02*
X4065D01*
Y3934D01*
X4080D01*
Y3954D01*
D02*
G37*
G36*
X4295Y3753D02*
X4277Y3734D01*
X4282Y3730D01*
X4300Y3748D01*
X4295Y3753D01*
D02*
G37*
G36*
X5035Y3586D02*
X5020D01*
Y3492D01*
X5035D01*
Y3586D01*
D02*
G37*
G36*
X4484Y3570D02*
X4418Y3504D01*
X4429Y3494D01*
X4495Y3560D01*
X4484Y3570D01*
D02*
G37*
G36*
X5010Y3586D02*
X4995D01*
Y3492D01*
X5010D01*
Y3586D01*
D02*
G37*
G36*
X5097Y3443D02*
X5082D01*
Y3423D01*
X5097D01*
Y3443D01*
D02*
G37*
G36*
X4502Y3553D02*
X4436Y3487D01*
X4446Y3476D01*
X4512Y3542D01*
X4502Y3553D01*
D02*
G37*
G36*
X4575Y3626D02*
X4509Y3560D01*
X4519Y3549D01*
X4585Y3615D01*
X4575Y3626D01*
D02*
G37*
G36*
X4270Y3727D02*
X4252Y3709D01*
X4257Y3705D01*
X4275Y3723D01*
X4270Y3727D01*
D02*
G37*
G36*
X4112Y3722D02*
X4019D01*
Y3707D01*
X4112D01*
Y3722D01*
D02*
G37*
G36*
X5035Y3689D02*
X5020D01*
Y3596D01*
X5035D01*
Y3689D01*
D02*
G37*
G36*
X4558Y3643D02*
X4492Y3577D01*
X4502Y3567D01*
X4568Y3633D01*
X4558Y3643D01*
D02*
G37*
G36*
X5010Y3689D02*
X4995D01*
Y3596D01*
X5010D01*
Y3689D01*
D02*
G37*
G36*
X4872Y5443D02*
X4852D01*
Y5428D01*
X4872D01*
Y5443D01*
D02*
G37*
G36*
X4842Y5468D02*
X4822D01*
Y5453D01*
X4842D01*
Y5468D01*
D02*
G37*
G36*
Y5443D02*
X4822D01*
Y5428D01*
X4842D01*
Y5443D01*
D02*
G37*
G36*
X4308Y5376D02*
Y5352D01*
X4332D01*
X4332Y5355D01*
X4329Y5362D01*
X4324Y5368D01*
X4318Y5373D01*
X4311Y5376D01*
X4308Y5376D01*
D02*
G37*
G36*
X6600Y5443D02*
X6534D01*
Y5429D01*
X6467D01*
X6462Y5428D01*
X6458Y5425D01*
X6447Y5415D01*
X6273Y5378D01*
X6285Y5324D01*
X6493Y5368D01*
X6487Y5395D01*
X6494Y5403D01*
X6534D01*
Y5387D01*
X6600D01*
Y5443D01*
D02*
G37*
G36*
X4970Y5512D02*
X4940D01*
Y5489D01*
X4970D01*
Y5512D01*
D02*
G37*
G36*
X4091Y5820D02*
X4005D01*
X3961Y5776D01*
Y5690D01*
X4005Y5646D01*
X4091D01*
X4135Y5690D01*
Y5776D01*
X4091Y5820D01*
D02*
G37*
G36*
X4970Y5479D02*
X4940D01*
Y5456D01*
X4970D01*
Y5479D01*
D02*
G37*
G36*
X4872Y5468D02*
X4852D01*
Y5453D01*
X4872D01*
Y5468D01*
D02*
G37*
G36*
X4930Y5479D02*
X4900D01*
Y5456D01*
X4930D01*
Y5479D01*
D02*
G37*
G36*
X4298Y5376D02*
X4295Y5376D01*
X4288Y5373D01*
X4282Y5368D01*
X4277Y5362D01*
X4274Y5355D01*
X4274Y5352D01*
X4298D01*
Y5376D01*
D02*
G37*
G36*
X6592Y5330D02*
X6572D01*
Y5315D01*
X6592D01*
Y5330D01*
D02*
G37*
G36*
X4298Y5342D02*
X4274D01*
X4274Y5339D01*
X4277Y5332D01*
X4282Y5326D01*
X4288Y5321D01*
X4295Y5318D01*
X4298Y5318D01*
Y5342D01*
D02*
G37*
G36*
X6562Y5330D02*
X6542D01*
Y5315D01*
X6562D01*
Y5330D01*
D02*
G37*
G36*
X4939Y5301D02*
X4919D01*
Y5286D01*
X4939D01*
Y5301D01*
D02*
G37*
G36*
X4969D02*
X4949D01*
Y5286D01*
X4969D01*
Y5301D01*
D02*
G37*
G36*
X6592Y5355D02*
X6572D01*
Y5340D01*
X6592D01*
Y5355D01*
D02*
G37*
G36*
X4785Y5353D02*
X4784Y5353D01*
X4779Y5350D01*
X4776Y5345D01*
X4776Y5344D01*
X4785D01*
Y5353D01*
D02*
G37*
G36*
X6562Y5355D02*
X6542D01*
Y5340D01*
X6562D01*
Y5355D01*
D02*
G37*
G36*
X4332Y5342D02*
X4308D01*
Y5318D01*
X4311Y5318D01*
X4318Y5321D01*
X4324Y5326D01*
X4329Y5332D01*
X4332Y5339D01*
X4332Y5342D01*
D02*
G37*
G36*
X4785Y5334D02*
X4776D01*
X4776Y5333D01*
X4779Y5328D01*
X4784Y5325D01*
X4785Y5325D01*
Y5334D01*
D02*
G37*
G36*
X5666Y5919D02*
X5580D01*
X5536Y5875D01*
Y5789D01*
X5580Y5745D01*
X5666D01*
X5710Y5789D01*
Y5875D01*
X5666Y5919D01*
D02*
G37*
G36*
X5237Y6551D02*
X5222D01*
Y6531D01*
X5237D01*
Y6551D01*
D02*
G37*
G36*
X4921Y6571D02*
X4906D01*
Y6551D01*
X4921D01*
Y6571D01*
D02*
G37*
G36*
X5212Y6551D02*
X5197D01*
Y6531D01*
X5212D01*
Y6551D01*
D02*
G37*
G36*
X4112Y6432D02*
X4019D01*
Y6417D01*
X4112D01*
Y6432D01*
D02*
G37*
G36*
Y6456D02*
X4019D01*
Y6442D01*
X4112D01*
Y6456D01*
D02*
G37*
G36*
X4921Y6601D02*
X4906D01*
Y6581D01*
X4921D01*
Y6601D01*
D02*
G37*
G36*
X4946D02*
X4931D01*
Y6581D01*
X4946D01*
Y6601D01*
D02*
G37*
G36*
X5237Y6581D02*
X5222D01*
Y6561D01*
X5237D01*
Y6581D01*
D02*
G37*
G36*
X4946Y6571D02*
X4931D01*
Y6551D01*
X4946D01*
Y6571D01*
D02*
G37*
G36*
X5212Y6581D02*
X5197D01*
Y6561D01*
X5212D01*
Y6581D01*
D02*
G37*
G36*
X5228Y6474D02*
X5213D01*
Y6380D01*
X5228D01*
Y6474D01*
D02*
G37*
G36*
X6388Y5842D02*
X6387Y5842D01*
X6382Y5839D01*
X6379Y5834D01*
X6379Y5833D01*
X6388D01*
Y5842D01*
D02*
G37*
G36*
X6398D02*
Y5833D01*
X6407D01*
X6407Y5834D01*
X6404Y5839D01*
X6399Y5842D01*
X6398Y5842D01*
D02*
G37*
G36*
X5836Y5835D02*
X5827Y5834D01*
X5820Y5829D01*
X5815Y5821D01*
X5803Y5823D01*
X5802Y5826D01*
X5794Y5831D01*
X5785Y5832D01*
X5776Y5831D01*
X5768Y5826D01*
X5763Y5818D01*
X5762Y5809D01*
X5763Y5800D01*
X5768Y5792D01*
X5772Y5790D01*
Y5478D01*
X5773Y5473D01*
X5776Y5469D01*
X5776Y5469D01*
X5776Y5469D01*
X5812Y5432D01*
X5812Y5428D01*
X5813Y5419D01*
X5818Y5411D01*
X5826Y5406D01*
X5835Y5405D01*
X5844Y5406D01*
X5852Y5411D01*
X5856Y5417D01*
X5865D01*
X5866Y5417D01*
X5867Y5414D01*
X5875Y5409D01*
X5884Y5408D01*
X5893Y5409D01*
X5901Y5414D01*
X5906Y5422D01*
X5907Y5431D01*
X5906Y5440D01*
X5901Y5448D01*
X5893Y5453D01*
X5884Y5454D01*
X5880Y5454D01*
X5850Y5484D01*
Y5793D01*
X5853Y5795D01*
X5858Y5803D01*
X5860Y5812D01*
X5858Y5821D01*
X5853Y5829D01*
X5845Y5834D01*
X5836Y5835D01*
D02*
G37*
G36*
X6388Y5823D02*
X6379D01*
X6379Y5822D01*
X6382Y5817D01*
X6387Y5814D01*
X6388Y5814D01*
Y5823D01*
D02*
G37*
G36*
X6407D02*
X6398D01*
Y5814D01*
X6399Y5814D01*
X6404Y5817D01*
X6407Y5822D01*
X6407Y5823D01*
D02*
G37*
G36*
X5228Y6370D02*
X5213D01*
Y6277D01*
X5228D01*
Y6370D01*
D02*
G37*
G36*
X5203Y6474D02*
X5188D01*
Y6380D01*
X5203D01*
Y6474D01*
D02*
G37*
G36*
Y6370D02*
X5188D01*
Y6277D01*
X5203D01*
Y6370D01*
D02*
G37*
G36*
X5034Y6609D02*
X4978D01*
Y6543D01*
X4993D01*
Y6482D01*
X4980D01*
Y6269D01*
X5036D01*
Y6482D01*
X5019D01*
Y6543D01*
X5034D01*
Y6609D01*
D02*
G37*
G36*
X5325Y6589D02*
X5269D01*
Y6523D01*
X5284D01*
Y6482D01*
X5280D01*
Y6269D01*
X5336D01*
Y6482D01*
X5311D01*
X5310Y6482D01*
Y6523D01*
X5325D01*
Y6589D01*
D02*
G37*
G36*
X4875Y5301D02*
X4855D01*
Y5286D01*
X4875D01*
Y5301D01*
D02*
G37*
G36*
X4748Y5100D02*
X4747Y5100D01*
X4742Y5097D01*
X4739Y5092D01*
X4739Y5091D01*
X4748D01*
Y5100D01*
D02*
G37*
G36*
X4758D02*
Y5091D01*
X4767D01*
X4767Y5092D01*
X4764Y5097D01*
X4759Y5100D01*
X4758Y5100D01*
D02*
G37*
G36*
X5391Y4910D02*
X5373D01*
Y4909D01*
X5391D01*
Y4910D01*
D02*
G37*
G36*
X5363Y4859D02*
X5345D01*
Y4858D01*
X5363D01*
Y4859D01*
D02*
G37*
G36*
X5391D02*
X5373D01*
Y4858D01*
X5391D01*
Y4859D01*
D02*
G37*
G36*
X5363Y5111D02*
X5345D01*
Y5110D01*
X5363D01*
Y5111D01*
D02*
G37*
G36*
X5391D02*
X5373D01*
Y5110D01*
X5391D01*
Y5111D01*
D02*
G37*
G36*
Y5097D02*
X5373D01*
Y5096D01*
X5391D01*
Y5097D01*
D02*
G37*
G36*
X5579Y5101D02*
X5553D01*
Y5094D01*
X5579D01*
Y5101D01*
D02*
G37*
G36*
X5363Y5097D02*
X5345D01*
Y5096D01*
X5363D01*
Y5097D01*
D02*
G37*
G36*
X5578Y4857D02*
X5552D01*
Y4850D01*
X5578D01*
Y4857D01*
D02*
G37*
G36*
X5391Y4767D02*
X5373D01*
Y4766D01*
X5391D01*
Y4767D01*
D02*
G37*
G36*
X5578Y4778D02*
X5552D01*
Y4772D01*
X5578D01*
Y4778D01*
D02*
G37*
G36*
X6206Y4775D02*
X6186D01*
Y4760D01*
X6206D01*
Y4775D01*
D02*
G37*
G36*
X5578Y4756D02*
X5552D01*
Y4749D01*
X5578D01*
Y4756D01*
D02*
G37*
G36*
X5391Y4756D02*
X5373D01*
Y4756D01*
X5391D01*
Y4756D01*
D02*
G37*
G36*
X5363Y4844D02*
X5345D01*
Y4843D01*
X5363D01*
Y4844D01*
D02*
G37*
G36*
X5391D02*
X5373D01*
Y4843D01*
X5391D01*
Y4844D01*
D02*
G37*
G36*
X5578Y4835D02*
X5552D01*
Y4828D01*
X5578D01*
Y4835D01*
D02*
G37*
G36*
X5391Y4782D02*
X5373D01*
Y4781D01*
X5391D01*
Y4782D01*
D02*
G37*
G36*
Y4793D02*
X5373D01*
Y4792D01*
X5391D01*
Y4793D01*
D02*
G37*
G36*
X5579Y5123D02*
X5553D01*
Y5117D01*
X5579D01*
Y5123D01*
D02*
G37*
G36*
X5363Y5250D02*
X5345D01*
Y5249D01*
X5363D01*
Y5250D01*
D02*
G37*
G36*
X5391D02*
X5373D01*
Y5249D01*
X5391D01*
Y5250D01*
D02*
G37*
G36*
X5431Y5241D02*
X5422D01*
X5422Y5240D01*
X5425Y5235D01*
X5430Y5232D01*
X5431Y5232D01*
Y5241D01*
D02*
G37*
G36*
X5391Y5188D02*
X5373D01*
Y5187D01*
X5391D01*
Y5188D01*
D02*
G37*
G36*
Y5199D02*
X5373D01*
Y5198D01*
X5391D01*
Y5199D01*
D02*
G37*
G36*
X5363Y5265D02*
X5345D01*
Y5264D01*
X5363D01*
Y5265D01*
D02*
G37*
G36*
X4845Y5301D02*
X4825D01*
Y5286D01*
X4845D01*
Y5301D01*
D02*
G37*
G36*
X4969Y5276D02*
X4949D01*
Y5261D01*
X4969D01*
Y5276D01*
D02*
G37*
G36*
X5431Y5260D02*
X5430Y5260D01*
X5425Y5257D01*
X5422Y5252D01*
X5422Y5251D01*
X5431D01*
Y5260D01*
D02*
G37*
G36*
X4939Y5276D02*
X4919D01*
Y5261D01*
X4939D01*
Y5276D01*
D02*
G37*
G36*
X6517Y5217D02*
X6425Y5198D01*
X6429Y5183D01*
X6520Y5203D01*
X6517Y5217D01*
D02*
G37*
G36*
X5391Y5148D02*
X5373D01*
Y5147D01*
X5391D01*
Y5148D01*
D02*
G37*
G36*
X6522Y5193D02*
X6431Y5173D01*
X6434Y5159D01*
X6525Y5178D01*
X6522Y5193D01*
D02*
G37*
G36*
X6285Y5156D02*
X6265D01*
Y5141D01*
X6285D01*
Y5156D01*
D02*
G37*
G36*
X6421Y5171D02*
X6329Y5152D01*
X6333Y5138D01*
X6424Y5157D01*
X6421Y5171D01*
D02*
G37*
G36*
X6255Y5156D02*
X6235D01*
Y5141D01*
X6255D01*
Y5156D01*
D02*
G37*
G36*
X6285Y5181D02*
X6265D01*
Y5166D01*
X6285D01*
Y5181D01*
D02*
G37*
G36*
X5391Y5173D02*
X5373D01*
Y5172D01*
X5391D01*
Y5173D01*
D02*
G37*
G36*
X6255Y5181D02*
X6235D01*
Y5166D01*
X6255D01*
Y5181D01*
D02*
G37*
G36*
X5391Y5162D02*
X5373D01*
Y5162D01*
X5391D01*
Y5162D01*
D02*
G37*
G36*
X6416Y5195D02*
X6324Y5176D01*
X6327Y5162D01*
X6419Y5181D01*
X6416Y5195D01*
D02*
G37*
%LPD*%
D10*
X4176Y6352D02*
D03*
Y6272D02*
D03*
X4226Y3397D02*
D03*
Y3477D02*
D03*
X6260Y5161D02*
D03*
Y5081D02*
D03*
X4196Y6504D02*
D03*
Y6584D02*
D03*
X6211Y4755D02*
D03*
Y4835D02*
D03*
X6567Y5335D02*
D03*
Y5415D02*
D03*
X6571Y4493D02*
D03*
Y4413D02*
D03*
X4342Y3395D02*
D03*
Y3475D02*
D03*
X4299Y6504D02*
D03*
Y6584D02*
D03*
X4850Y5201D02*
D03*
Y5281D02*
D03*
X4847Y5368D02*
D03*
Y5448D02*
D03*
X4860Y4691D02*
D03*
Y4611D02*
D03*
X4975Y4692D02*
D03*
Y4612D02*
D03*
X5077Y4540D02*
D03*
Y4460D02*
D03*
X4944Y5201D02*
D03*
Y5281D02*
D03*
D16*
X4934Y4356D02*
D03*
X4854D02*
D03*
X5010Y3376D02*
D03*
X4930D02*
D03*
X4437Y3261D02*
D03*
X4517D02*
D03*
X5217Y6556D02*
D03*
X5297D02*
D03*
X4926Y6576D02*
D03*
X5006D02*
D03*
X5102Y3418D02*
D03*
X5182D02*
D03*
X4085Y3929D02*
D03*
X4005D02*
D03*
X4470Y6735D02*
D03*
X4550D02*
D03*
X4854Y3905D02*
D03*
X4934D02*
D03*
X4937Y3996D02*
D03*
X4857D02*
D03*
X4853Y4087D02*
D03*
X4933D02*
D03*
X4851Y4268D02*
D03*
X4931D02*
D03*
X4932Y4180D02*
D03*
X4852D02*
D03*
D29*
X5010Y5841D02*
Y5962D01*
X4984Y6113D02*
X4995Y6124D01*
X4984Y6069D02*
Y6113D01*
X5010Y5962D02*
X5013Y5959D01*
X5020D01*
X4980Y6065D02*
X4984Y6069D01*
X4980Y5850D02*
Y6065D01*
X4915Y5785D02*
X4980Y5850D01*
X4856Y5785D02*
X4915D01*
X4564Y5493D02*
X4856Y5785D01*
X4564Y5485D02*
Y5493D01*
X4912Y5742D02*
X5010Y5841D01*
X4836Y5742D02*
X4912D01*
X4669Y5575D02*
X4836Y5742D01*
X4669Y5513D02*
Y5575D01*
X4639Y5483D02*
X4669Y5513D01*
X4692Y5208D02*
Y5245D01*
Y5208D02*
X4709Y5191D01*
X4758D01*
X4778Y5171D01*
Y5160D02*
Y5171D01*
Y5160D02*
X4879Y5059D01*
X4709Y5291D02*
X4721Y5279D01*
Y5248D02*
Y5279D01*
X4720Y5222D02*
Y5247D01*
Y5222D02*
X4734Y5208D01*
X4720Y5247D02*
X4721Y5248D01*
X4734Y5208D02*
X4781D01*
X4820Y5169D01*
X4849D01*
X4905Y5113D01*
X5061Y4976D02*
X5078D01*
X4424Y3896D02*
X4479D01*
X4322Y3794D02*
X4424Y3896D01*
X4274Y3794D02*
X4322D01*
X4242Y3762D02*
X4274Y3794D01*
X5793Y5039D02*
X5854Y4978D01*
X4980Y5097D02*
X4981Y5098D01*
X5546Y4919D02*
X5584D01*
X5854Y4978D02*
X6159D01*
X6259Y4878D01*
X6336D01*
X6407Y4857D02*
X6435Y4830D01*
X6529D01*
X6336Y4878D02*
X6357Y4857D01*
X6407D01*
X6529Y4830D02*
X6550Y4809D01*
X6567Y4826D01*
Y4899D01*
X6455Y5011D02*
X6567Y4899D01*
X6255Y5011D02*
X6455D01*
X6207Y5059D02*
X6255Y5011D01*
X6207Y5059D02*
Y5202D01*
X6280Y5275D01*
X6404D01*
X4143Y5994D02*
X4422Y5715D01*
X4143Y5994D02*
Y6171D01*
X4232Y6260D01*
Y6283D01*
X4014Y6337D02*
X4116D01*
X4204Y6311D02*
X4232Y6283D01*
X4142Y6311D02*
X4204D01*
X4116Y6337D02*
X4142Y6311D01*
X4981Y5098D02*
X4998D01*
X5014Y5082D01*
Y5023D02*
Y5082D01*
Y5023D02*
X5061Y4976D01*
X4778Y4700D02*
Y4765D01*
X4804Y4791D01*
X4876D01*
X5190Y4987D02*
X5240Y4937D01*
X5299D01*
X5301Y4939D01*
X5526D01*
X5546Y4919D01*
X5793Y5039D02*
Y5100D01*
X5752Y5141D02*
X5793Y5100D01*
D30*
X5060Y5866D02*
Y5895D01*
X4909Y5715D02*
X5060Y5866D01*
X4896Y5715D02*
X4909D01*
X4571Y6480D02*
X4633Y6418D01*
Y6083D02*
Y6418D01*
Y6083D02*
X4904Y5812D01*
X4993Y5295D02*
X5029Y5259D01*
Y5259D02*
Y5259D01*
Y5259D02*
X5037Y5251D01*
X5058D01*
X5011Y5302D02*
X5043Y5271D01*
X5064D01*
X5029Y5310D02*
X5043Y5296D01*
X5064D01*
X5058Y5251D02*
X5065Y5244D01*
X4963Y5126D02*
X4993D01*
X4907Y5070D02*
X4963Y5126D01*
X4907Y5047D02*
Y5070D01*
X4757Y5094D02*
X4820Y5031D01*
X4891D02*
X4907Y5047D01*
X4820Y5031D02*
X4891D01*
X4757Y5094D02*
Y5167D01*
X4995Y5123D02*
X4995D01*
X4993Y5126D02*
X4995Y5123D01*
X4995D02*
X5039Y5167D01*
X5065D01*
X4757Y5090D02*
Y5167D01*
X4594Y3700D02*
X4680Y3614D01*
Y3602D02*
Y3614D01*
X4647Y3684D02*
Y3701D01*
X4721Y3597D02*
X4753Y3565D01*
Y3544D02*
Y3565D01*
X4721Y3597D02*
Y3610D01*
X4647Y3684D02*
X4721Y3610D01*
X4580Y3768D02*
X4647Y3701D01*
X4663Y5030D02*
X4665Y5032D01*
X4639Y5030D02*
X4663D01*
X4509Y5160D02*
X4639Y5030D01*
X4500Y5160D02*
X4509D01*
X4711Y5007D02*
Y5024D01*
X4620Y5115D02*
X4711Y5024D01*
X4734Y5040D02*
X4747D01*
X4673Y5101D02*
X4734Y5040D01*
X4673Y5101D02*
Y5102D01*
X4607Y5168D02*
X4673Y5102D01*
X4569Y5168D02*
X4607D01*
X4567Y5247D02*
X4701Y5113D01*
X4303Y5247D02*
X4567D01*
X4220Y5270D02*
X4471Y5019D01*
X4360Y4952D02*
Y5082D01*
X4334Y5108D02*
X4360Y5082D01*
X4445Y5110D02*
X4520D01*
X4341Y4031D02*
X4391D01*
X4665Y3757D01*
X4300Y4078D02*
X4370D01*
X4683Y3765D01*
X4665Y3692D02*
X4748Y3609D01*
X4749D01*
X4665Y3692D02*
Y3757D01*
X4683Y3699D02*
Y3765D01*
Y3699D02*
X4701Y3681D01*
X4742D01*
X4753Y3670D01*
X4288Y4127D02*
X4346D01*
X4713Y3760D01*
Y3709D02*
Y3760D01*
X5272Y4383D02*
X5300Y4411D01*
X5048Y4383D02*
X5272D01*
X5017Y4414D02*
X5048Y4383D01*
X5319Y4362D02*
X5336Y4379D01*
X5044Y4362D02*
X5319D01*
X5010Y4396D02*
X5044Y4362D01*
X5246Y4421D02*
X5249Y4418D01*
X5229Y4421D02*
X5246D01*
X5225Y4425D02*
X5229Y4421D01*
X5031Y4425D02*
X5225D01*
X4858Y4432D02*
X5024D01*
X4806Y4380D02*
X4858Y4432D01*
X5024D02*
X5031Y4425D01*
X4806Y4047D02*
Y4380D01*
Y4047D02*
X4857Y3996D01*
X5083Y4159D02*
X5142D01*
X5015Y4091D02*
X5083Y4159D01*
X4937Y4091D02*
X5015D01*
X4937Y3996D02*
Y4091D01*
X4911Y4396D02*
X5010D01*
X4903Y4414D02*
X5017D01*
X4854Y4356D02*
Y4365D01*
X4898Y4383D02*
X4911Y4396D01*
X4898Y4251D02*
Y4383D01*
X4854Y4365D02*
X4903Y4414D01*
X4852Y4205D02*
X4898Y4251D01*
X4852Y4180D02*
Y4205D01*
X4220Y5488D02*
X4333Y5601D01*
X4431Y5661D02*
X4438D01*
X4475Y5698D01*
Y5739D01*
X4456Y5758D02*
X4475Y5739D01*
X4415Y5758D02*
X4456D01*
X4210Y5963D02*
X4415Y5758D01*
X4210Y5963D02*
Y5995D01*
X4269Y6054D01*
Y6099D01*
X4230Y6138D02*
X4269Y6099D01*
X5108Y4207D02*
X5165D01*
X5081Y4180D02*
X5108Y4207D01*
X4932Y4180D02*
X5081D01*
X5041Y4249D02*
X5121D01*
X4934Y4356D02*
X5041Y4249D01*
X4934Y3905D02*
X5031Y4002D01*
Y4046D01*
X5063Y4078D01*
X4890Y5536D02*
X4892Y5538D01*
X5672Y5002D02*
Y5276D01*
Y5002D02*
X5701Y4973D01*
X5770D01*
X5944Y4799D01*
X6239D01*
X6352Y4686D01*
X6407D01*
X4332Y4542D02*
X4406Y4616D01*
X4113Y4542D02*
X4332D01*
X4109Y4538D02*
X4113Y4542D01*
X4159Y4466D02*
X4405D01*
X4454Y4515D01*
X4844Y3188D02*
X4958Y3302D01*
X5094D01*
X5141Y3349D01*
Y3456D01*
X5115Y3482D02*
X5141Y3456D01*
X5115Y3482D02*
Y3591D01*
X4685Y5167D02*
X4757D01*
X4753Y5086D02*
X4757Y5090D01*
X4014Y3627D02*
X4170D01*
X4186Y3643D01*
X4182Y6130D02*
Y6158D01*
Y6130D02*
X4202Y6110D01*
X5092Y6054D02*
X5108Y6070D01*
Y6375D01*
X5094Y5097D02*
X5136Y5140D01*
X5072Y5097D02*
X5094D01*
X5065Y5295D02*
X5072Y5289D01*
X5118Y5147D02*
Y5238D01*
X5087Y5116D02*
X5118Y5147D01*
X5065Y5116D02*
X5087D01*
X5087Y5142D02*
X5100Y5155D01*
Y5231D01*
X5087Y5244D02*
X5100Y5231D01*
X5065Y5244D02*
X5087D01*
X4224Y3395D02*
X4281D01*
X4342D01*
X4281D02*
Y3705D01*
X4270Y3716D02*
X4281Y3705D01*
X4270Y3716D02*
Y3734D01*
X4147Y3709D02*
X4244D01*
X4136D02*
X4147D01*
X5384Y5246D02*
X5436D01*
X4790Y5283D02*
Y5339D01*
X4664Y5188D02*
Y5347D01*
Y5188D02*
X4685Y5167D01*
X4979Y4612D02*
X5019Y4652D01*
Y4754D01*
X5026Y4761D01*
X5065D01*
X5063Y4078D02*
X5128D01*
X4118Y3727D02*
X4136Y3709D01*
X4244D02*
X4269Y3734D01*
X4222Y3397D02*
X4224Y3395D01*
X4342D02*
X4437Y3300D01*
Y3261D02*
Y3300D01*
X5015Y3394D02*
Y3591D01*
X5018Y3418D02*
X5102D01*
X4005Y3835D02*
Y3929D01*
X5182Y3485D02*
X5215Y3518D01*
X5182Y3418D02*
Y3485D01*
X5065Y4864D02*
X5104D01*
X5086Y4838D02*
X5100Y4824D01*
X5086Y4736D02*
X5100Y4750D01*
Y4824D01*
X4093Y6437D02*
X4160Y6504D01*
X4342Y3395D02*
X4472Y3525D01*
X5503Y4021D02*
Y4036D01*
X4471Y6410D02*
Y6520D01*
X6352Y5079D02*
Y5081D01*
X6342Y5161D02*
Y5177D01*
X4472Y3525D02*
X4502Y3560D01*
X5010Y3376D02*
X5015Y3394D01*
X6342Y5177D02*
X6425D01*
X6260Y5161D02*
X6342D01*
X4437Y3240D02*
Y3261D01*
X4550Y6700D02*
Y6735D01*
Y6700D02*
X4628Y6622D01*
X4712D01*
X6352Y5079D02*
X6445D01*
X6260Y5081D02*
X6352D01*
X4063Y3477D02*
X4226D01*
X4014Y3527D02*
X4063Y3477D01*
X4061Y6584D02*
X4196D01*
X4014Y6537D02*
X4061Y6584D01*
X5208Y6466D02*
X5217Y6475D01*
X5208Y6375D02*
Y6466D01*
X4160Y6504D02*
X4196D01*
X5297Y6477D02*
Y6556D01*
Y6477D02*
X5308Y6466D01*
Y6375D02*
Y6466D01*
X6443Y4413D02*
X6571D01*
X6365Y4490D02*
X6443Y4413D01*
X4014Y6237D02*
X4140D01*
X4176Y6273D01*
X4222Y3397D02*
X4226D01*
X4299Y6584D02*
X4407D01*
X4471Y6520D01*
Y6410D02*
X4500D01*
X6467Y5416D02*
X6566D01*
X6424Y5373D02*
X6467Y5416D01*
X6383Y5373D02*
X6424D01*
X4517Y3261D02*
Y3292D01*
X4643Y3418D01*
X6449Y4882D02*
X6487D01*
X4930Y3376D02*
Y3468D01*
X4915Y3483D02*
X4930Y3468D01*
X4915Y3483D02*
Y3591D01*
X4342Y3541D02*
X4431Y3630D01*
X4342Y3475D02*
Y3541D01*
X5006Y6476D02*
Y6576D01*
Y6476D02*
X5008Y6474D01*
Y6375D02*
Y6474D01*
X4014Y3727D02*
X4118D01*
X4269Y3734D02*
X4270D01*
X4925Y5281D02*
X4926Y5282D01*
X4872Y5281D02*
X4925D01*
X6211Y4835D02*
X6377D01*
X6428Y4784D01*
X4430Y6339D02*
X4446D01*
X5360Y4907D02*
X5369Y4898D01*
X4932Y4180D02*
Y4267D01*
X4854Y4271D02*
Y4356D01*
X4852Y4088D02*
Y4180D01*
X4857Y3908D02*
Y3996D01*
X5121Y4249D02*
X5132Y4260D01*
X4454Y4515D02*
Y4848D01*
X4427Y4587D02*
Y4860D01*
X4406Y4616D02*
Y4860D01*
X4427D02*
X4498Y4931D01*
X4512D01*
X4520Y4914D02*
X4564D01*
X4454Y4848D02*
X4520Y4914D01*
X4564D02*
X4642Y4836D01*
X4512Y4931D02*
X4513Y4932D01*
X4571D01*
X4648Y4855D01*
X4988Y4974D02*
Y4997D01*
X4404Y4862D02*
X4491Y4949D01*
X4504D01*
X4505Y4950D01*
X4579D01*
X4984Y5033D02*
Y5050D01*
X4960Y5009D02*
X4984Y5033D01*
X4499Y5009D02*
X4570D01*
X4666Y4913D01*
X4539Y5038D02*
X4567D01*
X4674Y4931D01*
X4579Y4950D02*
X4652Y4877D01*
X4586Y4968D02*
X4659Y4895D01*
X4963Y4949D02*
X4988Y4974D01*
X4945Y4956D02*
X4960Y4971D01*
X4512Y4968D02*
X4586D01*
X4471Y4997D02*
X4487Y4981D01*
X4499D01*
X4512Y4968D01*
X4220Y5270D02*
Y5488D01*
X4471Y4997D02*
Y5019D01*
X4520Y5110D02*
X4681Y4949D01*
X4960Y4971D02*
Y5009D01*
X4681Y4949D02*
X4716D01*
X4728Y4961D01*
X4818Y4755D02*
X4894D01*
X4934Y4795D01*
Y4796D01*
X4970Y4832D01*
X4217Y4506D02*
X4346D01*
X4427Y4587D01*
X4142Y5610D02*
X4157D01*
X4244Y5697D01*
X5064Y5296D02*
X5065Y5295D01*
X5368Y5262D02*
X5384Y5246D01*
X5136Y5140D02*
Y5246D01*
X5064Y5271D02*
X5065Y5270D01*
X5086Y5263D02*
X5093D01*
X5118Y5238D01*
X5072Y5289D02*
X5093D01*
X5136Y5246D01*
X5320Y5544D02*
X5516D01*
X5725Y5335D01*
X5282Y5518D02*
X5484D01*
X5675Y5327D01*
X4674Y4931D02*
X4808D01*
X4870Y4993D01*
X4887D01*
X4666Y4913D02*
X4832D01*
X4857Y4938D01*
X4890D01*
X4659Y4895D02*
X4861D01*
X4926Y4960D02*
Y5062D01*
X4861Y4895D02*
X4877Y4911D01*
X4878Y4910D02*
X4902D01*
X4918Y4926D01*
Y4950D01*
X4917Y4951D02*
X4918Y4950D01*
X4917Y4951D02*
Y4951D01*
X4926Y4960D01*
X4877Y4911D02*
X4877D01*
X4878Y4910D01*
X4652Y4877D02*
X4883D01*
X4898Y4892D01*
X4909D01*
X4936Y4919D01*
Y4930D01*
X4945Y4939D01*
Y4956D01*
X4648Y4855D02*
X4898D01*
X4963Y4920D01*
Y4949D01*
X4642Y4836D02*
X4890D01*
X4891Y4837D01*
X4905D01*
X4981Y4913D01*
Y4927D01*
X4991Y4937D01*
X5065Y4685D02*
X5107D01*
X5158Y4736D01*
X5065Y4889D02*
X5129D01*
X5158Y4736D02*
Y4860D01*
X5087Y4710D02*
X5129Y4752D01*
Y4839D01*
X5104Y4864D02*
X5129Y4839D01*
X5034Y4838D02*
X5065D01*
X5009Y4863D02*
X5034Y4838D01*
X5009Y4863D02*
Y4889D01*
X5129Y4889D02*
X5158Y4860D01*
X5355Y5643D02*
Y5746D01*
X5337Y5625D02*
X5355Y5643D01*
X5199Y5625D02*
X5337D01*
X5188Y5614D02*
X5199Y5625D01*
X5190Y5702D02*
X5311D01*
X5139Y5651D02*
X5190Y5702D01*
X5187Y5659D02*
X5308D01*
X5151Y5623D02*
X5187Y5659D01*
X5120Y5623D02*
X5151D01*
X5097Y5646D02*
X5120Y5623D01*
X5097Y5646D02*
Y5686D01*
X5133Y5796D02*
Y5807D01*
X5055Y5718D02*
X5133Y5796D01*
X5526Y4958D02*
X5541Y4973D01*
X5382Y4958D02*
X5526D01*
X5372Y4968D02*
X5382Y4958D01*
X5493Y4997D02*
X5495Y4999D01*
X5344Y4997D02*
X5493D01*
X5326Y4979D02*
X5344Y4997D01*
X5457Y5491D02*
X5672Y5276D01*
X5299Y5490D02*
X5300Y5491D01*
X5457D01*
X4993Y5295D02*
Y5430D01*
X5303Y5402D02*
X5306Y5404D01*
X5303Y5402D02*
X5341D01*
X5267Y5384D02*
X5310D01*
X5324Y5370D01*
X5394D01*
X5164Y5413D02*
X5188D01*
X5011Y5302D02*
Y5410D01*
X5260Y5365D02*
X5303D01*
X5317Y5352D01*
X5372D01*
X5382Y5342D01*
X5406D01*
X5422Y5358D01*
Y5365D01*
X5462D01*
X5229Y5396D02*
X5260Y5365D01*
X5237Y5414D02*
X5267Y5384D01*
X5244Y5432D02*
X5272Y5404D01*
X5306D01*
X4892Y5538D02*
X5144D01*
X5188Y5413D02*
X5189Y5414D01*
X5144Y5538D02*
X5192Y5490D01*
X5299D01*
X5171Y5432D02*
X5244D01*
X5189Y5414D02*
X5237D01*
X5196Y5396D02*
X5229D01*
X5195Y5395D02*
X5196Y5396D01*
X5157Y5395D02*
X5195D01*
X5029Y5310D02*
Y5397D01*
X4993Y5430D02*
X5019Y5456D01*
X5147D01*
X5171Y5432D01*
X5011Y5410D02*
X5039Y5438D01*
X5139D01*
X5164Y5413D01*
X5029Y5397D02*
X5052Y5420D01*
X5132D01*
X5157Y5395D01*
X5785Y5478D02*
Y5809D01*
Y5478D02*
X5835Y5428D01*
X5836Y5479D02*
Y5812D01*
Y5479D02*
X5884Y5431D01*
D31*
X4430Y6319D02*
Y6339D01*
X4841Y5236D02*
X4874Y5203D01*
X4747Y5236D02*
X4841D01*
X4874Y5203D02*
X5064D01*
X4639Y3555D02*
Y3608D01*
X4527Y3720D02*
X4639Y3608D01*
X4527Y3720D02*
Y3791D01*
X4573Y3489D02*
X4639Y3555D01*
X5191Y4141D02*
X5248D01*
X5128Y4078D02*
X5191Y4141D01*
X4237Y6213D02*
X4241D01*
X4210Y6186D02*
X4237Y6213D01*
X4210Y6185D02*
Y6186D01*
X4210Y6185D02*
X4210D01*
X4182Y6158D02*
X4210Y6185D01*
X4282Y3343D02*
Y3394D01*
X4147Y3709D02*
Y3867D01*
X4085Y3929D02*
X4147Y3867D01*
X5179Y4221D02*
X5249D01*
X5165Y4207D02*
X5179Y4221D01*
X4773Y5281D02*
X4872D01*
X4276Y6260D02*
Y6302D01*
Y6248D02*
Y6260D01*
X4308D01*
X4926Y6576D02*
Y6609D01*
X4642Y6551D02*
X4715Y6478D01*
X4626Y6551D02*
X4642D01*
X4196Y6504D02*
X4205Y6495D01*
Y6353D02*
X4225D01*
X4276Y6302D01*
X4241Y6213D02*
X4276Y6248D01*
X6560Y5158D02*
X6598Y5120D01*
X6541Y5177D02*
X6560Y5158D01*
X6425Y5177D02*
X6541D01*
X6571Y4493D02*
X6598Y4520D01*
Y5120D01*
X6304Y4588D02*
X6386D01*
X6285Y4607D02*
X6304Y4588D01*
X6386D02*
X6486D01*
X6571Y4503D01*
Y4493D02*
Y4503D01*
X4664Y5347D02*
X4707D01*
X4303D02*
X4664D01*
X4907Y4460D02*
X5077D01*
X4852Y4515D02*
X4907Y4460D01*
X4860Y4611D02*
X4861Y4612D01*
X4852Y4603D02*
X4860Y4611D01*
X4861Y4612D02*
X4975D01*
X4852Y4515D02*
Y4603D01*
X4707Y5347D02*
X4810Y5450D01*
X4873D01*
X4907Y5484D01*
X4985D01*
X4707Y5347D02*
X4773Y5281D01*
X4860Y4691D02*
X4974D01*
X4975Y4692D01*
Y4768D01*
X5009Y4802D01*
X5064D01*
X4014Y6003D02*
Y6137D01*
X6267Y5471D02*
X6362D01*
X6149Y5353D02*
X6267Y5471D01*
X6149Y5060D02*
Y5353D01*
Y5060D02*
X6241Y4968D01*
X6295D01*
X6381Y4882D01*
X6449D01*
X5132Y4260D02*
X5249D01*
X5248Y4141D02*
X5249Y4142D01*
X4552Y4652D02*
X4821D01*
X4860Y4691D01*
D32*
X5317Y4539D02*
Y4543D01*
X5389Y4471D01*
X5420D01*
X5433Y4459D01*
X5460D01*
D33*
X5448Y4515D02*
X5492D01*
X5377Y4586D02*
X5448Y4515D01*
X5213Y4590D02*
X5342D01*
X5345Y4586D01*
X5377D01*
X5192Y4923D02*
X5207Y4908D01*
Y4667D02*
Y4908D01*
X5065Y4634D02*
X5158D01*
X5163Y4640D02*
X5213Y4590D01*
X5158Y4634D02*
X5163Y4640D01*
X5180D01*
X5207Y4667D01*
D34*
X5585Y4526D02*
Y4635D01*
X5477Y4418D02*
X5585Y4526D01*
X5370Y4418D02*
X5477D01*
X6181Y4111D02*
Y4131D01*
X5328Y4460D02*
X5370Y4418D01*
X5643Y4944D02*
X5661Y4926D01*
X6172Y6056D02*
X6386Y5842D01*
X5290Y6056D02*
X6172D01*
X5208Y6138D02*
X5290Y6056D01*
X5368Y5304D02*
Y5311D01*
X5326Y4701D02*
X5414D01*
X5326D02*
X5339Y4688D01*
X5321Y4701D02*
X5326D01*
X5369Y4846D02*
Y4857D01*
X5364Y4842D02*
X5369Y4846D01*
X6386Y5835D02*
Y5842D01*
X5208Y6138D02*
Y6375D01*
X5151Y6556D02*
X5217D01*
X5065Y6642D02*
X5151Y6556D01*
X4959Y6642D02*
X5065D01*
X4926Y6609D02*
X4959Y6642D01*
X4715Y6478D02*
X4828D01*
X4926Y6576D01*
X4246Y6504D02*
X4299D01*
X4196D02*
X4246D01*
X4313Y6707D02*
X4470D01*
X4246Y6504D02*
Y6640D01*
X4313Y6707D01*
X4470D02*
X4626Y6551D01*
X4205Y6353D02*
Y6495D01*
X6560Y5158D02*
X6569Y5167D01*
Y5171D01*
X6567Y5173D02*
X6569Y5171D01*
X6567Y5173D02*
Y5335D01*
X5077Y4460D02*
X5328D01*
X4014Y6003D02*
X4437Y5581D01*
X5217Y6475D02*
Y6556D01*
X5368Y5193D02*
Y5208D01*
X5585Y5093D02*
Y5123D01*
X5370Y5049D02*
Y5057D01*
X5369Y4642D02*
Y4652D01*
X5584Y5175D02*
Y5200D01*
X5368Y4746D02*
Y4761D01*
Y4787D01*
Y4801D01*
Y5193D02*
X5374Y5199D01*
X5399D01*
X5392Y5179D02*
X5399Y5186D01*
X5392Y5153D02*
Y5179D01*
X5399Y5186D02*
Y5199D01*
X5368Y5152D02*
Y5167D01*
X5249Y4063D02*
X5461D01*
X5556Y4261D02*
X5737D01*
X5787Y4211D01*
X5503Y4036D02*
X5533Y4006D01*
X5782D01*
X5787Y4011D01*
X5461Y4063D02*
X5503Y4021D01*
X5249Y4103D02*
X5398D01*
X5556Y4261D01*
X4744Y5544D02*
X4775Y5575D01*
X5295D01*
X5304Y5584D01*
X5368D01*
X5374Y5590D02*
X5394D01*
X5404Y5600D01*
X5368Y5584D02*
X5374Y5590D01*
X5331Y5099D02*
X5414D01*
X5459Y5054D01*
X5643Y4944D02*
Y5249D01*
X5432Y5460D02*
X5643Y5249D01*
X4985Y5484D02*
X5158D01*
X5182Y5460D01*
X5432D01*
D35*
X5046Y6033D02*
Y6149D01*
X4908Y6287D02*
X5046Y6149D01*
X4908Y6287D02*
Y6375D01*
X4875Y5618D02*
X5214Y5957D01*
X4757Y5618D02*
X4875D01*
X5046Y6033D02*
X5162Y5917D01*
X4303Y5447D02*
X4344Y5406D01*
X4703Y5449D02*
Y5524D01*
X4660Y5406D02*
X4703Y5449D01*
X4344Y5406D02*
X4660D01*
X4701Y5562D02*
X4757Y5618D01*
X4701Y5526D02*
Y5562D01*
Y5526D02*
X4703Y5524D01*
X4516Y5674D02*
Y6233D01*
X4430Y6319D02*
X4516Y6233D01*
X4437Y5595D02*
X4516Y5674D01*
X4045Y4475D02*
X4842Y3678D01*
Y3478D02*
Y3678D01*
X4714Y3350D02*
X4842Y3478D01*
X5661Y4651D02*
X6181Y4131D01*
X5585Y4635D02*
X5645D01*
X5458D02*
X5585D01*
X5414Y4701D02*
X5444Y4671D01*
X5458Y4635D02*
Y4657D01*
X5264Y4690D02*
X5309Y4645D01*
X5365D01*
X5368Y4642D01*
X5369D01*
X5238Y3799D02*
X5315Y3722D01*
X4757Y3799D02*
X5238D01*
X4045Y5418D02*
X4310Y5683D01*
X4045Y4475D02*
Y5418D01*
X6125Y5957D02*
X6335Y5747D01*
X6424D01*
X5358Y5030D02*
X5368Y5040D01*
X5321Y5030D02*
X5358D01*
X5255Y5096D02*
Y5256D01*
Y5096D02*
X5321Y5030D01*
X5311Y5119D02*
X5331Y5099D01*
X5326Y4847D02*
X5364D01*
X5312Y4833D02*
X5326Y4847D01*
X5312Y4710D02*
X5321Y4701D01*
X5312Y4710D02*
Y4833D01*
X5264Y4690D02*
Y4857D01*
X5314Y4907D02*
X5360D01*
X5264Y4857D02*
X5314Y4907D01*
X5065Y4528D02*
Y4634D01*
Y5052D02*
X5070Y5057D01*
X5661Y4651D02*
Y4926D01*
X6181Y4541D02*
X6247Y4607D01*
X6211Y4575D02*
Y4755D01*
X6247Y4607D02*
X6285D01*
X6181Y4111D02*
Y4541D01*
X5052Y4515D02*
X5065Y4528D01*
X4974Y4515D02*
X5052D01*
X4303Y5447D02*
X4437Y5581D01*
X4666Y3300D02*
X4714Y3348D01*
X4666Y3258D02*
Y3300D01*
X4568Y3160D02*
X4666Y3258D01*
X4280Y3160D02*
X4568D01*
X4014Y3427D02*
X4280Y3160D01*
X5315Y3591D02*
Y3722D01*
X4714Y3348D02*
Y3350D01*
X6424Y5532D02*
Y5747D01*
X6362Y5471D02*
X6424Y5532D01*
X5214Y5957D02*
X6125D01*
X5533Y5054D02*
X5661Y4926D01*
X5459Y5054D02*
X5533D01*
X5311Y5119D02*
Y5238D01*
X5330Y5257D01*
X5347D01*
X5349Y5255D01*
X5255Y5256D02*
X5304Y5305D01*
X5362D01*
X5082Y5329D02*
Y5380D01*
X5080Y5382D02*
X5082Y5380D01*
X4847Y5368D02*
X4929D01*
X5082Y5329D02*
X5134D01*
X5190Y5273D01*
Y5115D02*
Y5273D01*
X5132Y5057D02*
X5190Y5115D01*
X5070Y5057D02*
X5132D01*
X5131Y4923D02*
Y5056D01*
X5132Y5057D01*
X5078Y4923D02*
X5131D01*
X5192D01*
D36*
X5439Y3589D02*
Y3703D01*
X5294Y3848D02*
X5439Y3703D01*
X5190Y4181D02*
X5249D01*
X5180Y4172D02*
X5190Y4181D01*
X5177Y4172D02*
X5180D01*
X5165Y4159D02*
X5177Y4172D01*
X4315Y6056D02*
Y6109D01*
X4258Y6165D02*
X4315Y6109D01*
X4258Y3834D02*
X4309D01*
X4215Y3790D02*
X4258Y3834D01*
X4552Y4046D02*
X4750Y3848D01*
X5294D01*
X5142Y4159D02*
X5165D01*
X4552Y4046D02*
Y4886D01*
D37*
X4303Y5247D02*
D03*
Y5347D02*
D03*
D38*
Y5447D02*
D03*
D39*
X5623Y4139D02*
D03*
Y4375D02*
D03*
Y5595D02*
D03*
Y5832D02*
D03*
X4048Y4237D02*
D03*
Y5733D02*
D03*
D40*
X4995Y6124D02*
D03*
X5020Y5959D02*
D03*
X4564Y5485D02*
D03*
X4639Y5483D02*
D03*
X4692Y5245D02*
D03*
X4709Y5291D02*
D03*
X4747Y5236D02*
D03*
X4905Y5113D02*
D03*
X4877Y5061D02*
D03*
X4594Y3700D02*
D03*
X4680Y3602D02*
D03*
X4527Y3791D02*
D03*
X4876Y4791D02*
D03*
X4568Y3776D02*
D03*
X4711Y5007D02*
D03*
X4663Y5030D02*
D03*
X4500Y5160D02*
D03*
X4610Y5121D02*
D03*
X4445Y5110D02*
D03*
X4360Y4951D02*
D03*
X4288Y4127D02*
D03*
X4300Y4078D02*
D03*
X4341Y4031D02*
D03*
X4753Y3544D02*
D03*
X4749Y3609D02*
D03*
X4753Y3670D02*
D03*
X4713Y3709D02*
D03*
X5317Y4539D02*
D03*
X5078Y4976D02*
D03*
X5190Y4987D02*
D03*
X5249Y4418D02*
D03*
X5336Y4379D02*
D03*
X5300Y4411D02*
D03*
X5142Y4159D02*
D03*
X4935Y5056D02*
D03*
X4333Y5601D02*
D03*
X4431Y5661D02*
D03*
X4479Y3896D02*
D03*
X4778Y4700D02*
D03*
X4890Y5536D02*
D03*
X5584Y4919D02*
D03*
X4109Y4538D02*
D03*
X4844Y3188D02*
D03*
X4753Y5086D02*
D03*
X4159Y4466D02*
D03*
X4701Y5113D02*
D03*
X4186Y3643D02*
D03*
X4904Y5812D02*
D03*
X5060Y5895D02*
D03*
X5092Y6054D02*
D03*
X5404Y5600D02*
D03*
X5675Y5327D02*
D03*
X5725Y5335D02*
D03*
X4282Y3343D02*
D03*
X6026Y3902D02*
D03*
X5439Y3589D02*
D03*
X5165Y4207D02*
D03*
X5121Y4249D02*
D03*
X5436Y5246D02*
D03*
X4790Y5339D02*
D03*
X6214Y4698D02*
D03*
X6393Y5828D02*
D03*
X4308Y6260D02*
D03*
X4315Y6056D02*
D03*
X4550Y4052D02*
D03*
X4309Y3834D02*
D03*
X4552Y4886D02*
D03*
X6424Y5747D02*
D03*
X5128Y4078D02*
D03*
X4569Y5168D02*
D03*
X4747Y5040D02*
D03*
X4499Y5009D02*
D03*
X4890Y4938D02*
D03*
X4539Y5038D02*
D03*
X4991Y4937D02*
D03*
X4887Y4993D02*
D03*
X4334Y5108D02*
D03*
X4984Y5050D02*
D03*
X4988Y4997D02*
D03*
X4981Y5098D02*
D03*
X4728Y4961D02*
D03*
X4818Y4755D02*
D03*
X4970Y4832D02*
D03*
X4217Y4506D02*
D03*
X4142Y5610D02*
D03*
X4744Y5544D02*
D03*
X4245Y5688D02*
D03*
X4422Y5715D02*
D03*
X5394Y5370D02*
D03*
X5320Y5546D02*
D03*
X5341Y5402D02*
D03*
X5462Y5365D02*
D03*
X5154Y4870D02*
D03*
X5129Y4839D02*
D03*
X5009Y4889D02*
D03*
X5355Y5746D02*
D03*
X5188Y5614D02*
D03*
X5311Y5702D02*
D03*
X5139Y5651D02*
D03*
X5308Y5659D02*
D03*
X5097Y5686D02*
D03*
X5133Y5807D02*
D03*
X5055Y5718D02*
D03*
X5541Y4973D02*
D03*
X5495Y4999D02*
D03*
X5372Y4968D02*
D03*
X5326Y4979D02*
D03*
X4896Y5715D02*
D03*
X5287Y5518D02*
D03*
X5082Y5380D02*
D03*
X4952Y5368D02*
D03*
X5460Y4459D02*
D03*
X5753Y5140D02*
D03*
X5785Y5809D02*
D03*
X5836Y5812D02*
D03*
X5884Y5431D02*
D03*
X5835Y5428D02*
D03*
D41*
X5492Y4515D02*
D03*
X5441Y4685D02*
D03*
X5503Y4036D02*
D03*
D42*
X5065Y4787D02*
D03*
Y4634D02*
D03*
X5368Y4838D02*
D03*
X5065Y4761D02*
D03*
Y4813D02*
D03*
Y4736D02*
D03*
X5368Y4889D02*
D03*
Y4864D02*
D03*
Y4813D02*
D03*
Y4787D02*
D03*
Y4761D02*
D03*
Y4736D02*
D03*
Y4710D02*
D03*
Y4685D02*
D03*
Y4659D02*
D03*
Y4634D02*
D03*
X5065Y4659D02*
D03*
Y4685D02*
D03*
Y4710D02*
D03*
X5368Y4915D02*
D03*
X5065Y4889D02*
D03*
Y4864D02*
D03*
Y4915D02*
D03*
Y4838D02*
D03*
Y5193D02*
D03*
Y5040D02*
D03*
X5368Y5244D02*
D03*
X5065Y5167D02*
D03*
Y5219D02*
D03*
Y5142D02*
D03*
X5368Y5295D02*
D03*
Y5270D02*
D03*
Y5219D02*
D03*
Y5193D02*
D03*
Y5167D02*
D03*
Y5142D02*
D03*
Y5116D02*
D03*
Y5091D02*
D03*
Y5065D02*
D03*
Y5040D02*
D03*
X5065Y5065D02*
D03*
Y5091D02*
D03*
Y5116D02*
D03*
X5368Y5321D02*
D03*
X5065Y5295D02*
D03*
Y5270D02*
D03*
Y5321D02*
D03*
Y5244D02*
D03*
D43*
X5735Y4913D02*
D03*
Y4693D02*
D03*
X5736Y5258D02*
D03*
Y5038D02*
D03*
D44*
X5583Y4744D02*
D03*
Y4783D02*
D03*
Y4823D02*
D03*
Y4862D02*
D03*
X5584Y5089D02*
D03*
Y5128D02*
D03*
Y5168D02*
D03*
Y5207D02*
D03*
D45*
X4402Y6094D02*
D03*
X4274Y5966D02*
D03*
D46*
X4202Y6110D02*
D03*
X4230Y6138D02*
D03*
X4258Y6165D02*
D03*
D47*
X4286Y3934D02*
D03*
X4414Y3806D02*
D03*
D48*
X4270Y3734D02*
D03*
X4242Y3762D02*
D03*
X4215Y3790D02*
D03*
D49*
X6365Y4490D02*
D03*
X6386Y4588D02*
D03*
X6407Y4686D02*
D03*
X6428Y4784D02*
D03*
X6449Y4882D02*
D03*
D50*
X6445Y5079D02*
D03*
X6425Y5177D02*
D03*
X6404Y5275D02*
D03*
X6383Y5373D02*
D03*
X6362Y5471D02*
D03*
D51*
X4915Y3591D02*
D03*
X5015D02*
D03*
X5115D02*
D03*
X5215D02*
D03*
X5315D02*
D03*
X5308Y6375D02*
D03*
X5208D02*
D03*
X5108D02*
D03*
X5008D02*
D03*
X4908D02*
D03*
D52*
X4431Y3630D02*
D03*
X4502Y3560D02*
D03*
X4573Y3489D02*
D03*
X4643Y3418D02*
D03*
X4714Y3348D02*
D03*
D53*
X4014Y6537D02*
D03*
Y6437D02*
D03*
Y6337D02*
D03*
Y6237D02*
D03*
Y6137D02*
D03*
Y3827D02*
D03*
Y3727D02*
D03*
Y3627D02*
D03*
Y3527D02*
D03*
Y3427D02*
D03*
D54*
X4935Y5362D02*
D03*
Y5484D02*
D03*
D55*
X4974Y4515D02*
D03*
X4852D02*
D03*
D56*
X5249Y4063D02*
D03*
Y4103D02*
D03*
Y4142D02*
D03*
Y4181D02*
D03*
Y4221D02*
D03*
Y4260D02*
D03*
D57*
X5105Y4006D02*
D03*
Y4317D02*
D03*
D58*
X4712Y6622D02*
D03*
X4642Y6551D02*
D03*
X4571Y6480D02*
D03*
X4500Y6410D02*
D03*
X4430Y6339D02*
D03*
D59*
X5799Y4011D02*
D03*
Y4211D02*
D03*
D60*
X6193Y4111D02*
D03*
M02*
