%FSLAX23Y23*%
%MOIN*%
G70*
G01*
G75*
G04 Layer_Color=8388736*
%ADD10R,0.410X0.470*%
%ADD11R,0.040X0.110*%
%ADD12R,0.012X0.047*%
%ADD13R,0.047X0.012*%
%ADD14R,0.114X0.213*%
%ADD15R,0.126X0.079*%
%ADD16R,0.050X0.040*%
%ADD17R,0.085X0.108*%
%ADD18R,0.079X0.126*%
%ADD19R,0.040X0.050*%
%ADD20R,0.047X0.098*%
%ADD21R,0.039X0.059*%
%ADD22R,0.059X0.039*%
%ADD23R,0.051X0.236*%
%ADD24R,0.118X0.059*%
%ADD25R,0.079X0.071*%
%ADD26R,0.130X0.059*%
%ADD27C,0.040*%
%ADD28C,0.010*%
%ADD29C,0.030*%
%ADD30C,0.020*%
%ADD31C,0.015*%
%ADD32C,0.011*%
%ADD33C,0.059*%
%ADD34R,0.059X0.059*%
%ADD35P,0.170X8X22.5*%
%ADD36C,0.050*%
%ADD37R,0.045X0.012*%
%ADD38R,0.071X0.047*%
%ADD39R,0.061X0.024*%
G04:AMPARAMS|DCode=40|XSize=71mil|YSize=47mil|CornerRadius=0mil|HoleSize=0mil|Usage=FLASHONLY|Rotation=135.000|XOffset=0mil|YOffset=0mil|HoleType=Round|Shape=Rectangle|*
%AMROTATEDRECTD40*
4,1,4,0.042,-0.008,0.008,-0.042,-0.042,0.008,-0.008,0.042,0.042,-0.008,0.0*
%
%ADD40ROTATEDRECTD40*%

G04:AMPARAMS|DCode=41|XSize=61mil|YSize=24mil|CornerRadius=0mil|HoleSize=0mil|Usage=FLASHONLY|Rotation=135.000|XOffset=0mil|YOffset=0mil|HoleType=Round|Shape=Rectangle|*
%AMROTATEDRECTD41*
4,1,4,0.030,-0.013,0.013,-0.030,-0.030,0.013,-0.013,0.030,0.030,-0.013,0.0*
%
%ADD41ROTATEDRECTD41*%

G04:AMPARAMS|DCode=42|XSize=71mil|YSize=47mil|CornerRadius=0mil|HoleSize=0mil|Usage=FLASHONLY|Rotation=225.000|XOffset=0mil|YOffset=0mil|HoleType=Round|Shape=Rectangle|*
%AMROTATEDRECTD42*
4,1,4,0.008,0.042,0.042,0.008,-0.008,-0.042,-0.042,-0.008,0.008,0.042,0.0*
%
%ADD42ROTATEDRECTD42*%

G04:AMPARAMS|DCode=43|XSize=61mil|YSize=24mil|CornerRadius=0mil|HoleSize=0mil|Usage=FLASHONLY|Rotation=225.000|XOffset=0mil|YOffset=0mil|HoleType=Round|Shape=Rectangle|*
%AMROTATEDRECTD43*
4,1,4,0.013,0.030,0.030,0.013,-0.013,-0.030,-0.030,-0.013,0.013,0.030,0.0*
%
%ADD43ROTATEDRECTD43*%

G04:AMPARAMS|DCode=44|XSize=39mil|YSize=197mil|CornerRadius=0mil|HoleSize=0mil|Usage=FLASHONLY|Rotation=225.000|XOffset=0mil|YOffset=0mil|HoleType=Round|Shape=Rectangle|*
%AMROTATEDRECTD44*
4,1,4,-0.056,0.084,0.084,-0.056,0.056,-0.084,-0.084,0.056,-0.056,0.084,0.0*
%
%ADD44ROTATEDRECTD44*%

G04:AMPARAMS|DCode=45|XSize=39mil|YSize=197mil|CornerRadius=0mil|HoleSize=0mil|Usage=FLASHONLY|Rotation=78.000|XOffset=0mil|YOffset=0mil|HoleType=Round|Shape=Rectangle|*
%AMROTATEDRECTD45*
4,1,4,0.092,-0.040,-0.100,0.001,-0.092,0.040,0.100,-0.001,0.092,-0.040,0.0*
%
%ADD45ROTATEDRECTD45*%

G04:AMPARAMS|DCode=46|XSize=39mil|YSize=197mil|CornerRadius=0mil|HoleSize=0mil|Usage=FLASHONLY|Rotation=102.000|XOffset=0mil|YOffset=0mil|HoleType=Round|Shape=Rectangle|*
%AMROTATEDRECTD46*
4,1,4,0.100,0.001,-0.092,-0.040,-0.100,-0.001,0.092,0.040,0.100,0.001,0.0*
%
%ADD46ROTATEDRECTD46*%

%ADD47R,0.039X0.197*%
G04:AMPARAMS|DCode=48|XSize=39mil|YSize=197mil|CornerRadius=0mil|HoleSize=0mil|Usage=FLASHONLY|Rotation=315.000|XOffset=0mil|YOffset=0mil|HoleType=Round|Shape=Rectangle|*
%AMROTATEDRECTD48*
4,1,4,-0.084,-0.056,0.056,0.084,0.084,0.056,-0.056,-0.084,-0.084,-0.056,0.0*
%
%ADD48ROTATEDRECTD48*%

%ADD49R,0.197X0.039*%
%ADD50R,0.071X0.055*%
%ADD51R,0.038X0.032*%
%ADD52R,0.061X0.024*%
%ADD53R,0.071X0.047*%
%ADD54C,0.025*%
%ADD55C,0.012*%
%ADD56R,0.424X0.484*%
%ADD57R,0.054X0.124*%
%ADD58R,0.026X0.061*%
%ADD59R,0.061X0.026*%
%ADD60R,0.128X0.227*%
%ADD61R,0.140X0.093*%
%ADD62R,0.064X0.054*%
%ADD63R,0.099X0.122*%
%ADD64R,0.093X0.140*%
%ADD65R,0.054X0.064*%
%ADD66R,0.061X0.112*%
%ADD67R,0.053X0.073*%
%ADD68R,0.073X0.053*%
%ADD69R,0.065X0.250*%
%ADD70R,0.132X0.073*%
%ADD71R,0.093X0.085*%
%ADD72R,0.144X0.073*%
%ADD73C,0.073*%
%ADD74R,0.073X0.073*%
%ADD75P,0.186X8X22.5*%
%ADD76C,0.064*%
D56*
X6046Y4911D02*
D03*
D57*
X5912Y4569D02*
D03*
X5979D02*
D03*
X6046D02*
D03*
X6113D02*
D03*
X6180D02*
D03*
D58*
X4895Y4728D02*
D03*
X4915D02*
D03*
X4935D02*
D03*
X4954D02*
D03*
X4974D02*
D03*
X4994D02*
D03*
X5013D02*
D03*
X5033D02*
D03*
X5053D02*
D03*
X5072D02*
D03*
X5092D02*
D03*
X5112D02*
D03*
X5131D02*
D03*
X5151D02*
D03*
X5171D02*
D03*
X5190D02*
D03*
Y5181D02*
D03*
X5171D02*
D03*
X5151D02*
D03*
X5131D02*
D03*
X5112D02*
D03*
X5092D02*
D03*
X5072D02*
D03*
X5053D02*
D03*
X5033D02*
D03*
X5013D02*
D03*
X4994D02*
D03*
X4974D02*
D03*
X4954D02*
D03*
X4935D02*
D03*
X4915D02*
D03*
X4895D02*
D03*
D59*
X5269Y4807D02*
D03*
Y4827D02*
D03*
Y4846D02*
D03*
Y4866D02*
D03*
Y4886D02*
D03*
Y4905D02*
D03*
Y4925D02*
D03*
Y4945D02*
D03*
Y4964D02*
D03*
Y4984D02*
D03*
Y5004D02*
D03*
Y5024D02*
D03*
Y5043D02*
D03*
Y5063D02*
D03*
Y5083D02*
D03*
Y5102D02*
D03*
X4816D02*
D03*
Y5083D02*
D03*
Y5063D02*
D03*
Y5043D02*
D03*
Y5024D02*
D03*
Y5004D02*
D03*
Y4984D02*
D03*
Y4964D02*
D03*
Y4945D02*
D03*
Y4925D02*
D03*
Y4905D02*
D03*
Y4886D02*
D03*
Y4866D02*
D03*
Y4846D02*
D03*
Y4827D02*
D03*
Y4807D02*
D03*
D60*
X6200Y4125D02*
D03*
X6555D02*
D03*
D61*
X5700Y4923D02*
D03*
Y4687D02*
D03*
D62*
X6315Y5527D02*
D03*
Y5447D02*
D03*
X4838Y5242D02*
D03*
Y5322D02*
D03*
X5361Y5229D02*
D03*
Y5149D02*
D03*
X4851Y6079D02*
D03*
Y6159D02*
D03*
X4997Y4553D02*
D03*
Y4473D02*
D03*
X4913Y4552D02*
D03*
Y4472D02*
D03*
X5256Y4036D02*
D03*
Y4116D02*
D03*
X5392D02*
D03*
Y4036D02*
D03*
X5313Y4540D02*
D03*
Y4620D02*
D03*
X5217Y4622D02*
D03*
Y4542D02*
D03*
X4803Y5678D02*
D03*
Y5758D02*
D03*
X4851Y5886D02*
D03*
Y5966D02*
D03*
D63*
X6015Y4320D02*
D03*
X5838D02*
D03*
D64*
X6221Y5689D02*
D03*
X5985D02*
D03*
D65*
X6463Y5015D02*
D03*
X6543D02*
D03*
X5370Y4838D02*
D03*
X5450D02*
D03*
X4388Y4695D02*
D03*
X4308D02*
D03*
X4387Y4527D02*
D03*
X4307D02*
D03*
X4635Y4766D02*
D03*
X4715D02*
D03*
Y4663D02*
D03*
X4635D02*
D03*
X5308Y4721D02*
D03*
X5388D02*
D03*
X5198Y5822D02*
D03*
X5278D02*
D03*
X5387Y5820D02*
D03*
X5467D02*
D03*
X5385Y5926D02*
D03*
X5465D02*
D03*
X5197Y5929D02*
D03*
X5277D02*
D03*
X5387Y6031D02*
D03*
X5467D02*
D03*
X5198D02*
D03*
X5278D02*
D03*
X5198Y6137D02*
D03*
X5278D02*
D03*
X5197Y6242D02*
D03*
X5277D02*
D03*
X5198Y6342D02*
D03*
X5278D02*
D03*
X5203Y6448D02*
D03*
X5283D02*
D03*
X5207Y6555D02*
D03*
X5287D02*
D03*
X5386Y6136D02*
D03*
X5466D02*
D03*
X5386Y6239D02*
D03*
X5466D02*
D03*
X5386Y6343D02*
D03*
X5466D02*
D03*
X5385Y6449D02*
D03*
X5465D02*
D03*
X5388Y6554D02*
D03*
X5468D02*
D03*
X6541Y4891D02*
D03*
X6461D02*
D03*
D66*
X6008Y4059D02*
D03*
X5910D02*
D03*
X5812D02*
D03*
X4830Y3428D02*
D03*
X4732D02*
D03*
X4634D02*
D03*
X4450D02*
D03*
X4352D02*
D03*
X4254D02*
D03*
D67*
X4682Y5804D02*
D03*
X4623D02*
D03*
X4564D02*
D03*
X4505D02*
D03*
X4446D02*
D03*
X4387D02*
D03*
X4328D02*
D03*
X4268D02*
D03*
X6013Y5522D02*
D03*
X6104D02*
D03*
X6195D02*
D03*
D68*
X4731Y6582D02*
D03*
Y6523D02*
D03*
Y6464D02*
D03*
Y6405D02*
D03*
Y6346D02*
D03*
Y6286D02*
D03*
Y6227D02*
D03*
Y6168D02*
D03*
Y6109D02*
D03*
Y6050D02*
D03*
X4731Y5991D02*
D03*
Y5932D02*
D03*
Y5873D02*
D03*
X4219D02*
D03*
Y5932D02*
D03*
Y5991D02*
D03*
Y6050D02*
D03*
Y6109D02*
D03*
Y6168D02*
D03*
Y6227D02*
D03*
Y6286D02*
D03*
Y6346D02*
D03*
Y6405D02*
D03*
Y6464D02*
D03*
Y6523D02*
D03*
Y6582D02*
D03*
D69*
X6597Y4544D02*
D03*
X6321D02*
D03*
D70*
X4866Y3994D02*
D03*
Y4094D02*
D03*
X4689Y4044D02*
D03*
Y3944D02*
D03*
X5137Y3539D02*
D03*
Y3639D02*
D03*
X5314Y3689D02*
D03*
Y3589D02*
D03*
Y3789D02*
D03*
X5137Y3739D02*
D03*
D71*
X4210Y4522D02*
D03*
Y4699D02*
D03*
D72*
X6104Y5274D02*
D03*
D73*
X4303Y5247D02*
D03*
Y5347D02*
D03*
D74*
Y5447D02*
D03*
D75*
X5623Y4139D02*
D03*
Y4375D02*
D03*
Y5595D02*
D03*
Y5832D02*
D03*
X4048Y4237D02*
D03*
Y5733D02*
D03*
D76*
X5197Y4432D02*
D03*
X4855Y4545D02*
D03*
X4400Y4602D02*
D03*
X4671Y4571D02*
D03*
X4500Y4664D02*
D03*
X4341Y6165D02*
D03*
X4903Y5517D02*
D03*
X4774Y4463D02*
D03*
X3968Y4125D02*
D03*
X4323Y5680D02*
D03*
X5845Y5249D02*
D03*
X5212Y4949D02*
D03*
X5547Y4511D02*
D03*
X5469Y4461D02*
D03*
X4350Y4126D02*
D03*
X5171Y5403D02*
D03*
X4553Y5127D02*
D03*
X4371Y4957D02*
D03*
X4936Y4963D02*
D03*
X5041Y6040D02*
D03*
X6608Y5838D02*
D03*
X6609Y4815D02*
D03*
X5050Y5720D02*
D03*
X5108Y6161D02*
D03*
X5184Y5708D02*
D03*
X5095Y5510D02*
D03*
X3956Y5286D02*
D03*
X4140Y3580D02*
D03*
X5503Y4036D02*
D03*
X5420Y5472D02*
D03*
X5948Y5194D02*
D03*
X5266Y4668D02*
D03*
X5083Y5588D02*
D03*
X5151Y4565D02*
D03*
X5427Y4520D02*
D03*
X5738Y4595D02*
D03*
X5150Y5876D02*
D03*
X4847Y4473D02*
D03*
X4907Y4905D02*
D03*
X4183Y5028D02*
D03*
Y5791D02*
D03*
X5354Y4980D02*
D03*
X5307Y5380D02*
D03*
X5347Y5730D02*
D03*
X4932Y5842D02*
D03*
X5431Y5004D02*
D03*
X5213Y5046D02*
D03*
X4972Y4840D02*
D03*
X6465Y4010D02*
D03*
X4603Y3982D02*
D03*
X4307Y3240D02*
D03*
X5129Y5059D02*
D03*
X5255Y4730D02*
D03*
X5278Y4432D02*
D03*
X5132Y4476D02*
D03*
X5316D02*
D03*
X5059Y6125D02*
D03*
X5215Y4886D02*
D03*
X5255Y3988D02*
D03*
X4039Y3354D02*
D03*
X5076Y4963D02*
D03*
X5374Y4482D02*
D03*
X4138Y6298D02*
D03*
Y5845D02*
D03*
X5164Y5532D02*
D03*
X5429Y5237D02*
D03*
X5070Y5987D02*
D03*
X4324Y4446D02*
D03*
X4774Y4559D02*
D03*
X4743Y4925D02*
D03*
X6543Y4541D02*
D03*
X6534Y5241D02*
D03*
X4918Y4807D02*
D03*
X5430Y4321D02*
D03*
X4884Y4316D02*
D03*
X4635Y4427D02*
D03*
X4440Y6208D02*
D03*
X4913Y5057D02*
D03*
X4779Y4645D02*
D03*
X4774Y5200D02*
D03*
X4297Y5885D02*
D03*
X6377Y5527D02*
D03*
X4237Y5641D02*
D03*
X4254Y3995D02*
D03*
X4222Y3349D02*
D03*
X4673Y4255D02*
D03*
X5436Y4686D02*
D03*
X4925Y5242D02*
D03*
X6456Y4952D02*
D03*
X4860Y4753D02*
D03*
X4993Y5097D02*
D03*
X5040Y4077D02*
D03*
X5019Y4180D02*
D03*
M02*
