M48
;Layer_Color=9474304
;FILE_FORMAT=2:3
INCH,TZ
;TYPE=PLATED
T1F00S00C0.015
T2F00S00C0.020
T3F00S00C0.035
T4F00S00C0.126
%
T01
X4282Y3343
X4186Y3643
X4309Y3834
X4341Y4031
X4300Y4078
X4288Y4127
X4550Y4052
X4479Y3896
X4527Y3791
X4568Y3776
X4594Y3700
X4680Y3602
X4217Y4506
X4159Y4466
X4109Y4538
X5317Y4539
X5300Y4411
X5249Y4418
X5336Y4379
X5460Y4459
X5492Y4515
X5441Y4685
X5165Y4207
X5142Y4159
X5128Y4078
X5121Y4249
X4753Y3670
X4749Y3609
X4753Y3544
X4713Y3709
X4844Y3188
X5439Y3589
X6026Y3902
X6424Y5747
X6393Y5828
X5836Y5812
X5785Y5809
X5835Y5428
X5884Y5431
X5725Y5335
X5675Y5327
X5462Y5365
X5394Y5370
X5341Y5402
X5320Y5546
X5287Y5518
X5308Y5659
X5311Y5702
X5355Y5746
X5404Y5600
X5188Y5614
X5139Y5651
X5097Y5686
X5055Y5718
X4896Y5715
X4904Y5812
X5133Y5807
X5060Y5895
X5020Y5959
X5092Y6054
X4995Y6124
X4890Y5536
X4744Y5544
X4790Y5339
X4709Y5291
X4692Y5245
X4747Y5236
X4753Y5086
X4747Y5040
X4711Y5007
X4728Y4961
X4701Y5113
X4905
X4877Y5061
X4935Y5056
X4984Y5050
X4981Y5098
X4988Y4997
X4991Y4937
X5009Y4889
X4970Y4832
X4876Y4791
X4818Y4755
X4778Y4700
X4890Y4938
X4887Y4993
X5078Y4976
X5190Y4987
X5326Y4979
X5372Y4968
X5495Y4999
X5541Y4973
X5584Y4919
X5753Y5140
X5436Y5246
X5082Y5380
X4952Y5368
X5154Y4870
X5129Y4839
X6214Y4698
X4552Y4886
X4539Y5038
X4499Y5009
X4500Y5160
X4569Y5168
X4610Y5121
X4663Y5030
X4445Y5110
X4334Y5108
X4360Y4951
X4333Y5601
X4431Y5661
X4422Y5715
X4245Y5688
X4142Y5610
X4564Y5485
X4639Y5483
X4315Y6056
X4308Y6260
T02
X5503Y4036
T03
X4303Y5247
Y5347
Y5447
T04
X4048Y4237
X5623Y4139
Y4375
Y5595
Y5832
X4048Y5733
M30
