M48
;Layer_Color=9474304
;FILE_FORMAT=2:3
INCH,TZ
;TYPE=PLATED
T1F00S00C0.020
T2F00S00C0.028
T3F00S00C0.035
T4F00S00C0.126
%
T01
X4039Y3354
X4222Y3349
X4307Y3240
X4140Y3580
X4254Y3995
X4350Y4126
X4324Y4446
X4400Y4602
X4500Y4664
X4671Y4571
X4635Y4427
X4673Y4255
X4603Y3982
X3968Y4125
X5019Y4180
X5040Y4077
X5255Y3988
X5503Y4036
X5430Y4321
X5469Y4461
X5427Y4520
X5374Y4482
X5316Y4476
X5278Y4432
X5132Y4476
X5151Y4565
X5266Y4668
X5436Y4686
X5547Y4511
X5738Y4595
X4855Y4545
X4847Y4473
X4774Y4463
Y4559
X4779Y4645
X4884Y4316
X6543Y4541
X6465Y4010
X6609Y4815
X6456Y4952
X6534Y5241
X6377Y5527
X6608Y5838
X5948Y5194
X5845Y5249
X5429Y5237
X5431Y5004
X5354Y4980
X5212Y4949
X5215Y4886
X5213Y5046
X5129Y5059
X5076Y4963
X4936
X4907Y4905
X4918Y4807
X4972Y4840
X4860Y4753
X4743Y4925
X4913Y5057
X4993Y5097
X4925Y5242
X4774Y5200
X4903Y5517
X5095Y5510
X5083Y5588
X5164Y5532
X5171Y5403
X5307Y5380
X5420Y5472
X5347Y5730
X5184Y5708
X5050Y5720
X4932Y5842
X5150Y5876
X5070Y5987
X5041Y6040
X5059Y6125
X5108Y6161
X5255Y4730
X4553Y5127
X4371Y4957
X4183Y5028
X3956Y5286
X4237Y5641
X4323Y5680
X4297Y5885
X4138Y5845
X4183Y5791
X4341Y6165
X4440Y6208
X4138Y6298
T02
X5197Y4432
T03
X4303Y5247
Y5347
Y5447
T04
X4048Y4237
X5623Y4139
Y4375
Y5595
Y5832
X4048Y5733
M30
