%FSLAX42Y42*%
%MOMM*%
G71*
G01*
G75*
G04 Layer_Physical_Order=2*
G04 Layer_Color=16711680*
%ADD10R,3.00X1.50*%
%ADD11R,1.50X1.00*%
%ADD12R,1.00X1.50*%
%ADD13R,1.27X1.02*%
%ADD14R,1.02X1.27*%
%ADD15R,1.20X0.30*%
%ADD16R,0.30X1.20*%
%ADD17R,1.20X2.50*%
%ADD18R,2.00X3.20*%
%ADD19R,2.16X2.74*%
%ADD20R,3.20X2.00*%
%ADD21R,2.90X5.40*%
%ADD22R,3.30X1.50*%
%ADD23R,1.02X2.79*%
%ADD24R,10.41X11.94*%
%ADD25R,1.30X6.00*%
%ADD26C,0.25*%
%ADD27C,1.02*%
%ADD28C,0.76*%
%ADD29C,0.64*%
%ADD30C,0.51*%
%ADD31C,1.52*%
%ADD32C,0.38*%
%ADD33R,1.50X1.50*%
%ADD34C,1.50*%
%ADD35P,4.33X8X22.5*%
%ADD36C,0.76*%
%ADD37C,1.52*%
%ADD38C,1.27*%
%ADD39R,1.80X1.40*%
%ADD40R,1.14X0.30*%
%ADD41R,5.00X1.00*%
G04:AMPARAMS|DCode=42|XSize=1mm|YSize=5mm|CornerRadius=0mm|HoleSize=0mm|Usage=FLASHONLY|Rotation=315.000|XOffset=0mm|YOffset=0mm|HoleType=Round|Shape=Rectangle|*
%AMROTATEDRECTD42*
4,1,4,-2.12,-1.41,1.41,2.12,2.12,1.41,-1.41,-2.12,-2.12,-1.41,0.0*
%
%ADD42ROTATEDRECTD42*%

%ADD43R,1.00X5.00*%
G04:AMPARAMS|DCode=44|XSize=1mm|YSize=5mm|CornerRadius=0mm|HoleSize=0mm|Usage=FLASHONLY|Rotation=102.000|XOffset=0mm|YOffset=0mm|HoleType=Round|Shape=Rectangle|*
%AMROTATEDRECTD44*
4,1,4,2.55,0.03,-2.34,-1.01,-2.55,-0.03,2.34,1.01,2.55,0.03,0.0*
%
%ADD44ROTATEDRECTD44*%

G04:AMPARAMS|DCode=45|XSize=1mm|YSize=5mm|CornerRadius=0mm|HoleSize=0mm|Usage=FLASHONLY|Rotation=78.000|XOffset=0mm|YOffset=0mm|HoleType=Round|Shape=Rectangle|*
%AMROTATEDRECTD45*
4,1,4,2.34,-1.01,-2.55,0.03,-2.34,1.01,2.55,-0.03,2.34,-1.01,0.0*
%
%ADD45ROTATEDRECTD45*%

G04:AMPARAMS|DCode=46|XSize=1mm|YSize=5mm|CornerRadius=0mm|HoleSize=0mm|Usage=FLASHONLY|Rotation=225.000|XOffset=0mm|YOffset=0mm|HoleType=Round|Shape=Rectangle|*
%AMROTATEDRECTD46*
4,1,4,-1.41,2.12,2.12,-1.41,1.41,-2.12,-2.12,1.41,-1.41,2.12,0.0*
%
%ADD46ROTATEDRECTD46*%

G04:AMPARAMS|DCode=47|XSize=1.8mm|YSize=1.2mm|CornerRadius=0mm|HoleSize=0mm|Usage=FLASHONLY|Rotation=225.000|XOffset=0mm|YOffset=0mm|HoleType=Round|Shape=Rectangle|*
%AMROTATEDRECTD47*
4,1,4,0.21,1.06,1.06,0.21,-0.21,-1.06,-1.06,-0.21,0.21,1.06,0.0*
%
%ADD47ROTATEDRECTD47*%

G04:AMPARAMS|DCode=48|XSize=1.55mm|YSize=0.6mm|CornerRadius=0mm|HoleSize=0mm|Usage=FLASHONLY|Rotation=225.000|XOffset=0mm|YOffset=0mm|HoleType=Round|Shape=Rectangle|*
%AMROTATEDRECTD48*
4,1,4,0.34,0.76,0.76,0.34,-0.34,-0.76,-0.76,-0.34,0.34,0.76,0.0*
%
%ADD48ROTATEDRECTD48*%

G04:AMPARAMS|DCode=49|XSize=1.8mm|YSize=1.2mm|CornerRadius=0mm|HoleSize=0mm|Usage=FLASHONLY|Rotation=135.000|XOffset=0mm|YOffset=0mm|HoleType=Round|Shape=Rectangle|*
%AMROTATEDRECTD49*
4,1,4,1.06,-0.21,0.21,-1.06,-1.06,0.21,-0.21,1.06,1.06,-0.21,0.0*
%
%ADD49ROTATEDRECTD49*%

G04:AMPARAMS|DCode=50|XSize=1.55mm|YSize=0.6mm|CornerRadius=0mm|HoleSize=0mm|Usage=FLASHONLY|Rotation=135.000|XOffset=0mm|YOffset=0mm|HoleType=Round|Shape=Rectangle|*
%AMROTATEDRECTD50*
4,1,4,0.76,-0.34,0.34,-0.76,-0.76,0.34,-0.34,0.76,0.76,-0.34,0.0*
%
%ADD50ROTATEDRECTD50*%

%ADD51R,1.80X1.20*%
%ADD52R,1.55X0.60*%
%ADD53C,1.78*%
G36*
X213Y7646D02*
X662Y7197D01*
Y7015D01*
X662Y7015D01*
X662D01*
Y6044D01*
X262Y5644D01*
X250Y5629D01*
X245Y5617D01*
X243Y5612D01*
X241Y5593D01*
Y3538D01*
X243Y3520D01*
X245Y3515D01*
X250Y3502D01*
X262Y3487D01*
X1082Y2667D01*
X650Y2235D01*
X639Y2220D01*
X634Y2208D01*
X632Y2203D01*
X629Y2184D01*
Y1831D01*
X632Y1813D01*
X634Y1808D01*
X639Y1795D01*
X650Y1781D01*
X681Y1750D01*
X681Y1744D01*
X669Y1732D01*
X740Y1661D01*
X740Y1661D01*
X807Y1594D01*
X803Y1591D01*
X833Y1561D01*
X906Y1633D01*
X979Y1706D01*
X949Y1736D01*
X945Y1733D01*
X923Y1755D01*
X993Y1825D01*
X1003Y1823D01*
X1026Y1827D01*
X1045Y1840D01*
X1058Y1859D01*
X1063Y1882D01*
X1058Y1905D01*
X1045Y1924D01*
X1026Y1937D01*
X1003Y1942D01*
X981Y1937D01*
X961Y1924D01*
X948Y1905D01*
X944Y1882D01*
X946Y1872D01*
X876Y1802D01*
X807Y1870D01*
X796Y1859D01*
X773Y1869D01*
Y2155D01*
X1177Y2559D01*
X2002Y1735D01*
X2016Y1723D01*
X2025Y1720D01*
X2034Y1716D01*
X2052Y1714D01*
X2230D01*
Y930D01*
X1992Y692D01*
X1985Y684D01*
X1801Y500D01*
X1901Y401D01*
X1901D01*
Y401D01*
Y392D01*
X1695Y186D01*
X906D01*
X344Y748D01*
X353Y772D01*
X534D01*
Y912D01*
X274D01*
X264Y914D01*
X253Y912D01*
X0D01*
Y1026D01*
X534D01*
Y1062D01*
X663D01*
X719Y1006D01*
Y899D01*
X886D01*
Y1041D01*
X779D01*
X701Y1120D01*
X690Y1127D01*
X677Y1130D01*
X534D01*
Y1166D01*
X0D01*
Y1280D01*
X534D01*
Y1316D01*
X633D01*
X637Y1308D01*
X650Y1290D01*
X668Y1277D01*
X688Y1268D01*
X710Y1266D01*
X732Y1268D01*
X752Y1277D01*
X770Y1290D01*
X783Y1308D01*
X792Y1328D01*
X795Y1350D01*
X792Y1372D01*
X783Y1392D01*
X770Y1410D01*
X752Y1423D01*
X732Y1432D01*
X710Y1435D01*
X688Y1432D01*
X668Y1423D01*
X650Y1410D01*
X637Y1392D01*
X633Y1384D01*
X534D01*
Y1420D01*
X0D01*
Y1529D01*
X251D01*
Y1604D01*
Y1680D01*
X0D01*
Y1788D01*
X534D01*
Y1928D01*
X275D01*
Y2035D01*
X312D01*
Y2202D01*
X170D01*
Y2035D01*
X208D01*
Y1928D01*
X0D01*
Y7655D01*
X206D01*
X213Y7646D01*
D02*
G37*
G36*
X6078Y4507D02*
X6145Y4415D01*
X6145Y4415D01*
D01*
X6143Y4401D01*
X6118Y4394D01*
X6069Y4443D01*
X6058Y4451D01*
X6045Y4453D01*
X5928D01*
Y4491D01*
X5761D01*
Y4349D01*
X5641D01*
X5628Y4347D01*
X5618Y4339D01*
X4860Y3582D01*
X3936D01*
X3936Y3583D01*
X3918Y3596D01*
X3898Y3605D01*
X3897Y3605D01*
X3891Y3629D01*
X3893Y3631D01*
X3906Y3648D01*
X3910Y3657D01*
X4823D01*
X4836Y3660D01*
X4847Y3667D01*
X5709Y4528D01*
X6057D01*
X6078Y4507D01*
D02*
G37*
G36*
X616Y7922D02*
X489Y7796D01*
X274D01*
X264Y7797D01*
X253Y7796D01*
X0D01*
Y7909D01*
X534D01*
Y7946D01*
X606D01*
X616Y7922D01*
D02*
G37*
G36*
X639Y8150D02*
X639D01*
X639Y8150D01*
X639D01*
X639Y8150D01*
Y8150D01*
X639Y8150D01*
Y8150D01*
X650Y8143D01*
X663Y8140D01*
X665D01*
Y8036D01*
X643Y8013D01*
X534D01*
Y8050D01*
X0D01*
Y8163D01*
X534D01*
Y8200D01*
X589D01*
X639Y8150D01*
D02*
G37*
G36*
X2799Y9241D02*
X3381Y9002D01*
X4234Y9004D01*
X4252Y8986D01*
Y7701D01*
X6995D01*
X6998Y7699D01*
Y1900D01*
X4254D01*
X4249Y1895D01*
Y597D01*
X3373D01*
X3371Y594D01*
X2804Y356D01*
Y5D01*
X2799Y0D01*
X0D01*
Y772D01*
X192D01*
Y727D01*
X194Y708D01*
X196Y703D01*
X202Y691D01*
X213Y676D01*
X826Y64D01*
X840Y52D01*
X851Y48D01*
X858Y45D01*
X876Y43D01*
X1725D01*
X1743Y45D01*
X1748Y47D01*
X1761Y52D01*
X1775Y64D01*
X2093Y381D01*
X2104Y396D01*
X2108Y405D01*
X2112Y413D01*
X2114Y432D01*
Y612D01*
X2352Y850D01*
X2363Y865D01*
X2368Y875D01*
X2371Y882D01*
X2373Y901D01*
Y1756D01*
X2435Y1818D01*
X3232D01*
X3497Y1553D01*
Y1259D01*
X3498Y1249D01*
Y989D01*
X3639D01*
Y1249D01*
X3640Y1259D01*
Y1582D01*
X3638Y1601D01*
X3631Y1618D01*
X3619Y1633D01*
X3312Y1940D01*
X3297Y1952D01*
X3285Y1957D01*
X3280Y1959D01*
X3261Y1961D01*
X2405D01*
X2387Y1959D01*
X2380Y1956D01*
X2370Y1952D01*
X2355Y1940D01*
X2272Y1857D01*
X2082D01*
X1255Y2685D01*
X1253Y2686D01*
X1246Y2703D01*
X1234Y2718D01*
X384Y3568D01*
Y5563D01*
X785Y5964D01*
X796Y5979D01*
X800Y5989D01*
X803Y5996D01*
X806Y6015D01*
Y6944D01*
X952D01*
X971Y6946D01*
X976Y6948D01*
X988Y6953D01*
X1003Y6965D01*
X1378Y7340D01*
X5547D01*
X6157Y6730D01*
Y6531D01*
X5928D01*
X5910Y6529D01*
X5905Y6526D01*
X5892Y6521D01*
X5878Y6510D01*
X5540Y6172D01*
X5528Y6157D01*
X5523Y6145D01*
X5521Y6140D01*
X5519Y6121D01*
Y4902D01*
X5521Y4884D01*
X5523Y4879D01*
X5528Y4866D01*
X5540Y4851D01*
X5735Y4656D01*
X5750Y4644D01*
D01*
D01*
Y4644D01*
X5750Y4644D01*
D01*
D01*
X5750D01*
Y4644D01*
D01*
X5750D01*
Y4644D01*
X5768Y4637D01*
X5786Y4635D01*
X6172D01*
X6188Y4615D01*
X6172Y4540D01*
X6148Y4532D01*
X6094Y4586D01*
X6083Y4593D01*
X6071Y4596D01*
X5695D01*
X5695Y4596D01*
X5682Y4593D01*
X5671Y4586D01*
X4810Y3724D01*
X3922D01*
X3909Y3746D01*
X3915Y3759D01*
X4663D01*
X4676Y3761D01*
X4687Y3768D01*
X4687Y3768D01*
X4687Y3768D01*
X4908Y3989D01*
X4916Y4000D01*
X4918Y4013D01*
X4918Y4013D01*
X4918Y4013D01*
Y4013D01*
Y4148D01*
X4916Y4161D01*
X4908Y4172D01*
X4565Y4515D01*
X4575Y4538D01*
X4746D01*
Y4699D01*
X4526D01*
Y4588D01*
X4502Y4578D01*
X4294Y4786D01*
X4283Y4794D01*
X4270Y4796D01*
X3916D01*
X3911Y4805D01*
X3891Y4818D01*
X3868Y4822D01*
X3846Y4818D01*
X3826Y4805D01*
X3813Y4785D01*
X3809Y4762D01*
X3813Y4740D01*
X3826Y4720D01*
X3828Y4719D01*
X3828Y4716D01*
X3823Y4694D01*
X3799Y4691D01*
X3773Y4680D01*
X3763Y4672D01*
X3754Y4674D01*
X3739Y4685D01*
X3722Y4692D01*
X3703Y4695D01*
X3685Y4692D01*
X3667Y4685D01*
X3653Y4674D01*
X3641Y4659D01*
X3641Y4658D01*
X3626D01*
Y4587D01*
Y4533D01*
X3621D01*
Y4506D01*
X3703D01*
Y4480D01*
X3621D01*
Y4452D01*
Y4440D01*
X3703D01*
Y4415D01*
X3621D01*
Y4387D01*
X3626D01*
Y4327D01*
Y4262D01*
Y4197D01*
Y4143D01*
X3621D01*
Y4116D01*
X3786D01*
Y4135D01*
X3805Y4143D01*
X3811D01*
X3844Y4111D01*
X3866Y4093D01*
X3893Y4082D01*
X3922Y4078D01*
X4143D01*
X4171Y4082D01*
X4198Y4093D01*
X4221Y4111D01*
X4248Y4138D01*
X4321D01*
X4331Y4115D01*
X4234Y4018D01*
X3786D01*
Y4025D01*
X3621D01*
Y3997D01*
X3626D01*
Y3937D01*
Y3872D01*
X3641D01*
X3641Y3872D01*
X3653Y3857D01*
X3667Y3846D01*
X3685Y3839D01*
X3703Y3836D01*
X3722Y3839D01*
X3739Y3846D01*
X3754Y3857D01*
X3769Y3872D01*
X3781D01*
Y3875D01*
X4264D01*
X4283Y3877D01*
X4288Y3879D01*
X4300Y3884D01*
X4315Y3896D01*
X4502Y4083D01*
X4526Y4073D01*
Y3978D01*
X4746D01*
Y4139D01*
X4615D01*
X4565Y4160D01*
X4568Y4178D01*
Y4272D01*
X4565Y4291D01*
X4561Y4301D01*
X4558Y4308D01*
X4547Y4323D01*
X4374Y4496D01*
X4359Y4507D01*
X4356Y4508D01*
X4355Y4517D01*
X4346Y4538D01*
Y4539D01*
X4346D01*
X4344Y4544D01*
X4326Y4567D01*
X4303Y4584D01*
X4277Y4595D01*
X4248Y4599D01*
X4041D01*
X3977Y4663D01*
X3954Y4680D01*
X3927Y4691D01*
X3912Y4693D01*
X3909Y4709D01*
X3925Y4729D01*
X4256D01*
X4851Y4134D01*
Y4027D01*
X4649Y3826D01*
X3767D01*
X3754Y3823D01*
X3743Y3816D01*
X3669Y3742D01*
X3662Y3731D01*
X3659Y3719D01*
Y3536D01*
X3662Y3523D01*
X3669Y3512D01*
X3669Y3512D01*
X3669Y3512D01*
X4015Y3166D01*
Y2548D01*
X4018Y2535D01*
X4025Y2524D01*
X4025Y2524D01*
X4025Y2524D01*
X4236Y2313D01*
X4236Y2313D01*
X4236D01*
X4236Y2313D01*
X4236D01*
X4236Y2313D01*
Y2313D01*
Y2313D01*
D01*
D01*
X4236D01*
Y2313D01*
X4247Y2306D01*
X4260Y2303D01*
X4426D01*
X4526Y2203D01*
Y2076D01*
X4446Y1997D01*
X3941D01*
X3572Y2366D01*
X3561Y2373D01*
X3548Y2376D01*
X3269D01*
X3256Y2373D01*
X3245Y2366D01*
X2943Y2063D01*
X2140D01*
X653Y3550D01*
Y4828D01*
X662Y4832D01*
X680Y4845D01*
X693Y4862D01*
X701Y4883D01*
X704Y4905D01*
X701Y4927D01*
X693Y4947D01*
X680Y4965D01*
X662Y4978D01*
X642Y4986D01*
X620Y4989D01*
X598Y4986D01*
X577Y4978D01*
X560Y4965D01*
X547Y4947D01*
X538Y4927D01*
X535Y4905D01*
X538Y4883D01*
X547Y4862D01*
X560Y4845D01*
X577Y4832D01*
X586Y4828D01*
Y3536D01*
X589Y3523D01*
X596Y3512D01*
X596Y3512D01*
X596Y3512D01*
X2102Y2006D01*
X2102Y2006D01*
X2102D01*
X2102Y2006D01*
X2102D01*
X2102Y2006D01*
Y2006D01*
Y2006D01*
D01*
D01*
X2102D01*
Y2006D01*
X2113Y1998D01*
X2126Y1996D01*
X2957D01*
X2969Y1998D01*
X2980Y2006D01*
X3283Y2308D01*
X3534D01*
X3903Y1940D01*
X3903Y1940D01*
X3903D01*
X3903Y1940D01*
X3903D01*
X3903Y1940D01*
Y1940D01*
Y1940D01*
D01*
D01*
X3903D01*
Y1940D01*
X3914Y1932D01*
X3927Y1930D01*
X4460D01*
X4473Y1932D01*
X4484Y1940D01*
X4484Y1940D01*
X4484Y1940D01*
X4583Y2039D01*
X4590Y2050D01*
X4593Y2062D01*
Y2217D01*
X4590Y2230D01*
X4583Y2241D01*
X4464Y2361D01*
X4453Y2368D01*
X4440Y2370D01*
X4274D01*
X4236Y2408D01*
X4246Y2431D01*
X4461D01*
X4571Y2542D01*
Y2762D01*
X4461Y2872D01*
X4241D01*
X4131Y2762D01*
Y2546D01*
X4107Y2537D01*
X4082Y2562D01*
Y3180D01*
X4080Y3193D01*
X4073Y3204D01*
X3860Y3416D01*
X3871Y3439D01*
X3876Y3438D01*
X3898Y3441D01*
X3918Y3450D01*
X3936Y3463D01*
X3949Y3481D01*
X3958Y3501D01*
X3959Y3515D01*
X4874D01*
X4887Y3517D01*
X4898Y3525D01*
X4898Y3525D01*
X4898Y3525D01*
X5655Y4282D01*
X5756D01*
Y4229D01*
X5933D01*
Y4282D01*
X5958D01*
X6089Y4150D01*
X6063Y4029D01*
X6592Y3916D01*
X6621Y4054D01*
X6189Y4146D01*
X5995Y4339D01*
X5984Y4347D01*
X5972Y4349D01*
X5928D01*
Y4386D01*
X6031D01*
X6120Y4297D01*
X6116Y4277D01*
X6147Y4270D01*
X6151Y4266D01*
X6162Y4258D01*
X6175Y4256D01*
X6215D01*
X6645Y4165D01*
X6674Y4302D01*
X6674D01*
X6679Y4326D01*
X6727D01*
X6739Y4328D01*
X6750Y4335D01*
X6750Y4335D01*
X6750Y4335D01*
X6790Y4375D01*
X6798Y4386D01*
X6800Y4399D01*
X6800Y4399D01*
X6800Y4399D01*
Y4399D01*
Y4765D01*
X6798Y4778D01*
X6790Y4789D01*
X6712Y4868D01*
X6701Y4875D01*
X6688Y4877D01*
X5919D01*
X5784Y5013D01*
Y5368D01*
X5920Y5504D01*
X6065D01*
X6085Y5412D01*
X6614Y5525D01*
X6584Y5662D01*
X6155Y5571D01*
X5906D01*
X5893Y5568D01*
X5882Y5561D01*
X5727Y5406D01*
X5719Y5395D01*
X5717Y5382D01*
Y4999D01*
X5719Y4986D01*
X5727Y4975D01*
X5882Y4820D01*
X5893Y4813D01*
X5906Y4810D01*
X6674D01*
X6733Y4751D01*
Y4570D01*
X6713Y4554D01*
X6486Y4602D01*
X6330Y4757D01*
X6315Y4769D01*
X6303Y4774D01*
X6298Y4776D01*
X6279Y4778D01*
X5816D01*
X5662Y4932D01*
Y6092D01*
X5958Y6387D01*
X6157D01*
Y6091D01*
X5950Y6047D01*
X5979Y5909D01*
X6231Y5963D01*
X6247Y5965D01*
X6254Y5968D01*
X6508Y6022D01*
X6479Y6159D01*
X6320Y6126D01*
X6301Y6142D01*
Y6459D01*
X6301Y6459D01*
X6301Y6459D01*
Y6459D01*
Y6730D01*
X6456Y6885D01*
X6458Y6886D01*
X6479Y6894D01*
X6496Y6907D01*
X6510Y6925D01*
X6518Y6945D01*
X6521Y6967D01*
X6518Y6989D01*
X6510Y7009D01*
X6496Y7027D01*
X6479Y7040D01*
X6458Y7049D01*
X6436Y7052D01*
X6414Y7049D01*
X6394Y7040D01*
X6377Y7027D01*
X6363Y7009D01*
X6355Y6989D01*
X6354Y6987D01*
X6242Y6874D01*
X6216D01*
X5628Y7462D01*
X5613Y7474D01*
X5601Y7479D01*
X5596Y7481D01*
X5577Y7483D01*
X1569D01*
X1554Y7505D01*
X1556Y7507D01*
X1558Y7513D01*
X1560Y7531D01*
Y7852D01*
X1566Y7858D01*
X2304D01*
X2322Y7861D01*
X2327Y7863D01*
X2340Y7868D01*
X2355Y7879D01*
X2537Y8061D01*
X2605D01*
Y8150D01*
X2607Y8161D01*
Y8332D01*
X2605Y8342D01*
Y8602D01*
X2465D01*
Y8342D01*
X2463Y8332D01*
Y8191D01*
X2274Y8002D01*
X1608D01*
Y8023D01*
X1606Y8041D01*
X1604Y8046D01*
X1599Y8059D01*
X1587Y8073D01*
X1371Y8290D01*
X1362Y8297D01*
X1178Y8480D01*
X1079Y8381D01*
X1263Y8197D01*
X1269Y8189D01*
X1465Y7993D01*
Y7960D01*
X1438Y7932D01*
X1426Y7917D01*
X1421Y7905D01*
X1419Y7900D01*
X1417Y7882D01*
Y7561D01*
X1338Y7482D01*
X1330Y7481D01*
X1320Y7477D01*
X1313Y7474D01*
X1298Y7462D01*
X923Y7087D01*
X806D01*
Y7226D01*
X803Y7245D01*
X801Y7250D01*
X796Y7262D01*
X785Y7277D01*
X430Y7632D01*
X440Y7655D01*
X534D01*
Y7676D01*
X545Y7683D01*
X717Y7855D01*
X758D01*
X780Y7833D01*
X780Y7832D01*
X713Y7766D01*
X709Y7769D01*
X679Y7739D01*
X752Y7666D01*
X825Y7593D01*
X855Y7624D01*
Y7624D01*
X855D01*
X870D01*
X901Y7593D01*
X912Y7586D01*
X925Y7583D01*
X972D01*
X985Y7586D01*
X996Y7593D01*
X1247Y7844D01*
X1255Y7839D01*
X1278Y7835D01*
X1300Y7839D01*
X1320Y7852D01*
X1333Y7872D01*
X1337Y7894D01*
X1333Y7917D01*
X1320Y7936D01*
X1300Y7949D01*
X1278Y7954D01*
X1255Y7949D01*
X1236Y7936D01*
X1223Y7917D01*
X1222Y7914D01*
X958Y7651D01*
X939D01*
X907Y7683D01*
X918Y7694D01*
X989Y7765D01*
X944Y7810D01*
Y7813D01*
X944Y7813D01*
X939Y7835D01*
X926Y7855D01*
X824Y7957D01*
X805Y7970D01*
X782Y7974D01*
X732D01*
X730Y7980D01*
X744Y8001D01*
X833D01*
Y8140D01*
X928D01*
X1006Y8062D01*
X1003Y8053D01*
X1000Y8031D01*
X1003Y8010D01*
X1011Y7989D01*
X1025Y7972D01*
X1042Y7958D01*
X1063Y7950D01*
X1085Y7947D01*
X1106Y7950D01*
X1127Y7958D01*
X1144Y7972D01*
X1158Y7989D01*
X1166Y8010D01*
X1169Y8031D01*
X1166Y8053D01*
X1158Y8074D01*
X1144Y8091D01*
X1127Y8105D01*
X1106Y8113D01*
X1085Y8116D01*
X1063Y8113D01*
X1054Y8110D01*
X966Y8198D01*
X955Y8205D01*
X942Y8207D01*
X838D01*
Y8263D01*
X660D01*
Y8257D01*
X637Y8247D01*
X627Y8257D01*
X616Y8265D01*
X603Y8267D01*
X534D01*
Y8304D01*
X0D01*
Y8412D01*
X251D01*
Y8488D01*
Y8563D01*
X0D01*
Y8671D01*
X534D01*
Y8812D01*
D01*
Y8812D01*
X551Y8828D01*
X643D01*
Y8791D01*
X810D01*
Y8933D01*
X643D01*
Y8896D01*
X384D01*
X371Y8893D01*
X360Y8886D01*
X286Y8812D01*
X0D01*
Y9600D01*
X3Y9601D01*
Y9601D01*
X3Y9601D01*
X2799D01*
Y9241D01*
D02*
G37*
%LPC*%
G36*
X6746Y3538D02*
X6670D01*
Y3475D01*
X6746D01*
Y3538D01*
D02*
G37*
G36*
X5987Y3669D02*
X5958Y3532D01*
X6268Y3466D01*
X6409Y3324D01*
X6409Y3324D01*
X6409D01*
X6409Y3324D01*
X6409D01*
X6409Y3324D01*
Y3324D01*
Y3324D01*
D01*
D01*
X6409D01*
Y3324D01*
X6420Y3317D01*
X6433Y3314D01*
X6675D01*
Y3277D01*
X6843D01*
Y3419D01*
X6675D01*
Y3381D01*
X6447D01*
X6420Y3408D01*
X6432Y3431D01*
X6487Y3419D01*
X6516Y3557D01*
X5987Y3669D01*
D02*
G37*
G36*
X3503Y3354D02*
X3491Y3352D01*
X3470Y3338D01*
X3456Y3317D01*
X3453Y3305D01*
X3503D01*
Y3354D01*
D02*
G37*
G36*
X3578Y3279D02*
X3528D01*
Y3230D01*
X3540Y3232D01*
X3561Y3246D01*
X3575Y3267D01*
X3578Y3279D01*
D02*
G37*
G36*
X3528Y3354D02*
Y3305D01*
X3578D01*
X3575Y3317D01*
X3561Y3338D01*
X3540Y3352D01*
X3528Y3354D01*
D02*
G37*
G36*
X2782Y3415D02*
X2680D01*
Y3332D01*
X2782D01*
Y3415D01*
D02*
G37*
G36*
X2957Y3477D02*
X2880D01*
Y3414D01*
X2957D01*
Y3477D01*
D02*
G37*
G36*
X2654Y3415D02*
X2552D01*
Y3332D01*
X2654D01*
Y3415D01*
D02*
G37*
G36*
X2957Y3388D02*
X2880D01*
Y3325D01*
X2957D01*
Y3388D01*
D02*
G37*
G36*
X3058Y3477D02*
X2982D01*
Y3414D01*
X3058D01*
Y3477D01*
D02*
G37*
G36*
X3503Y3279D02*
X3453D01*
X3456Y3267D01*
X3470Y3246D01*
X3491Y3232D01*
X3503Y3230D01*
Y3279D01*
D02*
G37*
G36*
X3066Y2389D02*
Y2339D01*
X3115D01*
X3113Y2351D01*
X3099Y2372D01*
X3078Y2386D01*
X3066Y2389D01*
D02*
G37*
G36*
X3402Y2697D02*
X3181D01*
Y2536D01*
X3402D01*
Y2697D01*
D02*
G37*
G36*
X461Y3121D02*
X240D01*
X130Y3011D01*
Y2791D01*
X240Y2680D01*
X461D01*
X571Y2791D01*
Y3011D01*
X461Y3121D01*
D02*
G37*
G36*
X3040Y2314D02*
X2991D01*
X2993Y2302D01*
X3007Y2281D01*
X3028Y2267D01*
X3040Y2264D01*
Y2314D01*
D02*
G37*
G36*
X3115D02*
X3066D01*
Y2264D01*
X3078Y2267D01*
X3099Y2281D01*
X3113Y2302D01*
X3115Y2314D01*
D02*
G37*
G36*
X3040Y2389D02*
X3028Y2386D01*
X3007Y2372D01*
X2993Y2351D01*
X2991Y2339D01*
X3040D01*
Y2389D01*
D02*
G37*
G36*
X2172Y2992D02*
X2122D01*
X2125Y2980D01*
X2139Y2959D01*
X2160Y2945D01*
X2172Y2943D01*
Y2992D01*
D02*
G37*
G36*
X4461Y3472D02*
X4241D01*
X4131Y3361D01*
Y3141D01*
X4241Y3031D01*
X4461D01*
X4571Y3141D01*
Y3361D01*
X4461Y3472D01*
D02*
G37*
G36*
X2654Y3307D02*
X2552D01*
Y3224D01*
X2654D01*
Y3307D01*
D02*
G37*
G36*
X2782D02*
X2680D01*
Y3224D01*
X2782D01*
Y3307D01*
D02*
G37*
G36*
X2247Y2992D02*
X2197D01*
Y2943D01*
X2209Y2945D01*
X2230Y2959D01*
X2244Y2980D01*
X2247Y2992D01*
D02*
G37*
G36*
X2172Y3067D02*
X2160Y3065D01*
X2139Y3051D01*
X2125Y3030D01*
X2122Y3018D01*
X2172D01*
Y3067D01*
D02*
G37*
G36*
X2197D02*
Y3018D01*
X2247D01*
X2244Y3030D01*
X2230Y3051D01*
X2209Y3065D01*
X2197Y3067D01*
D02*
G37*
G36*
X6848Y3538D02*
X6772D01*
Y3475D01*
X6848D01*
Y3538D01*
D02*
G37*
G36*
X2794Y3929D02*
X2718D01*
Y3866D01*
X2794D01*
Y3929D01*
D02*
G37*
G36*
X3786Y4090D02*
X3621D01*
Y4062D01*
Y4051D01*
X3786D01*
Y4062D01*
Y4090D01*
D02*
G37*
G36*
X5832Y4204D02*
X5756D01*
Y4140D01*
X5832D01*
Y4204D01*
D02*
G37*
G36*
X2400Y3927D02*
X2324D01*
Y3863D01*
X2400D01*
Y3927D01*
D02*
G37*
G36*
X2502D02*
X2426D01*
Y3863D01*
X2502D01*
Y3927D01*
D02*
G37*
G36*
X2692Y3929D02*
X2616D01*
Y3866D01*
X2692D01*
Y3929D01*
D02*
G37*
G36*
X5933Y4204D02*
X5857D01*
Y4140D01*
X5933D01*
Y4204D01*
D02*
G37*
G36*
X5956Y5235D02*
X5880D01*
Y5171D01*
X5956D01*
Y5235D01*
D02*
G37*
G36*
X6058D02*
X5982D01*
Y5171D01*
X6058D01*
Y5235D01*
D02*
G37*
G36*
X6659Y5334D02*
X6402Y5279D01*
X6415Y5218D01*
X6672Y5272D01*
X6659Y5334D01*
D02*
G37*
G36*
X3569Y5742D02*
Y5679D01*
Y5617D01*
X3581Y5620D01*
X3602Y5634D01*
Y5634D01*
D01*
X3602D01*
D01*
Y5634D01*
X3626Y5653D01*
Y5619D01*
Y5564D01*
X3621D01*
Y5537D01*
X3703D01*
Y5511D01*
X3621D01*
Y5484D01*
Y5472D01*
X3703D01*
Y5446D01*
X3621D01*
Y5419D01*
X3626D01*
Y5359D01*
Y5294D01*
Y5229D01*
Y5174D01*
X3621D01*
Y5147D01*
X3703D01*
Y5121D01*
X3621D01*
Y5094D01*
Y5082D01*
X3703D01*
Y5056D01*
X3621D01*
Y5029D01*
X3626D01*
Y4969D01*
Y4904D01*
X3641D01*
X3641Y4903D01*
X3653Y4888D01*
X3667Y4877D01*
X3685Y4870D01*
X3703Y4867D01*
X3722Y4870D01*
X3739Y4877D01*
X3754Y4888D01*
X3765Y4903D01*
X3766Y4904D01*
X3976D01*
X4021Y4859D01*
X4036Y4848D01*
X4043Y4845D01*
X4053Y4841D01*
X4072Y4838D01*
X4386D01*
X4404Y4841D01*
X4409Y4843D01*
X4422Y4848D01*
X4437Y4859D01*
X4505Y4927D01*
X4528Y4917D01*
Y4855D01*
X4749D01*
Y5015D01*
X4540D01*
Y5250D01*
X4537Y5269D01*
X4534Y5277D01*
X4530Y5286D01*
X4519Y5301D01*
X4404Y5416D01*
X4389Y5427D01*
X4377Y5432D01*
X4372Y5434D01*
X4353Y5437D01*
X4281D01*
X4071Y5646D01*
X4056Y5657D01*
X4044Y5662D01*
X4039Y5665D01*
X4021Y5667D01*
X3968D01*
X3962Y5674D01*
X3947Y5686D01*
X3930Y5693D01*
X3912Y5695D01*
X3761D01*
X3754Y5705D01*
X3739Y5716D01*
X3722Y5723D01*
X3703Y5726D01*
X3685Y5723D01*
X3667Y5716D01*
X3653Y5705D01*
X3642Y5691D01*
X3634Y5693D01*
X3617Y5700D01*
X3616Y5704D01*
X3602Y5725D01*
X3581Y5739D01*
X3569Y5742D01*
D02*
G37*
G36*
X6690Y5165D02*
X6279Y5078D01*
X6053D01*
Y5116D01*
X5885D01*
Y4973D01*
X6053D01*
Y5011D01*
X6170D01*
X6190Y4916D01*
X6719Y5028D01*
X6690Y5165D01*
D02*
G37*
G36*
X6378Y5274D02*
X6121Y5219D01*
X6134Y5158D01*
X6391Y5213D01*
X6378Y5274D01*
D02*
G37*
G36*
X6036Y3924D02*
X6023Y3862D01*
X6280Y3808D01*
X6293Y3869D01*
X6036Y3924D01*
D02*
G37*
G36*
X3298Y3630D02*
X3249D01*
Y3580D01*
X3261Y3583D01*
X3282Y3597D01*
X3296Y3618D01*
X3298Y3630D01*
D02*
G37*
G36*
X3223Y3705D02*
X3211Y3702D01*
X3190Y3688D01*
X3176Y3667D01*
X3174Y3655D01*
X3223D01*
Y3705D01*
D02*
G37*
G36*
X3249D02*
Y3655D01*
X3298D01*
X3296Y3667D01*
X3282Y3688D01*
X3261Y3702D01*
X3249Y3705D01*
D02*
G37*
G36*
X6746Y3627D02*
X6670D01*
Y3564D01*
X6746D01*
Y3627D01*
D02*
G37*
G36*
X6848D02*
X6772D01*
Y3564D01*
X6848D01*
Y3627D01*
D02*
G37*
G36*
X3223Y3630D02*
X3174D01*
X3176Y3618D01*
X3190Y3597D01*
X3211Y3583D01*
X3223Y3580D01*
Y3630D01*
D02*
G37*
G36*
X6299Y3778D02*
X6286Y3716D01*
X6543Y3662D01*
X6556Y3723D01*
X6299Y3778D01*
D02*
G37*
G36*
X2502Y3838D02*
X2426D01*
Y3774D01*
X2502D01*
Y3838D01*
D02*
G37*
G36*
X2692Y3840D02*
X2616D01*
Y3777D01*
X2692D01*
Y3840D01*
D02*
G37*
G36*
X2794D02*
X2718D01*
Y3777D01*
X2794D01*
Y3840D01*
D02*
G37*
G36*
X6018Y3837D02*
X6004Y3776D01*
X6261Y3722D01*
X6274Y3783D01*
X6018Y3837D01*
D02*
G37*
G36*
X6318Y3864D02*
X6305Y3802D01*
X6562Y3748D01*
X6575Y3809D01*
X6318Y3864D01*
D02*
G37*
G36*
X2400Y3838D02*
X2324D01*
Y3774D01*
X2400D01*
Y3838D01*
D02*
G37*
G36*
X521Y2207D02*
X457D01*
Y2131D01*
X521D01*
Y2207D01*
D02*
G37*
G36*
X790Y754D02*
X714D01*
Y691D01*
X790D01*
Y754D01*
D02*
G37*
G36*
X892D02*
X815D01*
Y691D01*
X892D01*
Y754D01*
D02*
G37*
G36*
X1328Y751D02*
X1316Y748D01*
X1295Y734D01*
X1281Y713D01*
X1279Y701D01*
X1328D01*
Y751D01*
D02*
G37*
G36*
X2623Y1530D02*
X2482D01*
Y989D01*
X2557D01*
Y798D01*
X2520D01*
Y630D01*
X2662D01*
Y798D01*
X2624D01*
Y1221D01*
X2623Y1229D01*
Y1530D01*
D02*
G37*
G36*
X1085Y749D02*
X1008D01*
Y686D01*
X1085D01*
Y749D01*
D02*
G37*
G36*
X1186D02*
X1110D01*
Y686D01*
X1186D01*
Y749D01*
D02*
G37*
G36*
X1354Y751D02*
Y701D01*
X1403D01*
X1401Y713D01*
X1387Y734D01*
X1366Y748D01*
X1354Y751D01*
D02*
G37*
G36*
X1085Y838D02*
X1008D01*
Y775D01*
X1085D01*
Y838D01*
D02*
G37*
G36*
X1186D02*
X1110D01*
Y775D01*
X1186D01*
Y838D01*
D02*
G37*
G36*
X790Y843D02*
X714D01*
Y780D01*
X790D01*
Y843D01*
D02*
G37*
G36*
X2781Y803D02*
X2718D01*
Y726D01*
X2781D01*
Y803D01*
D02*
G37*
G36*
X2870D02*
X2807D01*
Y726D01*
X2870D01*
Y803D01*
D02*
G37*
G36*
X3015Y808D02*
X2951D01*
Y732D01*
X3015D01*
Y808D01*
D02*
G37*
G36*
X2559Y406D02*
X2510D01*
Y357D01*
X2522Y359D01*
X2543Y373D01*
X2557Y394D01*
X2559Y406D01*
D02*
G37*
G36*
X2484Y481D02*
X2472Y479D01*
X2451Y465D01*
X2437Y444D01*
X2435Y432D01*
X2484D01*
Y481D01*
D02*
G37*
G36*
X2510D02*
Y432D01*
X2559D01*
X2557Y444D01*
X2543Y465D01*
X2522Y479D01*
X2510Y481D01*
D02*
G37*
G36*
X1326Y409D02*
X1262D01*
Y333D01*
X1326D01*
Y409D01*
D02*
G37*
G36*
X1415D02*
X1351D01*
Y333D01*
X1415D01*
Y409D01*
D02*
G37*
G36*
X2484Y406D02*
X2435D01*
X2437Y394D01*
X2451Y373D01*
X2472Y359D01*
X2484Y357D01*
Y406D01*
D02*
G37*
G36*
X1326Y511D02*
X1262D01*
Y434D01*
X1326D01*
Y511D01*
D02*
G37*
G36*
X2870Y701D02*
X2807D01*
Y625D01*
X2870D01*
Y701D01*
D02*
G37*
G36*
X1328Y676D02*
X1279D01*
X1281Y664D01*
X1295Y643D01*
X1316Y629D01*
X1328Y626D01*
Y676D01*
D02*
G37*
G36*
X1403D02*
X1354D01*
Y626D01*
X1366Y629D01*
X1387Y643D01*
X1401Y664D01*
X1403Y676D01*
D02*
G37*
G36*
X1415Y511D02*
X1351D01*
Y434D01*
X1415D01*
Y511D01*
D02*
G37*
G36*
X2004Y1062D02*
X1622Y680D01*
X1648Y654D01*
X1518Y524D01*
X1511Y513D01*
X1509Y505D01*
X1471D01*
Y338D01*
X1613D01*
Y505D01*
X1613Y505D01*
X1613D01*
X1608Y518D01*
X1695Y606D01*
X1721Y580D01*
X2104Y963D01*
X2004Y1062D01*
D02*
G37*
G36*
X2781Y701D02*
X2718D01*
Y625D01*
X2781D01*
Y701D01*
D02*
G37*
G36*
X892Y843D02*
X815D01*
Y780D01*
X892D01*
Y843D01*
D02*
G37*
G36*
X2856Y1666D02*
X2807D01*
Y1617D01*
X2819Y1619D01*
X2840Y1633D01*
X2854Y1654D01*
X2856Y1666D01*
D02*
G37*
G36*
X539Y1680D02*
X276D01*
Y1617D01*
X539D01*
Y1680D01*
D02*
G37*
G36*
X1302Y1941D02*
X1146Y1785D01*
X1260Y1672D01*
X1416Y1828D01*
X1302Y1941D01*
D02*
G37*
G36*
X539Y1591D02*
X276D01*
Y1529D01*
X539D01*
Y1591D01*
D02*
G37*
G36*
X997Y1688D02*
X933Y1624D01*
X963Y1594D01*
X1027Y1658D01*
X997Y1688D01*
D02*
G37*
G36*
X2781Y1666D02*
X2732D01*
X2734Y1654D01*
X2748Y1633D01*
X2769Y1619D01*
X2781Y1617D01*
Y1666D01*
D02*
G37*
G36*
Y1741D02*
X2769Y1739D01*
X2748Y1725D01*
X2734Y1704D01*
X2732Y1692D01*
X2781D01*
Y1741D01*
D02*
G37*
G36*
X521Y2106D02*
X457D01*
Y2029D01*
X521D01*
Y2106D01*
D02*
G37*
G36*
X3782Y2834D02*
X3576D01*
Y2791D01*
X3581D01*
Y2696D01*
X3595D01*
X3606Y2673D01*
X3604Y2670D01*
X3594Y2646D01*
X3591Y2621D01*
X3594Y2596D01*
X3604Y2573D01*
X3619Y2552D01*
X4107Y2065D01*
X4127Y2049D01*
X4151Y2040D01*
X4176Y2036D01*
X4333D01*
X4358Y2040D01*
X4382Y2049D01*
X4402Y2065D01*
X4418Y2085D01*
X4427Y2108D01*
X4431Y2134D01*
X4427Y2159D01*
X4418Y2182D01*
X4402Y2202D01*
X4382Y2218D01*
X4358Y2228D01*
X4333Y2231D01*
X4216D01*
X3777Y2670D01*
X3777Y2696D01*
X3777D01*
Y2791D01*
X3782D01*
Y2834D01*
D02*
G37*
G36*
X432Y2207D02*
X368D01*
Y2131D01*
X432D01*
Y2207D01*
D02*
G37*
G36*
X2807Y1741D02*
Y1692D01*
X2856D01*
X2854Y1704D01*
X2840Y1725D01*
X2819Y1739D01*
X2807Y1741D01*
D02*
G37*
G36*
X977Y2266D02*
X821Y2110D01*
X935Y1997D01*
X1091Y2153D01*
X977Y2266D01*
D02*
G37*
G36*
X432Y2106D02*
X368D01*
Y2029D01*
X432D01*
Y2106D01*
D02*
G37*
G36*
X2794Y1247D02*
X2731D01*
Y984D01*
X2794D01*
Y1247D01*
D02*
G37*
G36*
X2882D02*
X2819D01*
Y984D01*
X2882D01*
Y1247D01*
D02*
G37*
G36*
X1441Y1225D02*
X1255Y1039D01*
X1300Y995D01*
X1486Y1180D01*
X1441Y1225D01*
D02*
G37*
G36*
X3015Y909D02*
X2951D01*
Y833D01*
X3015D01*
Y909D01*
D02*
G37*
G36*
X3518Y2254D02*
X3496Y2251D01*
X3476Y2242D01*
X3458Y2229D01*
X3445Y2211D01*
X3436Y2191D01*
X3433Y2169D01*
X3436Y2147D01*
X3445Y2127D01*
X3458Y2109D01*
X3476Y2096D01*
X3496Y2087D01*
X3518Y2085D01*
X3540Y2087D01*
X3548Y2091D01*
X3875Y1764D01*
Y972D01*
X3598Y694D01*
X3204D01*
X3185Y713D01*
X3195Y737D01*
X3302D01*
Y844D01*
X3339Y880D01*
X3339Y880D01*
X3339Y880D01*
X3346Y891D01*
X3348Y904D01*
Y989D01*
X3385D01*
Y1530D01*
X3244D01*
Y989D01*
X3281D01*
Y918D01*
X3267Y904D01*
X3163D01*
Y947D01*
X3160Y960D01*
X3153Y971D01*
X3131Y993D01*
Y1530D01*
X2990D01*
Y989D01*
X3040D01*
X3096Y933D01*
Y909D01*
X3040D01*
Y820D01*
Y732D01*
X3096D01*
Y721D01*
X3098Y708D01*
X3105Y698D01*
X3166Y637D01*
X3177Y629D01*
X3190Y627D01*
X3612D01*
X3625Y629D01*
X3636Y637D01*
X3636Y637D01*
X3636Y637D01*
X3933Y934D01*
X3940Y945D01*
X3943Y958D01*
X3943Y958D01*
X3943Y958D01*
Y958D01*
Y1778D01*
X3940Y1791D01*
X3933Y1802D01*
X3596Y2139D01*
X3600Y2147D01*
X3602Y2169D01*
X3600Y2191D01*
X3591Y2211D01*
X3578Y2229D01*
X3560Y2242D01*
X3540Y2251D01*
X3518Y2254D01*
D02*
G37*
G36*
X1504Y1163D02*
X1318Y977D01*
X1362Y932D01*
X1548Y1118D01*
X1504Y1163D01*
D02*
G37*
G36*
X1465Y1601D02*
X1083Y1219D01*
X1109Y1193D01*
X1073Y1157D01*
X1066Y1146D01*
X1064Y1133D01*
Y1036D01*
X1013D01*
Y894D01*
X1181D01*
Y1036D01*
X1131D01*
Y1119D01*
X1157Y1145D01*
X1183Y1119D01*
X1565Y1502D01*
X1465Y1601D01*
D02*
G37*
G36*
X2794Y1535D02*
X2731D01*
Y1272D01*
X2794D01*
Y1535D01*
D02*
G37*
G36*
X2882D02*
X2819D01*
Y1272D01*
X2882D01*
Y1535D01*
D02*
G37*
G36*
X915Y1606D02*
X851Y1543D01*
X882Y1512D01*
X945Y1576D01*
X915Y1606D01*
D02*
G37*
G36*
X1707Y1366D02*
X1522Y1180D01*
X1566Y1136D01*
X1752Y1322D01*
X1707Y1366D01*
D02*
G37*
G36*
X1645Y1429D02*
X1459Y1243D01*
X1504Y1198D01*
X1689Y1384D01*
X1645Y1429D01*
D02*
G37*
G36*
X2007Y1377D02*
X1985Y1375D01*
X1964Y1366D01*
X1947Y1353D01*
X1933Y1335D01*
X1925Y1315D01*
X1922Y1293D01*
X1925Y1271D01*
X1927Y1266D01*
X1864Y1203D01*
X1825Y1242D01*
X1442Y859D01*
X1542Y760D01*
X1924Y1142D01*
X1911Y1155D01*
X1973Y1216D01*
X1985Y1211D01*
X2007Y1208D01*
X2028Y1211D01*
X2049Y1220D01*
X2066Y1233D01*
X2080Y1251D01*
X2088Y1271D01*
X2091Y1293D01*
X2088Y1315D01*
X2080Y1335D01*
X2066Y1353D01*
X2049Y1366D01*
X2028Y1375D01*
X2007Y1377D01*
D02*
G37*
G36*
X3284Y8319D02*
X3222D01*
Y8056D01*
X3284D01*
Y8319D01*
D02*
G37*
G36*
X3372D02*
X3310D01*
Y8056D01*
X3372D01*
Y8319D01*
D02*
G37*
G36*
X3113Y8602D02*
X2973D01*
Y8064D01*
X2620Y7711D01*
X1837D01*
X1834Y7713D01*
X1811Y7718D01*
X1788Y7713D01*
X1769Y7700D01*
X1756Y7681D01*
X1751Y7658D01*
X1756Y7635D01*
X1769Y7616D01*
X1788Y7603D01*
X1811Y7599D01*
X1834Y7603D01*
X1837Y7605D01*
X2642D01*
X2642Y7605D01*
X2662Y7609D01*
X2679Y7621D01*
X3080Y8022D01*
X3080Y8022D01*
X3087Y8032D01*
X3092Y8039D01*
X3096Y8059D01*
D01*
X3096D01*
D01*
D01*
D01*
X3113Y8061D01*
X3113Y8077D01*
D01*
Y8602D01*
D02*
G37*
G36*
X661Y7721D02*
X631Y7691D01*
X695Y7627D01*
X725Y7657D01*
X661Y7721D01*
D02*
G37*
G36*
X6436Y7349D02*
Y7300D01*
X6486D01*
X6483Y7312D01*
X6469Y7333D01*
X6448Y7347D01*
X6436Y7349D01*
D02*
G37*
G36*
X1229Y7751D02*
X1115Y7638D01*
X1271Y7482D01*
X1385Y7595D01*
X1229Y7751D01*
D02*
G37*
G36*
X743Y7639D02*
X713Y7609D01*
X776Y7545D01*
X807Y7576D01*
X743Y7639D01*
D02*
G37*
G36*
X737Y8352D02*
X660D01*
Y8288D01*
X737D01*
Y8352D01*
D02*
G37*
G36*
X838D02*
X762D01*
Y8288D01*
X838D01*
Y8352D01*
D02*
G37*
G36*
X3284Y8607D02*
X3222D01*
Y8344D01*
X3284D01*
Y8607D01*
D02*
G37*
G36*
X1072Y8933D02*
X904D01*
Y8791D01*
X1072D01*
X1072Y8791D01*
Y8791D01*
X1090Y8799D01*
X1293Y8595D01*
X1259Y8561D01*
X1641Y8178D01*
X1740Y8278D01*
X1358Y8660D01*
X1341Y8643D01*
X1098Y8886D01*
X1087Y8893D01*
X1074Y8896D01*
X1072D01*
Y8933D01*
D02*
G37*
G36*
X2855Y8926D02*
X2713D01*
Y8758D01*
X2750D01*
Y8602D01*
X2719D01*
Y8061D01*
X2859D01*
Y8602D01*
X2818D01*
Y8758D01*
X2855D01*
Y8926D01*
D02*
G37*
G36*
X3594Y8875D02*
X3452D01*
Y8707D01*
X3489D01*
Y8602D01*
X3481D01*
Y8061D01*
X3621D01*
Y8602D01*
X3557D01*
Y8707D01*
X3594D01*
Y8875D01*
D02*
G37*
G36*
X1538Y8840D02*
X1438Y8740D01*
X1788Y8390D01*
Y8228D01*
X1782Y8223D01*
X1768Y8206D01*
X1760Y8185D01*
X1757Y8164D01*
X1760Y8142D01*
X1768Y8121D01*
X1782Y8104D01*
X1799Y8090D01*
X1820Y8082D01*
X1842Y8079D01*
X1863Y8082D01*
X1884Y8090D01*
X1901Y8104D01*
X1915Y8121D01*
X1923Y8142D01*
X1926Y8164D01*
X1923Y8185D01*
X1915Y8206D01*
X1901Y8223D01*
X1895Y8228D01*
Y8432D01*
X1920Y8457D01*
X1538Y8840D01*
D02*
G37*
G36*
X5509Y6965D02*
X5421D01*
X5423Y6951D01*
X5433Y6926D01*
X5449Y6905D01*
X5471Y6889D01*
X5495Y6878D01*
X5509Y6877D01*
Y6965D01*
D02*
G37*
G36*
X5623D02*
X5535D01*
Y6877D01*
X5548Y6878D01*
X5573Y6889D01*
X5594Y6905D01*
X5611Y6926D01*
X5621Y6951D01*
X5623Y6965D01*
D02*
G37*
G36*
X5509Y7078D02*
X5495Y7076D01*
X5471Y7066D01*
X5449Y7050D01*
X5433Y7029D01*
X5423Y7004D01*
X5421Y6990D01*
X5509D01*
Y7078D01*
D02*
G37*
G36*
X4461Y7172D02*
X4241D01*
X4131Y7062D01*
Y6842D01*
X4241Y6732D01*
X4461D01*
X4571Y6842D01*
Y7062D01*
X4461Y7172D01*
D02*
G37*
G36*
X2634Y7136D02*
X2612Y7133D01*
X2592Y7124D01*
X2574Y7111D01*
X2561Y7093D01*
X2552Y7073D01*
X2549Y7051D01*
X2552Y7029D01*
X2561Y7009D01*
X2570Y6997D01*
X2313Y6740D01*
X2306Y6729D01*
X2303Y6716D01*
Y6640D01*
X2306Y6627D01*
X2313Y6616D01*
X2313Y6616D01*
X2313Y6616D01*
X2412Y6517D01*
X2412Y6517D01*
X2412D01*
X2412Y6517D01*
X2412D01*
X2412Y6517D01*
Y6517D01*
Y6517D01*
D01*
D01*
X2412D01*
Y6517D01*
X2423Y6509D01*
X2436Y6507D01*
X3334D01*
X3395Y6446D01*
X3406Y6438D01*
X3419Y6436D01*
X3792D01*
X3795Y6427D01*
X3809Y6410D01*
X3826Y6396D01*
X3847Y6388D01*
X3868Y6385D01*
X3890Y6388D01*
X3911Y6396D01*
X3928Y6410D01*
X3942Y6427D01*
X3950Y6447D01*
X3953Y6469D01*
X3950Y6491D01*
X3942Y6512D01*
X3928Y6529D01*
X3911Y6543D01*
X3890Y6551D01*
X3868Y6554D01*
X3847Y6551D01*
X3826Y6543D01*
X3809Y6529D01*
X3795Y6512D01*
X3792Y6503D01*
X3433D01*
X3372Y6564D01*
X3361Y6572D01*
X3348Y6574D01*
X2663D01*
X2661Y6580D01*
X2676Y6601D01*
X3953D01*
X3954Y6592D01*
X3963Y6572D01*
X3976Y6554D01*
X3994Y6541D01*
X4014Y6532D01*
X4036Y6530D01*
X4058Y6532D01*
X4078Y6541D01*
X4096Y6554D01*
X4109Y6572D01*
X4118Y6592D01*
X4121Y6614D01*
X4118Y6636D01*
X4109Y6656D01*
X4096Y6674D01*
X4078Y6687D01*
X4058Y6696D01*
X4036Y6699D01*
X4014Y6696D01*
X3994Y6687D01*
X3976Y6674D01*
X3972Y6668D01*
X2685D01*
X2683Y6684D01*
X2674Y6705D01*
X2661Y6722D01*
X2643Y6736D01*
X2623Y6744D01*
X2601Y6747D01*
X2579Y6744D01*
X2559Y6736D01*
X2541Y6722D01*
X2528Y6705D01*
X2519Y6684D01*
X2516Y6662D01*
X2519Y6641D01*
X2528Y6620D01*
X2541Y6603D01*
X2547Y6598D01*
X2539Y6574D01*
X2450D01*
X2370Y6654D01*
Y6702D01*
X2635Y6967D01*
X2656Y6969D01*
X2676Y6978D01*
X2694Y6991D01*
X2707Y7009D01*
X2716Y7029D01*
X2719Y7051D01*
X2716Y7073D01*
X2707Y7093D01*
X2694Y7111D01*
X2676Y7124D01*
X2656Y7133D01*
X2634Y7136D01*
D02*
G37*
G36*
X2027Y6628D02*
X2015Y6626D01*
X1994Y6612D01*
X1980Y6591D01*
X1977Y6579D01*
X2027D01*
Y6628D01*
D02*
G37*
G36*
X2052D02*
Y6579D01*
X2102D01*
X2099Y6591D01*
X2085Y6612D01*
X2064Y6626D01*
X2052Y6628D01*
D02*
G37*
G36*
X6411Y7275D02*
X6361D01*
X6364Y7262D01*
X6378Y7241D01*
X6399Y7227D01*
X6411Y7225D01*
Y7275D01*
D02*
G37*
G36*
X6486D02*
X6436D01*
Y7225D01*
X6448Y7227D01*
X6469Y7241D01*
X6483Y7262D01*
X6486Y7275D01*
D02*
G37*
G36*
X6411Y7349D02*
X6399Y7347D01*
X6378Y7333D01*
X6364Y7312D01*
X6361Y7300D01*
X6411D01*
Y7349D01*
D02*
G37*
G36*
X904Y7426D02*
X790Y7313D01*
X946Y7157D01*
X1060Y7270D01*
X904Y7426D01*
D02*
G37*
G36*
X5535Y7078D02*
Y6990D01*
X5623D01*
X5621Y7004D01*
X5611Y7029D01*
X5594Y7050D01*
X5573Y7066D01*
X5548Y7076D01*
X5535Y7078D01*
D02*
G37*
G36*
X1862Y7224D02*
X1840Y7222D01*
X1820Y7213D01*
X1802Y7200D01*
X1789Y7182D01*
X1780Y7162D01*
X1778Y7149D01*
X1753Y7145D01*
X1750Y7154D01*
X1736Y7172D01*
X1719Y7185D01*
X1698Y7194D01*
X1676Y7197D01*
X1655Y7194D01*
X1634Y7185D01*
X1617Y7172D01*
X1603Y7154D01*
X1595Y7134D01*
X1592Y7112D01*
X1595Y7090D01*
X1603Y7070D01*
X1617Y7052D01*
X1623Y7047D01*
Y5506D01*
X1606Y5499D01*
X1589Y5485D01*
X1575Y5468D01*
X1567Y5449D01*
X1542Y5454D01*
Y7005D01*
X1542Y7005D01*
X1540Y7018D01*
X1533Y7029D01*
X1465Y7097D01*
X1469Y7105D01*
X1471Y7127D01*
X1469Y7149D01*
X1460Y7170D01*
X1447Y7187D01*
X1429Y7200D01*
X1409Y7209D01*
X1387Y7212D01*
X1365Y7209D01*
X1345Y7200D01*
X1327Y7187D01*
X1314Y7170D01*
X1305Y7149D01*
X1302Y7127D01*
X1305Y7105D01*
X1314Y7085D01*
X1327Y7067D01*
X1345Y7054D01*
X1365Y7046D01*
X1387Y7043D01*
X1409Y7046D01*
X1417Y7049D01*
X1475Y6991D01*
Y5218D01*
X1469Y5213D01*
X1456Y5196D01*
X1447Y5176D01*
X1445Y5154D01*
X1447Y5132D01*
X1456Y5111D01*
X1469Y5094D01*
X1487Y5080D01*
X1507Y5072D01*
X1529Y5069D01*
X1551Y5072D01*
X1571Y5080D01*
X1589Y5094D01*
X1602Y5111D01*
X1611Y5132D01*
X1614Y5154D01*
X1611Y5176D01*
X1602Y5196D01*
X1589Y5213D01*
X1571Y5227D01*
X1551Y5235D01*
X1542Y5236D01*
Y5397D01*
X1567Y5402D01*
X1575Y5383D01*
X1589Y5366D01*
X1606Y5352D01*
X1627Y5344D01*
X1648Y5341D01*
X1670Y5344D01*
X1691Y5352D01*
X1708Y5366D01*
X1722Y5383D01*
X1730Y5404D01*
X1733Y5425D01*
X1730Y5447D01*
X1729Y5449D01*
Y7047D01*
X1736Y7052D01*
X1750Y7070D01*
X1758Y7090D01*
X1760Y7103D01*
X1785Y7106D01*
X1789Y7098D01*
X1802Y7080D01*
X1809Y7075D01*
Y5447D01*
X1799Y5443D01*
X1782Y5429D01*
X1768Y5412D01*
X1760Y5391D01*
X1757Y5370D01*
X1760Y5348D01*
X1768Y5327D01*
X1782Y5310D01*
X1799Y5296D01*
X1820Y5288D01*
X1842Y5285D01*
X1863Y5288D01*
X1884Y5296D01*
X1901Y5310D01*
X1915Y5327D01*
X1923Y5348D01*
X1926Y5370D01*
X1923Y5391D01*
X1915Y5411D01*
Y7075D01*
X1922Y7080D01*
X1935Y7098D01*
X1943Y7118D01*
X1946Y7140D01*
X1943Y7162D01*
X1935Y7182D01*
X1922Y7200D01*
X1904Y7213D01*
X1884Y7222D01*
X1862Y7224D01*
D02*
G37*
G36*
X312Y7316D02*
X291Y7313D01*
X270Y7305D01*
X253Y7291D01*
X239Y7274D01*
X231Y7253D01*
X228Y7231D01*
X231Y7209D01*
X234Y7201D01*
X47Y7014D01*
X40Y7003D01*
X37Y6990D01*
Y6416D01*
X40Y6403D01*
X47Y6392D01*
X47Y6392D01*
X47Y6392D01*
X295Y6144D01*
X292Y6136D01*
X289Y6114D01*
X292Y6092D01*
X300Y6072D01*
X314Y6054D01*
X331Y6041D01*
X351Y6032D01*
X373Y6029D01*
X395Y6032D01*
X416Y6041D01*
X433Y6054D01*
X447Y6072D01*
X455Y6092D01*
X458Y6114D01*
X455Y6136D01*
X447Y6156D01*
X433Y6174D01*
X416Y6187D01*
X395Y6195D01*
X373Y6198D01*
X351Y6195D01*
X343Y6192D01*
X105Y6430D01*
Y6976D01*
X282Y7153D01*
X291Y7150D01*
X312Y7147D01*
X334Y7150D01*
X355Y7158D01*
X372Y7172D01*
X386Y7189D01*
X394Y7209D01*
X397Y7231D01*
X394Y7253D01*
X386Y7274D01*
X372Y7291D01*
X355Y7305D01*
X334Y7313D01*
X312Y7316D01*
D02*
G37*
G36*
X2657Y8829D02*
X2593D01*
Y8753D01*
X2657D01*
Y8829D01*
D02*
G37*
G36*
X1717Y9026D02*
X1673Y8982D01*
X1859Y8796D01*
X1903Y8841D01*
X1717Y9026D01*
D02*
G37*
G36*
X3307Y8880D02*
X3244D01*
Y8804D01*
X3307D01*
Y8880D01*
D02*
G37*
G36*
X2568Y8829D02*
X2504D01*
Y8753D01*
X2568D01*
Y8829D01*
D02*
G37*
G36*
X3396Y8778D02*
X3332D01*
Y8702D01*
X3396D01*
Y8778D01*
D02*
G37*
G36*
X1697Y9329D02*
X1554D01*
Y9162D01*
X1697D01*
Y9212D01*
X1737D01*
X1823Y9125D01*
X1797Y9099D01*
X2180Y8717D01*
X2279Y8817D01*
X1897Y9199D01*
X1871Y9173D01*
X1774Y9269D01*
X1764Y9277D01*
X1751Y9279D01*
X1697D01*
Y9329D01*
D02*
G37*
G36*
X1655Y8964D02*
X1611Y8920D01*
X1796Y8734D01*
X1841Y8778D01*
X1655Y8964D01*
D02*
G37*
G36*
X1499Y9233D02*
X1435D01*
Y9157D01*
X1499D01*
Y9233D01*
D02*
G37*
G36*
X1410Y9335D02*
X1346D01*
Y9258D01*
X1410D01*
Y9335D01*
D02*
G37*
G36*
X1499D02*
X1435D01*
Y9258D01*
X1499D01*
Y9335D01*
D02*
G37*
G36*
X1410Y9233D02*
X1346D01*
Y9157D01*
X1410D01*
Y9233D01*
D02*
G37*
G36*
X3396Y8880D02*
X3332D01*
Y8804D01*
X3396D01*
Y8880D01*
D02*
G37*
G36*
X2568Y8931D02*
X2504D01*
Y8854D01*
X2568D01*
Y8931D01*
D02*
G37*
G36*
X2657D02*
X2593D01*
Y8854D01*
X2657D01*
Y8931D01*
D02*
G37*
G36*
X714Y8646D02*
X638D01*
Y8583D01*
X714D01*
Y8646D01*
D02*
G37*
G36*
X815D02*
X739D01*
Y8583D01*
X815D01*
Y8646D01*
D02*
G37*
G36*
X975D02*
X899D01*
Y8583D01*
X975D01*
Y8646D01*
D02*
G37*
G36*
X1859Y8760D02*
X1814Y8716D01*
X2000Y8530D01*
X2044Y8575D01*
X1859Y8760D01*
D02*
G37*
G36*
X3372Y8607D02*
X3310D01*
Y8344D01*
X3372D01*
Y8607D01*
D02*
G37*
G36*
X539Y8475D02*
X276D01*
Y8412D01*
X539D01*
Y8475D01*
D02*
G37*
G36*
Y8563D02*
X276D01*
Y8500D01*
X539D01*
Y8563D01*
D02*
G37*
G36*
X975Y8735D02*
X899D01*
Y8672D01*
X975D01*
Y8735D01*
D02*
G37*
G36*
X1077D02*
X1001D01*
Y8672D01*
X1077D01*
Y8735D01*
D02*
G37*
G36*
X3307Y8778D02*
X3244D01*
Y8702D01*
X3307D01*
Y8778D01*
D02*
G37*
G36*
X815Y8735D02*
X739D01*
Y8672D01*
X815D01*
Y8735D01*
D02*
G37*
G36*
X1077Y8646D02*
X1001D01*
Y8583D01*
X1077D01*
Y8646D01*
D02*
G37*
G36*
X1921Y8823D02*
X1877Y8778D01*
X2062Y8593D01*
X2107Y8637D01*
X1921Y8823D01*
D02*
G37*
G36*
X714Y8735D02*
X638D01*
Y8672D01*
X714D01*
Y8735D01*
D02*
G37*
G36*
X2102Y6553D02*
X2052D01*
Y6504D01*
X2064Y6506D01*
X2085Y6520D01*
X2099Y6541D01*
X2102Y6553D01*
D02*
G37*
G36*
X2703Y5631D02*
X2626D01*
Y5568D01*
X2703D01*
Y5631D01*
D02*
G37*
G36*
X2804D02*
X2728D01*
Y5568D01*
X2804D01*
Y5631D01*
D02*
G37*
G36*
X1295Y6645D02*
X1274Y6642D01*
X1253Y6634D01*
X1236Y6621D01*
X1222Y6603D01*
X1214Y6583D01*
X1211Y6561D01*
X1214Y6539D01*
X1222Y6519D01*
X1236Y6501D01*
X1253Y6488D01*
X1262Y6484D01*
Y5751D01*
X1264Y5738D01*
X1265Y5736D01*
X1259Y5722D01*
X1257Y5700D01*
X1259Y5678D01*
X1268Y5657D01*
X1281Y5640D01*
X1299Y5627D01*
X1319Y5618D01*
X1341Y5615D01*
X1363Y5618D01*
X1383Y5627D01*
X1401Y5640D01*
X1414Y5657D01*
X1423Y5678D01*
X1426Y5700D01*
X1423Y5722D01*
X1414Y5742D01*
X1401Y5760D01*
X1383Y5773D01*
X1363Y5781D01*
X1341Y5784D01*
X1329Y5795D01*
Y6484D01*
X1338Y6488D01*
X1355Y6501D01*
X1369Y6519D01*
X1377Y6539D01*
X1380Y6561D01*
X1377Y6583D01*
X1369Y6603D01*
X1355Y6621D01*
X1338Y6634D01*
X1317Y6642D01*
X1295Y6645D01*
D02*
G37*
G36*
X2804Y5542D02*
X2728D01*
Y5479D01*
X2804D01*
Y5542D01*
D02*
G37*
G36*
X2431Y5629D02*
X2355D01*
Y5565D01*
X2431D01*
Y5629D01*
D02*
G37*
G36*
X2532D02*
X2456D01*
Y5565D01*
X2532D01*
Y5629D01*
D02*
G37*
G36*
X3543Y5667D02*
X3494D01*
X3496Y5655D01*
X3510Y5634D01*
X3531Y5620D01*
X3543Y5617D01*
Y5667D01*
D02*
G37*
G36*
X986Y5820D02*
X972Y5818D01*
X948Y5808D01*
X927Y5792D01*
X911Y5771D01*
X900Y5746D01*
X899Y5733D01*
X986D01*
Y5820D01*
D02*
G37*
G36*
X1011D02*
Y5733D01*
X1098D01*
X1096Y5746D01*
X1086Y5771D01*
X1070Y5792D01*
X1049Y5808D01*
X1024Y5818D01*
X1011Y5820D01*
D02*
G37*
G36*
X3190Y6457D02*
X2383D01*
X2364Y6455D01*
X2355Y6451D01*
X2347Y6448D01*
X2332Y6436D01*
X2027Y6131D01*
X2016Y6117D01*
X2011Y6104D01*
X2008Y6099D01*
X2006Y6081D01*
Y5625D01*
X1999Y5607D01*
X1996Y5585D01*
X1999Y5564D01*
X2007Y5543D01*
X2009Y5541D01*
Y5471D01*
X2011Y5453D01*
X2013Y5448D01*
X2018Y5435D01*
X2030Y5420D01*
X2075Y5375D01*
X1703Y5002D01*
X1369D01*
X1350Y4999D01*
X1345Y4997D01*
X1333Y4992D01*
X1318Y4981D01*
X1176Y4839D01*
X1165Y4824D01*
X1160Y4812D01*
X1158Y4806D01*
X1155Y4788D01*
Y3668D01*
X1158Y3649D01*
X1160Y3644D01*
X1165Y3632D01*
X1176Y3617D01*
X1806Y2987D01*
X1814Y2968D01*
X1827Y2950D01*
X1845Y2937D01*
X1865Y2928D01*
X1887Y2925D01*
X1909Y2928D01*
X1929Y2937D01*
X1947Y2950D01*
X1960Y2968D01*
X1963Y2974D01*
X2230Y3241D01*
X2241Y3256D01*
X2249Y3273D01*
X2251Y3292D01*
Y3982D01*
X2413D01*
X2418Y3983D01*
X2497D01*
Y3985D01*
X2705D01*
X2710Y3985D01*
X2789D01*
Y4128D01*
X2777D01*
Y4235D01*
X2794Y4252D01*
X2851D01*
Y4246D01*
X2933D01*
Y4220D01*
X2851D01*
Y4192D01*
X2856D01*
Y4132D01*
Y4067D01*
Y4002D01*
Y3937D01*
Y3872D01*
X2862D01*
Y3712D01*
X2777D01*
Y3720D01*
X2557D01*
Y3700D01*
X2552Y3699D01*
X2535Y3692D01*
X2520Y3680D01*
X2362Y3523D01*
X2351Y3508D01*
X2346Y3496D01*
X2344Y3491D01*
X2341Y3472D01*
Y3146D01*
X2329Y3130D01*
X2319Y3106D01*
X2316Y3081D01*
X2319Y3056D01*
X2329Y3032D01*
X2344Y3012D01*
X2364Y2997D01*
X2388Y2987D01*
X2413Y2984D01*
X2438Y2987D01*
X2462Y2997D01*
X2482Y3012D01*
X2497Y3032D01*
X2507Y3056D01*
X2510Y3081D01*
X2507Y3106D01*
X2497Y3130D01*
X2485Y3146D01*
Y3442D01*
X2582Y3539D01*
X2777D01*
Y3568D01*
X2885D01*
Y3533D01*
X3053D01*
Y3675D01*
X3005D01*
Y3836D01*
X3161D01*
X3180Y3839D01*
X3185Y3841D01*
X3197Y3846D01*
X3212Y3857D01*
X3396Y4041D01*
X3407Y4055D01*
X3417Y4052D01*
X3431Y4046D01*
Y3697D01*
X3082Y3348D01*
X3058Y3357D01*
Y3388D01*
X2982D01*
Y3325D01*
X3026D01*
X3035Y3301D01*
X3009Y3275D01*
X2913D01*
X2900Y3272D01*
X2890Y3265D01*
X2493Y2868D01*
X1782D01*
X1019Y3631D01*
Y4935D01*
X1017Y4948D01*
X1009Y4959D01*
X843Y5126D01*
X846Y5134D01*
X849Y5156D01*
X846Y5178D01*
X838Y5198D01*
X824Y5216D01*
X807Y5229D01*
X786Y5238D01*
X765Y5241D01*
X743Y5238D01*
X722Y5229D01*
X705Y5216D01*
X691Y5198D01*
X683Y5178D01*
X680Y5156D01*
X683Y5134D01*
X691Y5114D01*
X705Y5096D01*
X722Y5083D01*
X743Y5075D01*
X765Y5072D01*
X786Y5075D01*
X795Y5078D01*
X952Y4921D01*
Y3617D01*
X954Y3604D01*
X962Y3593D01*
X962Y3593D01*
X962Y3593D01*
X1744Y2811D01*
X1755Y2804D01*
X1768Y2801D01*
X2507D01*
X2520Y2804D01*
X2531Y2811D01*
X2531Y2811D01*
X2531Y2811D01*
X2677Y2957D01*
X2696Y2940D01*
D01*
X2696Y2940D01*
X2690Y2933D01*
X2682Y2912D01*
X2679Y2891D01*
X2682Y2869D01*
X2690Y2848D01*
X2704Y2831D01*
X2721Y2817D01*
X2742Y2809D01*
X2764Y2806D01*
X2785Y2809D01*
X2806Y2817D01*
X2823Y2831D01*
X2837Y2848D01*
X2845Y2869D01*
X2848Y2891D01*
X2847Y2899D01*
X3041Y3093D01*
X3188D01*
X3198Y3070D01*
X2836Y2707D01*
X1952D01*
X1947Y2714D01*
X1929Y2728D01*
X1909Y2736D01*
X1887Y2739D01*
X1865Y2736D01*
X1845Y2728D01*
X1827Y2714D01*
X1814Y2697D01*
X1806Y2676D01*
X1803Y2654D01*
X1806Y2632D01*
X1814Y2612D01*
X1827Y2595D01*
X1845Y2581D01*
X1865Y2573D01*
X1887Y2570D01*
X1909Y2573D01*
X1929Y2581D01*
X1947Y2595D01*
X1952Y2601D01*
X2857D01*
X2858Y2601D01*
X2878Y2605D01*
X2895Y2617D01*
X2931Y2653D01*
X2954Y2641D01*
X2952Y2631D01*
X2952Y2631D01*
Y2516D01*
X2787Y2352D01*
X2779Y2353D01*
X2757Y2350D01*
X2736Y2341D01*
X2719Y2328D01*
X2706Y2310D01*
X2697Y2290D01*
X2694Y2268D01*
X2697Y2246D01*
X2706Y2226D01*
X2719Y2208D01*
X2736Y2195D01*
X2757Y2187D01*
X2779Y2184D01*
X2801Y2187D01*
X2821Y2195D01*
X2839Y2208D01*
X2852Y2226D01*
X2860Y2246D01*
X2863Y2268D01*
X2862Y2277D01*
X3042Y2457D01*
X3054Y2474D01*
X3058Y2494D01*
Y2609D01*
X3342Y2893D01*
X3576D01*
Y2859D01*
X3782D01*
Y2902D01*
X3777D01*
Y2996D01*
Y3096D01*
Y3197D01*
X3693D01*
X3679Y3200D01*
X3404D01*
Y3352D01*
X3214D01*
X3204Y3375D01*
X3488Y3659D01*
X3496Y3670D01*
X3498Y3683D01*
X3498Y3683D01*
X3498Y3683D01*
Y3683D01*
Y4696D01*
X3496Y4709D01*
X3488Y4720D01*
X3389Y4819D01*
X3378Y4827D01*
X3365Y4829D01*
X3319D01*
X3314Y4838D01*
X3294Y4851D01*
X3272Y4855D01*
X3267Y4854D01*
X3256Y4877D01*
X3483Y5104D01*
X3491Y5115D01*
X3493Y5128D01*
Y5563D01*
X3491Y5575D01*
X3483Y5586D01*
X3100Y5970D01*
X3089Y5977D01*
X3076Y5980D01*
X2964D01*
X2958Y5988D01*
X2939Y6001D01*
X2916Y6006D01*
X2893Y6001D01*
X2874Y5988D01*
X2870Y5983D01*
X2863Y5985D01*
D01*
X2847Y5990D01*
D01*
X2846Y5990D01*
Y6055D01*
X2743D01*
Y5973D01*
X2842D01*
D01*
X2849Y5964D01*
X2849Y5964D01*
X2858Y5953D01*
X2856Y5946D01*
X2861Y5923D01*
X2874Y5904D01*
X2893Y5891D01*
X2916Y5887D01*
X2939Y5891D01*
X2958Y5904D01*
X2964Y5912D01*
X3062D01*
X3414Y5561D01*
X3409Y5536D01*
X3402Y5533D01*
X3180Y5756D01*
X3165Y5767D01*
X3153Y5772D01*
X3148Y5774D01*
X3129Y5777D01*
X2948D01*
X2916Y5809D01*
X2901Y5820D01*
X2889Y5825D01*
X2884Y5827D01*
X2865Y5830D01*
X2841D01*
Y5849D01*
X2620D01*
Y5830D01*
X2530D01*
Y5850D01*
X2451D01*
X2446Y5850D01*
X2441Y5850D01*
X2362D01*
Y5707D01*
X2416D01*
X2430Y5696D01*
X2443Y5691D01*
X2448Y5689D01*
X2466Y5686D01*
X2620D01*
Y5668D01*
X2841D01*
D01*
Y5668D01*
X2856Y5632D01*
Y5619D01*
Y5554D01*
Y5489D01*
Y5427D01*
X2719D01*
X2700Y5425D01*
X2698Y5424D01*
X2446D01*
X2427Y5421D01*
X2427Y5421D01*
X2231D01*
X2228Y5425D01*
X2152Y5501D01*
Y5541D01*
X2153Y5543D01*
X2162Y5564D01*
X2165Y5585D01*
X2162Y5607D01*
X2153Y5628D01*
X2149Y5633D01*
Y6051D01*
X2412Y6314D01*
X3161D01*
X3485Y5989D01*
X3500Y5978D01*
D01*
D01*
Y5978D01*
X3500Y5978D01*
D01*
D01*
X3500D01*
Y5978D01*
D01*
X3500D01*
Y5978D01*
X3517Y5971D01*
X3536Y5968D01*
X3884D01*
X4016Y5837D01*
X4031Y5826D01*
X4043Y5821D01*
X4048Y5818D01*
X4067Y5816D01*
X4292D01*
X4294Y5815D01*
X4314Y5806D01*
X4336Y5803D01*
X4358Y5806D01*
X4378Y5815D01*
X4396Y5828D01*
X4409Y5845D01*
X4417Y5866D01*
X4420Y5888D01*
X4417Y5910D01*
X4409Y5930D01*
X4396Y5948D01*
X4378Y5961D01*
X4358Y5969D01*
X4336Y5972D01*
X4314Y5969D01*
X4294Y5961D01*
X4292Y5959D01*
X4096D01*
X3965Y6091D01*
X3950Y6102D01*
X3938Y6107D01*
X3933Y6109D01*
X3914Y6112D01*
X3565D01*
X3241Y6436D01*
X3226Y6448D01*
X3214Y6453D01*
X3209Y6455D01*
X3190Y6457D01*
D02*
G37*
G36*
X986Y5707D02*
X899D01*
X900Y5694D01*
X911Y5669D01*
X927Y5648D01*
X948Y5632D01*
X972Y5622D01*
X986Y5620D01*
Y5707D01*
D02*
G37*
G36*
X1098D02*
X1011D01*
Y5620D01*
X1024Y5622D01*
X1049Y5632D01*
X1070Y5648D01*
X1086Y5669D01*
X1096Y5694D01*
X1098Y5707D01*
D02*
G37*
G36*
X3543Y5742D02*
X3531Y5739D01*
X3510Y5725D01*
X3496Y5704D01*
X3494Y5692D01*
X3543D01*
Y5742D01*
D02*
G37*
G36*
X6641Y5420D02*
X6384Y5365D01*
X6397Y5304D01*
X6654Y5359D01*
X6641Y5420D01*
D02*
G37*
G36*
X5159Y5370D02*
X5109D01*
X5112Y5357D01*
X5126Y5336D01*
X5147Y5322D01*
X5159Y5320D01*
Y5370D01*
D02*
G37*
G36*
X5234D02*
X5184D01*
Y5320D01*
X5196Y5322D01*
X5217Y5336D01*
X5231Y5357D01*
X5234Y5370D01*
D02*
G37*
G36*
X6359Y5360D02*
X6102Y5305D01*
X6115Y5244D01*
X6372Y5299D01*
X6359Y5360D01*
D02*
G37*
G36*
X5956Y5324D02*
X5880D01*
Y5260D01*
X5956D01*
Y5324D01*
D02*
G37*
G36*
X6058D02*
X5982D01*
Y5260D01*
X6058D01*
Y5324D01*
D02*
G37*
G36*
X998Y5562D02*
X973Y5559D01*
X950Y5549D01*
X930Y5534D01*
X915Y5514D01*
X905Y5491D01*
X902Y5466D01*
X905Y5441D01*
X915Y5418D01*
X930Y5398D01*
X950Y5383D01*
X973Y5373D01*
X998Y5370D01*
X1023Y5373D01*
X1046Y5383D01*
X1066Y5398D01*
X1081Y5418D01*
X1091Y5441D01*
X1094Y5466D01*
X1091Y5491D01*
X1081Y5514D01*
X1066Y5534D01*
X1046Y5549D01*
X1023Y5559D01*
X998Y5562D01*
D02*
G37*
G36*
X2431Y5540D02*
X2355D01*
Y5476D01*
X2431D01*
Y5540D01*
D02*
G37*
G36*
X2532D02*
X2456D01*
Y5476D01*
X2532D01*
Y5540D01*
D02*
G37*
G36*
X2703Y5542D02*
X2626D01*
Y5479D01*
X2703D01*
Y5542D01*
D02*
G37*
G36*
X5159Y5444D02*
X5147Y5442D01*
X5126Y5428D01*
X5112Y5407D01*
X5109Y5395D01*
X5159D01*
Y5444D01*
D02*
G37*
G36*
X5184D02*
Y5395D01*
X5234D01*
X5231Y5407D01*
X5217Y5428D01*
X5196Y5442D01*
X5184Y5444D01*
D02*
G37*
G36*
X4749Y5575D02*
X4528D01*
Y5415D01*
X4749D01*
Y5575D01*
D02*
G37*
G36*
X6830Y5966D02*
X6662D01*
Y5859D01*
X6654Y5850D01*
X6544D01*
X6532Y5911D01*
X6003Y5798D01*
X6032Y5661D01*
X6561Y5773D01*
Y5773D01*
X6569Y5783D01*
X6668D01*
X6680Y5785D01*
X6691Y5793D01*
X6691Y5793D01*
X6691Y5793D01*
X6723Y5824D01*
X6830D01*
Y5966D01*
D02*
G37*
G36*
X6835Y6175D02*
X6759D01*
Y6111D01*
X6835D01*
Y6175D01*
D02*
G37*
G36*
X4461Y6570D02*
X4241D01*
X4131Y6460D01*
Y6240D01*
X4241Y6130D01*
X4461D01*
X4571Y6240D01*
Y6460D01*
X4461Y6570D01*
D02*
G37*
G36*
X2451Y6224D02*
X2439Y6222D01*
X2418Y6208D01*
X2404Y6187D01*
X2402Y6175D01*
X2451D01*
Y6224D01*
D02*
G37*
G36*
Y6149D02*
X2402D01*
X2404Y6137D01*
X2418Y6116D01*
X2439Y6102D01*
X2451Y6100D01*
Y6149D01*
D02*
G37*
G36*
X2526D02*
X2476D01*
Y6100D01*
X2489Y6102D01*
X2510Y6116D01*
X2524Y6137D01*
X2526Y6149D01*
D02*
G37*
G36*
X6734Y6175D02*
X6657D01*
Y6111D01*
X6734D01*
Y6175D01*
D02*
G37*
G36*
X2476Y6224D02*
Y6175D01*
X2526D01*
X2524Y6187D01*
X2510Y6208D01*
X2489Y6222D01*
X2476Y6224D01*
D02*
G37*
G36*
X2045Y6336D02*
Y6287D01*
X2094D01*
X2092Y6299D01*
X2078Y6320D01*
X2057Y6334D01*
X2045Y6336D01*
D02*
G37*
G36*
X461Y6921D02*
X240D01*
X130Y6811D01*
Y6590D01*
X240Y6480D01*
X461D01*
X571Y6590D01*
Y6811D01*
X461Y6921D01*
D02*
G37*
G36*
X2027Y6553D02*
X1977D01*
X1980Y6541D01*
X1994Y6520D01*
X2015Y6506D01*
X2027Y6504D01*
Y6553D01*
D02*
G37*
G36*
X2019Y6261D02*
X1970D01*
X1972Y6249D01*
X1986Y6228D01*
X2007Y6214D01*
X2019Y6212D01*
Y6261D01*
D02*
G37*
G36*
X2094D02*
X2045D01*
Y6212D01*
X2057Y6214D01*
X2078Y6228D01*
X2092Y6249D01*
X2094Y6261D01*
D02*
G37*
G36*
X2019Y6336D02*
X2007Y6334D01*
X1986Y6320D01*
X1972Y6299D01*
X1970Y6287D01*
X2019D01*
Y6336D01*
D02*
G37*
G36*
X2718Y6055D02*
X2615D01*
Y5973D01*
X2718D01*
Y6055D01*
D02*
G37*
G36*
X2433Y6058D02*
X2357D01*
Y5994D01*
X2433D01*
Y6058D01*
D02*
G37*
G36*
X2535D02*
X2459D01*
Y5994D01*
X2535D01*
Y6058D01*
D02*
G37*
G36*
X1094Y6069D02*
X903D01*
Y5879D01*
X1094D01*
Y6069D01*
D02*
G37*
G36*
X2433Y5969D02*
X2357D01*
Y5906D01*
X2433D01*
Y5969D01*
D02*
G37*
G36*
X2535D02*
X2459D01*
Y5906D01*
X2535D01*
Y5969D01*
D02*
G37*
G36*
X2718Y6164D02*
X2615D01*
Y6081D01*
X2718D01*
Y6164D01*
D02*
G37*
G36*
X2846D02*
X2743D01*
Y6081D01*
X2846D01*
Y6164D01*
D02*
G37*
G36*
X6835Y6086D02*
X6759D01*
Y6022D01*
X6835D01*
Y6086D01*
D02*
G37*
G36*
X6734D02*
X6657D01*
Y6022D01*
X6734D01*
Y6086D01*
D02*
G37*
%LPD*%
G36*
X2851Y5277D02*
X2933D01*
Y5251D01*
X2851D01*
Y5233D01*
X2674D01*
X2661Y5230D01*
X2650Y5223D01*
X2196Y4768D01*
X1740D01*
X1727Y4766D01*
X1716Y4758D01*
X1626Y4668D01*
X1617Y4671D01*
X1595Y4674D01*
X1573Y4671D01*
X1553Y4663D01*
X1535Y4650D01*
X1522Y4632D01*
X1513Y4612D01*
X1511Y4590D01*
X1513Y4568D01*
X1522Y4548D01*
X1535Y4530D01*
X1553Y4517D01*
X1573Y4508D01*
X1595Y4505D01*
X1617Y4508D01*
X1637Y4517D01*
X1655Y4530D01*
X1668Y4548D01*
X1677Y4568D01*
X1680Y4590D01*
X1677Y4612D01*
X1673Y4620D01*
X1752Y4699D01*
X1776Y4692D01*
X1780Y4676D01*
X1779Y4676D01*
X1761Y4662D01*
X1748Y4645D01*
X1740Y4624D01*
X1737Y4602D01*
X1740Y4581D01*
X1748Y4560D01*
X1761Y4543D01*
X1779Y4529D01*
X1799Y4521D01*
X1821Y4518D01*
X1843Y4521D01*
X1863Y4529D01*
X1881Y4543D01*
X1894Y4560D01*
X1895Y4561D01*
X2153D01*
X2166Y4564D01*
X2177Y4571D01*
X2177Y4571D01*
X2177Y4571D01*
X2706Y5100D01*
X2749D01*
X2759Y5077D01*
X2738Y5068D01*
D01*
X2715Y5064D01*
X2696Y5051D01*
X2683Y5032D01*
X2679Y5009D01*
X2683Y4986D01*
X2696Y4967D01*
X2715Y4954D01*
X2732Y4951D01*
X2739Y4926D01*
X2682Y4869D01*
X2671Y4854D01*
X2666Y4842D01*
X2664Y4837D01*
X2661Y4818D01*
Y4762D01*
X2664Y4744D01*
X2666Y4739D01*
X2671Y4727D01*
X2682Y4712D01*
X2729Y4665D01*
X2722Y4641D01*
X2718Y4640D01*
X2699Y4627D01*
X2686Y4607D01*
X2681Y4585D01*
X2686Y4562D01*
X2695Y4548D01*
X2685Y4525D01*
X2680Y4524D01*
X2669Y4517D01*
X2648Y4496D01*
X2233D01*
X2220Y4494D01*
X2209Y4487D01*
X1739Y4017D01*
X1732Y4006D01*
X1729Y3993D01*
Y3667D01*
X1718Y3662D01*
X1700Y3649D01*
X1687Y3631D01*
X1679Y3611D01*
X1676Y3589D01*
X1679Y3567D01*
X1687Y3547D01*
X1700Y3529D01*
X1718Y3516D01*
X1738Y3507D01*
X1748Y3506D01*
X1750Y3505D01*
X1763Y3502D01*
X1776Y3505D01*
X1779Y3507D01*
X1782Y3507D01*
X1802Y3516D01*
X1820Y3529D01*
X1833Y3547D01*
X1842Y3567D01*
X1845Y3589D01*
X1842Y3611D01*
X1833Y3631D01*
X1820Y3649D01*
X1802Y3662D01*
X1796Y3665D01*
Y3979D01*
X1921Y4103D01*
X1943Y4092D01*
X1942Y4087D01*
Y3724D01*
X1945Y3711D01*
X1952Y3700D01*
X1954Y3698D01*
X1950Y3690D01*
X1947Y3668D01*
X1950Y3646D01*
X1959Y3625D01*
X1972Y3608D01*
X1990Y3595D01*
X2010Y3586D01*
X2032Y3583D01*
X2054Y3586D01*
X2074Y3595D01*
X2085Y3603D01*
X2108Y3591D01*
Y3322D01*
X1976Y3190D01*
X1953Y3202D01*
X1955Y3208D01*
X1830D01*
X1832Y3198D01*
X1810Y3186D01*
X1606Y3390D01*
X1614Y3414D01*
X1630Y3417D01*
X1651Y3431D01*
X1665Y3452D01*
X1667Y3465D01*
X1605D01*
Y3477D01*
X1593D01*
Y3539D01*
X1581Y3537D01*
X1559Y3523D01*
X1545Y3502D01*
X1542Y3486D01*
X1518Y3478D01*
X1299Y3697D01*
Y4758D01*
X1399Y4858D01*
X1732D01*
X1751Y4861D01*
X1756Y4863D01*
X1768Y4868D01*
X1783Y4879D01*
X2184Y5280D01*
X2184Y5280D01*
X2202Y5278D01*
X2443D01*
X2448Y5278D01*
X2527D01*
Y5280D01*
X2715D01*
X2720Y5281D01*
X2799D01*
Y5284D01*
X2851D01*
Y5277D01*
D02*
G37*
G36*
X2635Y4280D02*
X2633Y4265D01*
Y4128D01*
X2416D01*
X2397Y4126D01*
X2397Y4126D01*
X2179D01*
X2161Y4123D01*
X2143Y4116D01*
X2129Y4105D01*
X2117Y4090D01*
X2110Y4072D01*
X2108Y4054D01*
Y3744D01*
X2085Y3733D01*
X2074Y3741D01*
X2054Y3749D01*
X2032Y3752D01*
X2029Y3752D01*
X2010Y3769D01*
Y4073D01*
X2236Y4300D01*
X2619D01*
X2635Y4280D01*
D02*
G37*
G36*
X3213Y4800D02*
X3212Y4796D01*
X3216Y4773D01*
X3229Y4753D01*
X3249Y4740D01*
X3272Y4736D01*
X3294Y4740D01*
X3314Y4753D01*
X3319Y4762D01*
X3352D01*
X3431Y4683D01*
Y4496D01*
X3417Y4490D01*
X3407Y4487D01*
X3396Y4501D01*
X3197Y4700D01*
X3182Y4711D01*
X3170Y4716D01*
X3165Y4718D01*
X3146Y4721D01*
X3128D01*
X3121Y4745D01*
X3130Y4751D01*
X3190Y4812D01*
X3213Y4800D01*
D02*
G37*
%LPC*%
G36*
X1618Y3539D02*
Y3490D01*
X1667D01*
X1665Y3502D01*
X1651Y3523D01*
X1630Y3537D01*
X1618Y3539D01*
D02*
G37*
G36*
X1880Y3283D02*
X1868Y3281D01*
X1847Y3267D01*
X1832Y3245D01*
X1830Y3233D01*
X1880D01*
Y3283D01*
D02*
G37*
G36*
X1905D02*
Y3233D01*
X1955D01*
X1952Y3245D01*
X1938Y3267D01*
X1917Y3281D01*
X1905Y3283D01*
D02*
G37*
%LPD*%
D13*
X2969Y3401D02*
D03*
Y3604D02*
D03*
X2705Y3853D02*
D03*
Y4056D02*
D03*
X2413Y3851D02*
D03*
Y4054D02*
D03*
X2715Y5555D02*
D03*
Y5352D02*
D03*
X2446Y5982D02*
D03*
Y5778D02*
D03*
X2443Y5552D02*
D03*
Y5349D02*
D03*
X988Y8862D02*
D03*
Y8659D02*
D03*
X1097Y965D02*
D03*
Y762D02*
D03*
X6759Y3348D02*
D03*
Y3551D02*
D03*
X6746Y5895D02*
D03*
Y6099D02*
D03*
X5845Y4420D02*
D03*
Y4216D02*
D03*
X726Y8862D02*
D03*
Y8659D02*
D03*
X5969Y5044D02*
D03*
Y5248D02*
D03*
X803Y970D02*
D03*
Y767D02*
D03*
X749Y8072D02*
D03*
Y8275D02*
D03*
D14*
X1626Y9246D02*
D03*
X1422D02*
D03*
X241Y2118D02*
D03*
X445D02*
D03*
X3231Y820D02*
D03*
X3028D02*
D03*
X2784Y8842D02*
D03*
X2581D02*
D03*
X3523Y8791D02*
D03*
X3320D02*
D03*
X1542Y422D02*
D03*
X1339D02*
D03*
X2591Y714D02*
D03*
X2794D02*
D03*
D26*
X2893Y4775D02*
X3106D01*
X4260Y2337D02*
X4440D01*
X4559Y2062D02*
Y2217D01*
X4440Y2337D02*
X4559Y2217D01*
X4460Y1963D02*
X4559Y2062D01*
X3927Y1963D02*
X4460D01*
X3548Y2342D02*
X3927Y1963D01*
X3269Y2342D02*
X3548D01*
X845Y1723D02*
X1003Y1882D01*
X845Y1695D02*
Y1723D01*
X3106Y4775D02*
X3459Y5128D01*
Y5563D01*
X3076Y5946D02*
X3459Y5563D01*
X2916Y5946D02*
X3076D01*
X2741Y4585D02*
X2768Y4558D01*
X1763Y3536D02*
Y3993D01*
X2233Y4463D01*
X2662D01*
X1976Y4087D02*
X2223Y4333D01*
X2624D01*
X1250Y7894D02*
X1278D01*
X972Y7617D02*
X1250Y7894D01*
X925Y7617D02*
X972D01*
X814Y7728D02*
X925Y7617D01*
X1542Y422D02*
Y500D01*
X1234Y422D02*
X1339D01*
X3465Y3683D02*
Y4696D01*
X3365Y4796D02*
X3465Y4696D01*
X3272Y4796D02*
X3365D01*
X3023Y3241D02*
X3465Y3683D01*
X3866Y4765D02*
X3868Y4762D01*
X4270D01*
X4884Y4148D01*
Y4013D02*
Y4148D01*
X4663Y3792D02*
X4884Y4013D01*
X3767Y3792D02*
X4663D01*
X2957Y2029D02*
X3269Y2342D01*
X2126Y2029D02*
X2957D01*
X620Y3536D02*
X2126Y2029D01*
X620Y3536D02*
Y4905D01*
X2913Y3241D02*
X3023D01*
X2507Y2835D02*
X2913Y3241D01*
X1768Y2835D02*
X2507D01*
X986Y3617D02*
X1768Y2835D01*
X986Y3617D02*
Y4935D01*
X765Y5156D02*
X986Y4935D01*
X71Y6416D02*
X373Y6114D01*
X71Y6990D02*
X312Y7231D01*
X71Y6416D02*
Y6990D01*
X4216Y5099D02*
Y5156D01*
X4229D01*
Y5103D02*
Y5156D01*
Y5103D02*
X4251Y5081D01*
X4216Y5099D02*
X4235Y5081D01*
X4251Y5065D01*
Y5081D01*
Y5165D01*
X2933Y4168D02*
X2945Y4180D01*
X2933Y4493D02*
X2945Y4481D01*
X2933Y4038D02*
X2945Y4050D01*
X2945Y4546D02*
X3105D01*
X2945Y4050D02*
X3125D01*
X2945Y4481D02*
X3071D01*
X3178Y4374D01*
X2945Y4115D02*
X3099D01*
X3178Y4194D01*
Y4374D01*
X2942Y4420D02*
X3045D01*
X2945Y4180D02*
X3080D01*
X2933Y5459D02*
X3065D01*
X3142Y5382D01*
X2933Y5199D02*
X3053D01*
X3142Y5288D01*
Y5382D01*
X2933Y5524D02*
X2945Y5512D01*
X3193Y5267D02*
Y5403D01*
X3071Y5146D02*
X3193Y5267D01*
X2945Y5146D02*
X3071D01*
X2945Y5512D02*
X3084D01*
X3193Y5403D01*
X2933Y5134D02*
X2945Y5146D01*
X2933Y5069D02*
X2945Y5081D01*
X3244Y5246D02*
Y5424D01*
X3091Y5577D02*
X3244Y5424D01*
X2945Y5577D02*
X3091D01*
X2945Y5081D02*
X3078D01*
X3244Y5246D01*
X264Y7980D02*
X657D01*
X749Y8072D01*
X264Y8742D02*
X384Y8862D01*
X726D01*
X988D02*
X1074D01*
X1499Y8437D01*
Y8419D02*
Y8437D01*
X1626Y9246D02*
X1751D01*
X2038Y8958D01*
X726Y8659D02*
X749Y8636D01*
X264Y8488D02*
X740D01*
X749Y8479D01*
Y8636D01*
X2784Y8337D02*
Y8842D01*
Y8337D02*
X2789Y8332D01*
X3320Y8355D02*
Y8791D01*
X3297Y8332D02*
X3320Y8355D01*
X3523Y8360D02*
Y8791D01*
Y8360D02*
X3551Y8332D01*
X6010Y5289D02*
X6387D01*
X5845Y4420D02*
X6045D01*
X6175Y4290D01*
X6395D01*
X6517Y3793D02*
X6759Y3551D01*
X6290Y3793D02*
X6517D01*
X6433Y3348D02*
X6759D01*
X6237Y3544D02*
X6433Y3348D01*
X5845Y4054D02*
Y4216D01*
Y4054D02*
X6106Y3793D01*
X6290D01*
X6746Y6099D02*
X6812D01*
X6942Y5969D01*
Y5738D02*
Y5969D01*
X6493Y5289D02*
X6942Y5738D01*
X6387Y5289D02*
X6493D01*
X2794Y714D02*
Y1247D01*
X2807Y1259D01*
X2591Y714D02*
Y1221D01*
X2553Y1259D02*
X2591Y1221D01*
X1097Y965D02*
Y1133D01*
X1324Y1360D01*
X1504Y1168D02*
Y1180D01*
X1097Y559D02*
X1234Y422D01*
X1097Y559D02*
Y762D01*
X1542Y500D02*
X1863Y821D01*
X241Y1881D02*
Y2118D01*
Y1881D02*
X264Y1858D01*
X677Y1096D02*
X803Y970D01*
X264Y1096D02*
X677D01*
X945Y767D02*
Y1595D01*
X915Y1624D02*
X945Y1595D01*
X803Y767D02*
X945D01*
X1092D01*
X3045Y4420D02*
X3119Y4346D01*
X3080Y4180D02*
X3119Y4219D01*
Y4346D01*
X3105Y4546D02*
X3238Y4412D01*
X3125Y4050D02*
X3238Y4163D01*
Y4412D01*
X1422Y9215D02*
Y9246D01*
Y9215D02*
X1859Y8778D01*
X749Y8275D02*
Y8479D01*
X264Y8234D02*
X603D01*
X663Y8174D01*
X942D01*
X1085Y8031D01*
X1387Y7127D02*
X1509Y7005D01*
Y5174D02*
Y7005D01*
Y5174D02*
X1529Y5154D01*
X2794Y714D02*
X2901Y820D01*
X3028D01*
X3315Y904D02*
Y1259D01*
X3231Y820D02*
X3315Y904D01*
X3061Y1016D02*
Y1259D01*
Y1016D02*
X3129Y947D01*
Y721D02*
Y947D01*
Y721D02*
X3190Y660D01*
X3612D01*
X3909Y958D01*
Y1778D01*
X3518Y2169D02*
X3909Y1778D01*
X1683Y1001D02*
X1710D01*
X2002Y1293D01*
X2007D01*
X264Y1350D02*
X710D01*
X2798Y5069D02*
X2933D01*
X2768Y4558D02*
X2933D01*
X2692Y5134D02*
X2933D01*
X2413Y3851D02*
X2703D01*
X2705Y3853D01*
X2819Y3967D01*
Y4180D01*
X2870Y4231D01*
X2931D01*
X2933Y4233D01*
X2738Y5009D02*
X2798Y5069D01*
X2674Y5199D02*
X2933D01*
X2932Y5263D02*
X2933Y5264D01*
X2504Y5263D02*
X2932D01*
X2153Y4595D02*
X2692Y5134D01*
X2210Y4735D02*
X2674Y5199D01*
X2718Y4428D02*
X2933D01*
X2624Y4333D02*
X2718Y4428D01*
X2692Y4493D02*
X2933D01*
X2662Y4463D02*
X2692Y4493D01*
X3998Y6634D02*
X4027Y6605D01*
X2629Y6634D02*
X3998D01*
X2601Y6662D02*
X2629Y6634D01*
X3419Y6469D02*
X3868D01*
X3348Y6540D02*
X3419Y6469D01*
X2436Y6540D02*
X3348D01*
X2337Y6640D02*
X2436Y6540D01*
X2337Y6640D02*
Y6716D01*
X2634Y7013D01*
X1295Y5751D02*
Y6561D01*
Y5751D02*
X1341Y5705D01*
Y5700D02*
Y5705D01*
X2634Y7013D02*
Y7051D01*
X5969Y5248D02*
X6010Y5289D01*
X5969Y5044D02*
X6436D01*
X6440Y5040D01*
X5906Y5537D02*
X6335D01*
X5751Y5382D02*
X5906Y5537D01*
X5751Y4999D02*
Y5382D01*
Y4999D02*
X5906Y4844D01*
X6688D01*
X6570Y4359D02*
X6727D01*
X6525Y4404D02*
X6570Y4359D01*
X6378Y4404D02*
X6525D01*
X6325Y4458D02*
X6378Y4404D01*
X6175Y4458D02*
X6325D01*
X6071Y4562D02*
X6175Y4458D01*
X5695Y4562D02*
X6071D01*
X6246Y4041D02*
X6342D01*
X5972Y4315D02*
X6246Y4041D01*
X5641Y4315D02*
X5972D01*
X4874Y3548D02*
X5641Y4315D01*
X4823Y3691D02*
X5695Y4562D01*
X2499Y419D02*
X2794Y714D01*
X2497Y419D02*
X2499D01*
X810Y1519D02*
X915Y1624D01*
X264Y1604D02*
X349Y1519D01*
X445Y2075D02*
Y2118D01*
Y2075D02*
X597Y1923D01*
Y1521D02*
Y1923D01*
Y1521D02*
X599Y1519D01*
X349D02*
X599D01*
X810D01*
X955Y8659D02*
X988D01*
X864Y8750D02*
X955Y8659D01*
X864Y8750D02*
Y9009D01*
X1100Y9246D01*
X1422D01*
X726Y8659D02*
X955D01*
X1422Y9246D02*
Y9352D01*
X1516Y9446D01*
X1976D01*
X2581Y8842D01*
Y8915D01*
X2695Y9030D01*
X2926D01*
X3165Y8791D01*
X3320D01*
X743Y7657D02*
X781D01*
X942Y7496D01*
X1255Y7808D01*
X1318D01*
X1369Y7859D01*
Y7968D01*
X1062Y8275D02*
X1369Y7968D01*
X749Y8275D02*
X1062D01*
X3297Y7922D02*
Y8332D01*
Y7922D02*
X3632Y7587D01*
X5707D01*
X6007Y7287D01*
X6424D01*
X6282Y5786D02*
X6312Y5817D01*
X6668D01*
X6746Y5895D01*
Y6099D02*
Y6965D01*
X6424Y7287D02*
X6746Y6965D01*
X6727Y4359D02*
X6767Y4399D01*
Y4765D01*
X6688Y4844D02*
X6767Y4765D01*
X6942Y3734D02*
Y5738D01*
X6759Y3551D02*
X6942Y3734D01*
X1976Y3724D02*
Y4087D01*
Y3724D02*
X2032Y3668D01*
X1605Y3477D02*
X1862Y3221D01*
X1892D01*
X2413Y3680D02*
Y3851D01*
X2294Y3561D02*
X2413Y3680D01*
X2294Y3162D02*
Y3561D01*
X2184Y3053D02*
X2294Y3162D01*
X2184Y3005D02*
Y3053D01*
X2748Y3401D02*
X2969D01*
X2667Y3320D02*
X2748Y3401D01*
X2667Y3139D02*
Y3320D01*
X2461Y2934D02*
X2667Y3139D01*
X2256Y2934D02*
X2461D01*
X2184Y3005D02*
X2256Y2934D01*
X3571Y4110D02*
X3581Y4100D01*
X3609Y4072D01*
X2969Y3401D02*
X2995D01*
X3236Y3642D01*
X3876Y3548D02*
X4874D01*
X3693Y3719D02*
X3767Y3792D01*
X3693Y3536D02*
Y3719D01*
X4049Y2548D02*
X4260Y2337D01*
X4049Y2548D02*
Y3180D01*
X3693Y3536D02*
X4049Y3180D01*
X3564Y4082D02*
X3581Y4100D01*
X3833Y3691D02*
X4823D01*
X2464Y6162D02*
X2637D01*
X2731Y6068D01*
X2464Y5999D02*
Y6162D01*
X2446Y5982D02*
X2464Y5999D01*
X2281Y5817D02*
X2446Y5982D01*
X2281Y5715D02*
Y5817D01*
Y5715D02*
X2443Y5552D01*
X2713D01*
X2715Y5555D01*
X2731Y6068D02*
X3241D01*
X3556Y5753D01*
Y5715D02*
Y5753D01*
X2032Y6274D02*
Y6558D01*
X2040Y6566D01*
X3565Y2846D02*
X3679D01*
X3500Y2781D02*
X3565Y2846D01*
X3500Y2558D02*
Y2781D01*
X3386Y2443D02*
X3500Y2558D01*
X3170Y2443D02*
X3386D01*
X3053Y2327D02*
X3170Y2443D01*
X2794Y1272D02*
Y1679D01*
Y1272D02*
X2807Y1259D01*
X1171Y688D02*
X1341D01*
X1092Y767D02*
X1097Y762D01*
X1171Y688D01*
X1097Y762D02*
X1504Y1168D01*
X1829Y4595D02*
X2153D01*
X1821Y4602D02*
X1829Y4595D01*
X1740Y4735D02*
X2210D01*
X1595Y4590D02*
X1740Y4735D01*
X2040Y4798D02*
X2504Y5263D01*
X1554Y4798D02*
X2040D01*
X1415Y4658D02*
X1554Y4798D01*
X1415Y3774D02*
Y4658D01*
Y3774D02*
X1605Y3584D01*
Y3477D02*
Y3584D01*
X998Y5697D02*
Y5720D01*
Y5697D02*
X1384Y5311D01*
Y5121D02*
Y5311D01*
Y5121D02*
X1473Y5032D01*
X1687D01*
X1991Y5337D01*
Y5441D01*
X1958Y5474D02*
X1991Y5441D01*
X1958Y5474D02*
Y6200D01*
X2032Y6274D01*
D27*
X2413Y3081D02*
Y3472D01*
X2570Y3630D01*
X2667D01*
X2847Y4649D02*
X3146D01*
X2880Y4966D02*
X3127D01*
X2733Y4818D02*
X2880Y4966D01*
X2733Y4762D02*
Y4818D01*
Y4762D02*
X2847Y4649D01*
X3688Y2621D02*
Y2703D01*
X1488Y7882D02*
X1537Y7930D01*
X1488Y7531D02*
Y7882D01*
X1374Y7417D02*
X1488Y7531D01*
X3706Y4975D02*
X4006D01*
X4072Y4910D01*
X3721Y3947D02*
X4264D01*
X4496Y4178D02*
Y4272D01*
X4264Y3947D02*
X4496Y4178D01*
X2179Y3292D02*
Y4054D01*
X1891Y3004D02*
X2179Y3292D01*
X1227Y3668D02*
X1891Y3004D01*
X1227Y3668D02*
Y4788D01*
X1204Y2634D02*
X2052Y1786D01*
X1151Y2634D02*
X1204D01*
X701Y2184D02*
X1151Y2634D01*
X312Y3538D02*
Y5593D01*
X2052Y1786D02*
X2301D01*
X312Y3538D02*
X1184Y2667D01*
X312Y5593D02*
X734Y6015D01*
Y7015D01*
X3703Y5624D02*
Y5654D01*
Y4939D02*
Y4978D01*
X3706Y4975D01*
X4072Y4910D02*
X4386D01*
X4468Y4992D01*
Y5250D01*
X4353Y5365D02*
X4468Y5250D01*
X4251Y5365D02*
X4353D01*
X3701Y5347D02*
X3706Y5352D01*
X3703Y4584D02*
X3704Y4585D01*
X3701Y4277D02*
X3706Y4272D01*
X3701Y4331D02*
X3708Y4323D01*
X3706Y4272D02*
X3708D01*
X3703Y3908D02*
X3721Y3926D01*
Y3947D01*
X4323Y4445D02*
X4496Y4272D01*
X4269Y4445D02*
X4323D01*
X2916Y4331D02*
X2921Y4326D01*
X3146Y4649D02*
X3345Y4450D01*
X3161Y3908D02*
X3345Y4092D01*
Y4450D01*
X2715Y5352D02*
X2719Y5355D01*
X2893D01*
X2905Y5367D01*
X2446Y5352D02*
X2715D01*
X2865Y5758D02*
X2918Y5705D01*
X2731Y5758D02*
X2865D01*
X2466D02*
X2731D01*
X2446Y5778D02*
X2466Y5758D01*
X3129Y5705D02*
X3358Y5476D01*
Y5197D02*
Y5476D01*
X3127Y4966D02*
X3358Y5197D01*
X2918Y5705D02*
X3129D01*
X4067Y5888D02*
X4336D01*
X3914Y6040D02*
X4067Y5888D01*
X3536Y6040D02*
X3914D01*
X3190Y6386D02*
X3536Y6040D01*
X2383Y6386D02*
X3190D01*
X2078Y6081D02*
X2383Y6386D01*
X6229Y6760D02*
X6436Y6967D01*
X6279Y4707D02*
X6448Y4538D01*
X5786Y4707D02*
X6279D01*
X5591Y4902D02*
X5786Y4707D01*
X5591Y4902D02*
Y6121D01*
X5928Y6459D01*
X6229D01*
Y6034D02*
Y6459D01*
Y6760D01*
X5577Y7412D02*
X6229Y6760D01*
X264Y7697D02*
Y7726D01*
Y7697D02*
X734Y7226D01*
X3569Y1259D02*
Y1582D01*
X2301Y901D02*
Y1786D01*
X2042Y642D02*
X2301Y901D01*
X2042Y432D02*
Y642D01*
X1725Y114D02*
X2042Y432D01*
X876Y114D02*
X1725D01*
X264Y727D02*
X876Y114D01*
X264Y727D02*
Y842D01*
X734Y7015D02*
Y7226D01*
X1349Y7412D02*
X5577D01*
X1320Y8240D02*
X1537Y8023D01*
Y7930D02*
Y8023D01*
X2535Y8161D02*
Y8332D01*
X2304Y7930D02*
X2535Y8161D01*
X1537Y7930D02*
X2304D01*
X701Y1831D02*
Y2184D01*
Y1831D02*
X732Y1801D01*
X734Y7015D02*
X952D01*
X1349Y7412D01*
X2933Y3640D02*
Y3908D01*
X2678Y3640D02*
X2933D01*
X2667Y3630D02*
X2678Y3640D01*
X2933Y3908D02*
X3161D01*
X2909Y4324D02*
X2916Y4331D01*
X2416Y4056D02*
X2705D01*
X2413Y4054D02*
X2416Y4056D01*
X2705D02*
Y4265D01*
X2764Y4324D01*
X2909D01*
X2202Y5349D02*
X2443D01*
X2080Y5471D02*
Y5585D01*
X2078D02*
Y6081D01*
X2080Y5471D02*
X2177Y5375D01*
X1732Y4930D02*
X2177Y5375D01*
X1369Y4930D02*
X1732D01*
X1227Y4788D02*
X1369Y4930D01*
X3515Y3292D02*
Y3531D01*
X3881Y3165D01*
Y2931D02*
Y3165D01*
X3806Y2856D02*
X3881Y2931D01*
X3515Y3531D02*
X3564Y3579D01*
Y4082D01*
X2179Y4054D02*
X2413D01*
X2301Y1786D02*
X2405Y1890D01*
X3261D01*
X3569Y1582D01*
X4106Y5114D02*
X4139Y5081D01*
X3948Y5097D02*
X4057D01*
X4073Y5081D01*
X4139D02*
X4235D01*
X4251D01*
X4122Y5182D02*
X4145Y5159D01*
X3996Y5182D02*
X4122D01*
X3815Y5230D02*
X3948Y5097D01*
X3706Y5230D02*
X3815D01*
X3706Y5291D02*
X3886D01*
X3996Y5182D01*
X3701Y5291D02*
X3706D01*
Y5230D02*
Y5291D01*
Y5352D01*
X3701Y5291D02*
Y5347D01*
X3934Y5415D02*
X4046Y5304D01*
X4173D01*
X4127Y5365D02*
X4251D01*
X3998Y5494D02*
X4127Y5365D01*
X3934Y5415D02*
Y5494D01*
X3957Y5595D02*
X4021D01*
X3912Y5550D02*
X3957Y5595D01*
X3703Y5624D02*
X3912D01*
X4021Y5595D02*
X4251Y5365D01*
X3703Y4584D02*
Y4623D01*
X3708Y4272D02*
X3762D01*
X3708Y4199D02*
Y4272D01*
X3701Y4277D02*
Y4331D01*
X3708Y4298D02*
Y4323D01*
X3704Y4585D02*
X3858D01*
D28*
X884Y7799D02*
Y7813D01*
X692Y7915D02*
X782D01*
X884Y7813D01*
X264Y7726D02*
X503D01*
X692Y7915D01*
X3672Y4072D02*
X3684Y4083D01*
X3571Y4110D02*
Y4420D01*
X3609Y4072D02*
X3672D01*
X4859Y5695D02*
X5171Y5382D01*
X4176Y5695D02*
X4859D01*
X4120Y5751D02*
X4176Y5695D01*
X3922Y5751D02*
X4120D01*
X3843Y5829D02*
X3922Y5751D01*
X3670Y5829D02*
X3843D01*
X3556Y5715D02*
X3670Y5829D01*
X3556Y5177D02*
X3632Y5100D01*
X3665D01*
X3556Y5494D02*
X3650D01*
X3658Y5486D01*
X3556Y5177D02*
Y5494D01*
Y4435D02*
Y5177D01*
X3689Y2856D02*
X3806D01*
X3679Y2846D02*
X3689Y2856D01*
X3556Y4435D02*
X3571Y4420D01*
X3556Y4435D02*
X3561Y4440D01*
X3665D01*
X3688Y4463D01*
X3556Y5494D02*
Y5679D01*
Y5715D01*
D29*
X2858Y2654D02*
X3250Y3046D01*
X1887Y2654D02*
X2858D01*
X1887Y2626D02*
Y2654D01*
X3019Y3146D02*
X3679D01*
X3250Y3046D02*
X3679D01*
X3320Y2946D02*
X3679D01*
X3005Y2631D02*
X3320Y2946D01*
X3675Y3043D02*
X3679Y3046D01*
X3005Y2494D02*
Y2631D01*
X2779Y2268D02*
X3005Y2494D01*
X2764Y2891D02*
X3019Y3146D01*
X3043Y8059D02*
Y8332D01*
X2642Y7658D02*
X3043Y8059D01*
X1811Y7658D02*
X2642D01*
X1679Y8599D02*
X1842Y8436D01*
Y8164D02*
Y8436D01*
X1862Y5390D02*
Y7140D01*
X1842Y5370D02*
X1862Y5390D01*
X1676Y5425D02*
Y7112D01*
D31*
X3688Y2621D02*
X4176Y2134D01*
X4333D01*
D33*
X998Y5974D02*
D03*
D34*
Y5720D02*
D03*
Y5466D02*
D03*
D35*
X351Y6701D02*
D03*
Y2901D02*
D03*
X4351Y6952D02*
D03*
Y6350D02*
D03*
Y3251D02*
D03*
Y2652D02*
D03*
D36*
X5171Y5382D02*
D03*
X3515Y3292D02*
D03*
X1003Y1882D02*
D03*
X2893Y4775D02*
D03*
X2916Y5946D02*
D03*
X2741Y4585D02*
D03*
X1278Y7894D02*
D03*
X3868Y4762D02*
D03*
X3272Y4796D02*
D03*
X1811Y7658D02*
D03*
X2738Y5009D02*
D03*
X2497Y419D02*
D03*
X6424Y7287D02*
D03*
X1605Y3477D02*
D03*
X1892Y3221D02*
D03*
X2184Y3005D02*
D03*
X3236Y3642D02*
D03*
X2301Y4056D02*
D03*
X2464Y6162D02*
D03*
X2032Y6274D02*
D03*
X2040Y6566D02*
D03*
X3053Y2327D02*
D03*
X2794Y1679D02*
D03*
X1341Y688D02*
D03*
X3556Y5679D02*
D03*
D37*
X5522Y6977D02*
D03*
X2413Y3081D02*
D03*
X4333Y2134D02*
D03*
D38*
X2032Y3668D02*
D03*
X3833Y3691D02*
D03*
X1887Y2654D02*
D03*
Y3010D02*
D03*
X620Y4905D02*
D03*
X765Y5156D02*
D03*
X312Y7231D02*
D03*
X373Y6114D02*
D03*
X2779Y2268D02*
D03*
X2764Y2891D02*
D03*
X4336Y5888D02*
D03*
X6436Y6967D02*
D03*
X2080Y5585D02*
D03*
X1842Y8164D02*
D03*
X1862Y7140D02*
D03*
X1676Y7112D02*
D03*
X1085Y8031D02*
D03*
X1387Y7127D02*
D03*
X1529Y5154D02*
D03*
X3518Y2169D02*
D03*
X2007Y1293D02*
D03*
X710Y1350D02*
D03*
X1595Y4590D02*
D03*
X1760Y3589D02*
D03*
X1821Y4602D02*
D03*
X4036Y6614D02*
D03*
X2601Y6662D02*
D03*
X3868Y6469D02*
D03*
X2634Y7051D02*
D03*
X1295Y6561D02*
D03*
X1341Y5700D02*
D03*
X3876Y3523D02*
D03*
X1842Y5370D02*
D03*
X1648Y5425D02*
D03*
D39*
X2667Y3320D02*
D03*
Y3630D02*
D03*
X2731Y6068D02*
D03*
Y5758D02*
D03*
D40*
X2933Y4428D02*
D03*
Y4623D02*
D03*
Y4493D02*
D03*
Y4558D02*
D03*
X3703Y4623D02*
D03*
X2933Y4103D02*
D03*
Y4038D02*
D03*
Y3973D02*
D03*
X3703Y3908D02*
D03*
Y3973D02*
D03*
Y4038D02*
D03*
Y4103D02*
D03*
Y4168D02*
D03*
Y4233D02*
D03*
Y4298D02*
D03*
Y4363D02*
D03*
Y4493D02*
D03*
Y4558D02*
D03*
X2933Y4168D02*
D03*
Y4363D02*
D03*
Y4233D02*
D03*
X3703Y4428D02*
D03*
X2933Y3908D02*
D03*
Y4298D02*
D03*
Y5459D02*
D03*
Y5654D02*
D03*
Y5524D02*
D03*
Y5589D02*
D03*
X3703Y5654D02*
D03*
X2933Y5134D02*
D03*
Y5069D02*
D03*
Y5004D02*
D03*
X3703Y4939D02*
D03*
Y5004D02*
D03*
Y5069D02*
D03*
Y5134D02*
D03*
Y5199D02*
D03*
Y5264D02*
D03*
Y5329D02*
D03*
Y5394D02*
D03*
Y5524D02*
D03*
Y5589D02*
D03*
X2933Y5199D02*
D03*
Y5394D02*
D03*
Y5264D02*
D03*
X3703Y5459D02*
D03*
X2933Y4939D02*
D03*
Y5329D02*
D03*
D41*
X264Y842D02*
D03*
Y1096D02*
D03*
Y1350D02*
D03*
Y1604D02*
D03*
Y1858D02*
D03*
Y7726D02*
D03*
Y7980D02*
D03*
Y8234D02*
D03*
Y8488D02*
D03*
Y8742D02*
D03*
D42*
X2042Y642D02*
D03*
X1863Y821D02*
D03*
X1683Y1001D02*
D03*
X1504Y1180D02*
D03*
X1324Y1360D02*
D03*
D43*
X2535Y8332D02*
D03*
X2789D02*
D03*
X3043D02*
D03*
X3297D02*
D03*
X3551D02*
D03*
X3569Y1259D02*
D03*
X3315D02*
D03*
X3061D02*
D03*
X2807D02*
D03*
X2553D02*
D03*
D44*
X6229Y6034D02*
D03*
X6282Y5786D02*
D03*
X6335Y5537D02*
D03*
X6387Y5289D02*
D03*
X6440Y5040D02*
D03*
D45*
X6448Y4538D02*
D03*
X6395Y4290D02*
D03*
X6342Y4041D02*
D03*
X6290Y3793D02*
D03*
X6237Y3544D02*
D03*
D46*
X1320Y8240D02*
D03*
X1499Y8419D02*
D03*
X1679Y8599D02*
D03*
X1859Y8778D02*
D03*
X2038Y8958D02*
D03*
D47*
X1281Y1806D02*
D03*
X956Y2132D02*
D03*
D48*
X774Y1766D02*
D03*
X845Y1695D02*
D03*
X915Y1624D02*
D03*
D49*
X925Y7291D02*
D03*
X1250Y7617D02*
D03*
D50*
X884Y7799D02*
D03*
X814Y7728D02*
D03*
X743Y7657D02*
D03*
D51*
X4638Y4935D02*
D03*
Y5495D02*
D03*
X4636Y4059D02*
D03*
Y4619D02*
D03*
X3292Y2616D02*
D03*
X3294Y3271D02*
D03*
D52*
X4251Y5365D02*
D03*
Y5265D02*
D03*
Y5165D02*
D03*
Y5065D02*
D03*
X4248Y4489D02*
D03*
Y4389D02*
D03*
Y4289D02*
D03*
Y4189D02*
D03*
X3679Y3046D02*
D03*
Y2946D02*
D03*
Y2846D02*
D03*
Y2746D02*
D03*
Y3146D02*
D03*
D53*
X3995Y4489D02*
X4248D01*
X3838Y4272D02*
X3922Y4189D01*
X4143D01*
X4171Y4216D01*
X3762Y4272D02*
X3838D01*
X3934Y4549D02*
X3995Y4489D01*
X3858Y4585D02*
X3894Y4549D01*
X3934D01*
M02*
